<svg width="128" height="169" viewBox="0 0 128 169" fill="none" xmlns="http://www.w3.org/2000/svg">
<path d="M11.7811 141.696C12.9762 146.199 14.4831 151.171 17.4969 154.808C19.8084 157.404 22.5727 159.558 25.6549 161.165C31.1277 163.919 36.8525 166.14 42.7504 167.798C45.8521 168.482 49.0556 168.571 52.1902 168.058C56.4164 167.66 60.5907 166.95 64.8343 166.88C82.6725 166.551 100.253 162.56 116.485 155.154C118.146 154.421 119.749 153.564 121.282 152.591C122.034 152.109 122.751 151.577 123.43 150.997C124.652 149.99 125.656 148.744 126.379 147.335C127.103 145.926 127.532 144.385 127.639 142.805C127.792 141.391 127.746 139.962 127.5 138.561C127.5 138.561 127.5 138.474 127.5 138.44C126.531 132.949 124.989 127.216 123.673 121.76C122.622 117.487 121.404 113.25 120.018 109.047C118.424 104.231 116.554 99.4682 114.562 94.8089C112.83 90.7039 109.885 86.6682 109.123 82.1994C108.361 77.7307 107.859 73.7989 106.802 69.5553C105.789 65.5077 104.397 61.5643 102.645 57.7772C101.025 54.397 99.1732 51.133 97.1027 48.0084C96.7929 47.5276 96.5096 47.0303 96.254 46.5187C96.0146 46.064 95.6845 45.6631 95.284 45.3409C93.5651 44.2149 91.6302 43.4598 89.6029 43.1239C87.8708 42.6389 86.1387 42.1712 84.4067 41.8075C72.6619 39.1749 60.4965 39.0274 48.6914 41.3745C47.5483 41.5997 46.3878 41.8595 45.2273 42.1366C37.161 43.9604 29.2898 46.5591 21.7232 49.8963C19.8872 50.745 18.0858 51.6283 16.3364 52.6156C15.279 53.1172 14.2601 53.6961 13.288 54.3477C12.7376 54.8794 12.2809 55.5001 11.937 56.1837C10.2443 58.8346 9.0416 61.768 8.38623 64.8441C6.48096 73.0195 8.49017 81.039 9.3562 89.249C10.1876 97.0433 12.0409 105.167 11.3308 113.048C10.4474 122.591 9.25228 132.239 11.7811 141.696Z" fill="url(#paint0_linear_1393:1638)"/>
<g style="mix-blend-mode:screen">
<path d="M22.3796 73.6429C23.5344 77.2319 25.1843 80.6423 27.2813 83.7756C27.2813 83.6543 27.4545 83.0134 27.4892 82.8749C27.5238 82.7363 27.645 82.1994 27.697 81.8703C27.8529 81.2294 27.9915 80.5886 28.13 79.9477C28.4418 78.6487 28.7189 77.3496 29.0307 76.0505C29.6023 73.5044 30.1219 70.8543 30.7628 68.3948C30.7628 68.1176 30.884 67.8578 30.936 67.5807C31.1785 66.0218 31.2131 64.1165 32.4256 62.8868C33.2378 62.2828 34.1151 61.7716 35.041 61.3625C35.6126 61.0161 36.1149 60.5831 36.773 60.254C37.6789 59.7825 38.6308 59.4053 39.6136 59.1282L43.0778 57.9677C45.3641 57.2229 47.6678 56.5301 50.006 55.8546C54.5672 54.5266 59.186 53.3373 63.8626 52.2865C68.4872 51.2299 73.1291 50.3119 77.823 49.5324C80.1613 49.1341 82.4996 48.7877 84.8552 48.4586C86.0157 48.3027 87.2108 48.2161 88.3194 48.0083C88.6658 48.0083 88.9776 47.7831 89.324 47.7138C89.8048 47.673 90.2891 47.7021 90.7616 47.8004C91.8729 47.9172 92.9502 48.2527 93.9313 48.7877C96.3987 50.4859 98.2803 52.906 99.318 55.716C101.639 60.591 103.652 65.6065 105.346 70.7331C105.346 70.7331 105.571 71.4605 105.605 71.5298C106.072 72.676 106.369 73.8837 106.489 75.1152C106.419 75.9452 106.419 76.7795 106.489 77.6094C106.939 80.398 107.528 83.1867 108.048 85.9753C103.07 88.8445 97.5481 90.6438 91.8355 91.2581L107.164 90.6346C108.276 90.5159 109.4 90.646 110.455 91.0156C111.038 91.282 111.522 91.7242 111.841 92.2801C111.981 92.5486 112.064 92.8436 112.083 93.1461C112.092 93.3076 112.092 93.4695 112.083 93.6311C112.176 94.0051 112.316 94.3659 112.499 94.705C118.665 110.034 124.883 125.519 127.585 141.817C127.585 140.726 127.707 139.6 127.759 138.492C126.789 133.001 125.247 127.268 123.931 121.812C122.88 117.539 121.662 113.302 120.276 109.098C118.683 104.283 116.812 99.5201 114.82 94.8608C113.088 90.7558 110.143 86.7201 109.381 82.2513C108.619 77.7826 108.117 73.8508 107.06 69.6072C106.047 65.5596 104.655 61.6162 102.903 57.8291C101.283 54.4489 99.4313 51.1849 97.3608 48.0602C97.051 47.5795 96.7677 47.0822 96.5121 46.5706C96.2727 46.1158 95.9426 45.715 95.5421 45.3928C93.8232 44.2668 91.8882 43.5117 89.8609 43.1758C88.1288 42.6908 86.3968 42.2231 84.6647 41.8594C66.5819 42.9333 48.8802 48.7877 32.3909 56.53C29.1693 58.0543 25.8264 59.769 23.8865 62.7482C22.8913 64.3595 22.2433 66.1607 21.9839 68.0366C21.7244 69.9126 21.8592 71.822 22.3796 73.6429Z" fill="#24753B"/>
</g>
<path d="M11.7803 141.696C12.9754 146.2 14.4823 151.171 17.4961 154.808C19.8076 157.404 22.5719 159.558 25.6542 161.165C31.1269 163.919 36.8517 166.14 42.7497 167.798C45.8514 168.482 49.0548 168.571 52.1894 168.058C56.4157 167.66 60.5899 166.95 64.8335 166.881C82.6717 166.551 100.252 162.56 116.484 155.154C118.145 154.421 119.749 153.564 121.282 152.591C120 153.093 118.718 153.544 117.436 153.959C99.0245 160.125 81.5133 163.295 62.3393 166.413C59.0655 167.155 55.6818 167.278 52.3626 166.777C49.5913 166.153 46.3177 164.3 45.6076 161.355C44.0141 154.773 44.1353 147.499 43.2173 140.778C42.2798 135.206 41.0132 129.694 39.4241 124.272C38.8221 122.08 38.0101 119.951 36.9992 117.915C36.7885 117.431 36.6317 116.926 36.5315 116.408C36.289 115.455 35.9773 114.503 35.7002 113.533L50.0243 110.883C46.9285 111.194 43.8068 111.142 40.7231 110.727C37.0858 110.502 32.7037 109.566 29.1183 110.276C30.1575 108.406 33.154 107.384 33.7776 105.392C33.8894 104.978 33.8894 104.542 33.7776 104.128C33.7776 102.274 32.9635 100.334 32.773 98.4464C32.3816 93.9196 31.7572 89.416 30.9023 84.9535C29.8806 80.5811 29.2201 76.132 28.9278 71.6512C28.6779 68.3691 29.4331 65.0887 31.0928 62.2461C32.2885 60.3629 34.0817 58.9356 36.1851 58.193C37.1551 57.8639 38.2116 57.8986 39.147 57.4829C40.1599 57.0385 41.2015 56.6623 42.2647 56.357C47.5648 54.7635 52.9053 53.3259 58.2863 52.0442C63.6672 50.7624 69.0886 49.6366 74.5504 48.6666C80.0122 47.6966 85.4855 46.8826 90.9704 46.2244L95.2659 45.7567C95.2742 45.6183 95.2742 45.4795 95.2659 45.3411C93.547 44.215 91.612 43.4599 89.5847 43.124C76.2699 39.287 62.23 38.6931 48.6387 41.3919C47.4955 41.6171 46.335 41.8769 45.1746 42.1541C37.1083 43.9779 29.237 46.5764 21.6704 49.9137C19.8344 50.7624 18.0331 51.6458 16.2837 52.6331C15.2263 53.1346 14.2074 53.7136 13.2352 54.3651C12.6849 54.8968 12.2282 55.5175 11.8842 56.2011C10.1916 58.852 8.98886 61.7853 8.3335 64.8615C6.42823 73.0369 8.43743 81.0564 9.30346 89.2664C10.1349 97.0607 11.9882 105.184 11.278 113.065C10.4466 122.591 9.2515 132.239 11.7803 141.696Z" fill="#196773"/>
<path d="M7.24163 41.9635C8.62728 45.878 9.59723 52.8929 13.4251 54.6769C13.8388 54.8784 14.2841 55.0073 14.7415 55.058C24.3025 56.3051 28.5114 55.8028 38.9904 52.252C40.3978 51.8389 41.7142 51.163 42.8702 50.2602C43.4477 49.8422 43.9096 49.2845 44.2126 48.6392C44.5156 47.9939 44.6497 47.2822 44.6023 46.5709C45.342 47.5692 46.2981 48.3871 47.3991 48.963C48.5 49.539 49.7171 49.8581 50.959 49.8965C56.0339 50.2082 61.7671 48.632 66.7901 47.8353C68.1804 47.6278 69.5232 47.1763 70.7565 46.5016C71.1029 46.3284 74.0128 44.0594 74.0128 43.9901C78.7275 46.102 84.029 46.5121 89.0125 45.1505C90.5285 44.7349 91.908 43.9267 93.0119 42.8076C94.1158 41.6885 94.905 40.2981 95.2999 38.7765C95.9126 36.7103 96.1703 34.555 96.062 32.4025C96.046 31.4352 95.9766 30.4696 95.8541 29.51C97.0839 29.2675 98.0192 29.2328 99.3183 29.0077C98.5305 21.8313 96.3664 14.8741 92.9443 8.51725C91.5765 5.67448 89.3538 3.3307 86.5876 1.81414C84.8771 0.78813 82.8979 0.299372 80.9064 0.411168C76.2087 1.01506 71.8952 3.31971 68.7819 6.88912L67.9679 7.8937C66.8027 7.05365 65.588 6.2844 64.3305 5.59007C63.0416 4.90199 61.6974 4.32262 60.3121 3.858C58.2469 3.20759 56.1142 2.79498 53.9555 2.62822C47.72 2.1952 41.4326 3.96192 37.4315 8.81172C37.0333 9.28206 36.6687 9.77979 36.3403 10.3013C36.0712 10.7008 35.8282 11.1174 35.6129 11.5484C35.4549 11.3846 35.2741 11.2446 35.0759 11.1327C34.5217 10.769 33.7076 10.284 33.6037 10.2147C25.6881 5.52078 14.8108 6.59466 6.25435 8.98491C5.57152 9.1847 4.96677 9.58988 4.52228 10.1454C2.25327 12.8301 3.50036 18.9616 3.32715 21.8715C2.59968 28.9557 4.90334 35.4163 7.24163 41.9635Z" fill="url(#paint1_linear_1393:1638)"/>
<path d="M13.4258 54.677C13.8395 54.8785 14.2848 55.0073 14.7422 55.0581C24.3032 56.3051 28.5121 55.8029 38.9911 52.2521C40.3985 51.8389 41.7149 51.1631 42.8709 50.2603C43.4484 49.8423 43.9103 49.2845 44.2133 48.6392C44.5162 47.9939 44.6503 47.2822 44.603 46.5709C45.3427 47.5693 46.2988 48.3871 47.3998 48.9631C48.5007 49.5391 49.7178 49.8582 50.9597 49.8965C56.0346 50.2083 61.7678 48.6321 66.7908 47.8354C68.1811 47.6279 69.5239 47.1764 70.7572 46.5016C71.1036 46.3284 74.0135 44.0595 74.0135 43.9902C78.7282 46.1021 84.0297 46.5122 89.0132 45.1506C90.5292 44.735 91.9087 43.9268 93.0126 42.8077C94.1165 41.6886 94.9057 40.2982 95.3006 38.7766C92.2132 40.7457 88.605 41.7409 84.9448 41.6328C81.2845 41.5247 77.7414 40.3183 74.7756 38.1704C74.1099 39.6022 73.1482 40.8767 71.954 41.9097C70.7597 42.9427 69.3601 43.7108 67.8473 44.1634C64.7801 45.1822 61.585 45.7653 58.3556 45.8955C55.6967 46.314 52.9806 46.1903 50.3708 45.5317C49.0768 45.1792 47.9175 44.4487 47.0412 43.4335C46.1648 42.4184 45.6114 41.1648 45.4517 39.8332C43.1243 44.3025 39.2526 47.774 34.557 49.6021C29.921 51.3357 24.8086 51.2987 20.1982 49.4981C18.8645 51.4381 17.0631 52.1482 15.1232 53.4646C14.5291 53.8275 13.9618 54.2327 13.4258 54.677Z" fill="url(#paint2_linear_1393:1638)"/>
<g style="mix-blend-mode:screen">
<path d="M4.19336 10.1971C5.34519 10.8563 6.58853 11.3408 7.88267 11.6347C11.3468 12.7952 13.8583 15.4453 16.543 17.8356C21.6006 22.4082 27.4377 26.392 34.0888 27.8469C35.2192 28.1401 36.3957 28.2107 37.553 28.0548C38.1144 27.9576 38.6481 27.7401 39.1175 27.4172C39.5868 27.0943 39.9808 26.6737 40.2723 26.1842C40.7579 24.9006 40.7579 23.4839 40.2723 22.2004C40.2723 21.9579 40.1164 21.7154 40.0645 21.4729C39.4822 19.5699 38.7226 17.7258 37.7955 15.9649C36.9121 14.2328 35.7863 12.7952 34.7643 11.1844C34.2101 10.8207 33.396 10.3357 33.2921 10.2664C25.3765 5.57249 14.4992 6.64637 5.94275 9.03663C5.25363 9.2332 4.64242 9.63865 4.19336 10.1971Z" fill="#78280D"/>
</g>
<g style="mix-blend-mode:screen">
<path d="M37.1719 8.86368C37.4944 9.51022 37.8772 10.1249 38.315 10.6997C38.8 11.3579 39.3196 11.9987 39.8566 12.6396C41.4614 14.4674 43.2425 16.1324 45.174 17.6106C46.1341 18.3659 47.1407 19.0601 48.1878 19.6891C48.3863 19.7923 48.5954 19.8736 48.8114 19.9316C49.7736 20.2912 50.716 20.7017 51.6346 21.1614C54.6825 22.4592 57.8199 23.5359 61.0225 24.383C62.9142 25.0693 64.9729 25.148 66.9115 24.6082C67.9818 24.1082 68.9064 23.3429 69.5976 22.3849C70.2888 21.4269 70.7236 20.3081 70.8606 19.1348C71.259 16.7965 70.4622 15.0298 70.0466 12.7089C72.6685 16.181 76.1435 18.9162 80.1343 20.6491C84.1252 22.382 88.4962 23.0537 92.8232 22.599C93.4225 22.6713 94.0304 22.594 94.5925 22.3741C95.1546 22.1542 95.6536 21.7985 96.0447 21.3388C96.4358 20.879 96.707 20.3296 96.834 19.7395C96.9609 19.1493 96.9398 18.537 96.7724 17.957V17.8531C95.7413 14.6227 94.4075 11.4968 92.7886 8.51724C91.4208 5.67448 89.1982 3.3307 86.4319 1.81414C84.7214 0.788129 82.7422 0.299372 80.7507 0.411168C76.053 1.01505 71.7395 3.3197 68.6263 6.88912L67.8122 7.89369C66.647 7.05364 65.4323 6.28439 64.1748 5.59007C62.8859 4.90198 61.5417 4.32262 60.1564 3.858C58.0912 3.20758 55.9585 2.79498 53.7997 2.62821C47.4604 2.24716 41.173 4.01388 37.1719 8.86368Z" fill="#78280D"/>
</g>
<path d="M76.2988 29.1114C83.7471 30.6266 91.4396 30.4609 98.8157 28.6265C95.336 30.3808 91.5081 31.3348 87.6122 31.4187C83.7162 31.5027 79.8508 30.7143 76.2988 29.1114Z" fill="url(#paint3_linear_1393:1638)"/>
<path d="M75.606 29.9774C71.8931 33.535 66.9932 35.5899 61.8534 35.7451C56.7611 35.7902 51.6826 35.2085 46.7324 34.0131C56.3358 35.1043 66.057 33.6405 74.9132 29.7695L75.606 29.9774Z" fill="url(#paint4_linear_1393:1638)"/>
<path d="M23.8878 40.2834C31.1757 40.1267 38.2949 38.0602 44.5341 34.2905C43.7494 36.0311 42.5685 37.564 41.0859 38.767C39.6033 39.9699 37.8599 40.8096 35.995 41.2188C32.235 41.9871 28.3787 42.1682 24.5633 41.7557C23.2643 41.7557 21.7227 41.4266 21.2031 40.2142C22.2077 40.1276 22.9525 40.3008 23.8878 40.2834Z" fill="url(#paint5_linear_1393:1638)"/>
<path d="M67.0156 7.32202C67.1715 7.58183 67.6218 7.77236 67.847 7.94557L68.8516 8.725C69.5444 9.3139 70.2373 9.93745 70.9128 10.5956C75.9877 15.5667 81.028 24.6081 78.3606 32.8181C77.4243 36.035 76.2668 39.1833 74.8965 42.2406C74.4808 43.0893 74.0305 43.9727 73.5628 44.7348C74.0429 43.3269 74.2257 41.8348 74.0998 40.3527C74.221 38.2915 74.4115 36.2476 74.4981 34.1865C74.654 29.4752 74.9138 23.794 73.5455 19.1694C71.9812 14.9125 69.7795 10.9178 67.0156 7.32202Z" fill="#314E5E"/>
<path d="M33.5352 10.4917C33.7257 10.7515 34.228 10.9074 34.5051 11.0806C34.7822 11.2538 35.2672 11.5656 35.631 11.8254C36.4617 12.3624 37.2653 12.9405 38.0385 13.5575C43.9795 18.338 50.163 27.4141 47.9287 36.3515C47.1526 39.8515 46.1222 43.2901 44.8456 46.6401C44.4645 47.5754 44.0488 48.4934 43.5985 49.394C43.9969 47.8676 44.0736 46.275 43.8237 44.7174C43.8237 42.5177 43.8237 40.3526 43.8237 38.1529C43.6158 33.1645 43.4599 27.0849 41.6066 22.3737C39.7533 17.6625 36.4797 14.1464 33.5352 10.4917Z" fill="#314E5E"/>
<path d="M4.53998 40.8894C6.41061 45.7566 9.85742 53.395 14.2742 54.9712C18.206 56.3915 20.7002 53.932 22.1724 50.1907C22.4844 46.9041 22.1968 43.5883 21.3237 40.4045C22.2213 40.5841 23.1455 40.5841 24.0431 40.4045C24.0431 39.4518 24.0431 38.5512 24.0431 37.7198C23.6155 29.9948 21.5177 22.4543 17.8942 15.6185C14.8458 10.2837 10.7927 6.95811 5.99491 9.10588C1.99383 10.9419 0.798702 17.3159 0.902627 22.9625C1.1061 29.0993 2.33555 35.1587 4.53998 40.8894Z" fill="url(#paint6_linear_1393:1638)"/>
<path d="M16.7518 23.2744C17.5879 25.2975 17.9721 27.4788 17.8776 29.6658C17.833 29.2634 17.7217 28.8712 17.5485 28.5053C16.5266 25.249 11.6595 13.0552 6.68844 17.1949C5.97563 17.9504 5.54711 18.9299 5.47599 19.9662C4.21158 28.1935 6.44595 36.5768 9.54636 44.3191C10.3085 46.2071 11.469 48.3722 13.5128 48.5974C14.23 48.6288 14.9423 48.4649 15.5738 48.1232C16.2052 47.7816 16.7321 47.275 17.0982 46.6575C17.8618 45.4322 18.3905 44.0753 18.657 42.6563C18.644 44.3082 18.2963 45.9404 17.6351 47.4542C17.2946 48.2033 16.7428 48.8367 16.0475 49.2767C15.3521 49.7167 14.5434 49.9441 13.7206 49.931C11.798 49.7405 10.5336 47.9045 9.65028 46.2071C6.36847 39.9606 4.32746 33.1376 3.63999 26.115C3.31089 22.7895 3.05108 13.852 8.47247 14.233C12.8373 14.5448 15.4008 19.793 16.7518 23.2744ZM13.4089 28.921C12.7805 27.0358 11.9622 25.2194 10.9667 23.4996C10.8661 23.2586 10.7174 23.0406 10.5298 22.859C10.3422 22.6773 10.1195 22.5358 9.87544 22.443C8.94012 22.2179 8.29926 23.413 8.14337 24.4003C7.5025 28.1589 8.71495 31.9694 9.87544 35.5721C10.6029 37.8065 11.5036 40.2487 13.4955 41.3573C14.1753 40.4877 14.5687 39.4286 14.6213 38.3261C14.6213 38.9843 13.9112 39.019 13.3223 38.7938C12.7477 38.4666 12.3018 37.9534 12.0579 37.3389C10.302 34.2944 9.33731 30.8583 9.25189 27.3448C9.25189 26.704 9.4251 25.9418 9.99669 25.7513C10.2063 25.7031 10.4244 25.7062 10.6325 25.7605C10.8406 25.8148 11.0325 25.9186 11.1918 26.0631C12.1709 26.8026 12.9359 27.7888 13.4089 28.921Z" fill="url(#paint7_linear_1393:1638)"/>
<path d="M12.0402 123.873C12.456 122.529 12.9654 121.215 13.5644 119.941C13.8762 119.301 14.2226 118.66 14.569 118.036C14.6845 117.747 14.8618 117.487 15.0886 117.274C15.4756 117.059 15.9019 116.923 16.3422 116.875C16.7826 116.828 17.228 116.869 17.6521 116.997C17.9214 117.041 18.1766 117.147 18.3969 117.309C18.5831 117.507 18.7512 117.721 18.8992 117.949L20.0423 119.387C22.0054 121.824 24.0665 124.179 26.2258 126.454L23.0908 120.409C24.1474 120.617 25.1693 120.859 26.2085 121.154C27.6992 121.549 29.1678 122.023 30.608 122.574C31.3354 122.834 32.0456 123.128 32.7557 123.423C33.0242 123.551 33.3102 123.639 33.6044 123.683C33.9397 123.736 34.2661 123.835 34.5744 123.977C35.3413 124.283 36.0778 124.659 36.7741 125.103C37.1497 125.313 37.4795 125.595 37.7441 125.934C37.8748 126.108 37.9606 126.311 37.9938 126.525C38.0271 126.74 38.0067 126.959 37.9346 127.164C36.7345 126.822 35.4503 126.94 34.3319 127.493C33.9128 127.84 33.5669 128.267 33.3141 128.748C33.0614 129.23 32.9069 129.757 32.8597 130.299C32.7384 130.992 32.6691 131.685 32.5132 132.36C32.5132 132.707 32.2881 133.018 32.2015 133.348C32.124 133.76 32.0719 134.176 32.0456 134.595L31.8897 135.772L31.6126 138.128C31.6049 138.291 31.537 138.445 31.422 138.561C31.3509 138.592 31.2743 138.607 31.1969 138.607C31.1195 138.607 31.0428 138.592 30.9717 138.561C29.4214 138.421 27.8858 138.148 26.3817 137.747C26.0828 137.676 25.7966 137.559 25.533 137.401C23.4718 136.015 20.4927 135.582 18.2064 134.473C16.0465 133.434 13.983 132.205 12.0402 130.801C10.7411 129.849 10.8797 129.433 11.1222 127.857C11.3283 126.539 11.6234 125.237 12.0055 123.96L12.0402 123.873Z" fill="url(#paint8_linear_1393:1638)"/>
<path d="M38.3338 157.926C37.5023 156.194 36.4111 154.462 35.6317 152.73C33.8103 148.343 32.9424 143.62 33.0855 138.873C33.0855 137.678 33.5878 127.06 36.2726 128.481C36.8519 128.893 37.2491 129.514 37.3811 130.213C38.1541 132.178 38.7342 134.214 39.1132 136.292C40.0304 143.016 39.8901 149.842 38.6975 156.523C38.5416 156.991 38.4377 157.458 38.3338 157.926Z" fill="url(#paint9_linear_1393:1638)"/>
<g style="mix-blend-mode:screen">
<path d="M35.5098 107.834C47.7728 109.982 60.5035 109.74 73.0783 109.48C85.6531 109.22 98.9381 108.787 109.746 103.781L76.8369 106.726C78.1637 106.369 79.4704 105.941 80.7514 105.444C80.9849 105.325 81.2283 105.227 81.4788 105.15L83.5746 104.647C84.9603 104.301 86.3459 103.937 87.7143 103.539C90.4625 102.765 93.176 101.916 95.855 100.993C101.041 99.1852 106.113 97.0683 111.045 94.6533L92.6507 99.0874C86.1034 100.664 79.7814 102.552 73.0436 103.677C64.8856 105.046 56.5024 105.946 48.2578 106.778C44.7936 107.136 41.3699 107.43 37.9866 107.661L35.5098 107.834Z" fill="#24753B"/>
</g>
<path d="M116.986 120.582C111.911 121.743 107.114 123.856 102.177 125.484C99.6196 126.369 96.9879 127.024 94.3136 127.441C94.0888 127.459 93.863 127.459 93.6381 127.441C92.2214 127.31 90.8705 126.782 89.741 125.917C88.5178 124.949 87.0997 124.258 85.584 123.89C85.203 123.89 84.718 123.89 84.5448 124.202C84.4408 124.457 84.4408 124.743 84.5448 124.999L84.6314 125.259C84.6314 125.466 84.77 125.692 84.8219 125.9C85.0124 126.471 85.1856 127.043 85.3589 127.632C85.4844 127.921 85.5435 128.235 85.5321 128.55C85.5321 128.654 85.5321 128.757 85.5321 128.861C85.4888 129.224 85.4888 129.59 85.5321 129.953C85.5321 131.685 85.7572 133.417 85.8612 135.235C86.0707 138.88 86.5162 142.508 87.1948 146.095C87.3854 147.117 87.6105 148.122 87.853 149.127C88.0405 150.221 88.4534 151.265 89.0655 152.192C90.4165 153.924 92.6335 153.682 94.5215 153.284C95.201 153.189 95.8726 153.044 96.5307 152.851L98.5399 152.4C99.8909 152.088 101.242 151.759 102.593 151.413C108.43 149.847 114.108 147.736 119.55 145.108C120.561 144.726 121.44 144.058 122.079 143.186C122.417 142.666 122.588 142.054 122.566 141.434C122.544 140.814 122.332 140.216 121.957 139.721C121.941 140.544 122.106 141.36 122.442 142.112C120.715 143.308 118.869 144.324 116.934 145.143C110.197 148.018 102.974 149.196 95.9764 150.893C94.4522 151.274 92.5123 151.5 91.5597 149.993C91.5512 149.947 91.5512 149.9 91.5597 149.854C91.2366 149.391 90.9963 148.875 90.8495 148.33C90.7109 147.516 90.6243 146.702 90.5204 145.888C90.5204 145.489 89.8969 141.072 89.8276 141.072C95.1137 141.295 100.409 141.075 105.659 140.414C101.155 140.333 96.6693 140.027 92.2005 139.496C91.3764 139.483 90.5842 139.176 89.9662 138.63C89.7352 138.279 89.5831 137.882 89.5204 137.466C89.4576 137.051 89.4856 136.626 89.6024 136.223C89.6024 135.807 89.7756 135.409 89.8276 135.01C89.8795 134.612 89.8276 134.352 89.9315 134.023C89.9836 133.827 90.0654 133.64 90.174 133.469C90.5128 132.694 91.1313 132.075 91.9061 131.737C92.5862 131.599 93.2871 131.599 93.9672 131.737C101.883 132.672 109.798 130.455 117.471 128.272C118.315 128.096 119.104 127.722 119.775 127.181C120.127 126.811 120.394 126.367 120.554 125.882C120.597 125.747 120.597 125.602 120.554 125.467C120.554 125.085 120.554 124.722 120.468 124.358L120.312 122.158C120.307 121.852 120.236 121.551 120.104 121.275C119.844 120.807 119.307 120.669 118.857 120.478C118.566 120.417 118.265 120.417 117.974 120.478L116.986 120.582Z" fill="#196773"/>
<path d="M122.112 143.012C122.112 142.683 122.112 142.354 122.025 142.025C121.91 140.397 121.754 138.769 121.558 137.141C121.477 136.789 121.448 136.427 121.471 136.067C121.545 135.778 121.586 135.482 121.592 135.184C121.572 134.825 121.508 134.47 121.402 134.127C121.298 133.806 121.158 133.499 120.986 133.209C117.224 135.046 113.242 136.396 109.139 137.227C112.876 136.109 116.307 134.147 119.167 131.494C119.909 130.926 120.405 130.096 120.553 129.173C120.552 128.974 120.505 128.779 120.414 128.602C120.228 128.112 120.111 127.599 120.068 127.077C119.56 124.387 118.983 121.72 118.336 119.075C118.336 118.902 119.011 118.815 119.081 118.815C119.354 118.844 119.613 118.953 119.826 119.127C120.259 119.474 120.224 120.409 120.311 120.963C120.553 122.695 120.761 124.531 120.969 126.298C121.35 129.855 121.644 133.417 121.852 136.985C121.973 138.994 122.06 141.003 122.112 143.012Z" fill="url(#paint10_linear_1393:1638)"/>
<path d="M84.2495 124.445C86.6917 124.064 91.0565 128.619 91.8186 131.044C92.0264 131.702 100.375 130.836 103.008 130.559C110.023 129.849 116.691 127.459 121.506 122.124C120.502 118.816 117.124 116.01 114.682 115.975C110.802 118.14 107.009 119.994 103.129 122.159C96.8762 123.059 90.7101 122.055 84.4053 123.198C84.1282 123.873 84.007 123.873 84.2495 124.445Z" fill="url(#paint11_linear_1393:1638)"/>
<g style="mix-blend-mode:screen">
<path d="M104.844 123.717C109.095 123.672 113.24 122.377 116.76 119.993C117.085 119.808 117.354 119.539 117.54 119.214C117.652 118.908 117.662 118.574 117.569 118.261C117.475 117.949 117.283 117.675 117.02 117.482C116.504 117.11 115.913 116.856 115.288 116.737C111.59 118.723 108.093 121.06 104.844 123.717Z" fill="#24753B"/>
</g>
<path d="M109.832 138.024H112.776C112.205 138.977 111.616 139.929 111.044 140.899L106.264 141.783C105.519 137.279 104.792 132.793 104.047 128.29C104.047 128.394 106.697 127.337 106.957 127.285C107.28 127.205 107.62 127.227 107.93 127.348C108.24 127.469 108.505 127.683 108.689 127.961C109.17 128.791 109.477 129.71 109.589 130.663C109.814 131.806 109.953 132.963 110.005 134.127C110.059 135.429 110.001 136.732 109.832 138.024Z" fill="url(#paint12_linear_1393:1638)"/>
<path d="M79.5898 129.693C74.0992 130.784 68.8857 132.897 63.5509 134.508C60.7799 135.371 57.9407 135.997 55.0638 136.379C54.8216 136.396 54.5785 136.396 54.3363 136.379C52.819 136.21 51.3821 135.609 50.1967 134.647C48.9048 133.583 47.4069 132.799 45.7972 132.343C45.3815 132.343 44.8619 132.343 44.654 132.672C44.5502 132.945 44.5502 133.247 44.654 133.521V133.798C44.654 134.023 44.7753 134.248 44.8446 134.491L45.3469 136.344C45.4727 136.657 45.5317 136.994 45.5201 137.331C45.5201 137.435 45.5201 137.556 45.5201 137.66C45.4476 138.049 45.4185 138.444 45.4335 138.838C45.4335 140.726 45.572 142.614 45.6413 144.502C45.7439 148.419 46.1084 152.325 46.7325 156.194C46.9231 157.285 47.1309 158.393 47.3561 159.467C47.5168 160.65 47.9303 161.784 48.5685 162.793C49.9542 164.715 52.3444 164.525 54.3883 164.126C55.12 164.047 55.8441 163.908 56.5533 163.711C57.2808 163.589 58.0083 163.434 58.7184 163.295C60.1907 163.001 61.6456 162.689 63.1006 162.36C69.4028 160.855 75.5498 158.762 81.4604 156.107C82.5608 155.74 83.5261 155.053 84.2318 154.132C84.6081 153.594 84.8099 152.953 84.8099 152.296C84.8099 151.64 84.6081 150.999 84.2318 150.46C84.1964 151.343 84.3499 152.223 84.6821 153.041C82.7959 154.272 80.7876 155.306 78.6891 156.124C71.3625 158.999 63.5855 160.056 56.0337 161.667C54.3883 162.013 52.3791 162.221 51.3225 160.576L51.2186 160.402C50.9031 159.894 50.6693 159.338 50.5258 158.757C50.4045 157.874 50.3352 157.025 50.2313 156.124C50.2313 155.691 49.7117 150.928 49.6424 150.928C55.3033 151.315 60.9864 151.234 66.634 150.686C61.8188 150.46 57.0037 149.993 52.2405 149.3C51.3551 149.274 50.5103 148.922 49.8676 148.313C49.6254 147.93 49.4703 147.499 49.4134 147.05C49.3566 146.601 49.3993 146.145 49.5385 145.714C49.6251 145.281 49.7463 144.848 49.8156 144.415C49.8849 143.982 49.8156 143.705 49.9715 143.359C50.0328 143.152 50.1201 142.955 50.2313 142.77C50.6563 141.965 51.3666 141.347 52.2232 141.038C52.954 140.882 53.7094 140.882 54.4402 141.038C62.8927 142.285 71.4491 140.137 79.7457 138.007C80.6619 137.852 81.5251 137.471 82.2572 136.898C82.6435 136.508 82.9444 136.042 83.1406 135.53C83.1839 135.383 83.1839 135.227 83.1406 135.08V133.902C83.1406 133.105 83.1406 132.326 83.0193 131.529C83.0342 131.202 82.975 130.877 82.8461 130.576C82.5133 130.14 82.0435 129.829 81.5124 129.693C81.2104 129.623 80.8965 129.623 80.5944 129.693H79.5898Z" fill="#196773"/>
<path d="M84.3874 153.907V152.851C84.3874 151.118 84.1796 149.386 84.041 147.654C83.9892 147.275 83.9892 146.89 84.041 146.511C84.1372 146.202 84.1897 145.882 84.1969 145.559C84.183 145.178 84.1248 144.8 84.0237 144.433C83.9295 144.081 83.7898 143.743 83.608 143.428C79.5156 145.286 75.2025 146.613 70.7734 147.377C74.8126 146.287 78.5503 144.291 81.7027 141.54C82.5233 140.955 83.0827 140.072 83.2616 139.081C83.2651 138.872 83.2237 138.665 83.1403 138.474C82.9474 137.945 82.8308 137.391 82.7939 136.829C82.3436 133.936 81.824 131.044 81.2004 128.169C81.2004 127.995 81.9452 127.909 82.0145 127.909C82.3069 127.96 82.5812 128.085 82.8113 128.272C83.2616 128.654 83.1923 129.658 83.2616 130.264C83.4694 132.17 83.66 134.092 83.8158 135.997C84.1276 139.82 84.3355 143.647 84.4394 147.481C84.3701 149.577 84.4048 151.742 84.3874 153.907Z" fill="url(#paint13_linear_1393:1638)"/>
<path d="M44.3422 132.845C46.975 132.516 51.5303 137.539 52.2578 140.172C52.4656 140.865 61.4377 140.172 64.2783 139.981C71.8301 139.41 79.0355 137.054 84.3876 131.494C83.4004 127.909 79.8496 124.791 77.2515 124.687C73.0079 126.887 68.8856 128.775 64.6594 130.957C57.939 131.737 51.3398 130.472 44.5501 131.529C44.2383 132.222 44.0998 132.135 44.3422 132.845Z" fill="url(#paint14_linear_1393:1638)"/>
<g style="mix-blend-mode:screen">
<path d="M66.4609 132.689C71.0205 132.769 75.5026 131.504 79.3475 129.052C79.7024 128.861 80.0011 128.58 80.2136 128.238C80.3183 127.916 80.3265 127.571 80.2372 127.245C80.148 126.918 79.9651 126.625 79.7113 126.402C79.17 125.986 78.5428 125.696 77.8753 125.553C73.8515 127.562 70.0292 129.952 66.4609 132.689Z" fill="#24753B"/>
</g>
<path d="M71.4508 148.122H74.6031L72.6632 151.136L67.467 151.967C66.8088 147.118 66.1506 142.25 65.5098 137.401C65.5098 137.522 68.3677 136.465 68.6621 136.413C68.9971 136.362 69.3398 136.41 69.6477 136.552C69.9555 136.694 70.2151 136.923 70.3942 137.21C70.8875 138.115 71.1882 139.111 71.2776 140.137C71.4853 141.369 71.6068 142.613 71.6413 143.861C71.6942 145.284 71.6305 146.709 71.4508 148.122Z" fill="url(#paint15_linear_1393:1638)"/>
<path d="M104.793 137.002C104.793 137.002 108.257 136.188 110.44 135.824C110.595 136.413 111.063 137.262 111.219 137.834L105.417 139.254L104.793 137.002Z" fill="#314E5E"/>
<path d="M65.9766 147.118C65.9766 147.118 69.4407 146.442 71.6751 146.165C71.8137 146.771 72.2467 147.637 72.3679 148.226L66.5135 149.387L65.9766 147.118Z" fill="#314E5E"/>
<path d="M98.7651 82.8229C99.9702 85.2817 100.643 87.9672 100.74 90.7038C92.8241 92.1934 84.7527 93.5791 76.8371 95.0686C67.3352 97.0936 57.6955 98.4078 47.9983 99.0005C47.2535 83.6716 46.4567 67.979 40.6543 53.776C47.7731 52.8407 54.9958 53.9492 62.0626 55.2136C70.1341 56.6685 78.344 58.4006 85.3936 62.5922C92.4431 66.7839 95.1624 75.3749 98.7651 82.8229Z" fill="#196773"/>
<path d="M36.4961 53.7415C37.57 53.3777 38.5572 52.5637 39.6311 52.2172C43.5456 56.7726 45.295 62.5057 46.6806 68.2389C48.3601 74.8751 49.5926 81.6164 50.37 88.4175L50.5778 90.548C50.5733 91.1276 50.6138 91.7067 50.699 92.2801L51.9981 92.6438C61.1159 95.0486 70.6757 95.2445 79.8844 93.2153C82.5256 92.6083 85.119 91.8095 87.644 90.8251C92.5766 88.9224 97.2681 86.4458 101.622 83.4465C100.556 78.0038 98.8947 72.6948 96.6681 67.6153C95.0551 64.1006 93.2392 60.6827 91.2294 57.3788C88.129 52.0267 86.0332 46.9864 80.404 43.6262L79.6592 43.2104C72.7048 43.5064 65.8414 44.9037 59.3247 47.3501C52.4978 46.4662 45.5586 47.2141 39.0769 49.5325C38.7393 49.6536 38.4402 49.863 38.2108 50.1387C37.9991 50.3898 37.8241 50.6698 37.6912 50.9701C37.3609 51.9218 36.9615 52.8481 36.4961 53.7415Z" fill="url(#paint16_linear_1393:1638)"/>
<path d="M36.4961 53.7415C37.57 53.3778 38.5572 52.5637 39.6311 52.2173C43.5456 56.7726 45.295 62.5058 46.6806 68.2389C48.3601 74.8751 49.5926 81.6165 50.3699 88.4176L50.5778 90.5481C50.5733 91.1277 50.6138 91.7068 50.699 92.2801L51.9981 92.6439C52.0058 92.5401 52.0058 92.4359 51.9981 92.3321C52.2552 90.6997 52.3133 89.0421 52.1713 87.3957C52.0612 83.7805 51.6381 80.1817 50.9069 76.6395C50.1771 73.1071 49.1871 69.6335 47.945 66.2471C46.7522 62.8536 45.3465 59.5387 43.7361 56.3223L43.1472 55.1964C42.5221 53.928 41.7105 52.7604 40.7396 51.7323C40.0628 51.0559 39.2301 50.5562 38.3148 50.2773C38.103 50.5284 37.9281 50.8083 37.7951 51.1087C37.4251 52.016 36.991 52.8958 36.4961 53.7415Z" fill="url(#paint17_linear_1393:1638)"/>
<g style="mix-blend-mode:screen">
<path d="M37.709 50.9702C40.1955 50.1573 42.7444 49.549 45.3301 49.1515C52.6256 47.5873 60.2268 48.3256 67.0849 51.2647C66.1324 49.9095 64.8509 48.8187 63.3609 48.095C68.8058 46.4426 74.3882 45.2832 80.0407 44.6308C88.8856 55.3927 95.5192 67.7947 99.5611 81.1256C99.2156 81.9237 98.761 82.6698 98.2101 83.3427C97.0348 84.633 95.6748 85.742 94.1744 86.6336L87.6445 90.9638C92.577 89.061 97.2686 86.5844 101.622 83.5852C100.556 78.1425 98.8952 72.8335 96.6686 67.754C95.0556 64.2393 93.2396 60.8214 91.2299 57.5175C88.1295 52.1654 86.0337 47.125 80.4045 43.7648L79.6597 43.3491C72.7128 43.6006 65.8495 44.9511 59.3252 47.3502C52.4983 46.4663 45.5591 47.2142 39.0773 49.5326C38.7607 49.6621 38.4752 49.8572 38.2393 50.105C38.0035 50.3528 37.8228 50.6477 37.709 50.9702Z" fill="#24753B"/>
</g>
<path d="M70.7752 95.5192C72.9278 94.6802 75.2606 94.4117 77.5475 94.7398C77.4372 93.8086 77.3851 92.8715 77.3916 91.9338C77.305 90.9639 77.2011 89.9939 77.0625 89.0413C76.8027 87.136 76.439 85.2307 75.9887 83.3428C75.0504 79.5171 73.7394 75.7926 72.0742 72.2229C71.6585 71.3395 71.2255 70.4908 70.7579 69.5555C70.4461 68.9493 70.1517 67.8234 69.3722 67.3904C68.9392 67.1653 68.0039 67.1133 67.6402 67.529C67.2764 67.9447 67.6402 68.2391 67.6402 68.5335C67.6402 68.828 67.8653 69.5035 67.9693 70.0058C69.7327 77.8865 70.6272 85.9368 70.6366 94.0123L70.7752 95.5192Z" fill="#196773"/>
<path d="M66.791 64.0475C69.9953 76.0335 72.1604 87.5864 75.4514 99.5723C79.3356 99.2511 83.1773 98.5372 86.9177 97.4419C83.3956 85.7463 78.9116 74.3624 73.5115 63.4067C71.2537 63.0325 68.9374 63.2533 66.791 64.0475Z" fill="url(#paint18_linear_1393:1638)"/>
<path d="M73.9447 102.984C79.1724 102.562 84.3753 101.874 89.5333 100.923C89.8812 99.465 89.7724 97.9352 89.2215 96.541C83.4823 96.7496 77.7783 97.533 72.1953 98.8793C72.8535 100.594 73.1826 101.356 73.9447 102.984Z" fill="#314E5E"/>
<defs>
<linearGradient id="paint0_linear_1393:1638" x1="79.6097" y1="69.5285" x2="47.5005" y2="174.693" gradientUnits="userSpaceOnUse">
<stop offset="0.01" stop-color="#56BB89"/>
<stop offset="0.99" stop-color="#308396"/>
</linearGradient>
<linearGradient id="paint1_linear_1393:1638" x1="45.761" y1="11.4367" x2="62.0694" y2="77.1427" gradientUnits="userSpaceOnUse">
<stop offset="0.01" stop-color="#F24A20"/>
<stop offset="0.99" stop-color="#8A0B2B"/>
</linearGradient>
<linearGradient id="paint2_linear_1393:1638" x1="64401.4" y1="4422.44" x2="64395.8" y2="4749.3" gradientUnits="userSpaceOnUse">
<stop offset="0.01" stop-color="#F24A20"/>
<stop offset="0.99" stop-color="#8A0B2B"/>
</linearGradient>
<linearGradient id="paint3_linear_1393:1638" x1="17240.4" y1="660.632" x2="17241.6" y2="742.414" gradientUnits="userSpaceOnUse">
<stop offset="0.01" stop-color="#F24A20"/>
<stop offset="0.99" stop-color="#8A0B2B"/>
</linearGradient>
<linearGradient id="paint4_linear_1393:1638" x1="22489" y1="1369.51" x2="22493.2" y2="1544.15" gradientUnits="userSpaceOnUse">
<stop offset="0.01" stop-color="#F24A20"/>
<stop offset="0.99" stop-color="#8A0B2B"/>
</linearGradient>
<linearGradient id="paint5_linear_1393:1638" x1="18528.5" y1="1741.26" x2="18537.1" y2="1965.37" gradientUnits="userSpaceOnUse">
<stop offset="0.01" stop-color="#F24A20"/>
<stop offset="0.99" stop-color="#8A0B2B"/>
</linearGradient>
<linearGradient id="paint6_linear_1393:1638" x1="18643.1" y1="10692" x2="19140.5" y2="12470.3" gradientUnits="userSpaceOnUse">
<stop offset="0.01" stop-color="#F24A20"/>
<stop offset="0.99" stop-color="#8A0B2B"/>
</linearGradient>
<linearGradient id="paint7_linear_1393:1638" x1="12270.2" y1="8928.61" x2="12785.2" y2="10070.5" gradientUnits="userSpaceOnUse">
<stop offset="0.01" stop-color="#F24A20"/>
<stop offset="0.99" stop-color="#8A0B2B"/>
</linearGradient>
<linearGradient id="paint8_linear_1393:1638" x1="21753.9" y1="6700.48" x2="21778.1" y2="6971.8" gradientUnits="userSpaceOnUse">
<stop offset="0.01" stop-color="#56BB89"/>
<stop offset="0.99" stop-color="#308396"/>
</linearGradient>
<linearGradient id="paint9_linear_1393:1638" x1="-3152.04" y1="8468.49" x2="-2728.62" y2="8938.87" gradientUnits="userSpaceOnUse">
<stop offset="0.01" stop-color="#56BB89"/>
<stop offset="0.99" stop-color="#308396"/>
</linearGradient>
<linearGradient id="paint10_linear_1393:1638" x1="9873.16" y1="7707" x2="9738.78" y2="8044.1" gradientUnits="userSpaceOnUse">
<stop offset="0.01" stop-color="#56BB89"/>
<stop offset="0.99" stop-color="#308396"/>
</linearGradient>
<linearGradient id="paint11_linear_1393:1638" x1="28483" y1="4843.09" x2="28491.6" y2="4730.44" gradientUnits="userSpaceOnUse">
<stop offset="0.01" stop-color="#56BB89"/>
<stop offset="0.99" stop-color="#308396"/>
</linearGradient>
<linearGradient id="paint12_linear_1393:1638" x1="6708.96" y1="4705.38" x2="6668.59" y2="4902.34" gradientUnits="userSpaceOnUse">
<stop offset="0.01" stop-color="#56BB89"/>
<stop offset="0.99" stop-color="#308396"/>
</linearGradient>
<linearGradient id="paint13_linear_1393:1638" x1="-9195.94" y1="8899.59" x2="-9030.73" y2="9282.82" gradientUnits="userSpaceOnUse">
<stop offset="0.01" stop-color="#56BB89"/>
<stop offset="0.99" stop-color="#308396"/>
</linearGradient>
<linearGradient id="paint14_linear_1393:1638" x1="-30068.4" y1="5850.19" x2="-30080.1" y2="5725.7" gradientUnits="userSpaceOnUse">
<stop offset="0.01" stop-color="#56BB89"/>
<stop offset="0.99" stop-color="#308396"/>
</linearGradient>
<linearGradient id="paint15_linear_1393:1638" x1="-5755.93" y1="5406.98" x2="-5703.96" y2="5631.92" gradientUnits="userSpaceOnUse">
<stop offset="0.01" stop-color="#56BB89"/>
<stop offset="0.99" stop-color="#308396"/>
</linearGradient>
<linearGradient id="paint16_linear_1393:1638" x1="50667.8" y1="14330.8" x2="50712.9" y2="15965.4" gradientUnits="userSpaceOnUse">
<stop offset="0.01" stop-color="#56BB89"/>
<stop offset="0.99" stop-color="#308396"/>
</linearGradient>
<linearGradient id="paint17_linear_1393:1638" x1="12325.6" y1="11210" x2="12877.3" y2="11483.1" gradientUnits="userSpaceOnUse">
<stop offset="0.01" stop-color="#56BB89"/>
<stop offset="0.99" stop-color="#308396"/>
</linearGradient>
<linearGradient id="paint18_linear_1393:1638" x1="15666.4" y1="9915.77" x2="15376.7" y2="11110.9" gradientUnits="userSpaceOnUse">
<stop offset="0.01" stop-color="#56BB89"/>
<stop offset="0.99" stop-color="#308396"/>
</linearGradient>
</defs>
</svg>
