<svg width="173" height="321" viewBox="0 0 173 321" fill="none" xmlns="http://www.w3.org/2000/svg">
<path d="M160.439 8.55531L141.154 1C139.709 2.28537 138.023 3.22362 136.21 3.75101C134.396 4.2784 132.497 4.38257 130.643 4.05646L121 46.1429C121.879 46.7806 122.549 47.6968 122.915 48.7627C123.281 49.8285 123.325 50.9902 123.041 52.0841L143.002 60C144.978 58.0597 146.987 56.9092 149.061 57.39L166 17.7418C162.85 15.9045 160.15 12.333 160.439 8.55531ZM131.912 48.2378C131.35 49.5428 126.866 47.5338 127.445 46.2459L136.059 13.5178C136.557 11.4744 144.368 13.3289 143.886 15.3551L131.912 48.2378ZM143.58 52.2558C143.259 53.6467 138.47 52.5649 138.759 51.174L148.964 17.7075C149.784 15.7844 157.145 18.9954 156.325 20.9185L143.58 52.2558Z" fill="url(#paint0_linear_1372:1638)"/>
<path d="M129.318 11C127.516 10.5996 125.738 10.0192 124 9.26359C124.128 8.16267 124.304 7.0729 124.527 6L130 8.23848C129.736 9.14155 129.508 10.0634 129.318 11V11Z" fill="#998675"/>
<path d="M127.204 24C125.102 23.6797 123.028 23.2153 121 22.6109C121.149 21.7301 121.355 20.8583 121.615 20L128 21.8075C127.689 22.5234 127.423 23.2555 127.204 24Z" fill="#998675"/>
<path d="M123.206 39C121.105 38.5936 119.031 38.0158 117 37.2709C117.146 36.1654 117.357 35.0726 117.632 34L124 36.25C123.674 37.1413 123.408 38.0608 123.206 39V39Z" fill="#998675"/>
<path d="M161 24.8773C162.848 25.6985 164.769 26.408 166.747 27C167.215 26.3273 167.633 25.6329 168 24.9206L161.824 23C161.603 23.6403 161.328 24.2675 161 24.8773Z" fill="#998675"/>
<path d="M166.696 24.8326C167.069 24.0048 167.612 23.3085 168.273 22.8119C168.935 22.3154 169.691 22.0356 170.468 22C170.867 22.0073 171.261 22.1176 171.623 22.3235C171.984 22.5295 172.305 22.8263 172.565 23.1944C172.728 23.4286 172.85 23.7009 172.922 23.9944C172.995 24.288 173.017 24.5965 172.987 24.9008C172.949 27.2374 172.336 29.5071 171.228 31.4191C171.098 31.6245 170.98 31.8412 170.876 32.0675C170.755 32.3076 170.591 32.5118 170.396 32.6653C170.201 32.8188 169.98 32.9177 169.75 32.9548C169.149 33.0681 168.534 32.9672 167.979 32.6643C167.424 32.3613 166.954 31.8694 166.626 31.2485C166.203 30.254 165.988 29.1486 166 28.0298C166.013 26.911 166.252 25.8131 166.696 24.8326Z" fill="#998675"/>
<path d="M160.782 37.8318C161.211 37.0064 161.834 36.3121 162.59 35.816C163.346 35.3199 164.211 35.0389 165.099 35C165.558 35.0094 166.009 35.1223 166.423 35.3311C166.837 35.54 167.204 35.84 167.5 36.2112C167.689 36.4436 167.83 36.7156 167.913 37.0096C167.996 37.3035 168.02 37.6127 167.983 37.917C167.936 40.2525 167.235 42.5206 165.969 44.4335C165.817 44.6361 165.682 44.8531 165.567 45.0818C165.425 45.3178 165.236 45.5181 165.014 45.6684C164.791 45.8187 164.54 45.9154 164.278 45.9517C163.59 46.0695 162.884 45.9706 162.248 45.6674C161.612 45.3641 161.075 44.8698 160.702 44.2459C160.227 43.2487 159.987 42.145 160.001 41.0284C160.015 39.9118 160.283 38.8152 160.782 37.8318V37.8318Z" fill="#998675"/>
<path d="M154.782 50.8318C155.211 50.0064 155.834 49.3121 156.591 48.816C157.347 48.3199 158.211 48.0389 159.1 48C159.559 48.0094 160.01 48.1223 160.424 48.3312C160.838 48.54 161.205 48.8401 161.501 49.2112C161.689 49.4447 161.829 49.7169 161.912 50.0105C161.995 50.3041 162.02 50.6128 161.984 50.9171C161.938 53.2525 161.237 55.5206 159.97 57.4335C159.818 57.6361 159.683 57.8531 159.568 58.0817C159.426 58.3178 159.237 58.5181 159.015 58.6684C158.792 58.8187 158.541 58.9154 158.279 58.9517C157.59 59.0695 156.884 58.9706 156.248 58.6673C155.613 58.3641 155.075 57.8698 154.702 57.2459C154.227 56.2487 153.987 55.145 154.001 54.0284C154.015 52.9118 154.283 51.8152 154.782 50.8318V50.8318Z" fill="#998675"/>
<path d="M118.96 34.4688C119.078 33.548 118.934 32.6149 118.542 31.7603C118.149 30.9057 117.522 30.1589 116.72 29.5927C116.289 29.3205 115.798 29.1361 115.282 29.052C114.766 28.9679 114.237 28.986 113.729 29.1051C113.4 29.1881 113.093 29.3325 112.828 29.5293C112.562 29.726 112.344 29.9709 112.187 30.2484C110.769 32.1451 110.008 34.3893 110.003 36.6883C110.031 36.9454 110.031 37.2045 110.003 37.4617C109.987 37.7378 110.037 38.0137 110.152 38.2696C110.266 38.5255 110.441 38.7549 110.664 38.9413C111.235 39.4509 111.957 39.7958 112.739 39.9333C113.522 40.0707 114.332 39.9948 115.069 39.7148C116.132 39.1941 117.042 38.4447 117.72 37.5309C118.397 36.6172 118.823 35.5664 118.96 34.4688V34.4688Z" fill="#998675"/>
<path d="M122.961 20.4711C123.077 19.5485 122.933 18.6139 122.54 17.7573C122.148 16.9007 121.522 16.151 120.721 15.5803C120.288 15.311 119.797 15.1297 119.281 15.0485C118.765 14.9674 118.236 14.9882 117.729 15.1097C117.399 15.1859 117.091 15.3258 116.825 15.52C116.559 15.7142 116.342 15.9583 116.187 16.2357C114.779 18.1422 114.019 20.388 114.003 22.6896C114.03 22.9467 114.03 23.2057 114.003 23.4628C113.987 23.7387 114.037 24.0146 114.152 24.2703C114.266 24.5261 114.441 24.7554 114.664 24.9418C115.235 25.4511 115.957 25.7959 116.74 25.9333C117.523 26.0707 118.333 25.9948 119.069 25.7149C120.132 25.1933 121.041 24.4438 121.719 23.5307C122.396 22.6176 122.823 21.5678 122.961 20.4711V20.4711Z" fill="#998675"/>
<path d="M125.965 6.47111C126.069 5.54846 125.94 4.61387 125.592 3.75731C125.244 2.90074 124.689 2.15101 123.979 1.58026C123.595 1.31099 123.159 1.12969 122.701 1.04852C122.244 0.967358 121.774 0.988201 121.325 1.10966C121.033 1.1914 120.759 1.3333 120.522 1.52681C120.284 1.72032 120.086 1.96145 119.941 2.23573C118.698 4.1452 118.024 6.38905 118.003 8.68963C118.02 8.94707 118.02 9.20532 118.003 9.46276C117.987 9.73742 118.029 10.0125 118.128 10.2682C118.227 10.5239 118.379 10.7539 118.573 10.9418C119.08 11.4511 119.72 11.7959 120.415 11.9333C121.109 12.0707 121.828 11.9948 122.481 11.7149C123.431 11.1985 124.244 10.4512 124.851 9.53757C125.458 8.62395 125.841 7.57148 125.965 6.47111Z" fill="#998675"/>
<path d="M155 37.3561C156.852 38.3824 158.779 39.2662 160.765 40C161.23 39.1575 161.643 38.2865 162 37.3921L155.841 35C155.607 35.8011 155.326 36.5878 155 37.3561V37.3561Z" fill="#998675"/>
<path d="M150 51.3561C151.584 52.379 153.23 53.2627 154.926 54C155.324 53.154 155.682 52.2835 156 51.3921L150.706 49C150.51 49.8007 150.274 50.5874 150 51.3561Z" fill="#998675"/>
<path d="M118.235 207.089C121.961 205.82 125.53 204.086 128.867 201.923C129.864 201.116 131.032 200.578 132.27 200.356C135.363 200.149 137.545 205.522 138.262 208.001C139.246 211.56 139.246 215.343 138.262 218.901C136.454 225.789 131.749 231.265 126.474 235.691C123.087 238.549 119.391 241.115 116.705 244.731C112.325 250.672 114.214 256.01 115.223 262.691C116.343 269.874 116.887 277.143 116.851 284.422C116.851 294.754 113.334 304.191 105.747 310.958C98.4368 317.501 88.7818 319.447 79.5338 320.601C64.7339 322.443 49.2501 317.656 35.8666 311.371C25.886 306.687 16.0682 300.884 8.95319 292.12C-3.33941 277.001 -2.65559 251.137 9.05088 235.811C16.9637 225.479 30.4937 220.313 40.572 212.582C44.3819 209.654 47.7034 206.4 48.2244 201.234C48.7454 196.068 46.7264 191.333 46.0426 186.305C45.2405 181.18 46.1993 175.92 48.7454 171.478C51.5296 166.95 56.8862 164.918 61.8521 163.971C76.9777 161.147 95.5387 164.315 107.017 175.714C108.059 176.73 107.978 177.161 107.978 178.659C107.869 180.162 107.504 181.632 106.903 182.998C104.9 188.738 103.939 194.825 104.07 200.941C104.217 209.431 111.397 209.327 118.235 207.089Z" fill="url(#paint1_linear_1372:1638)"/>
<path d="M103.379 177.743C102.853 176.465 102.114 175.298 101.197 174.301C99.5014 172.822 97.6113 171.616 95.587 170.721C92.3456 168.914 88.9453 167.45 85.4349 166.35C84.6913 166.109 83.9476 165.903 83.204 165.696C80.4882 164.973 77.4651 164.509 74.9756 165.885C71.9526 167.606 70.6755 171.496 70.239 175.11C69.8025 178.724 69.9157 182.51 68.4931 185.832C69.6355 178.948 70.7779 172.064 71.9203 165.18C67.8082 165.175 63.7178 165.813 59.7797 167.073C57.8117 167.718 55.9981 168.809 54.4634 170.27C52.9287 171.732 51.7092 173.53 50.8885 175.54C48.011 183.921 54.9623 193.37 52.3596 201.854C50.3712 208.36 43.7109 211.526 38.2792 215.209C32.7286 219.034 27.9777 224.035 24.3231 229.9C20.6684 235.766 18.1882 242.371 17.0373 249.302L21.4505 229.82C15.4867 233.473 10.5426 238.748 7.12496 245.106C3.70732 251.463 1.93909 258.673 2.0016 265.997C2.06412 273.322 3.95517 280.497 7.48076 286.787C11.0063 293.077 16.0397 298.256 22.0648 301.792C22.4804 302.105 22.9502 302.327 23.4469 302.445C23.9436 302.563 24.4575 302.576 24.9586 302.481C26.171 302.068 26.7044 300.588 27.0924 299.297C28.4826 294.513 29.8891 289.711 31.2794 284.909C29.6628 289.711 28.0462 294.668 28.4665 299.727C28.648 302.542 29.5726 305.244 31.1338 307.523C31.8968 308.617 32.8388 309.556 33.9144 310.294C34.6392 310.899 35.5176 311.259 36.4363 311.327C37.4357 311.631 38.4135 312.011 39.3623 312.463C40.2735 312.908 41.2203 313.265 42.1913 313.53L45.6023 314.803C49.2086 316.207 53.0002 316.997 56.8375 317.144C58.1273 317.162 59.3992 317.467 60.5719 318.039C60.9439 318.238 61.3416 318.377 61.7519 318.452C63.4045 318.658 65.0671 318.762 66.731 318.761C71.0419 309.709 75.0295 300.49 78.6938 291.105L70.7887 314.459C70.4509 315.127 70.2634 315.87 70.241 316.628C70.2185 317.387 70.3617 318.141 70.6593 318.83C71.5969 320.259 73.6338 320.173 75.2019 319.656C76.0672 319.327 76.9531 319.062 77.8531 318.865C78.3105 318.767 78.7784 318.738 79.2434 318.779C79.4697 318.779 79.6961 318.899 79.9224 318.934C80.4601 318.988 81.0013 318.988 81.539 318.934C82.918 318.822 84.2828 318.563 85.6127 318.159C89.4402 317.131 93.1249 315.575 96.5732 313.53C103.661 309.366 109.5 303.156 113.418 295.614C118.268 286.252 115.035 274.704 113.256 264.189C112.367 258.716 111.025 253.037 112.61 247.736C113.564 245.132 114.75 242.631 116.15 240.267C119.217 234.371 121.043 227.835 121.501 221.112C120.757 226.723 120.03 232.316 119.286 237.926C124.007 235.793 128.072 232.297 131.023 227.832C133.974 223.367 135.693 218.112 135.985 212.662C136.099 209.788 135.581 206.501 133.318 204.952C132.372 204.407 131.314 204.121 130.239 204.121C129.163 204.121 128.105 204.407 127.159 204.952C126.417 205.281 125.73 205.734 125.122 206.294C124.872 206.55 124.595 206.775 124.298 206.966C123.538 207.447 122.778 207.912 121.986 208.342C120.378 209.222 118.714 209.981 117.007 210.614C113.594 211.889 110.029 212.642 106.418 212.851L101.261 222.489C104.106 216.259 103.702 209.082 102.716 202.439C102.305 200.888 102.098 199.284 102.102 197.672C102.213 197.151 102.359 196.639 102.538 196.14C102.749 195.366 102.845 194.557 102.991 193.765C103.73 190.578 104.222 187.332 104.462 184.059C104.555 181.894 104.185 179.734 103.379 177.743Z" fill="url(#paint2_linear_1372:1638)"/>
<path d="M89.6005 241.575C85.548 244.313 80.7052 245.465 75.923 244.829C71.1409 244.194 66.7252 241.811 63.4517 238.1C60.1782 234.389 58.2565 229.587 58.0239 224.537C57.7913 219.488 59.2629 214.514 62.1801 210.489C65.0973 206.464 69.2734 203.646 73.9749 202.53C78.6764 201.414 83.6025 202.072 87.8878 204.387C92.173 206.702 95.5434 210.527 97.4066 215.19C99.2699 219.852 99.5069 225.054 98.0761 229.882C96.6536 234.706 93.6517 238.847 89.6005 241.575Z" fill="#998675"/>
<path d="M94.2575 228.693C95.2253 225.388 95.2475 221.852 94.3212 218.533C93.3949 215.215 91.5616 212.262 89.0534 210.048C86.5451 207.834 83.4744 206.459 80.2294 206.096C76.9844 205.734 73.7109 206.4 70.8227 208.01C67.9345 209.62 65.5612 212.103 64.003 215.144C62.4448 218.185 61.7716 221.648 62.0684 225.095C62.3653 228.541 63.619 231.817 65.6709 234.508C67.7228 237.2 70.4809 239.185 73.5964 240.214C77.7765 241.589 82.3003 241.148 86.1742 238.988C90.0482 236.828 92.9554 233.125 94.2575 228.693V228.693Z" fill="#534741"/>
<path d="M79.0912 274.572C79.4159 272.435 80.0607 270.371 81 268.462C68.959 264.412 56.8384 260.033 44.8133 256C44.1005 258.273 43.4953 260.583 43 262.923C47.9302 267.508 53.6907 270.914 59.9081 272.921C66.1256 274.927 72.6612 275.49 79.0912 274.572Z" fill="url(#paint3_linear_1372:1638)"/>
<path d="M99.1292 203L74 193.344L77.8191 181.761L78.4128 179.988L81.3815 170.951L81.9753 169.161L85.1044 159.678L85.682 157.87L89.1641 147.337L89.7579 145.529L93.593 133.877L94.2028 132.053L98.5354 118.92L99.1452 117.078L103.959 102.431L104.569 100.589L109.142 86.7508L109.784 84.7715L114.71 69.8487L115.368 67.835L120.584 52L140 60.7781L135.7 75.718L134.993 78.1965L130.773 92.9127L130.051 95.3568L126.184 108.799L125.558 111.071L121.386 125.529L120.744 127.767L117.037 140.71L116.379 142.965L113.122 154.308L112.48 156.545L109.527 166.838L108.885 169.058L106.238 178.284L105.596 180.504L103.093 189.265L102.451 191.485L99.1292 203Z" fill="url(#paint4_linear_1372:1638)"/>
<path d="M122 51.8108L122.804 49L142 57.3063L140.671 61L122 51.8108Z" fill="#F5EDD3"/>
<path d="M161.299 7.55531L141.585 0C140.111 1.28398 138.39 2.2215 136.539 2.74888C134.688 3.27627 132.75 3.38118 130.857 3.05649L121 45.1429C121.902 45.7782 122.59 46.6935 122.967 47.7595C123.344 48.8255 123.392 49.9884 123.103 51.0841L143.507 59C145.528 57.0597 147.565 55.9092 149.684 56.39L167 16.7419C163.764 14.9045 161.02 11.333 161.299 7.55531ZM132.155 47.2378C131.564 48.5256 126.996 46.5338 127.588 45.2288L136.377 12.5006C136.903 10.4744 144.887 12.3117 144.378 14.3551L132.155 47.2378ZM144.082 51.2558C143.737 52.6467 138.858 51.5649 139.154 50.174L149.569 16.7075C150.424 14.7844 157.948 17.9954 157.094 19.9185L144.082 51.2558Z" fill="url(#paint5_linear_1372:1638)"/>
<path d="M136 75.8416L135.277 78.3071L114.957 69.9861L115.633 68L136 75.8416ZM110.038 84.8303L109.395 86.8164L130.293 95.3771L131.001 92.9287L110.038 84.8303ZM126.467 108.8L104.814 100.633L104.203 102.465L125.824 111.026L126.467 108.8ZM121.645 125.442L99.3642 117.036L98.7534 118.868L121.002 127.668L121.645 125.442ZM94.3969 131.931L93.8021 133.746L116.629 142.786L117.272 140.543L94.3969 131.931ZM113.35 154.069L89.9601 145.337L89.3653 147.049L112.723 156.209L113.35 154.069ZM85.877 157.613L85.2822 159.411L109.122 168.742L109.765 166.534L85.877 157.613ZM82.1475 168.845L81.5527 170.557L105.826 180.059L106.47 177.851L82.1475 168.845ZM78.5787 179.614L78 181.326L102.66 191L103.319 188.774L78.5787 179.614Z" fill="#C7B299"/>
<path d="M51.458 263L51 262.828L125.526 51L126 51.1889L51.458 263Z" fill="#534741"/>
<path d="M56.4553 263L56 262.829L128.545 51L129 51.1714L56.4553 263Z" fill="#534741"/>
<path d="M132.235 53.1896L61 265.897L61.4606 266.069L132.695 53.3617L132.235 53.1896Z" fill="#534741"/>
<path d="M69.4627 267L69 266.828L135.537 54L136 54.1544L69.4627 267Z" fill="#534741"/>
<path d="M74.4505 268L74 267.846L139.533 55L140 55.1542L74.4505 268Z" fill="#534741"/>
<defs>
<linearGradient id="paint0_linear_1372:1638" x1="6470.22" y1="15047.5" x2="7676.81" y2="17272.4" gradientUnits="userSpaceOnUse">
<stop offset="0.348958" stop-color="#FFCB2E"/>
<stop offset="0.473958" stop-color="#EE9C2E"/>
<stop offset="0.6875" stop-color="#B24D1D"/>
<stop offset="0.770733" stop-color="#A83E1B"/>
<stop offset="0.854167" stop-color="#59A81B"/>
<stop offset="1" stop-color="#992518"/>
</linearGradient>
<linearGradient id="paint1_linear_1372:1638" x1="87557.5" y1="48754.3" x2="93412.9" y2="57077.6" gradientUnits="userSpaceOnUse">
<stop stop-color="#FFCB2E"/>
<stop offset="1" stop-color="#992518"/>
</linearGradient>
<linearGradient id="paint2_linear_1372:1638" x1="8483" y1="59689.3" x2="17753.5" y2="76601.9" gradientUnits="userSpaceOnUse">
<stop stop-color="#FFCB2E"/>
<stop offset="1" stop-color="#992518"/>
</linearGradient>
<linearGradient id="paint3_linear_1372:1638" x1="-1253.26" y1="9165.25" x2="-526.827" y2="10586.6" gradientUnits="userSpaceOnUse">
<stop stop-color="#CF5C2B"/>
<stop offset="1" stop-color="#59173E"/>
</linearGradient>
<linearGradient id="paint4_linear_1372:1638" x1="19638.1" y1="47200.2" x2="30964.5" y2="61331.5" gradientUnits="userSpaceOnUse">
<stop stop-color="#CF5C2B"/>
<stop offset="1" stop-color="#59173E"/>
</linearGradient>
<linearGradient id="paint5_linear_1372:1638" x1="7331.38" y1="16350.3" x2="9776.61" y2="21413.6" gradientUnits="userSpaceOnUse">
<stop stop-color="#FFCB2E"/>
<stop offset="1" stop-color="#992518"/>
</linearGradient>
</defs>
</svg>
