<svg width="69" height="162" viewBox="0 0 69 162" fill="none" xmlns="http://www.w3.org/2000/svg">
<path d="M59.9467 139.785C58.3532 140.027 56.7424 140.235 55.1316 140.391C54.2482 140.512 53.3995 140.599 52.5335 140.685C45.572 141.312 38.5788 141.515 31.5927 141.291C26.2233 141.136 20.8539 140.72 15.5538 140.148C13.3194 139.888 11.1196 139.611 8.91992 139.3C10.3749 120.697 11.824 102.106 13.2674 83.5268C13.3714 82.1758 13.4753 80.7902 13.5965 79.4392C28.2498 77.9669 43.0417 76.46 57.695 77.0835C57.8336 78.8156 57.9547 80.3398 58.0587 81.9853C59.3923 101.142 59.2538 120.61 59.9467 139.785Z" fill="url(#paint0_linear_1371:3541)"/>
<path style="mix-blend-mode:screen" d="M57.0349 83.1285C54.1424 86.8178 54.125 91.9101 54.229 96.5867C54.5061 111.182 54.8064 125.784 55.1297 140.391C54.2463 140.512 53.3976 140.599 52.5316 140.685C52.0466 122.337 51.5558 104 51.0593 85.6746L35.921 84.4102C32.4202 103.158 30.9683 122.23 31.5909 141.291C26.2215 141.136 20.8521 140.72 15.552 140.148C17.0935 122.395 19.5184 103.584 21.0772 85.8305C18.5311 85.2243 15.3614 85.103 13.2656 83.5268C13.3695 82.1758 13.4735 80.7902 13.5947 79.4392C28.248 77.9669 43.0398 76.46 57.6931 77.0835C57.8317 78.8156 57.9528 80.3398 58.0568 81.9853C57.6892 82.3414 57.3477 82.7235 57.0349 83.1285Z" fill="url(#paint1_linear_1371:3541)"/>
<path d="M11.6562 141.742C27.8799 120.864 43.4685 99.5022 58.422 77.655C59.0456 77.3778 59.8943 77.1007 60.0328 77.7589C47.9355 102.311 32.3791 125.002 13.8387 145.137C12.7994 144.167 12.7128 142.729 11.6562 141.742Z" fill="url(#paint2_linear_1371:3541)"/>
<path d="M55.01 140.91C40.2181 118.971 26.0844 96.6443 12.6089 73.9311C12.0026 73.6193 11.1886 73.2729 10.998 73.9311C21.4167 99.2303 35.4163 122.901 52.5677 144.219C53.7282 143.301 53.9015 141.828 55.01 140.91Z" fill="url(#paint3_linear_1371:3541)"/>
<path d="M66.8579 160.777C53.689 161.831 40.4601 161.906 27.2801 161.002C22.0839 160.621 16.7837 160.032 11.5355 159.27C7.69035 158.716 3.8452 158.046 0 157.261C0.883356 151.632 2.06113 143.405 2.99645 137.308C3.11769 136.58 3.22162 135.905 3.32555 135.247C23.8852 138.018 44.3063 138.174 64.9872 137.862C64.9872 138.641 65.1086 139.386 65.1605 140.114C65.8187 147.804 66.1304 152.446 66.8579 160.777Z" fill="url(#paint4_linear_1371:3541)"/>
<path style="mix-blend-mode:screen" d="M65.16 140.114C53.7221 142.056 42.1 142.69 30.5187 142.002C29.618 147.579 28.1977 155.009 27.1931 161.054C21.9969 160.673 16.6968 160.084 11.4486 159.322C12.0721 152.844 11.9163 146.384 12.6957 139.888L2.99609 137.238C3.11734 136.511 3.22127 135.835 3.32519 135.177C23.8848 137.949 44.3059 138.104 64.9868 137.793C65.0387 138.641 65.0388 139.386 65.16 140.114Z" fill="url(#paint5_linear_1371:3541)"/>
<path d="M65.5241 17.9852C63.8887 14.044 61.4026 10.5129 58.2437 7.64434C55.0847 4.77581 51.3309 2.64081 47.2507 1.392C45.296 0.809303 43.2887 0.420573 41.2578 0.231485C34.9534 -0.381549 28.6018 0.750973 22.8978 3.50513C19.0961 5.32906 15.7116 7.91757 12.9557 11.1089C10.206 14.2729 8.12613 17.9615 6.84159 21.9517C6.11489 24.1705 5.64977 26.4667 5.45585 28.7934C4.96644 34.7081 6.08559 40.645 8.69481 45.9756C12.3309 53.3169 18.5476 59.0587 26.1541 62.1012C29.9824 63.7181 34.129 64.4408 38.2786 64.2143C42.4583 63.9324 46.5039 62.6236 50.0566 60.4038C53.4795 58.2582 56.5231 55.56 59.0634 52.4189C61.6198 49.3471 63.7199 45.9228 65.2989 42.2516C66.9317 38.4597 67.8309 34.3925 67.9489 30.2656C68.0121 26.0473 67.1859 21.863 65.5241 17.9852ZM46.6098 54.965C43.977 56.7203 40.9456 57.7864 37.7936 58.0655C34.6009 58.3203 31.3945 57.7849 28.4578 56.5066C22.3745 53.9181 17.4849 49.1398 14.757 43.1176C12.1157 37.2013 11.8613 30.4934 14.0469 24.3939C15.1219 21.4414 16.7834 18.737 18.9314 16.4437C21.0517 14.1558 23.6151 12.3231 26.4658 11.0569C32.2126 8.36067 38.7263 7.77802 44.8604 9.41151C47.8113 10.2979 50.5372 11.8084 52.8533 13.8405C55.1693 15.8727 57.0213 18.379 58.2839 21.1896C59.2058 23.1471 59.8304 25.2312 60.1373 27.3731C60.6952 31.5167 60.1763 35.7342 58.6304 39.6189C57.1298 43.4252 54.9789 46.9417 52.2737 50.0113C50.6108 51.9034 48.7065 53.5689 46.6098 54.965Z" fill="url(#paint6_linear_1371:3541)"/>
<path d="M42.973 74.3123C44.9343 66.0308 46.0944 57.5797 46.4371 49.076C40.2291 47.6458 33.8451 47.1323 27.4883 47.5518C27.7885 55.6348 28.0714 63.7755 28.337 71.974L42.973 74.3123Z" fill="url(#paint7_linear_1371:3541)"/>
<path d="M68.2604 69.2372C68.0698 69.9993 67.8966 70.6922 67.7234 71.333C66.944 74.4507 66.4244 76.6331 65.4718 80.2704C54.0921 79.5949 42.7471 79.006 31.4194 78.7636C26.7082 78.625 21.9911 78.5673 17.2684 78.5904C14.4451 78.5904 11.6391 78.5904 8.81587 78.5904L7.25707 70.8134C7.13583 70.2937 7.04924 69.8088 6.94531 69.3065C27.349 68.198 47.9086 67.3492 68.2604 69.2372Z" fill="url(#paint8_linear_1371:3541)"/>
<path style="mix-blend-mode:screen" d="M68.2604 69.2372C68.0698 69.9993 67.8966 70.6922 67.7234 71.333C56.8104 69.8982 45.7693 69.7123 34.8141 70.7788C33.6363 73.6021 32.4585 76.1135 31.4886 78.7636C26.7773 78.625 22.0603 78.5674 17.3376 78.5904C17.3376 76.3387 17.4242 74.1043 17.3376 71.8007C13.9947 71.5062 10.7037 71.2118 7.37817 70.8827C7.25692 70.3631 7.17033 69.8781 7.06641 69.3758C27.3489 68.198 47.9086 67.3492 68.2604 69.2372Z" fill="url(#paint9_linear_1371:3541)"/>
<path d="M39.0564 4.54434C37.5005 5.29329 35.8334 5.78466 34.12 5.99927C28.5949 7.31365 23.4776 9.96627 19.2188 13.7237C14.9601 17.481 11.6904 22.2279 9.69784 27.5462C9.47591 28.3213 9.12459 29.0533 8.65864 29.7113C8.40608 30.0287 8.0682 30.2673 7.68467 30.3993C7.30114 30.5312 6.8879 30.5509 6.49355 30.4561C6.17656 30.2874 5.90909 30.0389 5.7177 29.7351C5.5263 29.4313 5.4176 29.0828 5.40234 28.724C5.59626 26.3973 6.06128 24.1012 6.78798 21.8823C8.07252 17.8921 10.1525 14.2036 12.9022 11.0396C15.6581 7.84827 19.0426 5.25971 22.8443 3.43579C28.5483 0.681636 34.8998 -0.450884 41.2041 0.162149C41.3707 1.02674 41.2512 1.9221 40.8637 2.71273C40.4762 3.50337 39.8418 4.14633 39.0564 4.54434Z" fill="#AEA9C9"/>
<path style="mix-blend-mode:screen" d="M62.8556 39.9305C61.5657 44.458 58.5906 48.3194 54.5416 50.7212C54.3156 50.8947 54.0537 51.0158 53.7752 51.0757C53.4966 51.1356 53.2082 51.1329 52.9308 51.0676C52.7278 50.9827 52.5559 50.8375 52.4381 50.6516C52.3204 50.4657 52.2626 50.2482 52.2726 50.0284C54.9778 46.9588 57.1287 43.4423 58.6293 39.636C60.1752 35.7513 60.6942 31.5338 60.1362 27.3903C60.3257 27.2749 60.539 27.2038 60.7598 27.1824C62.1108 27.0092 62.4918 28.8279 62.8209 29.9537C62.8209 30.0923 62.8209 30.2136 62.8209 30.3348C63.6887 33.4729 63.7007 36.7862 62.8556 39.9305Z" fill="url(#paint10_linear_1371:3541)"/>
<defs>
<linearGradient id="paint0_linear_1371:3541" x1="36.5118" y1="87.0776" x2="33.4114" y2="165.367" gradientUnits="userSpaceOnUse">
<stop stop-color="#FFA769"/>
<stop offset="0.41" stop-color="#FFC793"/>
<stop offset="0.97" stop-color="#FFF1C9"/>
</linearGradient>
<linearGradient id="paint1_linear_1371:3541" x1="36.3811" y1="69.3707" x2="31.7333" y2="168.727" gradientUnits="userSpaceOnUse">
<stop stop-color="#D9C99C"/>
<stop offset="0.24" stop-color="#978C6D"/>
<stop offset="0.51" stop-color="#57513F"/>
<stop offset="0.73" stop-color="#28251D"/>
<stop offset="0.9" stop-color="#0B0A08"/>
<stop offset="1"/>
</linearGradient>
<linearGradient id="paint2_linear_1371:3541" x1="37335.9" y1="24892.2" x2="38626.9" y2="24935" gradientUnits="userSpaceOnUse">
<stop stop-color="#83779B"/>
<stop offset="0.35" stop-color="#786A8E"/>
<stop offset="1" stop-color="#5A4A6B"/>
</linearGradient>
<linearGradient id="paint3_linear_1371:3541" x1="34100" y1="24803.8" x2="35700.9" y2="26688.2" gradientUnits="userSpaceOnUse">
<stop stop-color="#83779B"/>
<stop offset="0.35" stop-color="#786A8E"/>
<stop offset="1" stop-color="#5A4A6B"/>
</linearGradient>
<linearGradient id="paint4_linear_1371:3541" x1="52206.4" y1="11616.1" x2="54877.4" y2="11733.6" gradientUnits="userSpaceOnUse">
<stop stop-color="#83779B"/>
<stop offset="0.35" stop-color="#786A8E"/>
<stop offset="1" stop-color="#5A4A6B"/>
</linearGradient>
<linearGradient id="paint5_linear_1371:3541" x1="49527" y1="10778.2" x2="49488" y2="11495.6" gradientUnits="userSpaceOnUse">
<stop stop-color="#BDD9CE"/>
<stop offset="0.24" stop-color="#849790"/>
<stop offset="0.51" stop-color="#4C5753"/>
<stop offset="0.73" stop-color="#232826"/>
<stop offset="0.9" stop-color="#090B0A"/>
<stop offset="1"/>
</linearGradient>
<linearGradient id="paint6_linear_1371:3541" x1="48900.4" y1="19668.8" x2="50031.1" y2="22195.2" gradientUnits="userSpaceOnUse">
<stop stop-color="#83779B"/>
<stop offset="0.35" stop-color="#786A8E"/>
<stop offset="1" stop-color="#5A4A6B"/>
</linearGradient>
<linearGradient id="paint7_linear_1371:3541" x1="14926.7" y1="8508.75" x2="14897.8" y2="8839.99" gradientUnits="userSpaceOnUse">
<stop stop-color="#83779B"/>
<stop offset="0.35" stop-color="#786A8E"/>
<stop offset="1" stop-color="#5A4A6B"/>
</linearGradient>
<linearGradient id="paint8_linear_1371:3541" x1="48167.6" y1="5627.67" x2="50408.6" y2="5748.45" gradientUnits="userSpaceOnUse">
<stop stop-color="#83779B"/>
<stop offset="0.35" stop-color="#786A8E"/>
<stop offset="1" stop-color="#5A4A6B"/>
</linearGradient>
<linearGradient id="paint9_linear_1371:3541" x1="48987.5" y1="4963.29" x2="48974.9" y2="5266.54" gradientUnits="userSpaceOnUse">
<stop stop-color="#BDD9CE"/>
<stop offset="0.24" stop-color="#849790"/>
<stop offset="0.51" stop-color="#4C5753"/>
<stop offset="0.73" stop-color="#232826"/>
<stop offset="0.9" stop-color="#090B0A"/>
<stop offset="1"/>
</linearGradient>
<linearGradient id="paint10_linear_1371:3541" x1="8935.77" y1="7116.98" x2="8786.01" y2="7856.67" gradientUnits="userSpaceOnUse">
<stop stop-color="#BDD9CE"/>
<stop offset="0.24" stop-color="#849790"/>
<stop offset="0.51" stop-color="#4C5753"/>
<stop offset="0.73" stop-color="#232826"/>
<stop offset="0.9" stop-color="#090B0A"/>
<stop offset="1"/>
</linearGradient>
</defs>
</svg>
