<svg width="109" height="110" viewBox="0 0 109 110" fill="none" xmlns="http://www.w3.org/2000/svg">
<path d="M94.5083 46.3958L93.9859 62.5696L93.9331 62.9126L80.859 68.484L79.3763 85.8792L63.6298 90.7938C24.7796 66.9826 3 67.5286 3 67.5286L26.6026 55.8185L29.7552 34.1866L50.7329 26.9875L50.8728 3.03152C73.9449 32.8758 94.5083 46.3958 94.5083 46.3958Z" fill="white" stroke="white" stroke-width="5" stroke-miterlimit="10" stroke-linecap="round" stroke-linejoin="round"/>
<path d="M26.6001 55.8185L79.3738 85.8793L81.3894 68.6714L29.7527 34.1867L26.6001 55.8185Z" fill="white" stroke="white" stroke-width="5" stroke-miterlimit="10" stroke-linecap="round" stroke-linejoin="round"/>
<path d="M94.5072 46.3958L93.9847 62.5696L50.7317 26.9875L50.8717 3.03146C73.9438 32.8757 94.5072 46.3958 94.5072 46.3958Z" fill="white" stroke="white" stroke-width="5" stroke-miterlimit="10" stroke-linecap="round" stroke-linejoin="round"/>
<path d="M51.7396 5.83305C57.0156 12.6128 62.1254 18.4192 66.9346 23.442C67.9396 24.4392 68.8366 25.4549 69.8232 26.3439C71.0367 27.5838 72.1684 28.6707 73.3634 29.8024C73.8884 30.2693 74.3052 30.7547 74.7668 31.1768C80.4069 36.503 85.2028 40.4707 88.6587 43.1087C89.1018 43.4227 89.5002 43.7999 89.8801 44.069C91.1015 45.0292 92.1145 45.7468 92.8109 46.2401C93.1275 46.4643 93.444 46.6886 93.634 46.8231L93.5284 47.509L93.0799 61.8335L93.0456 62.2846L80.1878 67.8192L80.0348 67.9009L78.4888 85.2513L78.3358 85.3331L63.6973 89.8915C59.9091 87.5885 56.2659 85.4833 52.8761 83.5575C52.8128 83.5127 52.6861 83.423 52.578 83.4414C52.1533 83.2357 51.7734 82.9666 51.2854 82.716C49.08 81.5341 46.9379 80.3971 44.8776 79.4131C44.3896 79.1625 43.9015 78.9119 43.4135 78.6612C39.8891 76.9254 36.5731 75.4322 33.5288 74.2266C20.2938 68.75 11.124 67.1988 6.48633 66.7661L27.4878 56.4462L27.5326 56.3829L28.4191 50.1651L28.9546 46.456L29.2791 44.1187L30.1128 38.2438L30.5955 34.8777L30.7037 34.8592L32.5319 34.1575L34.054 33.6194L38.3593 32.1052L39.6203 31.6673L41.0976 31.1924L41.3587 31.0922L51.5732 27.6786L51.6814 27.6602L51.7396 5.83305Z" fill="white" stroke="white" stroke-width="5" stroke-miterlimit="10" stroke-linecap="round" stroke-linejoin="round"/>
<path d="M79.1301 35.2184C84.0448 39.5554 88.0889 42.7052 90.7032 44.6521C92.0512 45.702 93.0642 46.4196 93.6155 46.715L93.5891 46.8865L93.0799 61.8336L93.0456 62.2847L80.1878 67.8193L80.0348 67.901L78.4888 85.2514L78.3358 85.3332L63.6973 89.8916C63.5707 89.8019 63.5074 89.7571 63.444 89.7122C61.5816 88.5831 59.7191 87.454 57.9833 86.4146C56.2475 85.3752 54.5301 84.444 52.8761 83.5576C53.3694 82.8612 54.1608 82.2808 55.034 81.8534C57.2764 80.9697 59.9197 81.1307 62.4733 81.4182C61.8085 79.8064 62.5498 77.9545 64.2065 77.2264C65.7102 76.5801 67.8312 76.9415 68.9814 78.1365C66.9976 75.9707 66.8314 72.7154 68.4643 70.5443C68.6886 70.2277 68.9761 69.956 69.2637 69.6843C68.7677 69.7133 68.2085 69.6975 67.6307 69.5735C65.0402 69.0696 62.7055 67.1306 62.083 64.788C61.2599 61.9231 63.0512 58.7232 66.0058 57.7735C65.8712 55.6816 67.2615 53.7189 69.2796 53.1517C70.7121 52.7402 72.2738 53.0858 73.5849 53.9194C72.7961 52.8853 72.2949 51.5795 72.3081 50.3528C72.3187 48.4587 73.4029 46.6595 75.1044 45.8681C71.7964 41.8134 71.9441 35.833 74.4529 31.6201C74.5426 31.4935 74.6323 31.3668 74.6772 31.3035C76.2336 32.5962 77.7452 33.9521 79.1301 35.2184Z" fill="white" stroke="white" stroke-width="5" stroke-miterlimit="10" stroke-linecap="round" stroke-linejoin="round"/>
<path d="M79.3993 34.8385C80.6576 36.0151 81.8526 37.1468 83.0925 38.2152C85.9257 40.7926 88.5136 42.911 90.7032 44.6521C91.7347 45.4778 92.7028 46.2587 93.5892 46.8865L93.08 61.8336L93.0457 62.2847L82.3036 66.8458L80.1245 67.7744L79.9715 67.8562L78.4888 85.2514L78.3358 85.3331L63.6973 89.8916C63.5707 89.8019 63.5074 89.757 63.4441 89.7122C61.5368 88.6464 59.6744 87.5173 57.8937 86.5412C57.9385 86.4779 57.9385 86.4779 57.9834 86.4146C58.54 85.763 59.2233 85.2011 60.0068 84.9004C62.2491 84.0167 64.9109 84.2858 67.4012 84.5285C66.7364 82.9166 67.4777 81.0647 69.1344 80.3367C70.6381 79.6903 72.7142 80.1151 73.9092 81.2468C71.6537 78.7934 71.7646 74.8786 74.1467 72.8579C72.0547 72.9924 69.9311 71.9635 68.5092 70.4809C68.2375 70.1934 67.9473 69.7977 67.7205 69.4468C67.4118 68.943 67.1665 68.4839 67.0109 67.8983C66.1878 65.0334 67.9342 61.8968 70.844 61.0104C70.6646 58.9818 72.0548 57.0191 74.0729 56.4519C75.4606 56.1037 77.0671 56.386 78.3782 57.2196C77.5895 56.1855 77.0882 54.8797 77.1014 53.653C77.112 51.7589 78.2147 50.0679 79.8978 49.1683C76.5897 45.1136 76.7111 39.3047 79.1117 35.1102C79.1117 35.1102 79.1117 35.1102 79.1566 35.0469C79.2647 35.0285 79.3096 34.9651 79.3993 34.8385Z" fill="white" stroke="white" stroke-width="5" stroke-miterlimit="10" stroke-linecap="round" stroke-linejoin="round"/>
<path d="M51.741 5.83319C59.3833 15.7153 66.8014 23.6321 73.2567 29.821C72.146 31.7916 71.4153 34.0313 71.1989 36.3501C71.0591 37.4871 71.0011 38.7771 70.1384 39.5922C68.611 41.0774 65.936 39.7531 63.6911 39.9694C59.4174 40.3651 57.7 46.2796 53.3816 46.7386C50.4877 47.0657 47.7547 44.7495 44.8792 45.1847C40.814 45.8231 39.1309 51.2865 35.0208 51.9882C33.0739 52.3205 31.2036 51.4711 29.3965 50.6665C29.0351 50.5055 28.6737 50.3446 28.3571 50.1204L29.1723 44.1373L30.4888 34.8963L30.5969 34.8778L33.9473 33.638L39.5135 31.6859L51.4665 27.6972L51.5746 27.6788L51.741 5.83319Z" fill="white" stroke="white" stroke-width="5" stroke-miterlimit="10" stroke-linecap="round" stroke-linejoin="round"/>
<path d="M51.7396 5.83313C57.0156 12.6129 62.1254 18.4193 66.9345 23.4421C67.9396 24.4393 68.8365 25.4549 69.8232 26.344C69.2428 27.8345 68.8339 29.3513 68.6598 30.9394C68.5199 32.0764 68.417 33.4297 67.5992 34.1816C66.0718 35.6668 63.3969 34.3425 61.1519 34.5588C56.8783 34.9544 55.0712 40.9955 50.7527 41.4545C47.8588 41.7816 45.1258 39.4654 42.2503 39.9007C38.1851 40.539 36.4572 46.0657 32.4104 46.8123C31.2207 47.0154 30.0652 46.7674 28.9994 46.3928L29.3239 44.0555L30.1576 38.1806L30.6404 34.8145L30.7485 34.796L34.0988 33.5561L38.4041 32.0419C39.1058 31.5882 39.8709 31.1793 40.6913 31.0949C40.9076 31.058 41.1239 31.021 41.3587 31.0923L51.5732 27.6787L51.6814 27.6602L51.7396 5.83313Z" fill="white" stroke="white" stroke-width="5" stroke-miterlimit="10" stroke-linecap="round" stroke-linejoin="round"/>
<path d="M34.054 33.6193L38.3593 32.1051C35.7239 33.9465 34.0065 37.579 30.7617 38.133C30.5454 38.1699 30.3291 38.2069 30.0495 38.1989L30.5322 34.8328L30.6404 34.8143L34.054 33.6193Z" fill="white" stroke="white" stroke-width="5" stroke-miterlimit="10" stroke-linecap="round" stroke-linejoin="round"/>
<path d="M51.7399 5.83303C57.0159 12.6128 62.1257 18.4192 66.9348 23.442C66.7845 24.1912 66.5708 24.8956 65.9957 25.439C64.4234 26.9875 61.7933 25.5999 59.5483 25.8162C55.2747 26.2119 53.4228 32.3163 49.1043 32.7753C46.4267 33.0654 43.9206 31.1001 41.3142 31.1555L51.5287 27.7419L51.6368 27.7234L51.7399 5.83303Z" fill="white" stroke="white" stroke-width="5" stroke-miterlimit="10" stroke-linecap="round" stroke-linejoin="round"/>
<path d="M37.275 47.5957C38.5702 48.9886 39.4883 50.7798 39.5225 52.6106C39.5568 54.4414 38.5992 56.3302 36.9161 57.2298C39.2587 56.6072 41.8994 58.3827 42.0075 60.6461C42.1605 62.8462 39.6702 64.8854 37.3144 64.4527C38.7601 65.0964 40.3323 65.8298 40.7439 67.2623C41.1923 68.9111 39.4037 70.4965 37.6099 70.7471C35.7078 71.0162 33.9192 70.3197 32.2388 69.6048C33.7399 70.573 34.2437 72.5462 33.6369 74.2082C31.1889 73.2347 28.8674 72.351 26.7359 71.6018C19.3388 69.0244 13.5615 67.7844 9.61767 67.1777C8.29074 66.9033 7.32522 66.7899 6.48633 66.7661L6.9005 66.5841L27.4878 56.4462L27.5326 56.3829L29.1551 44.6964L29.2606 44.0106C32.3102 44.2691 35.2279 45.385 37.275 47.5957Z" fill="white" stroke="white" stroke-width="5" stroke-miterlimit="10" stroke-linecap="round" stroke-linejoin="round"/>
<path d="M29.1551 44.6964C29.535 44.9655 29.87 45.2979 30.2683 45.6751C31.5636 47.068 32.4816 48.8593 32.5159 50.6901C32.5502 52.5209 31.5477 54.473 29.8646 55.3726C32.1439 54.7051 34.8479 56.5254 34.956 58.7888C35.0642 61.0523 32.5739 63.0915 30.2181 62.6588C31.7086 63.2392 33.2808 63.9726 33.5842 65.4235C34.0327 67.0723 32.2625 68.7659 30.4054 68.9716C28.5666 69.2856 26.6699 68.6076 24.9895 67.8926C26.2373 68.6814 26.6936 70.0506 26.5907 71.4039C19.1937 68.8265 13.4164 67.5866 9.47255 66.9798C8.50703 66.8663 7.69451 66.6711 6.94531 66.5208L27.5326 56.3829L27.5775 56.3196L29.1551 44.6964Z" fill="white" stroke="white" stroke-width="5" stroke-miterlimit="10" stroke-linecap="round" stroke-linejoin="round"/>
<path d="M90.7038 44.6519C91.7352 45.4776 92.7034 46.2585 93.5898 46.8864L93.0805 61.8335L93.0462 62.2846L82.3041 66.8457C81.489 65.983 80.9614 64.8487 81.0563 63.775C81.2753 62.1236 83.1378 60.9708 84.8446 61.5142C83.1562 61.0789 82.3174 58.7733 83.2591 57.4437C84.2009 56.1141 86.0845 55.7369 87.8177 56.1089C85.9579 55.6472 84.2827 53.9852 84.0321 52.1914C83.7182 50.3527 84.8024 48.5535 86.5409 47.9785C85.0161 47.8492 83.523 46.6014 82.94 45.1425C82.2489 43.7022 82.2515 42.0877 82.4441 40.6078C82.576 39.7504 82.7712 38.9379 83.0746 38.1069C85.863 40.7476 88.5142 42.9108 90.7038 44.6519Z" fill="white" stroke="white" stroke-width="5" stroke-miterlimit="10" stroke-linecap="round" stroke-linejoin="round"/>
<path d="M93.5713 46.7783L93.5291 47.509L93.0332 47.538C91.1127 47.6989 89.3848 48.6618 88.29 50.0732C87.976 50.5163 87.7254 51.0044 87.5197 51.4291C87.4036 51.7272 87.2875 52.0253 87.2347 52.3682C87.0395 53.1808 86.6913 54.075 86.1531 54.8348C85.884 55.2147 85.5965 55.4864 85.2456 55.7133C83.7973 56.6841 81.7133 56.5389 79.0753 55.431L78.5872 55.1803C77.2234 54.6897 76.0125 54.1172 74.9942 54.3467C73.8678 54.5947 73.0869 55.5628 72.1267 56.7842C71.2113 57.9423 70.2246 59.3352 68.5046 60.0184C67.0009 60.6647 65.368 60.5539 63.9514 60.4062C63.3288 60.3455 62.7695 60.3297 62.1654 60.3772C61.2817 60.4167 60.2634 60.6462 59.3902 61.0736C58.9681 61.5352 58.5012 62.0602 58.0158 62.477C57.4407 63.0204 56.9104 63.5006 56.5068 64.0704C56.2377 64.4503 56.0768 64.8117 55.9159 65.1731C55.5782 66.4552 56.3511 68.0485 57.0792 69.7052C57.8891 71.5149 58.7623 73.3695 58.5354 75.3005C58.3956 76.4375 57.9577 77.4584 57.0871 78.5532C56.5938 79.2496 55.9738 79.8564 55.5069 80.3814C54.5097 81.3864 53.5574 82.3282 52.5417 83.2251C52.117 83.0194 51.7371 82.7503 51.2491 82.4997C49.0437 81.3178 46.9016 80.1808 44.8413 79.1968C44.3533 78.9462 43.8653 78.6956 43.3772 78.445L44.0974 78.0994C45.2766 77.5085 46.1762 76.9096 46.9491 76.2211C47.5875 75.7225 48.0545 75.1976 48.5029 74.5644C49.7323 72.9632 50.1939 71.1033 49.8088 69.4994C49.6347 68.8056 49.2891 68.0854 48.9435 67.3652C48.4793 66.2757 47.9517 65.1414 47.8382 63.825C47.5929 61.0841 49.1626 58.8681 50.7507 56.7603C52.0512 54.9243 53.3254 53.2597 53.2278 51.384C53.2041 49.941 52.2597 48.3213 50.5845 46.6593C48.1127 44.2428 45.0843 42.478 41.8659 40.5786C38.8374 38.8137 35.6823 36.9592 33.039 34.5163L32.5141 34.0494L34.0362 33.5112L38.3415 31.997L39.6025 31.5591L41.0798 31.0843C43.2904 33.601 46.1395 35.6191 48.9253 37.5924C49.3685 37.9063 49.8116 38.2202 50.2548 38.5342C53.6104 40.911 57.3379 43.8366 59.6805 47.7779C60.9335 49.9015 61.6379 52.3971 61.6379 54.679C61.8093 54.7054 61.936 54.7951 62.1074 54.8215C62.577 54.9639 63.0914 55.0431 63.4977 55.1407C65.3839 55.4309 67.3387 54.8189 68.5785 53.6054C68.9109 53.2703 69.2882 52.872 69.6021 52.4288C70.5624 51.2074 71.6756 49.9042 73.5776 49.6352C75.2633 49.403 76.7723 50.0916 78.0465 50.7089C78.9592 51.1652 79.7454 51.5319 80.5394 51.619C82.0642 51.7483 83.1959 50.5532 83.7341 49.7935C83.8238 49.6669 83.9583 49.4769 84.048 49.3503C84.4516 48.7805 84.6838 48.1843 85.0241 47.5696C85.4805 46.6569 85.9369 45.7441 86.5832 44.9659C86.7177 44.776 86.8523 44.586 87.0053 44.5043C87.4722 43.9793 88.0025 43.4992 88.6145 43.1721C89.0577 43.486 89.456 43.8632 89.8359 44.1323C91.0573 45.0926 92.0703 45.8101 92.7667 46.3034C93.0648 46.4195 93.3814 46.6437 93.5713 46.7783Z" fill="white" stroke="white" stroke-width="5" stroke-miterlimit="10" stroke-linecap="round" stroke-linejoin="round"/>
<path d="M89.8178 44.024C89.1424 44.3062 88.5673 44.8497 88.0556 45.438C86.8526 46.8678 86.2195 48.7012 85.2064 50.2655C84.1934 51.8299 82.5394 53.2254 80.5635 53.0618C78.308 52.8903 76.1079 50.7614 73.8814 51.0859C71.9345 51.4183 70.9953 53.4153 69.6024 54.7105C68.0302 56.2591 65.6427 56.9449 63.3503 56.5571C62.3214 56.3988 61.2557 56.0242 60.182 55.9293C60.488 53.4838 59.7652 50.8801 58.4304 48.6034C56.3147 45.013 52.9037 42.3117 49.4216 39.8451C45.9394 37.3785 42.3675 35.0385 39.6398 31.7753L34.0735 33.7274C39.1886 38.5867 46.5039 41.0111 51.6375 45.9785C53.1675 47.4426 54.6184 49.4212 54.7081 51.5765C54.9429 56.2115 48.9756 59.4008 49.3185 64.0174C49.4794 65.9379 50.8301 67.6553 51.2073 69.5388C51.8774 72.4855 50.3288 75.477 47.9282 77.3896C47.0022 78.1599 45.9496 78.8405 44.7704 79.4314C46.7859 80.4787 48.9728 81.5524 51.1782 82.7343C52.2387 81.774 53.2807 80.7056 54.2779 79.7006C55.5627 78.4238 56.8105 76.9306 56.9661 75.2344C57.3671 71.7152 53.4206 68.1591 54.5075 64.7455C55.1222 62.8039 57.0928 61.6327 58.3222 60.0314C59.4565 59.5038 60.6727 59.1292 61.9442 59.0791C63.8831 59.0263 65.9777 59.5592 67.7426 58.8127C70.6154 57.71 71.42 53.621 74.4485 53.104C76.0709 52.827 77.7698 53.6501 79.3421 54.3835C80.9592 55.0536 82.8375 55.6234 84.1327 54.7344C85.3383 53.972 85.5573 52.3206 86.048 50.9567C87.0478 48.3372 89.6384 46.5591 92.5323 46.232C92.0522 45.7018 91.0392 44.9842 89.8178 44.024Z" fill="white" stroke="white" stroke-width="5" stroke-miterlimit="10" stroke-linecap="round" stroke-linejoin="round"/>
<path d="M93.5698 46.7784L93.079 61.8337L51.5724 27.6788L51.6806 27.6603L51.7836 5.76987C72.0884 31.4671 90.4042 44.5361 93.5698 46.7784Z" fill="white" stroke="white" stroke-width="5" stroke-miterlimit="10" stroke-linecap="round" stroke-linejoin="round"/>
<path d="M80.1869 67.8192L80.0339 67.901L78.4879 85.2513L78.3349 85.3331L27.5317 56.383L30.5946 34.8777L30.7476 34.796L80.1869 67.8192Z" fill="white" stroke="white" stroke-width="5" stroke-miterlimit="10" stroke-linecap="round" stroke-linejoin="round"/>
<path d="M62.9378 45.9972C62.6582 45.9893 62.2071 45.955 61.5397 45.9576L61.5106 45.4617C62.1781 45.4591 62.6292 45.4934 62.9088 45.5013L62.9378 45.9972ZM45.9408 67.7108C45.7614 67.964 45.4739 68.2358 45.2312 68.4442L44.8961 68.1118C45.247 67.8849 45.4712 67.5683 45.7403 67.1885L46.165 67.3942C46.0754 67.5209 45.9857 67.6475 45.9408 67.7108ZM46.5476 66.0488L46.0965 66.0145C46.1492 65.6716 46.1835 65.2205 46.1545 64.7245L46.6056 64.7588C46.6346 65.2548 46.6003 65.7059 46.5476 66.0488ZM43.899 69.1169C43.4215 69.254 42.9888 69.3279 42.448 69.4202L42.3742 68.9876C42.8701 68.9586 43.3476 68.8214 43.7169 68.7027L43.899 69.1169ZM60.1415 45.9181L58.7433 45.8785L58.7143 45.3825L60.1125 45.4221L60.1415 45.9181ZM46.6003 63.424L46.1044 63.453C46.0305 63.0204 46.0648 62.5693 45.991 62.1366L46.4869 62.1076C46.4975 62.4954 46.5265 62.9914 46.6003 63.424ZM41.005 69.444C40.5539 69.4097 40.058 69.4387 39.5436 69.3595L39.5779 68.9084C40.0923 68.9876 40.5882 68.9586 40.976 68.948L41.005 69.444ZM57.4085 45.8838L56.0103 45.8442L55.9813 45.3482L57.3795 45.3878L57.4085 45.8838ZM46.2653 60.8097L45.7694 60.8387C45.6955 60.4061 45.6217 59.9734 45.5478 59.5408L46.0437 59.5118C46.1625 59.8811 46.2363 60.3137 46.2653 60.8097ZM38.1269 69.2118C37.6758 69.1775 37.2063 69.035 36.6919 68.9559L36.7895 68.5496C37.3039 68.6288 37.7101 68.7264 38.1612 68.7607L38.1269 69.2118ZM45.8037 58.1057L45.3711 58.1796L45.1495 56.8817L45.5821 56.8078L45.8037 58.1057ZM54.5673 45.8679L53.1692 45.8283L53.1402 45.3324L54.5383 45.372L54.5673 45.8679ZM45.3605 55.5099L44.8646 55.5389C44.7907 55.1063 44.7168 54.6736 44.6878 54.1777L45.1838 54.1486C45.2576 54.5813 45.3315 55.0139 45.3605 55.5099ZM35.2568 68.7C34.7872 68.5575 34.2728 68.4784 33.8665 68.3808L33.9641 67.9745C34.4337 68.117 34.84 68.2146 35.3544 68.2937L35.2568 68.7ZM51.7895 45.8969L50.3465 45.9206L50.3175 45.4247L51.7605 45.401L51.7895 45.8969ZM45.007 52.7874L44.5111 52.8164C44.4821 52.3205 44.4082 51.8878 44.4425 51.4367L44.9385 51.4077C44.9675 51.9037 44.978 52.2915 45.007 52.7874ZM48.9483 45.8811C48.4524 45.9101 48.0197 45.9839 47.5871 46.0578L47.4499 45.5803C47.8826 45.5065 48.36 45.3693 48.9193 45.3851L48.9483 45.8811ZM32.5211 67.9983C32.0516 67.8558 31.582 67.7133 31.1757 67.6157L31.3815 67.191C31.7878 67.2886 32.2573 67.4311 32.7269 67.5735L32.5211 67.9983ZM44.9965 50.1177L44.5454 50.0834C44.6245 49.569 44.6588 49.1179 44.7565 48.7116L45.226 48.8541C45.0651 49.2155 45.0308 49.6666 44.9965 50.1177ZM46.4712 46.6936C46.1203 46.9204 45.8512 47.3003 45.6903 47.6617L45.2656 47.4559C45.4714 47.0312 45.8486 46.6329 46.2443 46.3427L46.4712 46.6936ZM29.767 67.1884C28.936 66.885 28.4032 66.6977 28.4032 66.6977L28.6089 66.273C28.6089 66.273 29.1418 66.4603 29.9728 66.7636L29.767 67.1884Z" fill="white" stroke="white" stroke-width="5" stroke-miterlimit="10" stroke-linecap="round" stroke-linejoin="round"/>
<path d="M24.172 64.0808C23.589 64.9038 24.0269 66.1648 25.1929 66.8006C26.3141 67.4997 27.7386 67.3678 28.3216 66.5447C28.9046 65.7217 28.4219 64.524 27.3007 63.8249C26.198 63.234 24.755 63.2577 24.172 64.0808ZM27.4089 66.0883C27.0949 66.5315 26.2745 66.6159 25.5965 66.2308C24.9185 65.8456 24.6811 65.107 24.9951 64.6638C25.309 64.2206 26.1294 64.1362 26.8074 64.5213C27.5487 64.9513 27.7676 65.5818 27.4089 66.0883Z" fill="white" stroke="white" stroke-width="5" stroke-miterlimit="10" stroke-linecap="round" stroke-linejoin="round"/>
<path d="M63.0761 44.1929C62.4034 45.1426 62.7516 46.5302 63.8279 47.2926C64.9676 48.0998 66.3921 47.968 67.0199 47.0816C67.6927 46.1319 67.3444 44.7443 66.2681 43.9819C65.1734 43.1113 63.7488 43.2432 63.0761 44.1929ZM66.1784 46.3904C65.8196 46.8969 64.9992 46.9813 64.3661 46.5328C63.733 46.0844 63.5404 45.2824 63.8992 44.7759C64.2579 44.2694 65.0784 44.185 65.7115 44.6335C66.4079 45.1268 66.6005 45.9288 66.1784 46.3904Z" fill="white" stroke="white" stroke-width="5" stroke-miterlimit="10" stroke-linecap="round" stroke-linejoin="round"/>
<path d="M90.2223 48.5262L89.6255 62.9912L89.6142 63.2907L77.899 68.1998L76.3788 83.7073L62.2745 87.9515C27.8198 66.3783 8.375 66.7246 8.375 66.7246L29.5577 56.4717L32.5171 37.1489L51.3217 30.8881L51.6459 9.52634C71.9716 36.3599 90.2223 48.5262 90.2223 48.5262Z" fill="#FFE6C2"/>
<path d="M29.5582 56.4714L76.3681 83.6989L78.3425 68.3312L32.5201 37.1334L29.5582 56.4714Z" fill="#F4D7A8"/>
<path d="M90.2214 48.5261L89.6246 62.9911L51.337 30.8656L51.645 9.52623C71.9707 36.3598 90.2214 48.5261 90.2214 48.5261Z" fill="#F4D7A8"/>
<path d="M52.4253 11.9949C56.6053 17.5031 61.0668 22.7918 65.7919 27.8398C66.642 28.744 67.4874 29.6192 68.2829 30.4926C69.3397 31.5717 70.3791 32.604 71.3857 33.587C71.8158 34.0086 72.2402 34.4261 72.6671 34.8282C77.6872 39.6315 81.9209 43.2175 84.9496 45.5748C85.3482 45.8625 85.6999 46.1677 86.0439 46.4246C87.1382 47.2743 88.0002 47.9137 88.6345 48.3716L89.3586 48.8943L89.323 49.5351L88.8019 62.3456L88.7884 62.7546L77.2492 67.5856L77.1297 67.6446L75.5717 83.1335L75.4572 83.1619L62.3536 87.12C58.9886 85.0157 55.7698 83.1109 52.7095 81.3888L52.4478 81.2427C52.0658 81.0267 51.695 80.8188 51.3145 80.6126C49.3641 79.5293 47.4664 78.5269 45.6391 77.5924L44.3265 76.9269C41.1957 75.3733 38.2643 74.0207 35.5323 72.8689C23.768 67.9574 15.6264 66.4729 11.502 66.0593L30.3523 57.0028L30.3648 56.9264L31.1961 51.3391L31.6954 48.0333L32.0108 45.9878L32.8234 40.7459L33.2783 37.7499L33.3816 37.7134L35.0011 37.1732L36.3642 36.7044L40.2404 35.3919L41.3614 35.0218L42.6833 34.5745L42.9285 34.4951L52.0923 31.5472L52.1584 31.5265L52.4253 11.9949Z" fill="#F4D7A8"/>
<path d="M76.604 38.4475C80.9589 42.386 84.5172 45.2281 86.8174 46.9741C88.0224 47.8952 88.8981 48.5273 89.3793 48.8662L89.3768 49.0353L88.8024 62.3455L88.7889 62.7545L77.2496 67.5855L77.1301 67.6446L75.5722 83.1334L75.4577 83.1619L62.3581 87.1144C62.2683 87.0495 62.1841 86.9888 62.1055 86.932C60.4398 85.892 58.8069 84.9012 57.222 83.9622C55.6371 83.0232 54.1869 82.1815 52.7205 81.3622C53.2171 80.7011 53.8834 80.1868 54.6487 79.8741C56.6609 79.0619 59.0297 79.2935 61.2753 79.5301C61.0066 78.8198 61.0222 78.0329 61.3189 77.3333C61.6156 76.6338 62.1704 76.0754 62.868 75.7743C63.594 75.5005 64.383 75.4401 65.1419 75.6002C65.9008 75.7604 66.5979 76.1344 67.1508 76.6782C66.3208 75.7627 65.8296 74.5902 65.759 73.3559C65.6883 72.1216 66.0425 70.8999 66.7625 69.8944C66.977 69.6108 67.2234 69.3528 67.4968 69.1255C67.016 69.143 66.5348 69.1027 66.0637 69.0053C64.9294 68.7905 63.8735 68.2763 63.0053 67.5158C62.137 66.7553 61.488 65.7762 61.1255 64.68C60.8228 63.3869 61.02 62.0267 61.6777 60.8721C62.3354 59.7176 63.4049 58.854 64.6717 58.4546C64.6243 57.5325 64.8932 56.6215 65.4338 55.8726C65.9744 55.1237 66.7544 54.5817 67.6446 54.3364C68.3016 54.1836 68.9828 54.1669 69.6463 54.2873C70.3097 54.4076 70.9415 54.6625 71.5026 55.0362C70.7868 54.1254 70.3962 53.0011 70.3929 51.8422C70.4125 51.0046 70.6608 50.1881 71.1109 49.4812C71.561 48.7742 72.1958 48.2038 72.9465 47.8315C70.0359 44.1751 70.199 38.8747 72.4785 35.1019L72.6975 34.7985C74.06 36.1126 75.3622 37.3289 76.604 38.4475Z" fill="#9DC95F"/>
<path d="M76.8469 38.1106C77.9687 39.1825 79.0492 40.1933 80.0885 41.1429C82.6232 43.4512 84.8966 45.4 86.8394 46.9905C87.7675 47.763 88.6276 48.4522 89.3988 49.0517L88.8019 62.3458L88.7884 62.7548L79.2033 66.783L77.2772 67.606L77.1297 67.6448L75.5717 83.1336L75.4572 83.1621L62.3577 87.1146C62.2678 87.0498 62.1836 86.989 62.105 86.9323C60.4108 85.92 58.7549 84.9611 57.1373 84.0555L57.2103 83.9544C57.6989 83.3521 58.3314 82.8827 59.0492 82.5898C61.0508 81.8042 63.4172 82.051 65.6425 82.3157C65.3844 81.6196 65.4042 80.8506 65.698 80.1683C65.9918 79.486 66.5369 78.9429 67.2202 78.6517C67.9403 78.3821 68.7215 78.32 69.4748 78.4725C70.2282 78.625 70.9234 78.986 71.4815 79.5144C69.497 77.2956 69.6083 73.8294 71.7636 72.0266C70.8184 72.033 69.8821 71.8447 69.0132 71.4732C68.1443 71.1018 67.3613 70.5553 66.713 69.8678C66.454 69.593 66.2201 69.2954 66.0142 68.9788C65.5891 68.3183 65.3253 67.5669 65.2443 66.7853C65.1633 66.0037 65.2674 65.2139 65.548 64.4797C65.8286 63.7454 66.278 63.0874 66.8598 62.5588C67.4416 62.0302 68.1394 61.6459 68.897 61.4369C68.8473 60.5251 69.1151 59.624 69.6549 58.887C70.1947 58.1501 70.973 57.6228 71.8573 57.3951C72.5217 57.2404 73.2107 57.2238 73.8816 57.3465C74.5524 57.4691 75.1908 57.7283 75.7572 58.108C75.0369 57.2072 74.6404 56.0903 74.6312 54.9365C74.6447 54.1084 74.8877 53.3002 75.3331 52.6018C75.7785 51.9034 76.4088 51.3421 77.1539 50.9804C74.248 47.353 74.3752 42.1378 76.6126 38.4115L76.6409 38.3722L76.8469 38.1106Z" fill="#86AD49"/>
<path d="M52.425 11.9951C58.2258 19.63 64.5691 26.8367 71.4058 33.5591C70.4046 35.3636 69.7536 37.341 69.4872 39.387C69.356 40.4204 69.2797 41.5788 68.5329 42.2703C67.1387 43.5629 64.7486 42.3673 62.7801 42.5274C58.9584 42.8536 57.3511 48.12 53.5066 48.4897C50.9458 48.7606 48.5 46.6959 45.942 47.0457C42.3149 47.5637 40.7685 52.4382 37.1248 53.0383C35.3915 53.334 33.6834 52.5538 32.1184 51.8002C31.8036 51.6527 31.4961 51.4991 31.1959 51.3393L32.0106 45.9879L33.2894 37.7582L33.3926 37.7217L36.3954 36.6846L41.3774 34.9995L52.0768 31.5449L52.143 31.5242L52.425 11.9951Z" fill="#F2A35C"/>
<path d="M52.4264 11.9947C56.6064 17.503 61.0679 22.7916 65.7931 27.8396C66.6431 28.7438 67.4885 29.619 68.284 30.4924C67.7479 31.8055 67.3828 33.1819 67.1976 34.5879C67.0583 35.6325 66.9738 36.8022 66.2245 37.509C64.8182 38.8184 62.4418 37.6156 60.4637 37.7773C56.6394 38.1188 55.0028 43.4495 51.1299 43.8585C48.5707 44.1391 46.1314 42.0535 43.5694 42.4089C39.9341 42.9382 38.3681 47.8754 34.7163 48.4867C33.6788 48.6259 32.6232 48.4888 31.656 48.0893L31.9714 46.0438L32.7839 40.8019L33.2389 37.8059L33.3422 37.7694L36.345 36.7323L40.2212 35.4198C40.8274 34.9774 41.5313 34.6881 42.273 34.5764C42.469 34.5427 42.6679 34.5288 42.8666 34.5348L52.0304 31.587L52.0966 31.5663L52.4264 11.9947Z" fill="#DB8946"/>
<path d="M36.3965 36.6845L40.2727 35.3719C37.9253 36.9677 36.3194 40.2096 33.4355 40.6916C33.2308 40.7283 33.0238 40.7502 32.816 40.7572L33.271 37.7612L33.3743 37.7247L36.3965 36.6845Z" fill="#BF7137"/>
<path d="M52.4251 11.9948C56.6051 17.503 61.0666 22.7917 65.7918 27.8397C65.7161 28.5041 65.4285 29.1265 64.9715 29.6148C63.5586 30.9451 61.1887 29.7214 59.2147 29.8774C55.3904 30.219 53.7139 35.6405 49.879 36.0086C47.5188 36.2619 45.2744 34.4623 42.9293 34.47L52.0931 31.5221L52.1592 31.5015L52.4251 11.9948Z" fill="#BF7137"/>
<path d="M39.1225 49.1474C40.3117 50.334 41.0165 51.9212 41.0998 53.6C41.1091 54.4333 40.8926 55.2538 40.4732 55.9743C40.0538 56.6948 39.4473 57.2884 38.718 57.6919C40.8019 57.1708 43.1414 58.7913 43.2296 60.7864C43.3179 62.7815 41.0953 64.5357 38.9881 64.1427C40.2893 64.7059 41.6952 65.3961 42.0016 66.6513C42.3403 68.1692 40.7643 69.5953 39.1331 69.7851C37.5018 69.9749 35.8442 69.3851 34.3325 68.7468C34.967 69.1984 35.4306 69.8509 35.6483 70.5988C35.866 71.3468 35.8251 72.1466 35.5323 72.8689C33.3604 71.9506 31.307 71.152 29.3842 70.4562C24.431 68.6259 19.3171 67.2633 14.1094 66.3862C13.1079 66.2358 12.2424 66.0982 11.502 66.0593L11.8887 65.8429L30.3767 56.9691L30.3891 56.8927L31.9474 46.5488L32.0352 45.9541C34.7138 46.0968 37.2416 47.2357 39.1225 49.1474Z" fill="#9DC95F"/>
<path d="M31.923 46.5824C32.261 46.8497 32.5771 47.1436 32.8682 47.4612C34.0589 48.6561 34.7543 50.2569 34.8155 51.9435C34.8215 52.7882 34.6017 53.6193 34.1787 54.3508C33.7558 55.0823 33.1451 55.6875 32.41 56.1038C34.4805 55.5303 36.8506 57.1558 36.9323 59.1718C37.014 61.1878 34.7711 62.97 32.659 62.6076C33.9401 63.1393 35.3726 63.8401 35.6749 65.1009C36.0355 66.6004 34.4233 68.0175 32.7973 68.271C31.1714 68.5244 29.4994 67.9071 27.9796 67.2801C28.481 67.6297 28.8765 68.1104 29.1232 68.6698C29.3699 69.2291 29.4582 69.8457 29.3785 70.4521C24.427 68.6234 19.315 67.2622 14.1093 66.3861C13.3246 66.1956 12.5844 66.0145 11.8887 65.8428L30.3766 56.969L30.3891 56.8926L31.923 46.5824Z" fill="#86AD49"/>
<path d="M86.8238 46.978C87.7519 47.7505 88.612 48.4397 89.3832 49.0392L88.8031 62.3454L88.7897 62.7544L79.2046 66.7826C78.8306 66.4339 78.541 66.0045 78.3575 65.5271C78.174 65.0497 78.1015 64.5367 78.1455 64.0269C78.217 63.6654 78.3643 63.3231 78.5777 63.0225C78.7912 62.722 79.0659 62.4702 79.3837 62.2837C79.7016 62.0971 80.0553 61.9802 80.4216 61.9405C80.7879 61.9008 81.1583 61.9392 81.5085 62.0533C81.1527 61.9395 80.8272 61.7471 80.5559 61.4904C80.2846 61.2337 80.0744 60.9192 79.9411 60.5702C79.8077 60.2212 79.7545 59.8467 79.7853 59.4742C79.8162 59.1017 79.9303 58.7409 80.1193 58.4184C80.9548 57.261 82.6712 56.9532 84.212 57.2792C83.3741 57.0669 82.6137 56.6213 82.0192 55.9939C81.4247 55.3666 81.0203 54.5833 80.8532 53.735C80.7374 52.9425 80.9 52.1341 81.3131 51.4475C81.7262 50.7609 82.3643 50.2386 83.1189 49.9695C82.4037 49.8513 81.7303 49.5537 81.1617 49.1043C80.5931 48.655 80.1478 48.0687 79.8675 47.4002C79.3527 46.1116 79.2119 44.7037 79.4612 43.3381C79.5668 42.5807 79.7711 41.8404 80.0689 41.136C82.6279 43.4106 84.881 45.3875 86.8238 46.978Z" fill="#698434"/>
<path d="M89.3853 48.8701L89.3497 49.511L88.9139 49.5468C88.1001 49.6093 87.3074 49.8366 86.5838 50.2148C85.8602 50.5929 85.2208 51.1142 84.7045 51.7468C84.422 52.119 84.1925 52.5285 84.0224 52.9637C83.9285 53.2121 83.8433 53.4839 83.7459 53.7725C83.5465 54.565 83.2071 55.3156 82.7437 55.9889C82.5081 56.3027 82.2165 56.5703 81.8837 56.7781C80.5757 57.6201 78.7246 57.523 76.4011 56.4952L75.9474 56.2959C74.7925 55.7784 73.7019 55.2902 72.7736 55.4406C71.8454 55.5909 71.0489 56.5286 70.2228 57.5902C69.4288 58.822 68.3083 59.8092 66.9863 60.4413C65.6705 60.8679 64.275 60.9887 62.906 60.7946C62.3784 60.7457 61.8486 60.7255 61.3188 60.7342C60.4586 60.7655 59.6127 60.9649 58.8288 61.321C58.4335 61.7621 58.0111 62.158 57.6025 62.5467C57.1144 62.9753 56.6639 63.445 56.2561 63.9505C56.0266 64.236 55.8504 64.5603 55.7356 64.908C55.3409 66.1528 55.9731 67.5835 56.6525 69.0908C57.3318 70.5982 58.1016 72.3589 57.8745 74.152C57.7002 75.2269 57.2451 76.2368 56.5553 77.0796C56.1017 77.6515 55.6146 78.1959 55.0965 78.71C54.1956 79.615 53.3224 80.4461 52.4543 81.2466C52.0722 81.0306 51.7014 80.8228 51.3209 80.6165C49.3705 79.5333 47.4728 78.5308 45.6455 77.5964L44.3329 76.9308L44.9876 76.5916C45.9009 76.1352 46.7631 75.5831 47.5598 74.9445C48.0821 74.5146 48.5527 74.0255 48.9621 73.487C49.4797 72.8735 49.8554 72.1532 50.0624 71.3778C50.2694 70.6023 50.3025 69.7909 50.1594 69.0014C49.9806 68.3391 49.739 67.6954 49.438 67.0791C48.9335 66.0912 48.6037 65.0234 48.4632 63.9228C48.2778 61.4473 49.7254 59.5011 51.1227 57.6127C52.2908 55.9947 53.4332 54.4948 53.3842 52.8357C53.3389 51.5382 52.5489 50.1133 51.0533 48.5892C48.8601 46.3993 46.1758 44.7949 43.3319 43.0923C40.6309 41.4758 37.8319 39.8057 35.5077 37.5724L35.0496 37.1306L36.4127 36.6618L40.2889 35.3493L41.4099 34.9792L42.6841 34.5743C44.6306 36.834 47.1679 38.6656 49.6209 40.4364C50.0139 40.7201 50.4068 41.0037 50.7998 41.2874C53.7637 43.427 57.0671 46.0424 59.1023 49.6224C60.2005 51.4953 60.7927 53.622 60.8206 55.7939L61.2186 55.8932C61.6487 56.0071 62.0619 56.1088 62.4496 56.175C63.261 56.3168 64.0941 56.272 64.8859 56.044C65.6777 55.8161 66.4074 55.4109 67.0198 54.8593C67.3522 54.5339 67.6643 54.1884 67.9544 53.8248C68.8239 52.7859 69.8197 51.6075 71.4956 51.3559C72.9878 51.1341 74.3223 51.7812 75.5058 52.3536C76.1904 52.7422 76.9349 53.0139 77.7089 53.1577C79.0407 53.2645 80.097 52.2152 80.5715 51.5579L80.8554 51.1646C81.2042 50.6814 81.4616 50.1238 81.7577 49.5598C82.1672 48.7262 82.648 47.9295 83.1948 47.1788C83.3115 47.023 83.4365 46.8736 83.5691 46.7311C83.9845 46.2524 84.4751 45.8445 85.0215 45.5234C85.4201 45.8112 85.7719 46.1164 86.1158 46.3732C87.2101 47.223 88.0721 47.8623 88.7064 48.3202L89.3853 48.8701Z" fill="#8BC7EF"/>
<path d="M86.0695 46.4007C85.4675 46.6974 84.932 47.1133 84.4954 47.6232C83.3858 48.8646 82.8206 50.4992 81.909 51.8921C80.9974 53.2851 79.5231 54.5112 77.6851 54.3723C75.6347 54.2083 73.7509 52.2758 71.7407 52.5766C69.9955 52.8295 69.139 54.5956 67.8912 55.78C67.1347 56.4555 66.2355 56.9513 65.2608 57.2303C64.286 57.5093 63.261 57.5644 62.2624 57.3913C61.3245 57.2356 60.3917 56.8955 59.4545 56.7744C59.6606 54.4827 59.1377 52.185 57.9604 50.2094C56.1199 46.9749 53.0787 44.5403 50.005 42.3044C46.9313 40.0685 43.7369 37.9762 41.3393 35.0404L36.3461 36.7174C40.8709 41.0948 47.4017 43.2966 51.8832 47.805C53.2965 49.2184 54.5397 50.9619 54.6002 52.8771C54.746 57.0161 49.3933 59.818 49.7094 63.8749C49.8426 65.5948 51.0017 67.1237 51.3862 68.8029C51.9856 71.4147 50.5366 74.0607 48.4122 75.8088C47.5446 76.5017 46.6073 77.1025 45.6154 77.6014C47.4427 78.5359 49.3404 79.5383 51.2908 80.6215C52.256 79.7458 53.1834 78.8514 54.0828 77.9367C55.2218 76.7847 56.3614 75.5136 56.5678 73.962C56.9664 70.8312 53.4462 67.6406 54.4539 64.5651C55.001 62.8491 56.7609 61.7951 57.9286 60.3904C58.9471 59.8842 60.0621 59.6021 61.1984 59.5631C62.9457 59.5083 64.8317 60.0066 66.4025 59.38C68.9681 58.3691 69.716 54.7899 72.4187 54.3223C73.8741 54.0569 75.3801 54.8449 76.8066 55.4474C78.2331 56.0498 79.9226 56.5601 81.1045 55.7981C82.1935 55.1057 82.3825 53.6611 82.8349 52.4665C83.3285 51.3033 84.136 50.3003 85.167 49.5699C86.198 48.8394 87.4118 48.4104 88.6723 48.3309C88.0258 47.8898 87.1582 47.2465 86.0695 46.4007Z" fill="#69AAE0"/>
<g style="mix-blend-mode:multiply">
<path d="M89.3845 48.8701L88.8019 62.3454L52.097 31.576L52.1631 31.5554L52.4253 11.9947C70.3288 35.0629 86.5423 46.8696 89.3845 48.8701Z" fill="#DDB98A"/>
</g>
<g style="mix-blend-mode:multiply">
<path d="M77.2497 67.5855L77.1303 67.6445L75.5723 83.1334L75.4578 83.1618L30.3654 56.9263L33.2901 37.7579L33.3934 37.7214L77.2497 67.5855Z" fill="#DDB98A"/>
</g>
<path d="M62.0581 47.9531C61.8086 47.9439 61.3885 47.9227 60.8161 47.9112L60.8047 47.5012C61.3826 47.5168 61.8068 47.5324 62.0523 47.5472L62.0581 47.9531ZM46.7026 67.2495C46.5193 67.4905 46.2985 67.7005 46.0487 67.8714L45.7855 67.5618C46.0895 67.3514 46.3418 67.0748 46.5233 66.7527L46.9047 66.934C46.8432 67.0428 46.7757 67.1482 46.7026 67.2495ZM47.2661 65.7591L46.8454 65.7032C46.8835 65.3547 46.9057 64.9691 46.9136 64.556L47.3378 64.5717C47.3388 64.9646 47.3175 65.3573 47.2742 65.7479L47.2661 65.7591ZM44.8728 68.4241C44.4532 68.5468 44.0227 68.6281 43.5874 68.667L43.5347 68.2786C43.9411 68.2445 44.3427 68.1678 44.7331 68.0498L44.8728 68.4241ZM59.5629 47.8611L58.3266 47.8232L58.3151 47.4133L59.5571 47.4552L59.5629 47.8611ZM47.2999 63.3821L46.8748 63.3914C46.8487 63.0136 46.8154 62.6221 46.7668 62.2281L47.1929 62.1938C47.2262 62.5853 47.2723 62.9946 47.2999 63.3821ZM42.2861 68.719C41.8788 68.7155 41.449 68.6958 40.9936 68.6406L41.0352 68.2518C41.4778 68.2893 41.9035 68.3146 42.2996 68.31L42.2861 68.719ZM57.1014 47.7934L55.8651 47.7555L55.8536 47.3456L57.0956 47.3876L57.1014 47.7934ZM47.0633 60.9893L46.6226 61.0558L46.4438 59.8841L46.8667 59.8304L47.0633 60.9893ZM39.6999 68.4929C39.2929 68.4298 38.865 68.3602 38.4299 68.2769L38.5213 67.89C38.9467 67.9749 39.3706 68.0501 39.772 68.1091L39.6999 68.4929ZM46.6599 58.6385L46.2329 58.6977L46.0372 57.5139L46.4601 57.4602L46.6599 58.6385ZM54.5632 47.7729L53.3324 47.7391L53.3169 47.3348L54.5477 47.3686L54.5632 47.7729ZM46.2966 56.291L45.8721 56.335C45.8104 55.9315 45.7562 55.5335 45.7095 55.1408L46.1396 55.1009C46.1826 55.4909 46.2368 55.8889 46.2966 56.291ZM37.1755 68.0038C36.7525 67.9036 36.3393 67.8018 35.9357 67.6985L36.0577 67.3166C36.4517 67.4214 36.8649 67.5232 37.2822 67.6193L37.1755 68.0038ZM52.0724 47.7695L50.8107 47.7903L50.7936 47.3763L52.0188 47.4061L52.0724 47.7695ZM46.0173 53.9101L45.5897 53.9347C45.5582 53.4933 45.5387 53.0946 45.5278 52.7193L45.9545 52.7196C45.9638 53.0853 45.9818 53.4743 46.0173 53.9101ZM49.5806 47.7911C49.1822 47.7935 48.7857 47.8461 48.4003 47.9475L48.2769 47.5508C48.6997 47.443 49.1344 47.3893 49.5707 47.3908L49.5806 47.7911ZM34.7122 67.3708C34.2806 67.2472 33.8682 67.1205 33.4921 67.0028L33.635 66.6274C34.0112 66.7451 34.4179 66.8677 34.8495 66.9913L34.7122 67.3708ZM46.0083 51.545L45.5851 51.5044C45.6192 51.0911 45.6841 50.6809 45.7793 50.2772L46.1982 50.383C46.0978 50.76 46.0287 51.1446 45.9915 51.5328L46.0083 51.545ZM47.3775 48.4654C47.0584 48.6801 46.7874 48.9589 46.5817 49.284L46.2069 49.0817C46.4202 48.6993 46.7087 48.3639 47.0551 48.0959L47.3775 48.4654ZM32.2914 66.6317C31.536 66.377 31.0813 66.2025 31.0813 66.2025L31.2548 65.8321C31.2548 65.8321 31.7095 66.0065 32.4496 66.2588L32.2914 66.6317Z" fill="#966559"/>
<path d="M27.3165 63.8352C26.7852 64.5712 27.169 65.6601 28.1913 66.2784C29.2136 66.8967 30.4939 66.8382 31.0171 66.1134C31.5403 65.3886 31.1509 64.2957 30.1368 63.6661C29.1226 63.0366 27.8534 63.1032 27.3165 63.8352ZM30.2075 65.6144C29.9074 66.0302 29.185 66.0728 28.6065 65.715C28.028 65.3572 27.8036 64.7337 28.1093 64.322C28.3181 64.1074 28.5977 63.976 28.896 63.9523C29.1943 63.9286 29.4909 64.0143 29.7306 64.1933C30.2807 64.5905 30.5133 65.2027 30.2075 65.6144Z" fill="#D84012"/>
<path d="M62.1754 46.3118C62.0358 46.538 61.9424 46.7895 61.9003 47.0519C61.8583 47.3143 61.8685 47.5823 61.9304 47.8407C61.9923 48.099 62.1046 48.3425 62.261 48.5572C62.4173 48.7718 62.6146 48.9534 62.8414 49.0915C63.2495 49.4418 63.7777 49.62 64.3149 49.5885C64.852 49.557 65.3561 49.3184 65.7212 48.9227C66.0063 48.467 66.0991 47.917 65.9794 47.3932C65.8597 46.8694 65.5372 46.4147 65.0826 46.1287C64.6711 45.7718 64.1358 45.5911 63.592 45.6253C63.0482 45.6596 62.5395 45.9061 62.1754 46.3118ZM64.9821 48.3379C64.7732 48.562 64.4862 48.697 64.1806 48.7151C63.875 48.7332 63.5743 48.6329 63.3409 48.4351C63.2118 48.3559 63.0997 48.2519 63.0109 48.1292C62.9222 48.0065 62.8586 47.8674 62.8238 47.72C62.789 47.5726 62.7836 47.4197 62.8081 47.2701C62.8325 47.1206 62.8863 46.9773 62.9662 46.8486C63.1785 46.6281 63.4682 46.4989 63.7739 46.4883C64.0796 46.4777 64.3773 46.5865 64.604 46.7917C64.8551 46.9563 65.0322 47.2122 65.098 47.5053C65.1637 47.7983 65.1128 48.1056 64.9562 48.362L64.9821 48.3379Z" fill="#D84012"/>
</svg>
