<svg width="97" height="118" viewBox="0 0 97 118" fill="none" xmlns="http://www.w3.org/2000/svg">
<g style="mix-blend-mode:multiply">
<path d="M92.9255 114.687C62.0694 119.325 30.651 118.71 0 112.868C30.519 105.334 62.0774 108.642 92.9255 114.687Z" fill="#90A3D4"/>
</g>
<path d="M51.6673 37.6098C60.4662 37.4886 69.2478 37.4539 78.0467 37.402C81.9092 37.402 93.3755 39.6709 93.8432 34.596C94.3336 29.3048 94.4436 23.9852 94.1723 18.6782C93.999 15.4219 94.432 9.70612 92.9944 6.32858C92.8594 5.96981 92.6852 5.62709 92.4748 5.30666C91.8066 4.32352 90.9747 3.46232 90.0153 2.76051C87.3627 1.16751 84.3279 0.323487 81.2337 0.318281C74.023 -0.106094 66.7936 -0.106094 59.5829 0.318281C56.7423 0.439527 53.5899 0.318288 51.5634 2.32749C51.2852 2.59057 51.0408 2.88727 50.8359 3.21081C50.0236 4.65671 49.6279 6.29952 49.6928 7.95673C49.212 17.8841 49.8745 27.8338 51.6673 37.6098Z" fill="url(#paint0_linear_1371:3552)"/>
<path d="M53.8848 36.3454C54.491 25.5199 55.2011 14.019 55.8073 3.1762C59.202 3.02776 62.5883 3.61875 65.732 4.90827C67.3255 14.8966 68.4802 24.9368 69.1961 35.029C63.5323 35.4793 59.5313 35.9124 53.8848 36.3454Z" fill="#5998A8"/>
<path d="M50.5254 37.4711C50.5254 38.3198 50.6813 39.2032 50.7332 39.9826C52.7078 63.4002 54.0415 87.7532 56.0161 111.153C56.0161 111.673 56.12 112.193 56.1546 112.712C66.547 113.648 77.4243 114.289 86.9334 112.366C90.5014 89.9876 91.7659 66.6392 93.3594 43.9317C93.446 42.7539 93.5152 41.5761 93.6019 40.4676C93.6885 39.3591 93.7404 38.5796 93.8097 37.627C79.5247 34.8041 64.8304 34.7512 50.5254 37.4711Z" fill="url(#paint1_linear_1371:3552)"/>
<path d="M50.6465 39.9827C52.621 63.4003 53.9547 87.7532 55.9293 111.154C57.9454 110.985 59.9702 110.944 61.9915 111.032C62.3726 90.1088 63.1001 68.5445 63.4811 47.6211C73.3366 45.889 83.296 44.6939 93.2727 43.9318C93.3593 42.754 93.4286 41.5762 93.5152 40.4676L50.6465 39.9827Z" fill="#5998A8"/>
<path d="M47.06 43.5854C56.6383 42.6501 66.2686 42.1132 75.8816 42.0093C79.7268 42.0093 83.572 42.0093 87.3999 42.0093C90.1885 42.0093 93.0118 42.1479 95.8005 42.2691C95.8005 39.1514 96.3547 37.073 96.2681 33.886C93.2889 33.6262 90.2925 33.3836 87.296 33.2104C83.0351 32.9506 78.7742 32.7774 74.5306 32.7255C65.1108 32.5121 55.6898 33.0915 46.3671 34.4575C46.0252 37.5167 46.2602 40.6129 47.06 43.5854Z" fill="url(#paint2_linear_1371:3552)"/>
<path d="M51.6672 115.969C59.1982 117.096 66.8293 117.404 74.4266 116.887C78.5316 116.644 82.6366 116.211 86.7243 115.674C88.0407 115.518 89.3744 115.31 90.6907 115.12C90.6907 112.002 90.0845 109.924 90.0499 106.754C88.3178 106.91 86.5857 107.048 84.8537 107.17C81.6493 107.395 78.445 107.533 75.2234 107.603C67.4216 107.793 59.6153 107.55 51.8405 106.875C51.3322 109.881 51.2738 112.946 51.6672 115.969Z" fill="url(#paint3_linear_1371:3552)"/>
<path style="mix-blend-mode:screen" d="M74.5996 32.7427C75.0673 35.8604 75.5003 38.9088 75.9506 42.0092C79.7958 42.0092 83.641 42.0092 87.4689 42.0092C87.5901 39.0765 87.5555 36.1394 87.365 33.2103C83.1041 32.9678 78.8432 32.7946 74.5996 32.7427Z" fill="url(#paint4_linear_1371:3552)"/>
<path style="mix-blend-mode:screen" d="M74.4277 116.887C78.5327 116.644 82.6377 116.211 86.7253 115.674C86.1018 112.834 85.4956 110.011 84.872 107.17C81.6677 107.395 78.4634 107.534 75.2418 107.603C75.034 110.807 74.7741 113.942 74.4277 116.887Z" fill="url(#paint5_linear_1371:3552)"/>
<path style="mix-blend-mode:screen" d="M89.6338 46.374L84.299 104.693L74.7207 105.143V48.1581L89.6338 46.374Z" fill="url(#paint6_linear_1371:3552)"/>
<path style="mix-blend-mode:screen" d="M51.5645 2.36212C58.3304 2.02019 65.1135 2.35671 71.8123 3.36669C73.4405 12.0271 74.6529 20.2717 76.281 28.9841C79.9865 29.3648 83.7164 29.4517 87.4356 29.2439C88.1854 21.4041 88.4169 13.5233 88.1284 5.65304C89.7218 6.05201 91.3536 6.27851 92.9955 6.32858C92.8605 5.96981 92.6863 5.62709 92.4759 5.30666C91.8077 4.32353 90.9758 3.46232 90.0163 2.76051C87.3637 1.16751 84.3289 0.323488 81.2348 0.318282C74.0241 -0.106094 66.7946 -0.106094 59.5839 0.318282C56.7433 0.474168 53.591 0.33559 51.5645 2.36212Z" fill="url(#paint7_linear_1371:3552)"/>
<defs>
<linearGradient id="paint0_linear_1371:3552" x1="-24319.6" y1="11467.8" x2="-25477" y2="11467.8" gradientUnits="userSpaceOnUse">
<stop stop-color="#E3E8E7"/>
<stop offset="0.57" stop-color="#7EB5B3"/>
<stop offset="0.66" stop-color="#82B7B5"/>
<stop offset="0.74" stop-color="#8EBDBB"/>
<stop offset="0.83" stop-color="#A2C7C6"/>
<stop offset="0.91" stop-color="#BED5D4"/>
<stop offset="1" stop-color="#E3E8E7"/>
</linearGradient>
<linearGradient id="paint1_linear_1371:3552" x1="-23509" y1="26182.4" x2="-24590.3" y2="26182.4" gradientUnits="userSpaceOnUse">
<stop stop-color="#E3E8E7"/>
<stop offset="0.57" stop-color="#7EB5B3"/>
<stop offset="0.66" stop-color="#82B7B5"/>
<stop offset="0.74" stop-color="#8EBDBB"/>
<stop offset="0.83" stop-color="#A2C7C6"/>
<stop offset="0.91" stop-color="#BED5D4"/>
<stop offset="1" stop-color="#E3E8E7"/>
</linearGradient>
<linearGradient id="paint2_linear_1371:3552" x1="-27187.2" y1="3451.89" x2="-28634" y2="3451.89" gradientUnits="userSpaceOnUse">
<stop stop-color="#83779B"/>
<stop offset="0.35" stop-color="#786A8E"/>
<stop offset="1" stop-color="#5A4A6B"/>
</linearGradient>
<linearGradient id="paint3_linear_1371:3552" x1="-21358.1" y1="3802.79" x2="-22248.6" y2="3802.79" gradientUnits="userSpaceOnUse">
<stop stop-color="#83779B"/>
<stop offset="0.35" stop-color="#786A8E"/>
<stop offset="1" stop-color="#5A4A6B"/>
</linearGradient>
<linearGradient id="paint4_linear_1371:3552" x1="-6813.08" y1="2755.44" x2="-6802.85" y2="3027.4" gradientUnits="userSpaceOnUse">
<stop stop-color="#BDD9CE"/>
<stop offset="0.24" stop-color="#849790"/>
<stop offset="0.51" stop-color="#4C5753"/>
<stop offset="0.73" stop-color="#232826"/>
<stop offset="0.9" stop-color="#090B0A"/>
<stop offset="1"/>
</linearGradient>
<linearGradient id="paint5_linear_1371:3552" x1="-6458.66" y1="3358.14" x2="-6446.82" y2="3650.71" gradientUnits="userSpaceOnUse">
<stop stop-color="#BDD9CE"/>
<stop offset="0.24" stop-color="#849790"/>
<stop offset="0.51" stop-color="#4C5753"/>
<stop offset="0.73" stop-color="#232826"/>
<stop offset="0.9" stop-color="#090B0A"/>
<stop offset="1"/>
</linearGradient>
<linearGradient id="paint6_linear_1371:3552" x1="-8056.31" y1="17912.7" x2="-8293.3" y2="20741.5" gradientUnits="userSpaceOnUse">
<stop stop-color="#BDD9CE"/>
<stop offset="0.24" stop-color="#849790"/>
<stop offset="0.51" stop-color="#4C5753"/>
<stop offset="0.73" stop-color="#232826"/>
<stop offset="0.9" stop-color="#090B0A"/>
<stop offset="1"/>
</linearGradient>
<linearGradient id="paint7_linear_1371:3552" x1="-22997" y1="8268.97" x2="-22994.3" y2="9230.9" gradientUnits="userSpaceOnUse">
<stop stop-color="#BDD9CE"/>
<stop offset="0.24" stop-color="#849790"/>
<stop offset="0.51" stop-color="#4C5753"/>
<stop offset="0.73" stop-color="#232826"/>
<stop offset="0.9" stop-color="#090B0A"/>
<stop offset="1"/>
</linearGradient>
</defs>
</svg>
