<svg width="243" height="83" viewBox="0 0 243 83" fill="none" xmlns="http://www.w3.org/2000/svg">
<path d="M233.579 73.5028C233.354 73.6769 233.107 73.8361 232.842 73.9785C212.153 86.0824 32.1545 85.6568 7.09921 74.7795C6.00634 74.3737 5.09961 73.7525 4.48673 72.9896C-4.40273 59.7842 0.41897 20.0303 14.5334 11.4437C29.6823 2.23121 210.663 -1.93694 229.371 9.77894C243.099 18.3656 249.639 61.4615 233.579 73.5028Z" fill="url(#paint0_linear)"/>
<path d="M4.48624 70.3744C13.0426 83.1166 215.905 84.143 233.578 70.8876C249.639 58.8587 243.099 15.7503 229.37 7.16367C210.662 -4.55221 29.6818 -0.384059 14.5329 8.84095C0.418481 17.4276 -4.40322 57.169 4.48624 70.3744Z" fill="url(#paint1_linear)"/>
<path d="M12.7805 66.0303C12.7805 66.0303 40.1853 76.507 124.486 76.507C208.787 76.507 222.41 66.0303 222.41 66.0303H12.7805Z" fill="white"/>
<g style="mix-blend-mode:multiply">
<path d="M232.843 66.0303V73.9785C212.153 86.0824 32.1549 85.6569 7.09961 74.7796L7.62561 72.3889L12.7804 66.0303L229.126 58.833L232.843 66.0303Z" fill="#CED6FF"/>
</g>
<path d="M10.8167 64.603C18.6016 76.1687 207.034 79.4231 223.059 67.3943C237.647 56.4545 231.721 17.3265 219.254 9.52839C202.264 -1.11103 34.8375 6.3616 21.0387 14.7229C8.25683 22.5335 2.75133 52.5742 10.8167 64.603Z" fill="url(#paint2_radial)"/>
<path d="M11.448 62.588C19.1978 73.7406 206.508 74.5417 222.481 62.9509C237.016 52.4117 231.247 17.5519 218.869 10.0292C201.949 -0.259743 35.1532 6.93751 21.442 15.0235C8.76536 22.5337 3.40012 50.9972 11.448 62.588Z" fill="url(#paint3_linear)"/>
<path d="M13.7798 61.5617C21.3542 72.3889 204.614 73.165 220.254 61.9122C234.456 51.6859 228.88 17.865 216.747 10.5927C200.16 0.616635 36.959 7.6011 23.5634 15.4242C11.0621 22.7216 5.90727 50.3465 13.7798 61.5617Z" fill="url(#paint4_linear)"/>
<path style="mix-blend-mode:screen" d="M23.0901 15.4741C23.0901 15.4741 150.874 -3.02594 217.168 10.7302C221.251 14.7528 224.144 19.3268 225.672 24.1734C206.798 28.4615 187.2 30.9078 167.408 31.4458C133.253 32.5473 97.6423 18.7786 68.8524 16.7383C40.0625 14.6981 23.0901 15.4741 23.0901 15.4741Z" fill="url(#paint5_linear)"/>
<path style="mix-blend-mode:screen" d="M216.537 62.1249C216.537 62.1249 131.044 72.8644 23.4058 63.3766C23.4058 63.3766 93.3292 67.6949 124.451 63.3766C177.262 56.0416 202.65 53.8261 216.537 62.1249Z" fill="url(#paint6_linear)"/>
<path d="M18.3035 20.1555C20.3143 17.5327 23.4221 15.4235 27.1929 14.1223C33.4173 12.0195 51.1261 9.90409 52.1255 10.4423C53.1249 10.9805 43.499 13.4589 38.5721 14.7607C33.6452 16.0624 20.8283 21.1568 18.3035 20.1555Z" fill="white"/>
<path d="M17.7423 21.207C16.4624 21.3447 13.2713 28.4418 13.4642 29.6059C13.657 30.77 17.4969 27.1025 18.093 25.1248C18.4309 23.8183 18.3104 22.4723 17.7423 21.207Z" fill="white"/>
<path style="mix-blend-mode:screen" d="M41.2898 26.0386C41.8204 26.0143 42.3491 26.1032 42.8088 26.2939C43.2685 26.4845 43.6385 26.7684 43.8718 27.1095C44.1051 27.4505 44.1911 27.8334 44.119 28.2094C44.0469 28.5855 43.82 28.9378 43.4669 29.2215C43.1138 29.5053 42.6506 29.7078 42.136 29.8033C41.6215 29.8988 41.0788 29.8829 40.5768 29.7578C40.0749 29.6327 39.6363 29.4039 39.3169 29.1005C38.9974 28.7971 38.8114 28.4328 38.7825 28.0538C38.7441 27.5498 38.986 27.0554 39.4555 26.678C39.925 26.3006 40.5842 26.0708 41.2898 26.0386Z" fill="url(#paint7_radial)"/>
<path d="M41.6229 27.4026C41.7723 27.3953 41.9214 27.4199 42.0512 27.4733C42.1809 27.5267 42.2854 27.6064 42.3514 27.7024C42.4174 27.7984 42.4419 27.9062 42.4217 28.0121C42.4015 28.118 42.3376 28.2173 42.2381 28.2972C42.1387 28.3771 42.0081 28.434 41.8631 28.4607C41.7181 28.4875 41.5652 28.4828 41.424 28.4472C41.2828 28.4117 41.1596 28.3469 41.0701 28.2612C40.9806 28.1755 40.9289 28.0727 40.9216 27.9659C40.9145 27.8958 40.9271 27.8255 40.9587 27.7589C40.9903 27.6924 41.0403 27.6311 41.1057 27.5786C41.1711 27.526 41.2505 27.4834 41.3394 27.4532C41.4282 27.423 41.5246 27.4058 41.6229 27.4026Z" fill="#FFFFAB"/>
<path style="mix-blend-mode:screen" d="M44.9192 17.84C45.445 17.8185 45.968 17.9086 46.4222 18.0991C46.8763 18.2896 47.2412 18.5719 47.4707 18.9103C47.7003 19.2487 47.7842 19.6281 47.7119 20.0005C47.6397 20.373 47.4144 20.7218 47.0647 21.0029C46.7149 21.2841 46.2563 21.4849 45.7467 21.5801C45.2372 21.6753 44.6995 21.6605 44.2017 21.5378C43.7039 21.415 43.2682 21.1896 42.9496 20.8902C42.6311 20.5907 42.444 20.2306 42.4119 19.8553C42.3735 19.3513 42.6154 18.8568 43.0849 18.4795C43.5544 18.1021 44.2136 17.8723 44.9192 17.84Z" fill="url(#paint8_radial)"/>
<path d="M45.2524 19.2044C45.4018 19.1971 45.5509 19.2217 45.6806 19.275C45.8103 19.3284 45.9149 19.4082 45.9809 19.5042C46.0469 19.6001 46.0713 19.7079 46.0512 19.8139C46.031 19.9198 45.9671 20.019 45.8676 20.0989C45.7681 20.1788 45.6375 20.2358 45.4925 20.2625C45.3476 20.2892 45.1947 20.2845 45.0535 20.249C44.9122 20.2134 44.789 20.1487 44.6995 20.063C44.6101 19.9772 44.5584 19.8744 44.5511 19.7677C44.5458 19.6277 44.6154 19.4916 44.7456 19.387C44.8759 19.2824 45.0571 19.2171 45.2524 19.2044Z" fill="#FFFFAB"/>
<path style="mix-blend-mode:screen" d="M42.7801 41.3719C43.3074 41.3428 43.8348 41.4263 44.2953 41.6119C44.7558 41.7974 45.1286 42.0766 45.3662 42.4138C45.6038 42.751 45.6956 43.1311 45.6297 43.5057C45.5639 43.8802 45.3435 44.2324 44.9965 44.5172C44.6495 44.8021 44.1917 45.0068 43.6812 45.1054C43.1708 45.2039 42.6308 45.1919 42.13 45.0707C41.6292 44.9495 41.1902 44.7247 40.8688 44.4249C40.5475 44.1251 40.3583 43.7639 40.3255 43.3871C40.2865 42.8891 40.5212 42.4 40.9796 42.0236C41.438 41.6473 42.084 41.4135 42.7801 41.3719Z" fill="url(#paint9_radial)"/>
<path d="M43.1134 42.736C43.2102 42.7326 43.3069 42.7429 43.398 42.7662C43.4892 42.7896 43.573 42.8256 43.6446 42.8721C43.7163 42.9186 43.7744 42.9747 43.8156 43.0373C43.8569 43.0998 43.8804 43.1676 43.8849 43.2367C43.8965 43.3761 43.8301 43.5131 43.7002 43.6176C43.5703 43.722 43.3876 43.7854 43.1923 43.7937C42.997 43.802 42.8051 43.7545 42.6588 43.6618C42.5124 43.5691 42.4237 43.4387 42.4121 43.2992C42.405 43.2292 42.4176 43.1588 42.4492 43.0923C42.4808 43.0257 42.5308 42.9644 42.5962 42.9119C42.6615 42.8594 42.741 42.8168 42.8298 42.7865C42.9187 42.7563 43.0151 42.7391 43.1134 42.736Z" fill="#FFFFAB"/>
<path style="mix-blend-mode:screen" d="M30.1911 13.6341C31.6694 13.5692 33.1414 13.8187 34.421 14.3512C35.7005 14.8836 36.7301 15.675 37.3795 16.6252C38.0289 17.5755 38.269 18.6419 38.0692 19.6896C37.8695 20.7372 37.239 21.719 36.2575 22.5108C35.2759 23.3026 33.9875 23.8688 32.5552 24.1377C31.1228 24.4067 29.6109 24.3663 28.2107 24.0217C26.8106 23.6771 25.585 23.0438 24.6891 22.2018C23.7932 21.3599 23.2672 20.3472 23.1777 19.2918C23.0625 17.8786 23.7355 16.4902 25.0496 15.4301C26.3637 14.37 28.2122 13.7243 30.1911 13.6341Z" fill="url(#paint10_radial)"/>
<path d="M31.0853 17.527C31.357 17.5155 31.6293 17.5423 31.8864 17.6059C32.1436 17.6695 32.3807 17.7686 32.5843 17.8977C32.7878 18.0267 32.9537 18.183 33.0726 18.3578C33.1914 18.5326 33.2609 18.7224 33.277 18.9164C33.2931 19.1104 33.2556 19.3047 33.1665 19.4883C33.0774 19.6719 32.9386 19.8412 32.7578 19.9865C32.5771 20.1317 32.3581 20.2502 32.1132 20.3351C31.8684 20.4199 31.6025 20.4695 31.3308 20.481C30.7821 20.5043 30.2429 20.3709 29.8319 20.1104C29.4209 19.8498 29.1717 19.4834 29.1391 19.0916C29.1066 18.6999 29.2933 18.315 29.6583 18.0216C30.0233 17.7281 30.5366 17.5502 31.0853 17.527Z" fill="#FFFFAB"/>
<path style="mix-blend-mode:screen" d="M183.872 52.3617C185.351 52.2966 186.824 52.5463 188.104 53.0792C189.384 53.612 190.414 54.4041 191.063 55.3551C191.712 56.3061 191.951 57.3732 191.75 58.4213C191.549 59.4694 190.917 60.4513 189.934 61.2428C188.95 62.0342 187.66 62.5995 186.227 62.8672C184.793 63.1348 183.28 63.0927 181.88 62.7462C180.48 62.3997 179.256 61.7644 178.362 60.9207C177.468 60.077 176.944 59.0629 176.858 58.0068C176.799 57.3073 176.933 56.6063 177.254 55.9439C177.574 55.2815 178.075 54.6707 178.726 54.1464C179.377 53.6221 180.167 53.1946 181.05 52.8884C181.933 52.5822 182.892 52.4032 183.872 52.3617Z" fill="url(#paint11_radial)"/>
<path d="M184.784 56.1921C185.332 56.1688 185.871 56.3021 186.283 56.5627C186.694 56.8233 186.943 57.1897 186.975 57.5814C187.008 57.9732 186.821 58.3581 186.456 58.6515C186.091 58.9449 185.578 59.1228 185.029 59.1461C184.757 59.1576 184.485 59.1308 184.228 59.0672C183.971 59.0036 183.734 58.9044 183.53 58.7754C183.327 58.6464 183.161 58.49 183.042 58.3152C182.923 58.1404 182.853 57.9506 182.837 57.7567C182.821 57.5627 182.859 57.3684 182.948 57.1848C183.037 57.0012 183.176 56.8319 183.357 56.6866C183.537 56.5413 183.756 56.4229 184.001 56.338C184.246 56.2532 184.512 56.2036 184.784 56.1921Z" fill="#FFFFAB"/>
<path style="mix-blend-mode:screen" d="M222.515 49.7956C223.203 49.7752 223.883 49.8994 224.472 50.1528C225.061 50.4062 225.532 50.7777 225.828 51.221C226.124 51.6643 226.23 52.1598 226.134 52.646C226.038 53.1321 225.744 53.5874 225.289 53.9552C224.833 54.3229 224.236 54.587 223.572 54.7144C222.908 54.8419 222.206 54.8271 221.553 54.6719C220.901 54.5168 220.327 54.2281 219.902 53.8418C219.478 53.4555 219.222 52.9886 219.167 52.4993C219.128 52.1634 219.186 51.8254 219.335 51.5057C219.484 51.186 219.722 50.891 220.035 50.6385C220.347 50.3861 220.728 50.1813 221.155 50.0364C221.581 49.8916 222.044 49.8097 222.515 49.7956Z" fill="url(#paint12_radial)"/>
<path d="M222.954 51.623C223.197 51.635 223.426 51.7101 223.598 51.8343C223.769 51.9584 223.871 52.123 223.883 52.297C223.896 52.471 223.82 52.6424 223.668 52.7788C223.516 52.9152 223.299 53.0072 223.059 53.0375C222.93 53.0443 222.799 53.0323 222.677 53.0023C222.554 52.9724 222.441 52.925 222.344 52.863C222.247 52.8011 222.169 52.7258 222.114 52.6418C222.059 52.5578 222.029 52.4667 222.025 52.3741C222.015 52.281 222.032 52.1875 222.073 52.099C222.115 52.0106 222.181 51.929 222.268 51.859C222.355 51.7891 222.46 51.7322 222.578 51.6916C222.695 51.6511 222.823 51.6278 222.954 51.623Z" fill="#FFFFAB"/>
<path style="mix-blend-mode:screen" d="M51.547 54.4519C52.2349 54.4312 52.9161 54.5555 53.5057 54.8094C54.0953 55.0632 54.5671 55.4354 54.8624 55.8794C55.1577 56.3234 55.2634 56.8196 55.1663 57.3062C55.0692 57.7928 54.7735 58.2483 54.3163 58.6157C53.859 58.9832 53.2603 59.2464 52.5949 59.3726C51.9295 59.4988 51.2267 59.4823 50.5743 59.3253C49.9219 59.1683 49.3487 58.8776 48.9261 58.4895C48.5035 58.1015 48.2503 57.6332 48.1981 57.1431C48.1624 56.8082 48.2215 56.4716 48.3718 56.1533C48.5221 55.835 48.7606 55.5416 49.0731 55.2905C49.3855 55.0394 49.7656 54.8357 50.1906 54.6917C50.6156 54.5476 51.0769 54.4661 51.547 54.4519Z" fill="url(#paint13_radial)"/>
<path d="M51.9852 56.3295C52.1147 56.3227 52.2448 56.3346 52.3677 56.3646C52.4906 56.3946 52.6037 56.442 52.7003 56.5039C52.797 56.5659 52.875 56.6411 52.9299 56.7251C52.9848 56.8092 53.0153 56.9002 53.0197 56.9929C53.0278 57.0849 53.0103 57.1772 52.9684 57.2645C52.9265 57.3517 52.861 57.4322 52.7755 57.5014C52.69 57.5705 52.5863 57.627 52.4703 57.6675C52.3542 57.7081 52.2281 57.7319 52.0992 57.7376C51.9703 57.7434 51.841 57.731 51.7188 57.7011C51.5966 57.6711 51.4838 57.6243 51.3869 57.5633C51.2901 57.5023 51.211 57.4283 51.1542 57.3454C51.0974 57.2626 51.064 57.1726 51.056 57.0805C51.0415 56.8933 51.1309 56.7095 51.3048 56.5689C51.4787 56.4284 51.7232 56.3424 51.9852 56.3295Z" fill="#FFFFAB"/>
<path style="mix-blend-mode:screen" d="M154.293 44.9141C154.63 44.9158 154.96 44.987 155.242 45.119C155.524 45.251 155.746 45.4383 155.883 45.6584C156.02 45.8785 156.065 46.1221 156.012 46.3599C155.96 46.5978 155.813 46.8198 155.588 46.9994C155.363 47.179 155.071 47.3085 154.746 47.3725C154.421 47.4364 154.077 47.4321 153.755 47.36C153.433 47.2878 153.147 47.151 152.932 46.9658C152.716 46.7806 152.58 46.555 152.54 46.316C152.51 46.1395 152.533 45.9604 152.607 45.7908C152.682 45.6211 152.806 45.4648 152.972 45.3321C153.138 45.1995 153.342 45.0936 153.569 45.0215C153.797 44.9494 154.044 44.9128 154.293 44.9141Z" fill="url(#paint14_radial)"/>
<path d="M154.433 45.828C154.53 45.8232 154.626 45.839 154.711 45.8734C154.795 45.9078 154.863 45.9592 154.906 46.0212C154.949 46.0831 154.966 46.1529 154.954 46.2216C154.942 46.2902 154.901 46.3548 154.838 46.4072C154.774 46.4595 154.69 46.4972 154.597 46.5156C154.503 46.5339 154.404 46.5321 154.312 46.5103C154.22 46.4885 154.139 46.4477 154.08 46.3931C154.02 46.3385 153.984 46.2725 153.977 46.2035C153.972 46.1574 153.98 46.1112 154.001 46.0673C154.021 46.0235 154.053 45.983 154.096 45.9481C154.138 45.9132 154.19 45.8846 154.248 45.864C154.305 45.8434 154.369 45.8311 154.433 45.828Z" fill="#FFFFAB"/>
<path style="mix-blend-mode:screen" d="M19.7939 61.186C20.1344 61.1868 20.4673 61.2584 20.7518 61.392C21.0364 61.5256 21.2602 61.7155 21.3961 61.9384C21.5319 62.1614 21.5739 62.4077 21.5168 62.6474C21.4598 62.8871 21.3062 63.1097 21.0748 63.2881C20.8434 63.4665 20.5443 63.593 20.2139 63.652C19.8835 63.711 19.5362 63.7001 19.2144 63.6205C18.8926 63.5409 18.6102 63.3962 18.4018 63.2039C18.1933 63.0117 18.0678 62.7802 18.0405 62.5379C18.0211 62.3653 18.0521 62.1917 18.1315 62.0281C18.2109 61.8645 18.3369 61.7144 18.5017 61.5873C18.6665 61.4603 18.8664 61.359 19.0888 61.2899C19.3113 61.2209 19.5513 61.1855 19.7939 61.186Z" fill="url(#paint15_radial)"/>
<path d="M20.0041 62.1C20.07 62.0966 20.1362 62.1028 20.1987 62.1181C20.2612 62.1334 20.3188 62.1575 20.3679 62.1891C20.417 62.2206 20.4567 62.259 20.4846 62.3017C20.5124 62.3445 20.5279 62.3908 20.5301 62.438C20.5353 62.5302 20.491 62.6204 20.4063 62.6902C20.3216 62.7599 20.2029 62.804 20.0743 62.8135C20.0084 62.8169 19.9422 62.8108 19.8797 62.7955C19.8172 62.7802 19.7596 62.756 19.7105 62.7244C19.6614 62.6929 19.6217 62.6546 19.5938 62.6118C19.5659 62.569 19.5504 62.5227 19.5483 62.4755C19.5431 62.3833 19.5874 62.2931 19.6721 62.2234C19.7568 62.1536 19.8755 62.1095 20.0041 62.1Z" fill="#FFFFAB"/>
<path style="mix-blend-mode:screen" d="M70.1324 39.2689C70.3627 39.259 70.5934 39.2816 70.8114 39.3354C71.0294 39.3892 71.2305 39.4731 71.4031 39.5824C71.5756 39.6916 71.7164 39.8241 71.8173 39.9722C71.9181 40.1202 71.9772 40.2811 71.991 40.4455C72.0048 40.6098 71.9731 40.7745 71.8978 40.9302C71.8224 41.0858 71.7049 41.2293 71.5518 41.3525C71.3988 41.4757 71.2133 41.5762 71.0058 41.6482C70.7984 41.7202 70.5731 41.7624 70.3428 41.7722C70.1011 41.7861 69.8579 41.764 69.6287 41.7073C69.3995 41.6507 69.1893 41.5607 69.0113 41.443C68.8334 41.3254 68.6915 41.1826 68.5948 41.0239C68.498 40.8651 68.4485 40.6937 68.4492 40.5205C68.4489 40.1971 68.6239 39.8861 68.9377 39.6527C69.2515 39.4194 69.6797 39.2818 70.1324 39.2689Z" fill="url(#paint16_radial)"/>
<path d="M70.2551 40.1952C70.3526 40.1903 70.45 40.2062 70.5347 40.2411C70.6195 40.2759 70.6877 40.328 70.7307 40.3907C70.7737 40.4534 70.7895 40.5238 70.7761 40.5929C70.7626 40.6621 70.7206 40.7268 70.6553 40.7788C70.59 40.8307 70.5045 40.8676 70.4097 40.8847C70.3149 40.9017 70.2151 40.8982 70.1231 40.8745C70.0311 40.8508 69.9512 40.808 69.8935 40.7517C69.8358 40.6953 69.8029 40.628 69.7992 40.5582C69.7943 40.4673 69.8392 40.3786 69.9242 40.3109C70.0093 40.2431 70.1279 40.2016 70.2551 40.1952Z" fill="#FFFFAB"/>
<path style="mix-blend-mode:screen" d="M45.2347 59.3088C45.4089 59.3003 45.5837 59.3167 45.7489 59.357C45.9141 59.3972 46.0664 59.4606 46.197 59.5433C46.3276 59.626 46.4338 59.7265 46.5094 59.8388C46.585 59.9511 46.6285 60.0731 46.6374 60.1975C46.6544 60.3857 46.5927 60.5732 46.4601 60.7362C46.3275 60.8993 46.1301 61.0305 45.8928 61.1133C45.6555 61.1961 45.3892 61.2267 45.1275 61.2012C44.8658 61.1757 44.6206 61.0953 44.4231 60.9702C44.2256 60.845 44.0846 60.6808 44.0181 60.4983C43.9515 60.3159 43.9625 60.1234 44.0494 59.9454C44.1364 59.7674 44.2955 59.6118 44.5065 59.4985C44.7176 59.3851 44.971 59.3191 45.2347 59.3088Z" fill="url(#paint17_radial)"/>
<path d="M45.3926 59.9969C45.4401 59.9934 45.488 59.997 45.5335 60.0072C45.579 60.0175 45.6211 60.0342 45.6572 60.0565C45.6933 60.0787 45.7227 60.106 45.7435 60.1367C45.7644 60.1673 45.7762 60.2007 45.7783 60.2347C45.7832 60.2693 45.7784 60.3041 45.7642 60.3374C45.75 60.3706 45.7268 60.4015 45.6958 60.4282C45.6649 60.455 45.6268 60.4771 45.5837 60.4933C45.5407 60.5095 45.4936 60.5195 45.4452 60.5226C45.3468 60.5232 45.2514 60.4981 45.1771 60.452C45.1029 60.4058 45.0548 60.3419 45.0419 60.2723C45.0396 60.2377 45.0468 60.2032 45.0631 60.1707C45.0795 60.1381 45.1047 60.1082 45.1373 60.0826C45.1698 60.0571 45.2092 60.0363 45.253 60.0216C45.2968 60.0069 45.3442 59.9985 45.3926 59.9969Z" fill="#FFFFAB"/>
<path style="mix-blend-mode:screen" d="M137.882 61.8619C138.248 61.8463 138.615 61.8823 138.961 61.9679C139.308 62.0535 139.627 62.187 139.902 62.3608C140.176 62.5345 140.4 62.7452 140.56 62.9807C140.72 63.2162 140.814 63.4719 140.836 63.7332C140.858 63.9946 140.807 64.2565 140.688 64.5039C140.568 64.7513 140.381 64.9795 140.137 65.1753C139.894 65.3712 139.599 65.5309 139.269 65.6453C138.939 65.7598 138.581 65.8267 138.215 65.8423C137.475 65.8739 136.749 65.6945 136.195 65.3435C135.641 64.9926 135.305 64.4989 135.26 63.9711C135.216 63.4432 135.468 62.9245 135.959 62.529C136.451 62.1334 137.142 61.8935 137.882 61.8619Z" fill="url(#paint18_radial)"/>
<path d="M138.215 63.2887C138.421 63.2818 138.623 63.333 138.777 63.4313C138.931 63.5297 139.025 63.6672 139.039 63.8144C139.05 63.9605 138.98 64.1039 138.844 64.213C138.707 64.3222 138.516 64.3882 138.311 64.3964C138.107 64.4047 137.906 64.3547 137.753 64.2573C137.6 64.1599 137.507 64.0231 137.496 63.877C137.489 63.8046 137.502 63.732 137.534 63.6632C137.566 63.5944 137.617 63.5309 137.684 63.4762C137.751 63.4215 137.832 63.3768 137.923 63.3447C138.014 63.3125 138.113 63.2935 138.215 63.2887Z" fill="#FFFFAB"/>
<path style="mix-blend-mode:screen" d="M79.0043 63.3016C79.555 63.2775 80.1033 63.3706 80.5798 63.5691C81.0563 63.7675 81.4396 64.0625 81.6812 64.4166C81.9228 64.7707 82.0118 65.168 81.9369 65.5582C81.862 65.9484 81.6266 66.314 81.2606 66.6086C80.8945 66.9033 80.4142 67.1138 79.8804 67.2135C79.3467 67.3131 78.7835 67.2975 78.2622 67.1686C77.7409 67.0397 77.2849 66.8032 76.952 66.4892C76.619 66.1751 76.4241 65.7976 76.3918 65.4044C76.3681 65.1436 76.417 64.882 76.5358 64.6348C76.6545 64.3875 76.8408 64.1596 77.0837 63.964C77.3266 63.7685 77.6214 63.6093 77.9511 63.4956C78.2808 63.3818 78.6387 63.3159 79.0043 63.3016Z" fill="url(#paint19_radial)"/>
<path d="M79.3549 64.7284C79.5595 64.7201 79.7604 64.7702 79.9133 64.8676C80.0662 64.965 80.1586 65.1018 80.1702 65.2479C80.1819 65.394 80.1117 65.5373 79.9753 65.6465C79.8388 65.7556 79.6472 65.8216 79.4426 65.8299C79.239 65.837 79.0395 65.7874 78.8858 65.6918C78.7322 65.5961 78.6364 65.4617 78.6185 65.3167C78.6114 65.2434 78.625 65.1697 78.6583 65.1002C78.6917 65.0306 78.7443 64.9665 78.8129 64.9117C78.8816 64.8569 78.9649 64.8124 79.058 64.7809C79.1511 64.7494 79.252 64.7316 79.3549 64.7284Z" fill="#FFFFAB"/>
<path d="M214.222 65.1665C213.328 64.0275 221.236 58.8329 223.252 58.908C225.268 58.9831 223.462 62.3252 222.253 63.1137C221.043 63.9023 214.661 65.7298 214.222 65.1665Z" fill="white"/>
<defs>
<linearGradient id="paint0_linear" x1="121.505" y1="83.0032" x2="121.505" y2="2.61924" gradientUnits="userSpaceOnUse">
<stop stop-color="#8B9AD1"/>
<stop offset="1" stop-color="#CEE0FF"/>
</linearGradient>
<linearGradient id="paint1_linear" x1="121.504" y1="80.3879" x2="121.504" y2="0.00396716" gradientUnits="userSpaceOnUse">
<stop stop-color="#CADCFF"/>
<stop offset="1" stop-color="white"/>
</linearGradient>
<radialGradient id="paint2_radial" cx="0" cy="0" r="1" gradientUnits="userSpaceOnUse" gradientTransform="translate(122.978 69.9853) scale(86.773 61.9465)">
<stop stop-color="#FFBD00"/>
<stop offset="1" stop-color="#FF772C"/>
</radialGradient>
<linearGradient id="paint3_linear" x1="119.349" y1="71.2747" x2="119.349" y2="4.9348" gradientUnits="userSpaceOnUse">
<stop stop-color="#FFF300"/>
<stop offset="1" stop-color="#FF9700"/>
</linearGradient>
<linearGradient id="paint4_linear" x1="119.349" y1="70.0232" x2="119.349" y2="5.64846" gradientUnits="userSpaceOnUse">
<stop stop-color="#FFCC00"/>
<stop offset="1" stop-color="#FF9700"/>
</linearGradient>
<linearGradient id="paint5_linear" x1="23.0901" y1="18.5783" x2="225.672" y2="18.5783" gradientUnits="userSpaceOnUse">
<stop stop-color="#FF9840"/>
<stop offset="0.1" stop-color="#EF8E3C"/>
<stop offset="0.29" stop-color="#C57531"/>
<stop offset="0.55" stop-color="#814D20"/>
<stop offset="0.88" stop-color="#241609"/>
<stop offset="1"/>
</linearGradient>
<linearGradient id="paint6_linear" x1="216.519" y1="62.0623" x2="23.4058" y2="62.0623" gradientUnits="userSpaceOnUse">
<stop stop-color="#FF6140"/>
<stop offset="0.1" stop-color="#EF5B3C"/>
<stop offset="0.29" stop-color="#C54B31"/>
<stop offset="0.55" stop-color="#813120"/>
<stop offset="0.88" stop-color="#240E09"/>
<stop offset="1"/>
</linearGradient>
<radialGradient id="paint7_radial" cx="0" cy="0" r="1" gradientUnits="userSpaceOnUse" gradientTransform="translate(39.4137 27.3361) rotate(-94.8042) scale(1.92185 2.68282)">
<stop stop-color="#00B359"/>
<stop offset="0.13" stop-color="#009148"/>
<stop offset="0.34" stop-color="#005E2F"/>
<stop offset="0.54" stop-color="#00351A"/>
<stop offset="0.73" stop-color="#00180C"/>
<stop offset="0.89" stop-color="#000603"/>
<stop offset="1"/>
</radialGradient>
<radialGradient id="paint8_radial" cx="0" cy="0" r="1" gradientUnits="userSpaceOnUse" gradientTransform="translate(2197.64 -2092.69) scale(8.15367 5.82189)">
<stop stop-color="#00B359"/>
<stop offset="0.13" stop-color="#009148"/>
<stop offset="0.34" stop-color="#005E2F"/>
<stop offset="0.54" stop-color="#00351A"/>
<stop offset="0.73" stop-color="#00180C"/>
<stop offset="0.89" stop-color="#000603"/>
<stop offset="1"/>
</radialGradient>
<radialGradient id="paint9_radial" cx="0" cy="0" r="1" gradientUnits="userSpaceOnUse" gradientTransform="translate(2095.95 -2078.07) scale(8.15366 5.82189)">
<stop stop-color="#00B359"/>
<stop offset="0.13" stop-color="#009148"/>
<stop offset="0.34" stop-color="#005E2F"/>
<stop offset="0.54" stop-color="#00351A"/>
<stop offset="0.73" stop-color="#00180C"/>
<stop offset="0.89" stop-color="#000603"/>
<stop offset="1"/>
</radialGradient>
<radialGradient id="paint10_radial" cx="0" cy="0" r="1" gradientUnits="userSpaceOnUse" gradientTransform="translate(6094.84 -6002.85) scale(63.9329 45.6441)">
<stop stop-color="#00B359"/>
<stop offset="0.13" stop-color="#009148"/>
<stop offset="0.34" stop-color="#005E2F"/>
<stop offset="0.54" stop-color="#00351A"/>
<stop offset="0.73" stop-color="#00180C"/>
<stop offset="0.89" stop-color="#000603"/>
<stop offset="1"/>
</radialGradient>
<radialGradient id="paint11_radial" cx="0" cy="0" r="1" gradientUnits="userSpaceOnUse" gradientTransform="translate(5708.75 -5048.56) scale(63.9414 45.6441)">
<stop stop-color="#00B359"/>
<stop offset="0.13" stop-color="#009148"/>
<stop offset="0.34" stop-color="#005E2F"/>
<stop offset="0.54" stop-color="#00351A"/>
<stop offset="0.73" stop-color="#00180C"/>
<stop offset="0.89" stop-color="#000603"/>
<stop offset="1"/>
</radialGradient>
<radialGradient id="paint12_radial" cx="0" cy="0" r="1" gradientUnits="userSpaceOnUse" gradientTransform="translate(2830.79 -2228.65) scale(14.3073 10.2139)">
<stop stop-color="#00B359"/>
<stop offset="0.13" stop-color="#009148"/>
<stop offset="0.34" stop-color="#005E2F"/>
<stop offset="0.54" stop-color="#00351A"/>
<stop offset="0.73" stop-color="#00180C"/>
<stop offset="0.89" stop-color="#000603"/>
<stop offset="1"/>
</radialGradient>
<radialGradient id="paint13_radial" cx="0" cy="0" r="1" gradientUnits="userSpaceOnUse" gradientTransform="translate(2674.56 -2712.4) scale(14.3073 10.2139)">
<stop stop-color="#00B359"/>
<stop offset="0.13" stop-color="#009148"/>
<stop offset="0.34" stop-color="#005E2F"/>
<stop offset="0.54" stop-color="#00351A"/>
<stop offset="0.73" stop-color="#00180C"/>
<stop offset="0.89" stop-color="#000603"/>
<stop offset="1"/>
</radialGradient>
<radialGradient id="paint14_radial" cx="0" cy="0" r="1" gradientUnits="userSpaceOnUse" gradientTransform="translate(1483.74 -1191.04) scale(3.57683 2.55346)">
<stop stop-color="#00B359"/>
<stop offset="0.13" stop-color="#009148"/>
<stop offset="0.34" stop-color="#005E2F"/>
<stop offset="0.54" stop-color="#00351A"/>
<stop offset="0.73" stop-color="#00180C"/>
<stop offset="0.89" stop-color="#000603"/>
<stop offset="1"/>
</radialGradient>
<radialGradient id="paint15_radial" cx="0" cy="0" r="1" gradientUnits="userSpaceOnUse" gradientTransform="translate(1319.75 -1368.3) scale(3.57682 2.55346)">
<stop stop-color="#00B359"/>
<stop offset="0.13" stop-color="#009148"/>
<stop offset="0.34" stop-color="#005E2F"/>
<stop offset="0.54" stop-color="#00351A"/>
<stop offset="0.73" stop-color="#00180C"/>
<stop offset="0.89" stop-color="#000603"/>
<stop offset="1"/>
</radialGradient>
<radialGradient id="paint16_radial" cx="0" cy="0" r="1" gradientUnits="userSpaceOnUse" gradientTransform="translate(1440.27 -1319.39) scale(3.61583 2.55985)">
<stop stop-color="#00B359"/>
<stop offset="0.13" stop-color="#009148"/>
<stop offset="0.34" stop-color="#005E2F"/>
<stop offset="0.54" stop-color="#00351A"/>
<stop offset="0.73" stop-color="#00180C"/>
<stop offset="0.89" stop-color="#000603"/>
<stop offset="1"/>
</radialGradient>
<radialGradient id="paint17_radial" cx="0" cy="0" r="1" gradientUnits="userSpaceOnUse" gradientTransform="translate(1035.65 -999.798) scale(2.02547 1.44653)">
<stop stop-color="#00B359"/>
<stop offset="0.13" stop-color="#009148"/>
<stop offset="0.34" stop-color="#005E2F"/>
<stop offset="0.54" stop-color="#00351A"/>
<stop offset="0.73" stop-color="#00180C"/>
<stop offset="0.89" stop-color="#000603"/>
<stop offset="1"/>
</radialGradient>
<radialGradient id="paint18_radial" cx="0" cy="0" r="1" gradientUnits="userSpaceOnUse" gradientTransform="translate(2180.03 -1947.13) scale(8.88108 6.34013)">
<stop stop-color="#00B359"/>
<stop offset="0.13" stop-color="#009148"/>
<stop offset="0.34" stop-color="#005E2F"/>
<stop offset="0.54" stop-color="#00351A"/>
<stop offset="0.73" stop-color="#00180C"/>
<stop offset="0.89" stop-color="#000603"/>
<stop offset="1"/>
</radialGradient>
<radialGradient id="paint19_radial" cx="0" cy="0" r="1" gradientUnits="userSpaceOnUse" gradientTransform="translate(2122.7 -2075.81) scale(8.86695 6.32884)">
<stop stop-color="#00B359"/>
<stop offset="0.13" stop-color="#009148"/>
<stop offset="0.34" stop-color="#005E2F"/>
<stop offset="0.54" stop-color="#00351A"/>
<stop offset="0.73" stop-color="#00180C"/>
<stop offset="0.89" stop-color="#000603"/>
<stop offset="1"/>
</radialGradient>
</defs>
</svg>
