<svg width="133" height="48" viewBox="0 0 133 48" fill="none" xmlns="http://www.w3.org/2000/svg">
<path d="M127.843 42.5056C127.72 42.6062 127.585 42.6983 127.44 42.7806C116.116 49.7805 17.5987 49.5344 3.8853 43.2439C3.28715 43.0092 2.79087 42.6499 2.45543 42.2088C-2.40999 34.5719 0.229045 11.5817 7.95421 6.61595C16.2456 1.28825 115.3 -1.12225 125.54 5.6532C133.054 10.619 136.633 35.5419 127.843 42.5056Z" fill="url(#paint0_linear)"/>
<path d="M2.45543 40.6965C7.13851 48.0655 118.17 48.6591 127.843 40.9933C136.633 34.0368 133.054 9.10666 125.54 4.14089C115.3 -2.63456 16.2456 -0.224059 7.95421 5.11088C0.229045 10.0766 -2.40999 33.0596 2.45543 40.6965Z" fill="url(#paint1_linear)"/>
<path d="M6.99609 38.1841C6.99609 38.1841 21.9954 44.2429 68.1352 44.2429C114.275 44.2429 121.732 38.1841 121.732 38.1841H6.99609Z" fill="white"/>
<g style="mix-blend-mode:multiply">
<path d="M127.441 38.1842V42.7808C116.118 49.7807 17.6001 49.5346 3.88672 43.2441L4.17461 41.8615L6.99598 38.1842L125.407 34.022L127.441 38.1842Z" fill="#CED6FF"/>
</g>
<path d="M5.9205 37.3591C10.1813 44.0476 113.315 45.9297 122.086 38.9733C130.07 32.6466 126.826 10.0184 120.003 5.50866C110.704 -0.644259 19.0677 3.67726 11.5152 8.51273C4.51941 13.0297 1.50612 30.4026 5.9205 37.3591Z" fill="url(#paint2_radial)"/>
<path d="M6.26665 36.1936C10.5083 42.6433 113.027 43.1066 121.77 36.4035C129.725 30.3085 126.568 10.1486 119.793 5.79817C110.532 -0.152065 19.2411 4.0102 11.7366 8.68642C4.79839 13.0297 1.86186 29.4905 6.26665 36.1936Z" fill="url(#paint3_linear)"/>
<path d="M7.5426 35.6002C11.6883 41.8617 111.991 42.3105 120.551 35.8029C128.324 29.8888 125.272 10.3298 118.631 6.12409C109.553 0.354826 20.2291 4.39404 12.8974 8.91824C6.05514 13.1384 3.23378 29.1143 7.5426 35.6002Z" fill="url(#paint4_linear)"/>
<path style="mix-blend-mode:screen" d="M12.6387 8.94667C12.6387 8.94667 82.5778 -1.75217 118.862 6.20319C121.097 8.52953 122.68 11.1747 123.516 13.9776C113.187 16.4574 102.46 17.8722 91.6273 18.1833C72.9333 18.8203 53.4429 10.8577 37.6855 9.67778C21.9281 8.49787 12.6387 8.94667 12.6387 8.94667Z" fill="url(#paint5_linear)"/>
<path style="mix-blend-mode:screen" d="M118.516 35.9256C118.516 35.9256 71.7233 42.1365 12.8105 36.6495C12.8105 36.6495 51.0813 39.1469 68.115 36.6495C97.0196 32.4076 110.915 31.1264 118.516 35.9256Z" fill="url(#paint6_linear)"/>
<path d="M10.0176 11.6541C11.1182 10.1373 12.8191 8.91757 14.883 8.16508C18.2897 6.94897 27.9822 5.72562 28.5292 6.03689C29.0762 6.34815 23.8077 7.78142 21.1111 8.53425C18.4145 9.28708 11.3995 12.2332 10.0176 11.6541Z" fill="white"/>
<path d="M9.71136 12.2622C9.01081 12.3418 7.26425 16.4462 7.36982 17.1194C7.47538 17.7926 9.57701 15.6716 9.90329 14.5279C10.0882 13.7723 10.0223 12.9939 9.71136 12.2622Z" fill="white"/>
<path style="mix-blend-mode:screen" d="M22.5991 15.0565C22.8895 15.0424 23.1788 15.0938 23.4305 15.2041C23.6821 15.3144 23.8846 15.4785 24.0122 15.6758C24.1399 15.873 24.187 16.0944 24.1476 16.3119C24.1081 16.5294 23.9839 16.7331 23.7906 16.8972C23.5974 17.0613 23.3439 17.1784 23.0622 17.2336C22.7806 17.2889 22.4836 17.2797 22.2088 17.2073C21.9341 17.135 21.6941 17.0027 21.5192 16.8272C21.3444 16.6518 21.2426 16.4411 21.2268 16.2219C21.2058 15.9304 21.3381 15.6445 21.5951 15.4262C21.8521 15.208 22.2129 15.0751 22.5991 15.0565Z" fill="url(#paint7_radial)"/>
<path d="M22.7814 15.8455C22.8632 15.8412 22.9448 15.8554 23.0158 15.8863C23.0868 15.9172 23.144 15.9633 23.1801 16.0188C23.2162 16.0743 23.2296 16.1367 23.2186 16.1979C23.2075 16.2592 23.1726 16.3166 23.1181 16.3628C23.0637 16.409 22.9922 16.4419 22.9128 16.4574C22.8335 16.4728 22.7498 16.4701 22.6725 16.4496C22.5952 16.429 22.5278 16.3916 22.4788 16.342C22.4298 16.2924 22.4015 16.233 22.3975 16.1712C22.3936 16.1307 22.4005 16.09 22.4179 16.0515C22.4352 16.013 22.4625 15.9776 22.4983 15.9472C22.5341 15.9168 22.5776 15.8922 22.6262 15.8747C22.6748 15.8572 22.7276 15.8473 22.7814 15.8455Z" fill="#ABFAFF"/>
<path style="mix-blend-mode:screen" d="M24.5854 10.3153C24.8732 10.3028 25.1595 10.355 25.408 10.4651C25.6566 10.5753 25.8563 10.7385 25.9819 10.9342C26.1075 11.1299 26.1535 11.3493 26.1139 11.5647C26.0744 11.7801 25.9511 11.9819 25.7597 12.1444C25.5682 12.307 25.3172 12.4232 25.0383 12.4782C24.7594 12.5333 24.4652 12.5247 24.1927 12.4537C23.9202 12.3827 23.6818 12.2524 23.5074 12.0792C23.3331 11.906 23.2307 11.6978 23.2131 11.4807C23.1921 11.1893 23.3245 10.9033 23.5814 10.6851C23.8384 10.4668 24.1992 10.3339 24.5854 10.3153Z" fill="url(#paint8_radial)"/>
<path d="M24.7688 11.1042C24.8505 11.1 24.9321 11.1142 25.0031 11.1451C25.0742 11.176 25.1314 11.2221 25.1675 11.2776C25.2036 11.3331 25.217 11.3955 25.206 11.4567C25.1949 11.518 25.1599 11.5754 25.1055 11.6216C25.051 11.6678 24.9796 11.7007 24.9002 11.7162C24.8209 11.7316 24.7372 11.7289 24.6599 11.7083C24.5826 11.6878 24.5152 11.6503 24.4662 11.6008C24.4172 11.5512 24.3889 11.4917 24.3849 11.43C24.382 11.3491 24.4201 11.2703 24.4914 11.2098C24.5627 11.1493 24.6619 11.1116 24.7688 11.1042Z" fill="#ABFAFF"/>
<path style="mix-blend-mode:screen" d="M23.4161 23.9242C23.7047 23.9074 23.9933 23.9557 24.2454 24.063C24.4974 24.1703 24.7015 24.3317 24.8315 24.5267C24.9616 24.7218 25.0118 24.9416 24.9758 25.1582C24.9397 25.3748 24.8191 25.5784 24.6292 25.7432C24.4392 25.9079 24.1887 26.0263 23.9093 26.0833C23.6299 26.1403 23.3344 26.1333 23.0602 26.0633C22.7861 25.9932 22.5459 25.8632 22.37 25.6898C22.1941 25.5164 22.0906 25.3075 22.0726 25.0896C22.0513 24.8016 22.1797 24.5187 22.4306 24.3011C22.6815 24.0835 23.0351 23.9482 23.4161 23.9242Z" fill="url(#paint9_radial)"/>
<path d="M23.5978 24.7128C23.6508 24.7108 23.7037 24.7168 23.7536 24.7303C23.8035 24.7438 23.8493 24.7646 23.8886 24.7915C23.9278 24.8184 23.9596 24.8508 23.9821 24.887C24.0047 24.9232 24.0176 24.9624 24.0201 25.0023C24.0264 25.0829 23.9901 25.1622 23.919 25.2226C23.8479 25.283 23.7479 25.3196 23.641 25.3244C23.5341 25.3292 23.4291 25.3018 23.349 25.2482C23.2689 25.1946 23.2203 25.1191 23.2139 25.0385C23.21 24.998 23.217 24.9573 23.2343 24.9188C23.2516 24.8803 23.2789 24.8449 23.3147 24.8145C23.3505 24.7841 23.394 24.7595 23.4426 24.742C23.4912 24.7245 23.544 24.7146 23.5978 24.7128Z" fill="#ABFAFF"/>
<path style="mix-blend-mode:screen" d="M16.5252 7.88279C17.3343 7.84524 18.14 7.98955 18.8403 8.29746C19.5407 8.60538 20.1042 9.06305 20.4596 9.6126C20.8151 10.1621 20.9464 10.7789 20.8371 11.3847C20.7278 11.9906 20.3827 12.5584 19.8455 13.0163C19.3083 13.4742 18.6031 13.8016 17.8191 13.9572C17.0352 14.1127 16.2077 14.0893 15.4413 13.8901C14.675 13.6908 14.0042 13.3245 13.5138 12.8376C13.0235 12.3507 12.7356 11.765 12.6866 11.1547C12.6236 10.3374 12.9919 9.53452 13.7112 8.92145C14.4304 8.30838 15.4421 7.93496 16.5252 7.88279Z" fill="url(#paint10_radial)"/>
<path d="M17.0145 10.1343C17.1632 10.1277 17.3122 10.1432 17.4529 10.1799C17.5937 10.2167 17.7235 10.2741 17.8349 10.3487C17.9462 10.4233 18.0371 10.5137 18.1021 10.6148C18.1672 10.7159 18.2052 10.8256 18.214 10.9378C18.2228 11.05 18.2023 11.1624 18.1535 11.2685C18.1048 11.3747 18.0288 11.4726 17.9299 11.5566C17.8309 11.6407 17.7111 11.7092 17.577 11.7582C17.443 11.8073 17.2975 11.836 17.1488 11.8427C16.8485 11.8561 16.5534 11.779 16.3284 11.6283C16.1035 11.4776 15.9671 11.2657 15.9493 11.0392C15.9314 10.8126 16.0337 10.59 16.2334 10.4203C16.4332 10.2506 16.7141 10.1478 17.0145 10.1343Z" fill="#ABFAFF"/>
<path style="mix-blend-mode:screen" d="M100.637 30.2798C101.447 30.2421 102.253 30.3865 102.953 30.6947C103.654 31.0029 104.218 31.4609 104.573 32.0109C104.928 32.5609 105.059 33.178 104.949 33.7841C104.839 34.3902 104.493 34.9581 103.955 35.4158C103.417 35.8735 102.711 36.2005 101.926 36.3552C101.141 36.51 100.313 36.4857 99.5471 36.2853C98.7808 36.0849 98.1105 35.7175 97.6212 35.2296C97.132 34.7417 96.8456 34.1552 96.7985 33.5445C96.766 33.1399 96.8396 32.7345 97.015 32.3514C97.1904 31.9684 97.4641 31.6151 97.8206 31.3119C98.1771 31.0087 98.6094 30.7615 99.0927 30.5844C99.5759 30.4073 100.101 30.3038 100.637 30.2798Z" fill="url(#paint11_radial)"/>
<path d="M101.136 32.4947C101.436 32.4812 101.731 32.5583 101.956 32.709C102.181 32.8597 102.317 33.0716 102.335 33.2982C102.353 33.5247 102.251 33.7473 102.051 33.917C101.851 34.0867 101.57 34.1896 101.27 34.203C101.121 34.2097 100.972 34.1942 100.831 34.1574C100.691 34.1206 100.561 34.0633 100.45 33.9887C100.338 33.914 100.247 33.8236 100.182 33.7225C100.117 33.6214 100.079 33.5117 100.07 33.3995C100.062 33.2873 100.082 33.175 100.131 33.0688C100.18 32.9626 100.256 32.8647 100.355 32.7807C100.453 32.6967 100.573 32.6282 100.707 32.5791C100.841 32.53 100.987 32.5013 101.136 32.4947Z" fill="#ABFAFF"/>
<path style="mix-blend-mode:screen" d="M121.788 28.7952C122.165 28.7834 122.537 28.8552 122.859 29.0017C123.182 29.1483 123.44 29.3631 123.602 29.6195C123.763 29.8759 123.822 30.1624 123.769 30.4436C123.717 30.7247 123.556 30.988 123.306 31.2007C123.057 31.4134 122.73 31.5661 122.367 31.6398C122.003 31.7135 121.619 31.705 121.262 31.6152C120.905 31.5255 120.591 31.3586 120.358 31.1352C120.126 30.9118 119.986 30.6418 119.956 30.3588C119.935 30.1645 119.966 29.9691 120.048 29.7842C120.129 29.5992 120.26 29.4287 120.431 29.2827C120.602 29.1367 120.81 29.0182 121.044 28.9345C121.277 28.8507 121.53 28.8033 121.788 28.7952Z" fill="url(#paint12_radial)"/>
<path d="M122.028 29.8525C122.161 29.8594 122.286 29.9029 122.38 29.9747C122.474 30.0465 122.529 30.1417 122.536 30.2423C122.544 30.3429 122.502 30.442 122.418 30.5209C122.335 30.5998 122.217 30.653 122.085 30.6705C122.014 30.6744 121.943 30.6675 121.876 30.6502C121.809 30.6329 121.747 30.6055 121.694 30.5696C121.641 30.5338 121.598 30.4903 121.568 30.4417C121.538 30.3931 121.521 30.3404 121.519 30.2869C121.514 30.233 121.523 30.179 121.546 30.1278C121.569 30.0767 121.605 30.0295 121.652 29.989C121.7 29.9486 121.757 29.9156 121.822 29.8922C121.886 29.8688 121.956 29.8553 122.028 29.8525Z" fill="#ABFAFF"/>
<path style="mix-blend-mode:screen" d="M28.2135 31.4881C28.59 31.4761 28.9628 31.548 29.2855 31.6948C29.6082 31.8416 29.8665 32.0568 30.0281 32.3136C30.1897 32.5704 30.2476 32.8574 30.1944 33.1388C30.1412 33.4202 29.9794 33.6836 29.7292 33.8961C29.4789 34.1086 29.1512 34.2608 28.787 34.3338C28.4228 34.4068 28.0382 34.3973 27.6811 34.3064C27.324 34.2156 27.0103 34.0475 26.779 33.8231C26.5477 33.5987 26.4091 33.3279 26.3805 33.0444C26.361 32.8507 26.3933 32.6561 26.4756 32.472C26.5579 32.288 26.6884 32.1183 26.8594 31.973C27.0305 31.8278 27.2385 31.7101 27.4711 31.6267C27.7037 31.5434 27.9562 31.4963 28.2135 31.4881Z" fill="url(#paint13_radial)"/>
<path d="M28.4528 32.5738C28.5237 32.5699 28.5949 32.5768 28.6621 32.5941C28.7294 32.6115 28.7913 32.6389 28.8442 32.6747C28.8971 32.7105 28.9398 32.754 28.9698 32.8026C28.9999 32.8512 29.0166 32.9039 29.019 32.9575C29.0234 33.0107 29.0139 33.0641 28.9909 33.1145C28.968 33.165 28.9321 33.2115 28.8853 33.2515C28.8386 33.2915 28.7818 33.3242 28.7183 33.3476C28.6548 33.3711 28.5858 33.3849 28.5152 33.3882C28.4446 33.3915 28.3739 33.3843 28.307 33.367C28.2401 33.3497 28.1784 33.3227 28.1253 33.2874C28.0723 33.2521 28.029 33.2093 27.9979 33.1613C27.9669 33.1134 27.9486 33.0614 27.9442 33.0081C27.9363 32.8999 27.9852 32.7936 28.0804 32.7123C28.1756 32.631 28.3094 32.5813 28.4528 32.5738Z" fill="#ABFAFF"/>
<path style="mix-blend-mode:screen" d="M84.449 25.9727C84.6336 25.9737 84.8139 26.0148 84.9683 26.0912C85.1226 26.1675 85.2445 26.2758 85.3193 26.4031C85.3942 26.5304 85.4187 26.6713 85.3901 26.8088C85.3615 26.9464 85.2808 27.0748 85.1579 27.1786C85.035 27.2825 84.8749 27.3574 84.697 27.3944C84.519 27.4314 84.3307 27.4289 84.1546 27.3872C83.9785 27.3454 83.822 27.2663 83.704 27.1592C83.5861 27.0521 83.5115 26.9216 83.4894 26.7834C83.473 26.6813 83.4857 26.5778 83.5265 26.4797C83.5673 26.3815 83.6354 26.2911 83.7262 26.2144C83.817 26.1377 83.9285 26.0765 84.0531 26.0348C84.1777 25.9931 84.3127 25.9719 84.449 25.9727Z" fill="url(#paint14_radial)"/>
<path d="M84.5256 26.501C84.5786 26.4982 84.6315 26.5074 84.6775 26.5272C84.7236 26.5471 84.7608 26.5769 84.7845 26.6127C84.8082 26.6485 84.8173 26.6888 84.8107 26.7286C84.804 26.7683 84.7819 26.8057 84.7472 26.8359C84.7124 26.8662 84.6665 26.888 84.6153 26.8986C84.5641 26.9092 84.5099 26.9082 84.4595 26.8956C84.4091 26.883 84.3648 26.8594 84.3322 26.8278C84.2995 26.7962 84.28 26.7581 84.2761 26.7181C84.2735 26.6915 84.2779 26.6647 84.289 26.6394C84.3002 26.614 84.3179 26.5906 84.341 26.5704C84.3642 26.5502 84.3925 26.5337 84.4241 26.5218C84.4558 26.5099 84.4903 26.5028 84.5256 26.501Z" fill="#ABFAFF"/>
<path style="mix-blend-mode:screen" d="M10.8338 35.3828C11.0202 35.3833 11.2024 35.4247 11.3581 35.5019C11.5139 35.5792 11.6364 35.689 11.7107 35.8179C11.7851 35.9469 11.8081 36.0893 11.7768 36.228C11.7456 36.3666 11.6615 36.4953 11.5349 36.5985C11.4083 36.7017 11.2445 36.7748 11.0637 36.8089C10.8829 36.843 10.6928 36.8367 10.5167 36.7907C10.3405 36.7447 10.186 36.661 10.0719 36.5498C9.95778 36.4386 9.88908 36.3047 9.87417 36.1646C9.86355 36.0648 9.8805 35.9644 9.92395 35.8698C9.9674 35.7751 10.0364 35.6884 10.1266 35.6149C10.2168 35.5414 10.3262 35.4828 10.4479 35.4429C10.5697 35.403 10.7011 35.3825 10.8338 35.3828Z" fill="url(#paint15_radial)"/>
<path d="M10.9489 35.9112C10.985 35.9092 11.0212 35.9128 11.0555 35.9216C11.0897 35.9305 11.1212 35.9444 11.148 35.9627C11.1749 35.9809 11.1966 36.0031 11.2119 36.0278C11.2272 36.0525 11.2356 36.0794 11.2368 36.1066C11.2397 36.16 11.2154 36.2121 11.1691 36.2525C11.1227 36.2928 11.0577 36.3183 10.9873 36.3238C10.9513 36.3257 10.915 36.3222 10.8808 36.3133C10.8466 36.3045 10.8151 36.2905 10.7882 36.2723C10.7614 36.254 10.7396 36.2319 10.7244 36.2071C10.7091 36.1824 10.7006 36.1556 10.6994 36.1283C10.6966 36.075 10.7209 36.0228 10.7672 35.9825C10.8136 35.9422 10.8785 35.9167 10.9489 35.9112Z" fill="#ABFAFF"/>
<path style="mix-blend-mode:screen" d="M38.3861 22.7078C38.5121 22.7021 38.6384 22.7152 38.7577 22.7463C38.8771 22.7774 38.9871 22.826 39.0815 22.8892C39.176 22.9523 39.253 23.0289 39.3082 23.1146C39.3635 23.2002 39.3958 23.2932 39.4033 23.3883C39.4109 23.4833 39.3936 23.5786 39.3523 23.6686C39.3111 23.7586 39.2467 23.8416 39.163 23.9129C39.0792 23.9841 38.9777 24.0422 38.8641 24.0839C38.7506 24.1255 38.6273 24.1499 38.5013 24.1556C38.3689 24.1636 38.2358 24.1508 38.1104 24.118C37.985 24.0853 37.8699 24.0332 37.7725 23.9652C37.6751 23.8972 37.5975 23.8146 37.5445 23.7228C37.4915 23.631 37.4644 23.5319 37.4648 23.4317C37.4647 23.2446 37.5605 23.0648 37.7322 22.9298C37.904 22.7949 38.1383 22.7153 38.3861 22.7078Z" fill="url(#paint16_radial)"/>
<path d="M38.4528 23.2437C38.5062 23.2408 38.5595 23.2501 38.6059 23.2702C38.6523 23.2903 38.6896 23.3205 38.7132 23.3567C38.7367 23.393 38.7453 23.4337 38.738 23.4737C38.7306 23.5137 38.7076 23.5511 38.6719 23.5811C38.6362 23.6112 38.5894 23.6325 38.5375 23.6424C38.4856 23.6523 38.431 23.6502 38.3806 23.6365C38.3303 23.6228 38.2865 23.5981 38.2549 23.5655C38.2233 23.5329 38.2054 23.4939 38.2033 23.4536C38.2007 23.401 38.2252 23.3497 38.2718 23.3105C38.3183 23.2714 38.3833 23.2474 38.4528 23.2437Z" fill="#ABFAFF"/>
<path style="mix-blend-mode:screen" d="M24.7578 34.2972C24.8531 34.2923 24.9488 34.3017 25.0392 34.325C25.1296 34.3483 25.213 34.3849 25.2845 34.4328C25.3559 34.4806 25.414 34.5387 25.4554 34.6036C25.4968 34.6686 25.5206 34.7391 25.5255 34.8111C25.5348 34.9199 25.501 35.0283 25.4285 35.1226C25.3559 35.2169 25.2478 35.2929 25.118 35.3407C24.9881 35.3886 24.8423 35.4063 24.6991 35.3916C24.5559 35.3768 24.4217 35.3303 24.3136 35.2579C24.2055 35.1856 24.1283 35.0906 24.0919 34.9851C24.0555 34.8796 24.0614 34.7683 24.109 34.6653C24.1566 34.5624 24.2437 34.4724 24.3592 34.4068C24.4747 34.3413 24.6135 34.3031 24.7578 34.2972Z" fill="url(#paint17_radial)"/>
<path d="M24.8445 34.6951C24.8705 34.6931 24.8967 34.6951 24.9216 34.701C24.9465 34.707 24.9696 34.7167 24.9893 34.7295C25.0091 34.7424 25.0252 34.7582 25.0366 34.7759C25.048 34.7936 25.0545 34.8129 25.0556 34.8326C25.0583 34.8526 25.0556 34.8728 25.0479 34.892C25.0401 34.9112 25.0274 34.929 25.0105 34.9445C24.9935 34.96 24.9727 34.9728 24.9491 34.9822C24.9256 34.9915 24.8998 34.9973 24.8733 34.9991C24.8194 34.9994 24.7672 34.9849 24.7266 34.9583C24.6859 34.9316 24.6596 34.8946 24.6526 34.8543C24.6513 34.8344 24.6552 34.8144 24.6642 34.7956C24.6731 34.7768 24.6869 34.7595 24.7048 34.7447C24.7226 34.7299 24.7441 34.7179 24.7681 34.7094C24.7921 34.7009 24.818 34.696 24.8445 34.6951Z" fill="#ABFAFF"/>
<path style="mix-blend-mode:screen" d="M75.4667 35.7735C75.6671 35.7645 75.8678 35.7853 76.0576 35.8348C76.2473 35.8843 76.4222 35.9615 76.5723 36.062C76.7225 36.1625 76.8449 36.2843 76.9327 36.4205C77.0204 36.5567 77.0717 36.7046 77.0837 36.8557C77.0957 37.0069 77.0681 37.1583 77.0024 37.3014C76.9368 37.4445 76.8345 37.5765 76.7013 37.6897C76.568 37.803 76.4065 37.8953 76.226 37.9615C76.0455 38.0277 75.8494 38.0664 75.649 38.0755C75.2444 38.0937 74.8466 37.9899 74.5434 37.787C74.2401 37.584 74.0562 37.2985 74.032 36.9933C74.0078 36.688 74.1454 36.388 74.4145 36.1593C74.6835 35.9305 75.062 35.7918 75.4667 35.7735Z" fill="url(#paint18_radial)"/>
<path d="M75.6484 36.599C75.7614 36.595 75.8719 36.6246 75.9563 36.6815C76.0406 36.7383 76.092 36.8179 76.0994 36.903C76.1058 36.9875 76.0674 37.0704 75.9927 37.1335C75.918 37.1967 75.8132 37.2348 75.7012 37.2396C75.5892 37.2444 75.4793 37.2155 75.3956 37.1591C75.3119 37.1028 75.2613 37.0237 75.255 36.9392C75.251 36.8974 75.2581 36.8553 75.2758 36.8156C75.2935 36.7758 75.3214 36.739 75.358 36.7074C75.3945 36.6758 75.439 36.65 75.4888 36.6313C75.5387 36.6127 75.5929 36.6017 75.6484 36.599Z" fill="#ABFAFF"/>
<path style="mix-blend-mode:screen" d="M43.2417 36.6062C43.5431 36.5922 43.8431 36.6461 44.104 36.7608C44.3648 36.8756 44.5746 37.0462 44.7068 37.251C44.839 37.4558 44.8877 37.6855 44.8467 37.9112C44.8058 38.1368 44.6769 38.3483 44.4766 38.5187C44.2762 38.6891 44.0133 38.8108 43.7212 38.8685C43.4291 38.9261 43.1208 38.9171 42.8355 38.8425C42.5502 38.7679 42.3006 38.6312 42.1184 38.4496C41.9361 38.268 41.8294 38.0497 41.8118 37.8223C41.7988 37.6714 41.8256 37.5202 41.8906 37.3772C41.9556 37.2342 42.0575 37.1023 42.1905 36.9893C42.3234 36.8762 42.4848 36.7841 42.6652 36.7183C42.8457 36.6526 43.0416 36.6145 43.2417 36.6062Z" fill="url(#paint19_radial)"/>
<path d="M43.4334 37.4317C43.5453 37.4269 43.6553 37.4558 43.739 37.5122C43.8226 37.5685 43.8732 37.6476 43.8796 37.7321C43.886 37.8165 43.8476 37.8995 43.7729 37.9626C43.6982 38.0257 43.5933 38.0639 43.4813 38.0687C43.3699 38.0727 43.2607 38.0441 43.1766 37.9888C43.0925 37.9335 43.0401 37.8557 43.0303 37.7719C43.0264 37.7295 43.0338 37.6869 43.0521 37.6466C43.0704 37.6064 43.0991 37.5694 43.1367 37.5376C43.1743 37.5059 43.2199 37.4802 43.2708 37.462C43.3218 37.4438 43.377 37.4335 43.4334 37.4317Z" fill="#ABFAFF"/>
<path d="M117.249 37.6848C116.76 37.0261 121.088 34.022 122.192 34.0654C123.295 34.1088 122.307 36.0416 121.645 36.4976C120.982 36.9537 117.489 38.0105 117.249 37.6848Z" fill="white"/>
<defs>
<linearGradient id="paint0_linear" x1="66.5023" y1="47.9997" x2="66.5023" y2="1.51265" gradientUnits="userSpaceOnUse">
<stop stop-color="#8B9AD1"/>
<stop offset="1" stop-color="#CEE0FF"/>
</linearGradient>
<linearGradient id="paint1_linear" x1="66.5023" y1="46.4874" x2="66.5023" y2="0.000341137" gradientUnits="userSpaceOnUse">
<stop stop-color="#CADCFF"/>
<stop offset="1" stop-color="white"/>
</linearGradient>
<radialGradient id="paint2_radial" cx="0" cy="0" r="1" gradientUnits="userSpaceOnUse" gradientTransform="translate(67.3092 40.4717) scale(47.493 35.8245)">
<stop stop-color="#0047FF"/>
<stop offset="1" stop-color="#2C80FF"/>
</radialGradient>
<linearGradient id="paint3_linear" x1="65.3234" y1="41.2173" x2="65.3234" y2="2.85201" gradientUnits="userSpaceOnUse">
<stop stop-color="#00F0FF"/>
<stop offset="1" stop-color="#00B2FF"/>
</linearGradient>
<linearGradient id="paint4_linear" x1="65.323" y1="40.4936" x2="65.323" y2="3.26479" gradientUnits="userSpaceOnUse">
<stop stop-color="#00E0FF"/>
<stop offset="1" stop-color="#0085FF"/>
</linearGradient>
<linearGradient id="paint5_linear" x1="12.6387" y1="10.7419" x2="123.516" y2="10.7419" gradientUnits="userSpaceOnUse">
<stop stop-color="#40E8FF"/>
<stop offset="0.1" stop-color="#3CEFE4"/>
<stop offset="0.29" stop-color="#31C5BC"/>
<stop offset="0.55" stop-color="#20817B"/>
<stop offset="0.88" stop-color="#241609"/>
<stop offset="1"/>
</linearGradient>
<linearGradient id="paint6_linear" x1="118.506" y1="35.8894" x2="12.8105" y2="35.8894" gradientUnits="userSpaceOnUse">
<stop stop-color="#40D1FF"/>
<stop offset="0.1" stop-color="#3CE4EF"/>
<stop offset="0.29" stop-color="#3190C5"/>
<stop offset="0.55" stop-color="#203581"/>
<stop offset="0.88" stop-color="#090C24"/>
<stop offset="1"/>
</linearGradient>
<radialGradient id="paint7_radial" cx="0" cy="0" r="1" gradientUnits="userSpaceOnUse" gradientTransform="translate(21.5723 15.8068) rotate(-94.5479) scale(1.11102 1.46891)">
<stop stop-color="#00B359"/>
<stop offset="0.13" stop-color="#009148"/>
<stop offset="0.34" stop-color="#005E2F"/>
<stop offset="0.54" stop-color="#00351A"/>
<stop offset="0.73" stop-color="#00180C"/>
<stop offset="0.89" stop-color="#000603"/>
<stop offset="1"/>
</radialGradient>
<radialGradient id="paint8_radial" cx="0" cy="0" r="1" gradientUnits="userSpaceOnUse" gradientTransform="translate(1202.82 -1210.23) scale(4.46269 3.36688)">
<stop stop-color="#00B359"/>
<stop offset="0.13" stop-color="#009148"/>
<stop offset="0.34" stop-color="#005E2F"/>
<stop offset="0.54" stop-color="#00351A"/>
<stop offset="0.73" stop-color="#00180C"/>
<stop offset="0.89" stop-color="#000603"/>
<stop offset="1"/>
</radialGradient>
<radialGradient id="paint9_radial" cx="0" cy="0" r="1" gradientUnits="userSpaceOnUse" gradientTransform="translate(1147.17 -1201.78) scale(4.4627 3.36688)">
<stop stop-color="#00B359"/>
<stop offset="0.13" stop-color="#009148"/>
<stop offset="0.34" stop-color="#005E2F"/>
<stop offset="0.54" stop-color="#00351A"/>
<stop offset="0.73" stop-color="#00180C"/>
<stop offset="0.89" stop-color="#000603"/>
<stop offset="1"/>
</radialGradient>
<radialGradient id="paint10_radial" cx="0" cy="0" r="1" gradientUnits="userSpaceOnUse" gradientTransform="translate(3335.85 -3471.53) scale(34.992 26.3966)">
<stop stop-color="#00B359"/>
<stop offset="0.13" stop-color="#009148"/>
<stop offset="0.34" stop-color="#005E2F"/>
<stop offset="0.54" stop-color="#00351A"/>
<stop offset="0.73" stop-color="#00180C"/>
<stop offset="0.89" stop-color="#000603"/>
<stop offset="1"/>
</radialGradient>
<radialGradient id="paint11_radial" cx="0" cy="0" r="1" gradientUnits="userSpaceOnUse" gradientTransform="translate(3124.53 -2919.65) scale(34.9966 26.3966)">
<stop stop-color="#00B359"/>
<stop offset="0.13" stop-color="#009148"/>
<stop offset="0.34" stop-color="#005E2F"/>
<stop offset="0.54" stop-color="#00351A"/>
<stop offset="0.73" stop-color="#00180C"/>
<stop offset="0.89" stop-color="#000603"/>
<stop offset="1"/>
</radialGradient>
<radialGradient id="paint12_radial" cx="0" cy="0" r="1" gradientUnits="userSpaceOnUse" gradientTransform="translate(1549.37 -1288.86) scale(7.83073 5.90681)">
<stop stop-color="#00B359"/>
<stop offset="0.13" stop-color="#009148"/>
<stop offset="0.34" stop-color="#005E2F"/>
<stop offset="0.54" stop-color="#00351A"/>
<stop offset="0.73" stop-color="#00180C"/>
<stop offset="0.89" stop-color="#000603"/>
<stop offset="1"/>
</radialGradient>
<radialGradient id="paint13_radial" cx="0" cy="0" r="1" gradientUnits="userSpaceOnUse" gradientTransform="translate(1463.85 -1568.62) scale(7.83073 5.90681)">
<stop stop-color="#00B359"/>
<stop offset="0.13" stop-color="#009148"/>
<stop offset="0.34" stop-color="#005E2F"/>
<stop offset="0.54" stop-color="#00351A"/>
<stop offset="0.73" stop-color="#00180C"/>
<stop offset="0.89" stop-color="#000603"/>
<stop offset="1"/>
</radialGradient>
<radialGradient id="paint14_radial" cx="0" cy="0" r="1" gradientUnits="userSpaceOnUse" gradientTransform="translate(812.086 -688.794) scale(1.95768 1.4767)">
<stop stop-color="#00B359"/>
<stop offset="0.13" stop-color="#009148"/>
<stop offset="0.34" stop-color="#005E2F"/>
<stop offset="0.54" stop-color="#00351A"/>
<stop offset="0.73" stop-color="#00180C"/>
<stop offset="0.89" stop-color="#000603"/>
<stop offset="1"/>
</radialGradient>
<radialGradient id="paint15_radial" cx="0" cy="0" r="1" gradientUnits="userSpaceOnUse" gradientTransform="translate(722.333 -791.309) scale(1.95768 1.4767)">
<stop stop-color="#00B359"/>
<stop offset="0.13" stop-color="#009148"/>
<stop offset="0.34" stop-color="#005E2F"/>
<stop offset="0.54" stop-color="#00351A"/>
<stop offset="0.73" stop-color="#00180C"/>
<stop offset="0.89" stop-color="#000603"/>
<stop offset="1"/>
</radialGradient>
<radialGradient id="paint16_radial" cx="0" cy="0" r="1" gradientUnits="userSpaceOnUse" gradientTransform="translate(788.288 -763.022) scale(1.97902 1.4804)">
<stop stop-color="#00B359"/>
<stop offset="0.13" stop-color="#009148"/>
<stop offset="0.34" stop-color="#005E2F"/>
<stop offset="0.54" stop-color="#00351A"/>
<stop offset="0.73" stop-color="#00180C"/>
<stop offset="0.89" stop-color="#000603"/>
<stop offset="1"/>
</radialGradient>
<radialGradient id="paint17_radial" cx="0" cy="0" r="1" gradientUnits="userSpaceOnUse" gradientTransform="translate(566.838 -578.199) scale(1.10859 0.836547)">
<stop stop-color="#007DB3"/>
<stop offset="0.13" stop-color="#009148"/>
<stop offset="0.34" stop-color="#005E2F"/>
<stop offset="0.54" stop-color="#00351A"/>
<stop offset="0.73" stop-color="#00180C"/>
<stop offset="0.89" stop-color="#000603"/>
<stop offset="1"/>
</radialGradient>
<radialGradient id="paint18_radial" cx="0" cy="0" r="1" gradientUnits="userSpaceOnUse" gradientTransform="translate(1193.18 -1126.05) scale(4.86084 3.66659)">
<stop stop-color="#00B359"/>
<stop offset="0.13" stop-color="#009148"/>
<stop offset="0.34" stop-color="#005E2F"/>
<stop offset="0.54" stop-color="#00351A"/>
<stop offset="0.73" stop-color="#00180C"/>
<stop offset="0.89" stop-color="#000603"/>
<stop offset="1"/>
</radialGradient>
<radialGradient id="paint19_radial" cx="0" cy="0" r="1" gradientUnits="userSpaceOnUse" gradientTransform="translate(1161.81 -1200.47) scale(4.85309 3.66006)">
<stop stop-color="#00B359"/>
<stop offset="0.13" stop-color="#009148"/>
<stop offset="0.34" stop-color="#005E2F"/>
<stop offset="0.54" stop-color="#00351A"/>
<stop offset="0.73" stop-color="#00180C"/>
<stop offset="0.89" stop-color="#000603"/>
<stop offset="1"/>
</radialGradient>
</defs>
</svg>
