<svg width="1287" height="751" viewBox="0 0 1287 751" fill="none" xmlns="http://www.w3.org/2000/svg">
<g style="mix-blend-mode:screen">
<path d="M15.6143 46.3902C-19.6166 67.6789 11.3765 705.818 43.5081 732.182C73.4259 756.794 1184.81 757.747 1242.56 732.182C1300.31 706.617 1296.26 45.5288 1242.56 21.9328C1188.86 -1.66323 103.344 -6.43166 15.6143 46.3902Z" fill="url(#paint0_linear)" style="mix-blend-mode:saturation"/>
<path style="mix-blend-mode:screen" d="M18.2705 41.3449C-16.9604 62.5413 14.0327 700.772 46.2276 727.168C76.1453 751.779 1187.53 752.733 1245.22 727.168C1302.9 701.603 1298.92 40.545 1245.22 16.949C1191.52 -6.64704 106.063 -11.5078 18.2705 41.3449Z" fill="url(#paint1_linear)"/>
<path d="M28.6454 46.8517C-5.953 67.679 11.3146 685.329 56.1597 721.292C86.0775 745.319 1168.49 754.025 1235.29 721.292C1309.92 684.713 1288.1 46.0518 1235.29 22.948C1182.47 -0.155756 114.983 -5.10876 28.6454 46.8517Z" fill="url(#paint2_radial)" style="mix-blend-mode:screen"/>
<path style="mix-blend-mode:screen" d="M268.294 412.68C269.155 410.585 267.287 408.636 264.122 408.329C260.957 408.021 257.693 409.471 256.832 411.566C255.971 413.661 257.839 415.609 261.005 415.917C264.17 416.225 267.433 414.775 268.294 412.68Z" fill="url(#paint3_radial)"/>
<path style="mix-blend-mode:screen" d="M299.295 389.17C300.712 385.721 296.112 382.367 289.021 381.678C281.93 380.989 275.033 383.226 273.616 386.675C272.199 390.124 276.799 393.478 283.89 394.167C290.981 394.856 297.878 392.619 299.295 389.17Z" fill="url(#paint4_radial)"/>
<path style="mix-blend-mode:screen" d="M275.197 460.074C277.781 460.003 280.349 460.307 282.579 460.945C284.808 461.584 286.599 462.53 287.724 463.664C288.849 464.797 289.258 466.067 288.9 467.314C288.542 468.56 287.432 469.727 285.711 470.667C283.99 471.607 281.736 472.278 279.231 472.595C276.727 472.912 274.086 472.861 271.641 472.448C269.197 472.036 267.058 471.28 265.496 470.277C263.933 469.274 263.017 468.068 262.863 466.811C262.76 465.975 262.998 465.137 263.563 464.345C264.128 463.553 265.009 462.823 266.154 462.197C267.3 461.571 268.689 461.062 270.241 460.697C271.792 460.333 273.477 460.121 275.197 460.074Z" fill="url(#paint5_radial)"/>
<path style="mix-blend-mode:screen" d="M213.464 367.567C220.709 367.354 227.921 368.191 234.188 369.972C240.455 371.753 245.494 374.399 248.669 377.574C251.843 380.748 253.01 384.31 252.022 387.807C251.034 391.304 247.935 394.581 243.117 397.221C238.299 399.862 231.979 401.748 224.957 402.64C217.935 403.533 210.526 403.393 203.667 402.237C196.809 401.082 190.81 398.962 186.429 396.148C182.048 393.333 179.482 389.949 179.056 386.425C178.485 381.706 181.788 377.07 188.239 373.534C194.69 369.998 203.763 367.852 213.464 367.567Z" fill="url(#paint6_radial)"/>
<path style="mix-blend-mode:screen" d="M966.151 496.745C973.396 496.532 980.609 497.369 986.875 499.15C993.142 500.931 998.181 503.577 1001.36 506.752C1004.53 509.926 1005.7 513.488 1004.71 516.985C1003.72 520.482 1000.62 523.759 995.804 526.399C990.986 529.04 984.667 530.926 977.644 531.819C970.622 532.711 963.213 532.571 956.355 531.415C949.496 530.26 943.497 528.14 939.116 525.326C934.735 522.511 932.169 519.127 931.743 515.603C931.452 513.266 932.111 510.923 933.684 508.71C935.256 506.496 937.711 504.455 940.907 502.704C944.103 500.952 947.977 499.524 952.309 498.502C956.641 497.479 961.345 496.882 966.151 496.745Z" fill="url(#paint7_radial)"/>
<path style="mix-blend-mode:screen" d="M1155.4 488.192C1158.86 488.092 1162.3 488.493 1165.29 489.344C1168.29 490.195 1170.69 491.459 1172.2 492.974C1173.72 494.49 1174.28 496.191 1173.8 497.86C1173.33 499.53 1171.85 501.094 1169.55 502.355C1167.25 503.616 1164.23 504.516 1160.88 504.943C1157.53 505.37 1153.99 505.303 1150.72 504.752C1147.44 504.201 1144.58 503.19 1142.48 501.847C1140.39 500.504 1139.16 498.889 1138.96 497.206C1138.68 494.95 1140.26 492.733 1143.34 491.043C1146.43 489.352 1150.76 488.327 1155.4 488.192Z" fill="url(#paint8_radial)"/>
<path style="mix-blend-mode:screen" d="M318.081 503.728C321.542 503.622 324.99 504.017 327.989 504.864C330.987 505.712 333.402 506.973 334.926 508.488C336.45 510.003 337.016 511.704 336.551 513.375C336.086 515.046 334.612 516.613 332.316 517.877C330.019 519.141 327.003 520.044 323.649 520.474C320.296 520.903 316.756 520.839 313.477 520.289C310.199 519.739 307.33 518.729 305.233 517.385C303.136 516.042 301.906 514.426 301.699 512.742C301.554 511.627 301.862 510.508 302.607 509.451C303.353 508.394 304.52 507.418 306.042 506.581C307.564 505.743 309.411 505.06 311.477 504.571C313.543 504.081 315.787 503.795 318.081 503.728Z" fill="url(#paint9_radial)"/>
<path style="mix-blend-mode:screen" d="M820.93 471.887C822.666 471.834 824.397 472.033 825.901 472.458C827.406 472.883 828.617 473.516 829.381 474.276C830.146 475.037 830.429 475.89 830.196 476.729C829.962 477.568 829.222 478.354 828.069 478.988C826.917 479.622 825.403 480.075 823.72 480.291C822.037 480.506 820.261 480.474 818.616 480.197C816.971 479.921 815.531 479.414 814.479 478.74C813.427 478.066 812.811 477.255 812.707 476.41C812.568 475.28 813.356 474.17 814.897 473.322C816.439 472.475 818.608 471.959 820.93 471.887Z" fill="url(#paint10_radial)"/>
<path style="mix-blend-mode:screen" d="M162.609 526.217C164.332 526.17 166.044 526.372 167.53 526.798C169.017 527.224 170.21 527.855 170.96 528.61C171.71 529.366 171.983 530.213 171.744 531.044C171.506 531.875 170.766 532.652 169.619 533.279C168.472 533.906 166.968 534.353 165.299 534.564C163.629 534.776 161.868 534.742 160.239 534.467C158.609 534.192 157.183 533.688 156.142 533.019C155.1 532.35 154.489 531.546 154.387 530.709C154.31 530.15 154.462 529.59 154.836 529.06C155.209 528.53 155.795 528.042 156.561 527.624C157.326 527.206 158.256 526.866 159.294 526.625C160.332 526.383 161.459 526.245 162.609 526.217Z" fill="url(#paint11_radial)"/>
<path style="mix-blend-mode:screen" d="M408.657 453.091C410.379 453.044 412.091 453.246 413.578 453.672C415.064 454.098 416.258 454.728 417.008 455.484C417.758 456.239 418.031 457.086 417.792 457.917C417.553 458.748 416.813 459.526 415.666 460.153C414.519 460.779 413.016 461.226 411.346 461.438C409.677 461.649 407.916 461.615 406.286 461.34C404.656 461.065 403.231 460.562 402.189 459.893C401.147 459.224 400.537 458.42 400.434 457.582C400.313 456.458 401.108 455.356 402.648 454.515C404.187 453.674 406.346 453.162 408.657 453.091Z" fill="url(#paint12_radial)"/>
<path style="mix-blend-mode:screen" d="M287.214 519.911C288.44 519.913 289.637 520.089 290.662 520.416C291.686 520.743 292.493 521.208 292.984 521.755C293.475 522.301 293.629 522.905 293.427 523.493C293.226 524.081 292.678 524.627 291.849 525.067C291.021 525.506 289.948 525.819 288.76 525.967C287.573 526.115 286.323 526.092 285.162 525.901C284.001 525.71 282.979 525.359 282.22 524.891C281.462 524.423 280.999 523.858 280.889 523.264C280.81 522.837 280.914 522.407 281.197 522.001C281.479 521.596 281.932 521.223 282.528 520.907C283.123 520.592 283.847 520.34 284.654 520.168C285.461 519.997 286.333 519.909 287.214 519.911Z" fill="url(#paint13_radial)"/>
<path style="mix-blend-mode:screen" d="M740.916 528.463C743.616 528.368 746.314 528.665 748.666 529.317C751.019 529.969 752.919 530.947 754.128 532.125C755.336 533.304 755.797 534.63 755.452 535.936C755.107 537.243 753.972 538.47 752.191 539.461C750.41 540.453 748.063 541.165 745.448 541.507C742.834 541.849 740.069 541.806 737.506 541.382C734.942 540.958 732.695 540.174 731.05 539.128C729.405 538.082 728.436 536.822 728.266 535.508C728.056 533.761 729.264 532.045 731.63 530.727C733.996 529.41 737.33 528.597 740.916 528.463Z" fill="url(#paint14_radial)"/>
<g style="mix-blend-mode:screen">
<path d="M452.617 533.231C455.317 533.136 458.015 533.434 460.367 534.086C462.72 534.738 464.621 535.715 465.829 536.894C467.037 538.072 467.498 539.399 467.153 540.705C466.808 542.011 465.673 543.238 463.892 544.23C462.111 545.222 459.764 545.934 457.15 546.276C454.535 546.618 451.77 546.574 449.207 546.151C446.643 545.727 444.396 544.942 442.751 543.896C441.106 542.851 440.137 541.59 439.967 540.276C439.757 538.53 440.965 536.813 443.331 535.496C445.697 534.178 449.031 533.365 452.617 533.231Z" fill="url(#paint15_radial)" style="mix-blend-mode:color-dodge"/>
</g>
<path style="mix-blend-mode:screen" opacity="0.5" d="M45.5954 50.1434C45.5954 50.1434 -24.8664 97.7969 181.016 110.41C386.899 123.023 599.233 51.9585 779.056 37.2225C888.975 28.3789 999.776 22.3613 1111 19.1947C1111 19.1947 268.493 -15.0764 45.5954 50.1434Z" fill="url(#paint16_linear)"/>
<g style="mix-blend-mode:screen">
<path d="M40.7894 66.1098C39.4334 62.8012 39.8882 59.3773 42.1083 56.1811C44.3284 52.9848 48.2359 50.1283 53.4396 47.8975C71.7824 39.5604 171.403 23.2863 180.321 27.2856C189.24 31.2849 81.5231 68.7863 40.7894 66.1098Z" fill="white"/>
</g>
<g style="mix-blend-mode:screen">
<path d="M48.4428 75.7084C39.6509 73.0935 23.9646 84.9376 42.5605 89.6753C61.1563 94.413 59.1323 78.9079 48.4428 75.7084Z" fill="white"/>
</g>
<g style="mix-blend-mode:screen">
<path d="M1210.87 730.89C1201.38 728.983 1248.82 705.448 1253.63 707.171C1258.44 708.894 1251.99 722.553 1244.84 725.814C1237.69 729.075 1217.26 732.182 1210.87 730.89Z" fill="white"/>
</g>
</g>
<defs>
<linearGradient id="paint0_linear" x1="-0.00873894" y1="378.057" x2="1284.37" y2="378.057" gradientUnits="userSpaceOnUse">
<stop stop-color="#004AC2"/>
<stop offset="1" stop-color="#0083C2"/>
</linearGradient>
<linearGradient id="paint1_linear" x1="644.837" y1="745.995" x2="644.837" y2="-0.00200092" gradientUnits="userSpaceOnUse">
<stop stop-color="#00EFF1"/>
<stop offset="1" stop-color="#0098FF"/>
</linearGradient>
<radialGradient id="paint2_radial" cx="0" cy="0" r="1" gradientUnits="userSpaceOnUse" gradientTransform="translate(646.862 374.458) scale(699.431 340.189)">
<stop stop-color="#06113A"/>
<stop offset="1" stop-color="#008CCA"/>
</radialGradient>
<radialGradient id="paint3_radial" cx="0" cy="0" r="1" gradientUnits="userSpaceOnUse" gradientTransform="translate(262.425 412.16) rotate(-89.2281) scale(3.81147 5.93276)">
<stop stop-color="#00B359"/>
<stop offset="0.13" stop-color="#009148"/>
<stop offset="0.34" stop-color="#005E2F"/>
<stop offset="0.54" stop-color="#00351A"/>
<stop offset="0.73" stop-color="#00180C"/>
<stop offset="0.89" stop-color="#000603"/>
<stop offset="1"/>
</radialGradient>
<radialGradient id="paint4_radial" cx="0" cy="0" r="1" gradientUnits="userSpaceOnUse" gradientTransform="translate(-13093.5 -7024.83) rotate(-97.0048) scale(26.5151 53.8964)">
<stop stop-color="#00B359"/>
<stop offset="0.13" stop-color="#009148"/>
<stop offset="0.34" stop-color="#005E2F"/>
<stop offset="0.54" stop-color="#00351A"/>
<stop offset="0.73" stop-color="#00180C"/>
<stop offset="0.89" stop-color="#000603"/>
<stop offset="1"/>
</radialGradient>
<radialGradient id="paint5_radial" cx="0" cy="0" r="1" gradientUnits="userSpaceOnUse" gradientTransform="translate(-13011.8 -6714.13) rotate(-97.0325) scale(26.5641 53.9909)">
<stop stop-color="#00B359"/>
<stop offset="0.13" stop-color="#009148"/>
<stop offset="0.34" stop-color="#005E2F"/>
<stop offset="0.54" stop-color="#00351A"/>
<stop offset="0.73" stop-color="#00180C"/>
<stop offset="0.89" stop-color="#000603"/>
<stop offset="1"/>
</radialGradient>
<radialGradient id="paint6_radial" cx="0" cy="0" r="1" gradientUnits="userSpaceOnUse" gradientTransform="translate(-47654 -24291.7) rotate(-97.0325) scale(208.55 423.873)">
<stop stop-color="#00B359"/>
<stop offset="0.13" stop-color="#009148"/>
<stop offset="0.34" stop-color="#005E2F"/>
<stop offset="0.54" stop-color="#00351A"/>
<stop offset="0.73" stop-color="#00180C"/>
<stop offset="0.89" stop-color="#000603"/>
<stop offset="1"/>
</radialGradient>
<radialGradient id="paint7_radial" cx="0" cy="0" r="1" gradientUnits="userSpaceOnUse" gradientTransform="translate(-38685.6 -23166.9) rotate(-97.0325) scale(208.56 423.873)">
<stop stop-color="#00B359"/>
<stop offset="0.13" stop-color="#009148"/>
<stop offset="0.34" stop-color="#005E2F"/>
<stop offset="0.54" stop-color="#00351A"/>
<stop offset="0.73" stop-color="#00180C"/>
<stop offset="0.89" stop-color="#000603"/>
<stop offset="1"/>
</radialGradient>
<radialGradient id="paint8_radial" cx="0" cy="0" r="1" gradientUnits="userSpaceOnUse" gradientTransform="translate(-14454.4 -10105.3) rotate(-97.0325) scale(47.5678 96.6804)">
<stop stop-color="#00B359"/>
<stop offset="0.13" stop-color="#009148"/>
<stop offset="0.34" stop-color="#005E2F"/>
<stop offset="0.54" stop-color="#00351A"/>
<stop offset="0.73" stop-color="#00180C"/>
<stop offset="0.89" stop-color="#000603"/>
<stop offset="1"/>
</radialGradient>
<radialGradient id="paint9_radial" cx="0" cy="0" r="1" gradientUnits="userSpaceOnUse" gradientTransform="translate(-19019.6 -9613.51) rotate(-97.0325) scale(47.573 96.6805)">
<stop stop-color="#00B359"/>
<stop offset="0.13" stop-color="#009148"/>
<stop offset="0.34" stop-color="#005E2F"/>
<stop offset="0.54" stop-color="#00351A"/>
<stop offset="0.73" stop-color="#00180C"/>
<stop offset="0.89" stop-color="#000603"/>
<stop offset="1"/>
</radialGradient>
<radialGradient id="paint10_radial" cx="0" cy="0" r="1" gradientUnits="userSpaceOnUse" gradientTransform="translate(-5347.23 -3914.24) rotate(-97.0325) scale(11.8918 24.1699)">
<stop stop-color="#00B359"/>
<stop offset="0.13" stop-color="#009148"/>
<stop offset="0.34" stop-color="#005E2F"/>
<stop offset="0.54" stop-color="#00351A"/>
<stop offset="0.73" stop-color="#00180C"/>
<stop offset="0.89" stop-color="#000603"/>
<stop offset="1"/>
</radialGradient>
<radialGradient id="paint11_radial" cx="0" cy="0" r="1" gradientUnits="userSpaceOnUse" gradientTransform="translate(-6936.98 -3403.73) rotate(-97.0325) scale(11.8089 23.9959)">
<stop stop-color="#00B359"/>
<stop offset="0.13" stop-color="#009148"/>
<stop offset="0.34" stop-color="#005E2F"/>
<stop offset="0.54" stop-color="#00351A"/>
<stop offset="0.73" stop-color="#00180C"/>
<stop offset="0.89" stop-color="#000603"/>
<stop offset="1"/>
</radialGradient>
<radialGradient id="paint12_radial" cx="0" cy="0" r="1" gradientUnits="userSpaceOnUse" gradientTransform="translate(-6421.34 -3718.51) rotate(-97.0325) scale(11.8039 23.9959)">
<stop stop-color="#00B359"/>
<stop offset="0.13" stop-color="#009148"/>
<stop offset="0.34" stop-color="#005E2F"/>
<stop offset="0.54" stop-color="#00351A"/>
<stop offset="0.73" stop-color="#00180C"/>
<stop offset="0.89" stop-color="#000603"/>
<stop offset="1"/>
</radialGradient>
<radialGradient id="paint13_radial" cx="0" cy="0" r="1" gradientUnits="userSpaceOnUse" gradientTransform="translate(-3183.06 -1827.42) rotate(-97.0326) scale(6.38536 12.9782)">
<stop stop-color="#00B359"/>
<stop offset="0.13" stop-color="#009148"/>
<stop offset="0.34" stop-color="#005E2F"/>
<stop offset="0.54" stop-color="#00351A"/>
<stop offset="0.73" stop-color="#00180C"/>
<stop offset="0.89" stop-color="#000603"/>
<stop offset="1"/>
</radialGradient>
<radialGradient id="paint14_radial" cx="0" cy="0" r="1" gradientUnits="userSpaceOnUse" gradientTransform="translate(-11697.5 -7048.87) rotate(-97.0325) scale(28.9202 58.7879)">
<stop stop-color="#00B359"/>
<stop offset="0.13" stop-color="#009148"/>
<stop offset="0.34" stop-color="#005E2F"/>
<stop offset="0.54" stop-color="#00351A"/>
<stop offset="0.73" stop-color="#00180C"/>
<stop offset="0.89" stop-color="#000603"/>
<stop offset="1"/>
</radialGradient>
<radialGradient id="paint15_radial" cx="0" cy="0" r="1" gradientUnits="userSpaceOnUse" gradientTransform="translate(-12918 -6888.02) rotate(-97.0325) scale(28.9203 58.7878)">
<stop stop-color="#00B359"/>
<stop offset="0.13" stop-color="#009148"/>
<stop offset="0.34" stop-color="#005E2F"/>
<stop offset="0.54" stop-color="#00351A"/>
<stop offset="0.73" stop-color="#00180C"/>
<stop offset="0.89" stop-color="#000603"/>
<stop offset="1"/>
</radialGradient>
<linearGradient id="paint16_linear" x1="33.9572" y1="61.0646" x2="1111" y2="61.0646" gradientUnits="userSpaceOnUse">
<stop stop-color="#23786E"/>
<stop offset="0.18" stop-color="#1E685F"/>
<stop offset="0.54" stop-color="#123E39"/>
<stop offset="1"/>
</linearGradient>
</defs>
</svg>
