<svg width="217" height="104" viewBox="0 0 217 104" fill="none" xmlns="http://www.w3.org/2000/svg">
<path d="M213.173 59.1943L213.883 57.9469L213.163 56.7049L204.27 41.3477V18.2394C204.27 14.1834 203.233 10.3936 201.424 7.53942C199.634 4.71608 196.852 2.5 193.379 2.5H13.391C9.91782 2.5 7.13548 4.71608 5.34607 7.53942C3.53709 10.3936 2.5 14.1834 2.5 18.2394V85.7606C2.5 89.8166 3.53709 93.6064 5.34607 96.4606C7.13548 99.2839 9.91782 101.5 13.391 101.5H193.379C196.852 101.5 199.634 99.2839 201.424 96.4606C203.233 93.6064 204.27 89.8166 204.27 85.7606V74.8376L213.173 59.1943Z" fill="url(#paint0_linear)" stroke="#6BEEF7" stroke-width="5"/>
<defs>
<linearGradient id="paint0_linear" x1="147.34" y1="-3.51222" x2="72.3443" y2="125.908" gradientUnits="userSpaceOnUse">
<stop stop-color="#4377A7"/>
<stop offset="0.991448" stop-color="#305895"/>
</linearGradient>
</defs>
</svg>
