<svg width="111" height="66" viewBox="0 0 111 66" fill="none" xmlns="http://www.w3.org/2000/svg">
<path opacity="0.8" d="M44.1757 58.4344L46.2233 61.3573L48.2708 58.4344L53.3721 51.1525H101.693C103.921 51.1525 105.684 49.8599 106.786 48.2861C107.894 46.7044 108.5 44.6524 108.5 42.5042V11.1482C108.5 9 107.894 6.94801 106.786 5.36639C105.684 3.79254 103.921 2.5 101.693 2.5H9.30704C7.07885 2.5 5.31647 3.79254 4.21393 5.36639C3.10596 6.94801 2.5 9 2.5 11.1482V42.5042C2.5 44.6524 3.10596 46.7044 4.21393 48.2861C5.31647 49.8599 7.07885 51.1525 9.30704 51.1525H39.0745L44.1757 58.4344Z" fill="url(#paint0_linear)" stroke="#6BEEF7" stroke-width="5"/>
<defs>
<linearGradient id="paint0_linear" x1="74.7882" y1="0.291112" x2="30.9852" y2="67.2868" gradientUnits="userSpaceOnUse">
<stop stop-color="#4377A7"/>
<stop offset="0.991448" stop-color="#305895"/>
</linearGradient>
</defs>
</svg>
