<svg width="1440" height="900" viewBox="0 0 1440 900" fill="none" xmlns="http://www.w3.org/2000/svg">
<path d="M973.149 577.111V768.636L679.942 599.897V407.757L924.486 548.783L942.966 559.252L973.149 577.111Z" fill="#211F1F"/>
<path d="M690.414 422.537V594.355L962.677 751.393V579.575L693.493 423.768L690.414 422.537Z" fill="#1A181A"/>
<path d="M960.829 582.038V744.003L694.726 590.66V428.695L960.829 582.038Z" fill="#474547"/>
<path d="M690.414 422.537V426.847L960.213 582.654L962.677 748.314V579.575L693.493 423.768L690.414 422.537Z" fill="#121011"/>
<path d="M979.308 764.942L973.149 768.636V577.112L979.308 573.417V764.942Z" fill="#121011"/>
<path d="M690.414 422.537V594.355L693.493 592.507V423.768L690.414 422.537Z" fill="#121011"/>
<path d="M979.308 573.416L973.149 577.111L679.942 407.757L686.102 404.062L979.308 573.416Z" fill="#453E41"/>
<path d="M690.414 594.355L962.677 751.393V748.314L693.493 592.507L690.414 594.355Z" fill="#453E41"/>
<path d="M808.682 250.718L293.722 556.173V319.076L808.682 13.0059V250.718Z" fill="#3A2956"/>
<path d="M293.722 319.076V556.173L261.691 537.698V299.985L293.722 319.076Z" fill="#EAC790"/>
<path d="M808.682 -390.366L1583.58 69.047L1615 50.5719L840.097 -408.842L808.682 -390.366Z" fill="#596D70"/>
<path d="M840.097 -5.46916L293.722 319.076L261.691 299.985L808.682 -24.5601L840.097 -5.46916Z" fill="#FFE2B5"/>
<path d="M1798 832.5L1037.21 997.727L293.722 556.173L808.682 250.719L1798 832.5Z" fill="#74A1C2"/>
<path d="M808.682 250.719L1583.58 709.516V69.0471L808.682 -390.366V250.719Z" fill="#8188AE"/>
<path d="M806.834 59.1936L291.875 365.264V127.551L806.834 -178.519V59.1936Z" fill="#3A2956"/>
<path d="M810.53 -177.287L294.954 128.167V-108.93L810.53 -415V-177.287Z" fill="#3A2956"/>
<path d="M1054.46 985.411L582.617 1265L-235 872.5L341.769 525.381L1054.46 985.411Z" fill="#74A1C2"/>
<path d="M382.424 502.595L-133.152 808.666V571.569L382.424 265.499V502.595Z" fill="#3A2956"/>
<path d="M380.575 311.686L-135 617.757V380.044L380.575 73.9736V311.686Z" fill="#3A2956"/>
<path d="M383.655 75.2053L-131.92 380.66V143.563L383.655 -162.507V75.2053Z" fill="#3A2956"/>
<g style="mix-blend-mode:multiply">
<path d="M901.865 175.602L807.218 52.5953L808.834 248.424L631.685 354.581L630.448 353.976L374.812 503.89L533.816 513.048L543.015 508.045L568.905 510.295L614.884 483.434C622.927 487.679 648.909 501.013 654.447 500.352C661.218 499.68 662.45 499.67 662.45 499.67L661.193 496.601L628.415 480.859L626.531 476.563L701.323 432.836L731.973 414.724L722.688 409.258L717.735 406.219L902.876 298.149L901.865 175.602Z" fill="#B5AEAC"/>
</g>
<path d="M968.837 249.487L963.293 250.718V338.167L996.556 357.258V277.815L968.837 249.487Z" fill="#B5AEAC"/>
<g style="mix-blend-mode:multiply">
<path d="M1371.86 584.675V510.774L1342.91 476.903L1265.3 443.648V409.161L1248.05 370.364L1038 294L1252.98 513.853L1321.97 555.73L1371.86 584.675Z" fill="#B5AEAC"/>
</g>
<path d="M925.718 365.264L841.329 316.613V225.469L925.718 274.12V365.264Z" fill="#EAE5FB"/>
<path d="M968.836 249.487V340.631L925.718 365.264V274.12L968.836 249.487Z" fill="#ADA7A7"/>
<path d="M883.831 200.836L968.837 249.487L925.718 274.12L841.329 225.469L883.831 200.836Z" fill="white"/>
<path d="M922.022 277.2L870.28 247.024L844.409 261.804L922.022 306.144V277.2Z" fill="white"/>
<path d="M870.28 247.024L844.409 261.804V232.244L870.28 247.024Z" fill="#7C7373"/>
<path d="M922.022 311.687V356.027L844.409 311.071V266.73L878.288 286.437L922.022 311.687Z" fill="#94928D"/>
<path d="M922.022 317.229L878.288 291.364L844.409 311.071L922.022 356.027V317.229Z" fill="white"/>
<path d="M878.287 286.437V291.364L844.409 311.071V266.73L878.287 286.437Z" fill="#7C7373"/>
<path d="M844.409 261.804H883.215L922.022 283.358V277.2L870.28 247.024L844.409 261.804Z" fill="#D1CCC7"/>
<path d="M844.409 311.071H883.215L922.022 333.241V317.229L878.288 291.364L844.409 311.071Z" fill="#D1CCC7"/>
<g style="mix-blend-mode:multiply">
<path d="M1169.65 464.414L1153.63 478.578L989.164 383.739L968.221 395.44L963.909 397.904L953.437 404.062L948.509 407.141L936.806 413.915L930.646 417.61L925.718 420.074L925.102 420.689L909.087 429.927L711.357 543.857L707.045 546.32L703.349 548.783L695.958 552.478L683.638 559.868L705.813 572.185L913.399 692.273H985.468L1250.34 542.009L1278.06 527.229L1169.65 464.414Z" fill="#8A766A"/>
</g>
<path d="M1225.08 511.217L972.533 365.88V276.584L1225.08 422.537V511.217Z" fill="#D49F62"/>
<path d="M1206.61 411.452L1225.08 421.921V511.217L1218.93 507.522L1207.22 473.035C1206.61 473.035 1193.05 415.763 1206.61 411.452Z" fill="#C88436"/>
<path d="M1257.12 403.446V492.742L1225.08 511.217V422.537L1257.12 403.446Z" fill="#9A682E"/>
<path d="M1004.56 258.109L1257.12 403.446L1225.08 422.537L972.533 276.584L1004.56 258.109Z" fill="#E7CAA8"/>
<path d="M1223.85 416.379L982.388 276.584V245.792L1223.85 385.587V416.379Z" fill="#8A6740"/>
<path d="M1249.11 370.807V401.599L1223.85 416.379V385.587L1249.11 370.807Z" fill="#503618"/>
<path d="M1223.85 405.294L982.388 266.115V235.323L1223.85 375.118V405.294Z" fill="#5C3C19"/>
<path d="M1249.11 360.338V391.129L1223.85 405.294V375.118L1249.11 360.338Z" fill="#221404"/>
<path d="M1007.64 231.628L1249.11 370.807L1223.85 385.587L982.388 245.792L1007.64 231.628Z" fill="#9D8972"/>
<path d="M1225.08 400.983L972.533 255.645V237.17L1225.08 382.508V400.983Z" fill="#D49F62"/>
<path d="M1257.12 364.032V382.508L1225.08 400.983V382.508L1257.12 364.032Z" fill="#9A682E"/>
<path d="M1004.56 218.695L1257.12 364.033L1225.08 382.508L972.533 237.17L1004.56 218.695Z" fill="#E7CAA8"/>
<path d="M913.399 683.651L683.638 551.247V523.534L913.399 655.939V683.651Z" fill="#D49F62"/>
<path d="M683.638 523.534L705.813 535.851L913.399 655.939L928.182 647.317L930.03 646.085L934.342 643.622L935.574 643.006L1136.38 527.229L1142.54 523.534L1145.01 522.302L1148.09 520.455L1149.32 519.839L1151.17 518.607L1169.65 508.138L1173.96 505.675L1183.81 499.516L1188.13 497.669L1193.67 493.974L1206.61 486.584L1211.53 483.505H1212.15L1214.61 482.273L1217.08 480.425L1218.92 479.81L989.164 347.405L968.221 359.106L963.909 361.569L953.437 367.728L948.509 370.807L936.806 377.581L930.646 381.276L925.718 383.739L925.102 384.355L909.087 393.593L711.357 507.522L707.045 509.986L703.349 511.833L695.958 516.144L683.638 523.534Z" fill="#E7CAA8"/>
<path d="M1202.91 470.572L1218.92 479.81L986.084 614.062L1094.5 521.071L1202.91 470.572Z" fill="#503618"/>
<path d="M1218.93 479.81V507.522L913.399 683.651V655.939L1218.93 479.81Z" fill="#9A682E"/>
<path d="M913.399 649.78L683.638 517.375V477.962L913.399 610.367V649.78Z" fill="#F0F0F0"/>
<path d="M683.638 477.962L913.399 610.367L1218.92 434.238L989.164 301.833L683.638 477.962Z" fill="white"/>
<path d="M1156.09 464.414H1166.57L1218.92 434.238L1193.67 419.458L1087.11 357.874L1047.07 401.598H1088.34L1156.09 464.414Z" fill="#D1CCC7"/>
<path d="M1218.93 434.238V473.651L913.399 649.78V610.367L1218.93 434.238Z" fill="#ADA7A7"/>
<path d="M1098.19 372.039L1047.07 401.599V372.039L1098.19 342.479V372.039Z" fill="#ADA7A7"/>
<path d="M938.654 338.783L1047.07 401.599V372.038L938.654 309.223V338.783Z" fill="#F0F0F0"/>
<path d="M1098.19 342.478L1047.07 372.039L938.654 309.223L989.78 279.663L1098.19 342.478Z" fill="white"/>
<path d="M1206.61 434.854L1156.1 464.414V434.854L1206.61 405.294V434.854Z" fill="#ADA7A7"/>
<path d="M1053.23 404.678L1156.09 464.414V434.854L1053.23 375.118V404.678Z" fill="#F0F0F0"/>
<path d="M1206.61 405.294L1156.09 434.854L1053.23 375.118L1103.74 346.173L1206.61 405.294Z" fill="white"/>
<path d="M1223.85 416.379H1235.56L1257.12 403.446L1249.11 399.135V401.599L1223.85 416.379Z" fill="#8B510E"/>
<path d="M1132.07 548.167V529.692L1127.14 526.613V486.584L901.079 352.948L683.638 477.962L913.399 610.367V649.78L918.943 652.859V670.103L1132.07 548.167Z" fill="#C9C9C9"/>
<path d="M1127.14 486.584L913.399 610.367V649.78L918.943 652.86V670.103L1132.07 548.168V529.692L1127.14 526.613V486.584Z" fill="#71727A"/>
<path d="M918.943 652.86L1132.07 529.692L1127.14 526.613L913.399 649.78L918.943 652.86Z" fill="#4A4B54"/>
<g style="mix-blend-mode:multiply">
<path d="M1299.01 591.229H1354.44L1370.46 583.223L1336.58 563.516L1299.01 591.229Z" fill="#8A766A"/>
</g>
<path d="M1299.01 591.229L1214 542.578V450.818L1299.01 500.085V591.229Z" fill="#EAE5FB"/>
<path d="M1341.51 475.452V566.595L1299.01 591.229V500.085L1341.51 475.452Z" fill="#ADA7A7"/>
<path d="M1257.12 426.185L1341.51 475.452L1299.01 500.085L1214 450.818L1257.12 426.185Z" fill="white"/>
<path d="M1295.31 503.164L1242.95 472.988L1217.7 487.768L1295.31 532.109V503.164Z" fill="white"/>
<path d="M1242.95 472.988L1217.7 487.768V458.208L1242.95 472.988Z" fill="#7C7373"/>
<path d="M1295.31 537.651V581.991L1217.7 537.035V492.695L1251.57 512.402L1295.31 537.651Z" fill="#94928D"/>
<path d="M1295.31 542.578L1251.57 517.329L1217.7 537.035L1295.31 581.991V542.578Z" fill="white"/>
<path d="M1251.57 512.402V517.329L1217.7 537.035V492.695L1251.57 512.402Z" fill="#7C7373"/>
<path d="M1217.7 487.768H1256.5L1295.31 509.323V503.164L1242.95 472.988L1217.7 487.768Z" fill="#D1CCC7"/>
<path d="M1217.7 537.035H1256.5L1295.31 558.59V542.578L1251.57 517.329L1217.7 537.035Z" fill="#D1CCC7"/>
<path d="M1267.59 467.446V465.598L1313.79 464.367V466.83C1313.79 470.525 1311.32 473.604 1307.01 476.068C1297.77 480.994 1283.61 481.61 1274.37 476.068C1270.05 474.22 1267.59 471.141 1267.59 467.446Z" fill="#82806F"/>
<path d="M1313.17 468.678C1312.56 471.141 1310.09 473.604 1307.01 475.452C1297.77 480.378 1283.61 480.378 1274.37 475.452C1265.74 470.525 1265.74 461.903 1274.37 456.361C1283.61 451.434 1297.77 451.434 1307.01 456.361C1307.63 456.977 1308.86 457.592 1309.48 458.208C1310.71 458.824 1311.32 460.056 1311.94 460.672C1312.56 461.287 1312.56 461.903 1313.17 463.135C1313.79 464.983 1313.79 466.83 1313.17 468.678Z" fill="#D6D6D1"/>
<path d="M1313.17 468.678L1294.08 468.062C1293.46 468.062 1292.23 468.062 1291.61 468.062C1291 467.446 1289.77 467.446 1289.15 466.83C1290.38 465.598 1291 464.367 1291.61 462.519L1310.09 463.135C1310.09 463.135 1311.32 463.751 1313.17 463.751C1313.79 464.983 1313.79 466.83 1313.17 468.678Z" fill="#A5A498"/>
<path d="M1285.45 412.637V465.599C1285.45 466.214 1286.07 466.83 1286.69 467.446C1287.92 468.062 1289.15 468.062 1290.38 468.062C1291 468.062 1292.23 468.062 1292.85 467.446C1293.46 466.83 1294.08 466.214 1294.08 465.599V412.637H1285.45Z" fill="#82806F"/>
<path d="M1286.69 397.857V466.83C1287.92 467.446 1289.15 467.446 1290.38 467.446V397.241H1286.69V397.857Z" fill="#A5A498"/>
<path d="M1263.89 421.258V399.704H1317.48V421.258C1317.48 424.953 1315.02 429.264 1309.48 432.343C1299.01 438.502 1281.76 438.502 1271.9 432.343C1266.36 428.648 1263.89 424.953 1263.89 421.258Z" fill="url(#paint0_linear)"/>
<path d="M1271.9 410.173C1282.37 416.332 1299.01 416.332 1309.48 410.173C1319.95 404.015 1319.95 394.161 1309.48 388.619C1299.01 382.46 1282.37 382.46 1271.9 388.619C1261.43 394.161 1261.43 404.015 1271.9 410.173Z" fill="white"/>
<path d="M1276.21 407.094C1278.68 408.326 1281.76 409.557 1284.84 410.173C1285.45 410.173 1286.69 410.173 1287.3 410.789C1287.92 410.789 1289.15 410.789 1289.77 410.789C1291.61 410.789 1293.46 410.789 1295.31 410.789C1296.54 410.789 1297.16 410.789 1298.39 410.173C1301.47 409.557 1303.93 408.942 1305.78 407.094C1313.79 402.783 1313.79 395.393 1305.78 390.467C1297.77 386.156 1284.84 386.156 1276.21 390.467C1268.21 395.393 1268.21 402.783 1276.21 407.094Z" fill="url(#paint1_linear)"/>
<path d="M1276.21 407.094C1279.29 408.942 1282.99 410.173 1287.3 410.173C1287.92 410.173 1289.15 410.173 1289.77 410.173C1278.06 404.631 1276.83 390.467 1276.83 390.467C1268.21 395.393 1268.21 402.783 1276.21 407.094Z" fill="#BDB5AC"/>
<path d="M1284.22 410.173C1284.84 410.173 1286.07 410.173 1286.69 410.789C1287.3 410.789 1288.53 410.789 1289.15 410.789C1291 410.789 1292.85 410.789 1294.69 410.789C1295.93 410.789 1296.54 410.789 1297.77 410.173C1296.54 408.326 1294.08 407.094 1291 407.094C1288.53 406.478 1286.07 407.71 1284.22 410.173Z" fill="#F7F7CF"/>
<path d="M666.39 340.015L718.132 309.223L633.743 260.572L581.385 290.748L666.39 340.015Z" fill="#693A1F"/>
<path d="M666.39 413.299V340.015L581.385 290.748V364.648L666.39 413.299Z" fill="#995330"/>
<path d="M666.39 413.299V340.015L718.133 309.223V383.123L666.39 413.299Z" fill="#7E4303"/>
<path d="M672.55 396.056L724.908 365.88L718.133 361.569L666.39 392.361L672.55 396.056Z" fill="#E7CAA8"/>
<path d="M672.55 416.994V396.056L666.39 392.361V413.299L672.55 416.994Z" fill="#995330"/>
<path d="M672.55 416.994V396.056L724.908 365.88V386.818L672.55 416.994Z" fill="#D49F62"/>
<path d="M719.365 374.501L678.71 398.519V397.903H675.014V400.982V404.061L676.246 403.445L723.061 375.733V375.117V372.654V371.422H719.365V374.501Z" fill="#693A1F"/>
<path d="M675.014 397.903L678.71 399.75V396.671L675.014 394.824V397.903Z" fill="#665558"/>
<path d="M719.365 372.038L723.06 373.885L721.828 369.575L719.365 368.959V372.038Z" fill="#665558"/>
<path d="M719.365 368.959L721.829 369.575L678.71 394.824L676.246 393.592L675.014 394.824L678.71 396.671L724.909 369.575L721.213 367.727L719.365 368.959Z" fill="#C4C4C4"/>
<path d="M678.71 399.751L724.908 373.27V369.575L678.71 396.671V399.751Z" fill="#DEDEDE"/>
<path d="M672.55 369.575L724.908 339.399L718.133 335.704L666.39 365.88L672.55 369.575Z" fill="#E7CAA8"/>
<path d="M672.55 391.129V369.575L666.39 365.88V387.434L672.55 391.129Z" fill="#693A1F"/>
<path d="M672.55 391.129V369.575L724.908 339.399V360.337L672.55 391.129Z" fill="#D49F62"/>
<path d="M719.365 348.637L678.71 372.654V371.422H675.014V374.502V377.581L676.246 376.965L723.061 349.868V349.252V346.173V345.557H719.365V348.637Z" fill="#693A1F"/>
<path d="M675.014 371.422L678.71 373.886V370.191L675.014 368.343V371.422Z" fill="#665558"/>
<path d="M719.365 345.557L723.06 348.021L721.828 343.71L719.365 342.478V345.557Z" fill="#665558"/>
<path d="M719.365 342.478L721.829 343.71L678.71 368.959L676.246 367.727L675.014 368.343L678.71 370.191L724.909 343.71L721.213 341.862L719.365 342.478Z" fill="#C4C4C4"/>
<path d="M678.71 373.886L724.908 346.789V343.71L678.71 370.191V373.886Z" fill="#DEDEDE"/>
<path d="M672.55 343.71L724.908 312.918L718.133 309.223L666.39 340.015L672.55 343.71Z" fill="#E7CAA8"/>
<path d="M672.55 364.648V343.71L666.39 340.015V360.953L672.55 364.648Z" fill="#995330"/>
<path d="M672.55 364.648V343.71L724.908 312.918V334.472L672.55 364.648Z" fill="#D49F62"/>
<path d="M719.365 322.155L678.71 346.173V345.557H675.014V348.021V351.716L676.246 351.1L723.061 323.387V322.771V320.308V319.076H719.365V322.155Z" fill="#693A1F"/>
<path d="M675.014 345.557L678.71 347.405V344.326L675.014 342.478V345.557Z" fill="#665558"/>
<path d="M719.365 319.692L723.06 321.54L721.828 317.229L719.365 315.997V319.692Z" fill="#665558"/>
<path d="M719.365 315.997L721.829 317.229L678.71 342.478L676.246 341.246L675.014 342.478L678.71 344.326L724.909 317.229L721.213 315.381L719.365 315.997Z" fill="#C4C4C4"/>
<path d="M678.71 347.405L724.908 320.924V317.229L678.71 344.326V347.405Z" fill="#DEDEDE"/>
<path d="M482.435 379.037L479.8 380.631L518.371 444.394L521.006 442.801L482.435 379.037Z" fill="#1D1E21"/>
<path d="M564.282 374.466L518.149 439.906L520.666 441.68L566.799 376.24L564.282 374.466Z" fill="#1D1E21"/>
<path d="M524.715 500.132V497.053H514.859V500.132C514.859 500.748 515.475 501.364 516.091 501.979C517.939 503.211 521.019 503.211 523.483 501.979C524.099 501.364 524.715 500.748 524.715 500.132Z" fill="#1D1E21"/>
<path d="M522.867 495.205C521.019 493.974 517.939 493.974 515.475 495.205C513.627 496.437 513.627 498.284 515.475 499.516C517.323 500.748 520.403 500.748 522.867 499.516C524.715 498.284 524.715 496.437 522.867 495.205Z" fill="#47484A"/>
<path d="M522.867 403.446H516.707V497.053C516.707 497.669 517.323 498.284 517.939 498.284C519.171 498.9 521.019 498.9 522.251 498.284C522.867 497.669 523.483 497.669 523.483 497.053V403.446H522.867Z" fill="#1D1E21"/>
<path d="M452.646 458.871V455.792H442.79V458.871C442.79 459.487 443.406 460.102 444.022 460.718C445.87 461.95 448.95 461.95 451.414 460.718C452.029 460.102 452.646 459.487 452.646 458.871Z" fill="#1D1E21"/>
<path d="M451.413 453.944C449.565 452.713 446.486 452.713 444.022 453.944C442.174 455.176 442.174 457.023 444.022 458.255C445.87 459.487 448.949 459.487 451.413 458.255C453.261 456.408 453.261 454.56 451.413 453.944Z" fill="#47484A"/>
<path d="M450.797 361.569H444.637V455.176C444.637 455.792 445.253 456.408 445.869 456.408C447.101 457.023 448.949 457.023 450.181 456.408C450.797 455.792 451.413 455.792 451.413 455.176V361.569H450.797Z" fill="#1D1E21"/>
<path d="M488.077 381.746L448.957 398.365L450.162 401.199L489.281 384.58L488.077 381.746Z" fill="#1D1E21"/>
<path d="M491.799 322.844L447.085 398.007L449.732 399.581L494.446 324.418L491.799 322.844Z" fill="#1D1E21"/>
<path d="M724.908 275.352L693.493 293.211L523.483 391.745L508.083 383.123L500.692 378.812L486.524 370.19L480.98 367.727L472.972 362.8L454.493 352.331L442.789 345.557L438.478 343.094L507.467 303.68L558.594 274.12L633.127 230.396L639.903 226.701L667.622 242.712L674.398 246.407L685.485 252.566L689.181 255.029L696.573 259.34L707.045 265.498L715.669 269.809L724.908 275.352Z" fill="#E7CAA8"/>
<path d="M647.295 267.962C644.215 266.73 639.903 268.578 637.439 270.425C634.975 272.889 633.127 275.352 630.663 277.815C628.199 280.279 626.351 280.279 623.271 281.51C615.88 283.974 609.104 287.053 602.328 290.748C607.872 290.748 612.8 290.132 618.344 288.9C614.648 293.827 607.872 293.827 602.328 296.29C596.168 298.754 593.704 305.528 588.777 309.839C580.153 318.46 569.681 325.85 558.594 330.777C575.225 324.619 588.777 312.302 604.792 304.296C611.568 300.601 618.96 298.138 625.119 293.827C628.815 290.748 631.895 284.589 636.823 283.974C639.287 283.974 640.519 285.205 639.903 287.669C639.287 290.748 635.591 291.98 633.743 293.827C631.895 295.059 630.047 297.522 629.431 299.37C639.903 294.443 648.527 286.437 653.454 276.584C654.07 275.968 654.686 274.736 655.302 274.12C655.918 273.504 656.534 273.504 657.766 272.889C665.158 269.809 671.934 265.499 677.478 259.956C669.47 263.035 661.462 266.114 653.454 269.194C652.838 269.809 651.607 269.809 650.375 269.809C649.759 269.809 649.143 269.194 648.527 268.578C647.911 268.578 647.911 268.578 647.295 267.962Z" fill="#EDD7BD"/>
<path d="M674.398 246.408C670.086 249.487 665.774 254.414 661.463 257.493C660.847 258.109 660.231 258.724 659.615 259.34C658.383 259.956 657.151 259.956 655.919 260.572C653.455 261.188 651.607 261.804 649.143 262.419C650.375 260.572 652.223 258.724 653.455 256.877C654.071 256.261 654.071 256.261 654.071 255.645C654.071 255.029 654.071 254.414 653.455 254.414C652.839 254.414 652.839 254.414 652.223 255.029C650.375 256.261 647.911 258.109 646.679 259.34C644.215 262.419 641.751 264.883 638.055 266.73C633.743 269.194 629.432 271.041 626.352 274.12C625.12 275.352 623.888 276.584 622.04 277.815C620.808 278.431 619.576 279.047 618.344 279.047C603.56 283.974 588.161 288.9 574.609 296.906C572.145 298.138 569.065 300.601 568.449 303.68C575.225 301.217 582.617 298.754 589.393 296.29C591.241 295.675 593.089 295.059 594.321 296.29C588.161 299.985 582.001 304.296 576.457 309.839C572.145 314.15 567.218 314.765 561.058 316.613C553.05 319.076 546.274 325.235 538.882 328.93C533.339 331.393 528.411 334.472 522.867 336.936C519.787 338.783 514.859 340.015 511.163 342.478C520.403 335.088 530.259 328.314 540.114 321.54C543.81 319.076 547.506 316.613 550.586 313.534C552.434 311.686 554.282 309.223 556.13 307.375C564.138 297.522 575.225 290.748 586.929 287.053C596.169 283.974 604.792 279.047 613.416 274.736C620.808 270.425 630.048 267.962 635.591 261.188C638.671 257.493 641.751 253.182 646.063 250.719C649.143 248.871 652.223 248.255 655.303 247.639C657.767 247.024 660.231 246.408 662.079 245.792C663.926 245.176 665.159 244.56 666.39 243.944L674.398 246.408Z" fill="#EDD7BD"/>
<path d="M630.663 308.607C616.496 317.844 601.096 325.235 586.929 333.856C564.138 347.405 543.81 364.648 523.483 381.276C533.339 375.733 543.194 369.575 553.05 364.032C561.058 359.105 569.681 354.179 577.073 348.636C583.233 344.325 588.777 338.783 596.169 336.935C596.169 338.167 596.169 339.399 596.169 340.63C599.864 341.246 603.56 339.399 606.64 337.551C633.743 319.692 660.847 302.449 687.95 284.589C686.102 285.821 679.326 285.821 676.862 285.821C680.558 280.894 688.566 276.584 691.03 270.425C684.254 268.578 674.398 276.584 669.47 280.279C655.919 289.516 644.215 299.369 630.663 308.607Z" fill="#EDD7BD"/>
<path d="M498.228 362.185C497.612 362.801 496.996 363.417 496.38 364.032C503.156 360.953 509.315 357.874 516.091 354.179C517.939 353.563 519.787 352.332 521.019 351.716C522.867 350.484 524.715 349.252 527.179 348.021C529.643 346.789 532.723 345.557 535.803 344.941C533.339 346.789 531.491 348.637 529.027 350.484C527.795 351.1 527.179 352.332 525.947 352.947C524.715 353.563 522.867 354.179 521.635 354.795C519.787 355.411 518.555 356.642 517.323 358.49C516.707 359.722 516.091 361.569 514.859 362.801C514.243 363.417 513.627 363.417 513.011 364.032C512.395 364.648 512.395 365.264 512.395 365.88C513.011 364.648 514.243 364.032 515.475 363.417C520.403 360.953 524.715 356.642 529.643 355.411C530.875 354.795 532.723 354.795 533.955 355.411C534.571 355.411 534.571 356.027 535.187 356.027C535.803 356.027 536.419 356.027 537.035 356.027C546.89 352.332 555.514 346.173 564.754 341.246C569.066 338.783 573.377 336.936 577.689 334.472C582.617 332.009 586.929 328.314 591.241 325.235C594.937 322.156 599.249 319.692 602.944 316.613C591.241 323.387 578.921 330.161 566.602 335.704C560.442 338.783 554.282 341.246 547.506 343.71C545.042 344.326 542.578 346.173 541.346 343.094C540.114 340.631 541.962 338.167 543.81 336.936C544.426 336.32 545.658 336.32 546.274 335.704C548.122 334.472 549.354 333.241 550.586 332.009C552.434 330.161 554.898 328.314 556.746 327.082C558.594 325.851 561.058 324.003 562.906 322.771C553.666 325.851 544.426 330.777 537.035 337.551C534.571 339.399 532.723 341.862 529.643 343.094C526.563 344.941 522.867 345.557 519.171 346.173C516.707 346.789 514.859 347.405 513.011 349.252C511.163 350.484 511.163 351.716 509.931 353.563C506.852 355.411 501.924 359.106 498.228 362.185Z" fill="#EDD7BD"/>
<path d="M549.354 291.979C543.81 297.522 538.882 302.449 532.723 306.76C529.643 309.223 525.947 311.07 522.867 312.918C519.787 314.15 517.939 316.613 516.091 319.076C513.627 321.54 510.547 323.387 508.083 325.85C501.924 330.161 495.148 334.472 487.756 337.551C484.676 338.783 481.596 340.63 479.748 343.094C477.9 344.941 477.284 346.789 477.284 349.252C481.596 350.484 486.524 350.484 490.836 349.252C489.604 351.1 488.372 352.947 486.524 354.795C485.908 356.026 485.292 356.642 484.06 357.258C482.828 357.874 480.98 357.874 479.748 358.49C477.284 359.106 475.436 360.953 473.589 362.801L455.725 352.331C456.341 351.716 456.341 351.1 456.957 350.484C458.189 346.789 461.885 344.326 464.965 342.478C468.661 340.63 472.357 339.399 475.436 338.167C480.98 335.704 486.524 332.009 491.452 328.314C493.3 327.082 493.916 324.619 495.764 324.003C498.844 322.155 502.54 322.771 505.619 320.924C510.547 318.46 514.243 314.765 519.171 311.686C524.099 308.607 529.027 306.76 533.955 304.296C538.882 301.217 544.426 296.906 549.354 291.979Z" fill="#EDD7BD"/>
<path d="M553.05 296.29C557.362 295.059 562.29 292.595 565.985 289.516C570.297 286.437 572.145 283.974 577.689 282.742C581.385 282.126 585.081 281.51 588.777 280.279C593.089 278.431 596.784 274.736 601.096 272.273C604.176 270.425 607.256 269.809 610.336 268.578C614.648 266.73 618.96 264.267 623.272 261.803C625.735 260.572 628.199 258.724 629.431 256.261C623.887 259.34 617.728 261.803 612.184 263.651C623.888 255.029 634.359 244.56 647.911 240.249C644.215 241.481 639.903 242.713 636.207 242.713C639.287 239.018 645.447 236.554 649.759 234.091C638.671 236.554 630.663 246.408 620.808 251.95C618.96 253.182 616.496 254.413 614.648 255.645C608.488 259.956 603.56 265.498 596.168 268.578C594.32 269.194 592.473 269.809 590.625 270.425C588.777 271.041 586.313 272.273 584.465 273.504C581.385 275.352 577.689 277.199 574.609 279.663C570.297 282.126 565.985 284.589 562.906 288.284C560.442 290.748 557.362 295.059 553.05 296.29Z" fill="#EDD7BD"/>
<path d="M696.573 259.34C694.725 259.956 693.493 261.188 691.646 261.804C689.182 262.419 687.334 262.419 684.87 262.419C683.638 262.419 681.79 263.035 680.558 263.035C683.638 260.572 686.718 258.108 689.182 255.029L696.573 259.34Z" fill="#EDD7BD"/>
<path d="M724.908 275.352L694.109 293.211L693.493 292.595C695.341 289.516 697.189 287.053 699.037 283.974C699.653 282.742 700.885 281.51 700.885 279.663C700.885 278.431 700.269 276.584 699.037 275.968C697.805 275.352 695.341 275.352 695.957 274.12C700.269 271.657 703.965 268.578 707.661 264.883L724.908 275.352Z" fill="#EDD7BD"/>
<path d="M535.802 357.874C534.57 357.874 532.722 360.953 532.106 362.185C530.875 363.417 529.027 365.264 527.179 366.496C525.331 367.727 523.483 368.959 522.251 370.191C521.019 371.422 519.787 372.654 517.939 373.886C514.859 376.349 510.547 378.197 508.699 381.892L508.083 382.508L500.691 378.197C501.923 377.581 502.539 376.965 503.771 376.349C506.235 374.502 507.467 371.422 510.547 369.575C514.243 367.727 519.171 367.112 522.867 365.264C524.715 364.032 526.563 362.801 528.411 361.569C530.874 360.337 532.722 358.49 535.802 357.874Z" fill="#EDD7BD"/>
<path d="M544.426 304.912C540.114 308.607 536.418 312.302 532.723 315.997C529.027 319.692 525.331 324.003 521.019 327.698C516.091 332.009 509.931 335.704 505.619 341.246C506.235 341.246 506.851 342.478 506.235 343.094C505.619 343.71 505.003 344.326 504.387 344.941C503.772 345.557 503.772 346.789 504.387 346.789C505.003 347.405 506.851 346.789 506.851 348.021C503.155 351.716 499.46 355.411 495.764 359.106C493.916 360.953 492.068 362.801 490.22 365.264C489.604 366.496 488.988 367.727 488.372 368.959C487.756 370.191 486.524 370.806 485.292 371.422L480.98 367.111C485.908 362.185 491.452 357.258 496.996 352.331C497.612 351.716 498.228 351.1 498.228 350.484C498.228 349.868 498.228 348.636 497.612 348.636C498.228 347.405 498.844 346.173 499.46 344.941C499.46 344.326 500.076 343.71 500.076 343.094C500.076 342.478 498.844 342.478 498.228 342.478C496.38 342.478 495.148 343.094 493.3 343.094C499.46 339.399 505.003 335.088 511.163 330.777C513.627 328.93 514.859 327.082 516.707 325.235C519.171 322.771 522.867 320.924 525.331 318.46C531.491 314.765 538.266 309.839 544.426 304.912Z" fill="#EDD7BD"/>
<path d="M632.511 234.707C629.431 235.938 626.351 238.402 623.271 239.633C620.191 240.865 617.111 240.865 615.264 243.328C613.416 245.792 611.568 248.871 609.104 250.718C607.872 251.334 606.024 251.95 604.792 252.566C599.248 254.414 594.32 256.877 589.392 259.34C581.385 264.267 573.993 271.041 565.985 277.199C559.209 282.126 551.818 286.437 544.426 290.132C545.042 287.053 547.506 284.59 549.97 282.742C552.433 280.894 555.513 279.047 557.361 276.584C557.977 275.968 558.593 275.352 558.593 274.12L633.743 231.012C633.743 231.628 633.127 232.243 633.127 232.859C633.127 233.475 631.279 234.091 631.279 234.707C630.663 235.323 631.895 234.707 632.511 234.707Z" fill="#EDD7BD"/>
<path d="M525.331 296.291C518.555 303.065 511.779 309.223 503.155 312.918C501.307 313.534 499.46 314.15 498.228 314.766C485.908 320.308 477.9 332.625 465.581 338.167C462.501 339.399 459.421 340.015 456.341 341.862C453.261 343.094 450.181 344.942 447.717 347.405C449.565 344.942 452.029 343.094 454.493 341.247C456.341 340.015 458.805 338.783 460.037 336.936C461.269 335.704 462.501 334.472 463.733 333.241C456.341 336.32 449.565 340.015 443.405 344.942C442.789 344.942 442.789 345.557 442.173 345.557L438.478 343.094L506.851 303.681C509.315 303.681 512.395 302.449 514.243 301.833C516.091 301.217 517.939 299.986 519.787 299.37C521.635 298.138 524.099 297.522 525.331 296.291Z" fill="#EDD7BD"/>
<path d="M523.483 416.994V391.745L438.478 343.094V367.727L523.483 416.994Z" fill="#995330"/>
<path d="M523.483 416.994V391.745L724.908 275.352V300.601L523.483 416.994Z" fill="#D49F62"/>
<path d="M616.496 352.331L575.841 375.733V375.117H572.145V378.196V381.276L573.377 380.66L620.191 353.563V352.331V349.868V348.636H616.496V352.331Z" fill="#693A1F"/>
<path d="M572.145 375.117L575.841 377.581V373.886L572.145 372.038V375.117Z" fill="#665558"/>
<path d="M616.495 349.252L620.191 351.1L618.959 347.405L616.495 346.173V349.252Z" fill="#665558"/>
<path d="M616.496 346.173L618.96 347.405L575.841 372.038L573.377 371.422L572.145 372.038L575.841 373.885L622.039 347.405L618.344 344.941L616.496 346.173Z" fill="#C4C4C4"/>
<path d="M575.841 377.58L622.039 350.484V347.405L575.841 373.885V377.58Z" fill="#DEDEDE"/>
<path d="M660.23 398.519L637.439 384.355C634.975 383.123 633.743 380.66 632.511 378.196L627.584 357.874C626.968 355.41 627.583 352.947 630.047 351.099C631.895 349.252 634.975 349.252 636.823 350.484L661.462 364.648C667.622 368.343 671.318 375.117 671.318 381.891V382.507L667.006 394.824C667.006 396.671 665.774 397.903 664.542 398.519C663.926 399.135 663.31 399.135 662.078 399.135C662.078 399.135 660.846 399.135 660.23 398.519ZM659.614 368.959L634.975 354.794C633.743 354.179 633.127 354.794 632.511 354.794C632.511 354.794 631.279 356.026 631.895 357.258L636.823 377.58C637.439 379.428 638.055 380.66 639.903 381.275L662.694 395.44C662.694 395.44 662.694 395.44 663.31 395.44C663.31 395.44 663.31 395.44 663.31 394.824V394.208L667.622 381.891C667.006 376.349 663.926 371.422 659.614 368.959Z" fill="#C4C4C4"/>
<path d="M663.31 445.939C663.31 444.091 662.078 441.628 660.23 440.396C659.614 439.78 658.382 439.78 657.766 440.396L653.455 442.859L658.382 450.249L662.694 447.786H663.31C663.31 447.17 663.31 446.554 663.31 445.939Z" fill="url(#paint2_linear)"/>
<path d="M652.839 444.707C652.839 446.554 654.071 449.018 655.919 450.249C657.767 451.481 658.999 450.249 658.999 448.402C658.999 446.554 657.767 444.091 655.919 442.859C654.071 442.244 652.839 442.859 652.839 444.707Z" fill="#1C1C1C"/>
<path d="M660.231 441.628V436.085H655.919V441.628C655.919 441.628 655.919 442.243 656.535 442.243C657.151 442.859 658.999 442.859 659.615 442.243C660.23 442.243 660.231 442.243 660.231 441.628Z" fill="url(#paint3_linear)"/>
<path d="M659.615 435.469C658.999 434.853 657.151 434.853 656.535 435.469C655.919 436.085 655.919 436.701 656.535 437.317C657.151 437.932 658.999 437.932 659.615 437.317C660.847 436.701 660.847 436.085 659.615 435.469Z" fill="#DCDCDC"/>
<path d="M584.465 440.396C584.465 438.548 583.233 436.085 581.385 434.853C580.769 434.237 579.537 434.237 578.921 434.853L574.609 437.317L579.537 444.707L583.849 442.243H584.465C583.849 441.627 584.465 441.012 584.465 440.396Z" fill="url(#paint4_linear)"/>
<path d="M573.377 439.164C573.377 441.011 574.609 443.475 576.457 444.707C578.305 445.938 579.537 444.707 579.537 442.859C579.537 441.011 578.305 438.548 576.457 437.316C575.225 436.701 573.377 437.316 573.377 439.164Z" fill="#1C1C1C"/>
<path d="M581.385 436.085V430.542H577.073V436.085C577.073 436.085 577.073 436.701 577.689 436.701C578.305 437.317 580.153 437.317 580.769 436.701C580.769 436.701 581.385 436.701 581.385 436.085Z" fill="url(#paint5_linear)"/>
<path d="M580.769 429.926C580.153 429.311 578.305 429.311 577.689 429.926C577.073 430.542 577.073 431.158 577.689 431.774C578.305 432.39 580.153 432.39 580.769 431.774C581.385 431.158 581.385 429.926 580.769 429.926Z" fill="#DCDCDC"/>
<path d="M616.496 455.176L617.728 452.712L581.385 433.622V432.39C585.697 433.006 601.713 439.78 616.496 446.554L617.728 444.091C601.713 436.701 582.001 428.695 579.537 429.927C578.921 430.542 578.921 430.542 578.921 431.158V434.853L616.496 455.176Z" fill="#C4C4C4"/>
<path d="M622.656 455.176L658.382 440.396V436.085C658.382 435.469 658.382 434.853 657.766 434.853C654.686 433.006 633.743 439.164 621.424 443.475L622.04 445.938C636.207 441.627 651.607 437.316 655.302 437.316V438.548L620.808 452.097L622.656 455.176Z" fill="#8F8F8F"/>
<path d="M615.88 457.639V434.853L623.888 435.469V457.639C623.888 458.255 623.272 458.871 622.656 458.871C621.424 459.487 618.344 459.487 617.112 458.871C616.496 458.871 615.88 458.255 615.88 457.639Z" fill="url(#paint6_linear)"/>
<path d="M617.112 433.622C618.344 433.006 621.424 433.006 622.656 433.622C623.888 434.237 624.504 436.085 622.656 436.701C621.424 437.317 618.344 437.317 617.112 436.701C615.88 435.469 615.88 434.237 617.112 433.622Z" fill="#828282"/>
<path d="M617.112 434.237V402.214H623.272V433.622C623.272 434.237 622.656 434.237 622.656 434.853C621.424 435.469 619.576 435.469 618.344 434.853C617.112 435.469 617.112 434.853 617.112 434.237Z" fill="url(#paint7_linear)"/>
<path d="M617.112 433.006V415.146H623.272V432.39C623.272 433.006 622.656 433.006 622.656 433.622C621.424 434.237 619.576 434.237 618.344 433.622C617.112 434.237 617.112 433.622 617.112 433.006Z" fill="#828282"/>
<path d="M581.385 485.352L618.344 457.639L616.496 455.791L583.849 480.425V479.809C584.465 477.346 602.328 461.95 618.344 448.401L616.496 446.554C600.48 460.102 580.769 476.73 580.769 479.809V485.352H581.385Z" fill="#DCDCDC"/>
<path d="M654.686 485.967V479.809C654.686 476.73 634.359 457.639 622.656 446.554L620.808 448.401C633.127 460.102 651.607 477.346 652.223 479.809L622.656 455.176L620.808 457.023L654.686 485.967Z" fill="#BFBFBF"/>
<path d="M586.929 489.663C586.929 487.815 585.697 485.352 583.849 484.12C583.233 483.504 582.001 483.504 581.385 484.12L577.073 486.583L582.001 493.974L586.313 491.51H586.929C586.313 490.894 586.929 490.278 586.929 489.663Z" fill="url(#paint8_linear)"/>
<path d="M575.841 488.431C575.841 490.278 577.073 492.742 578.921 493.973C580.769 495.205 582.001 493.973 582.001 492.126C582.001 490.278 580.769 487.815 578.921 486.583C577.689 485.967 575.841 486.583 575.841 488.431Z" fill="#1C1C1C"/>
<path d="M583.849 485.352V479.809H579.537V485.352C579.537 485.352 579.537 485.967 580.153 485.967C580.769 486.583 582.617 486.583 583.233 485.967C583.233 485.967 583.849 485.967 583.849 485.352Z" fill="url(#paint9_linear)"/>
<path d="M583.233 479.193C582.617 478.577 580.769 478.577 580.153 479.193C579.537 479.809 579.537 480.425 580.153 481.041C580.769 481.657 582.617 481.657 583.233 481.041C583.849 480.425 583.849 479.809 583.233 479.193Z" fill="#DCDCDC"/>
<path d="M660.231 490.279C660.231 488.431 658.999 485.968 657.151 484.736C656.535 484.12 655.303 484.12 654.687 484.736L650.375 487.199L655.303 494.589L659.615 492.126H660.231C660.231 491.51 660.231 490.894 660.231 490.279Z" fill="url(#paint10_linear)"/>
<path d="M649.143 489.047C649.143 490.894 650.375 493.358 652.223 494.589C654.071 495.821 655.303 494.589 655.303 492.742C655.303 490.894 654.071 488.431 652.223 487.199C650.991 486.583 649.143 487.199 649.143 489.047Z" fill="#1C1C1C"/>
<path d="M657.151 485.968V480.425H652.839V485.968C652.839 485.968 652.839 486.583 653.455 486.583C654.071 487.199 655.919 487.199 656.535 486.583C656.535 486.583 657.151 486.583 657.151 485.968Z" fill="url(#paint11_linear)"/>
<path d="M656.535 479.809C655.919 479.193 654.071 479.193 653.455 479.809C652.839 480.425 652.839 481.041 653.455 481.657C654.071 482.273 655.919 482.273 656.535 481.657C657.151 481.041 657.151 479.809 656.535 479.809Z" fill="#DCDCDC"/>
<path d="M599.864 386.202L564.137 404.677C559.825 407.141 566.601 402.83 571.529 405.909L608.488 426.847L655.918 402.83C660.23 400.367 660.23 393.592 655.918 391.129L626.351 374.501C621.423 371.422 603.56 383.739 599.864 386.202Z" fill="url(#paint12_linear)"/>
<path d="M613.416 419.457L617.728 384.355L620.808 383.123L622.656 375.733L623.888 371.422L624.504 369.575C625.735 364.648 629.431 360.953 633.743 358.49C633.743 358.49 634.359 357.874 634.975 357.874C634.975 357.874 634.975 357.874 635.591 357.874C638.055 357.874 647.911 357.874 658.998 351.1C662.078 349.252 665.158 347.405 667.622 345.557C672.55 341.246 675.014 337.551 676.246 335.088C676.862 333.241 679.326 333.24 680.558 334.472C677.478 336.935 675.014 340.631 673.782 344.941L671.934 351.1L670.702 355.411L669.47 358.49L665.158 392.361C664.542 396.672 662.078 399.135 660.23 401.598C649.759 415.147 640.519 420.073 610.336 427.463L613.416 419.457Z" fill="url(#paint13_linear)"/>
<path d="M633.743 376.349C635.591 380.66 639.287 384.971 641.751 383.739C662.694 374.501 675.63 335.088 675.63 334.472C674.398 337.551 670.086 343.71 658.998 350.484C647.911 357.258 638.055 357.258 635.591 357.258C635.591 357.258 635.591 357.258 634.975 357.258C634.359 357.258 634.359 357.258 633.743 357.874C631.279 367.111 631.895 372.654 633.743 376.349Z" fill="url(#paint14_linear)"/>
<path d="M562.905 405.293C563.521 405.293 567.833 403.446 571.529 405.909L602.328 423.152C606.64 425.616 611.568 423.152 612.184 418.226C612.184 418.226 614.648 392.361 617.111 380.044C617.727 376.349 621.423 365.88 621.423 365.88C622.655 360.953 626.967 357.874 630.663 355.41C631.279 355.41 631.279 354.795 631.895 354.795C634.359 354.795 646.063 354.795 657.15 348.636C668.238 341.862 671.318 336.935 672.55 333.856C673.166 332.009 675.014 330.161 678.71 332.625C678.71 332.625 680.557 334.472 679.941 334.472C678.71 333.24 676.862 333.856 676.246 335.088C675.014 338.167 670.702 344.325 659.614 351.1C648.526 357.874 638.671 357.874 636.207 357.874C636.207 357.874 636.207 357.874 635.591 357.874C634.975 357.874 634.975 357.874 634.359 358.49C630.047 360.953 626.351 365.264 625.119 370.19L623.271 376.349L621.423 384.355L617.111 418.226C615.879 428.079 607.256 431.774 598.632 426.847L573.377 411.451C569.065 408.988 565.985 410.22 564.753 410.22C562.289 410.22 562.289 405.909 562.905 405.293Z" fill="#1A1818"/>
<path d="M601.096 429.311L578.305 415.147C575.841 413.915 574.609 411.452 573.377 408.988L568.449 388.666C567.833 386.202 568.449 383.739 570.913 381.891C572.761 380.044 575.841 380.044 577.689 381.276L602.328 395.44C608.488 399.135 612.184 405.909 612.184 412.683V413.299L607.872 425.616C607.872 427.463 606.64 428.695 605.408 429.311C604.792 429.927 604.176 429.927 602.944 429.927C602.944 429.927 601.712 429.927 601.096 429.311ZM600.48 399.135L575.841 384.971C574.609 384.355 573.993 384.971 573.377 384.971C573.377 384.971 572.145 386.202 572.761 387.434L577.689 407.757C578.305 409.604 578.921 410.836 580.769 411.452L603.56 425.616C603.56 425.616 603.56 425.616 604.176 425.616C604.176 425.616 604.176 425.616 604.176 425V424.384L608.488 412.067C608.488 407.141 605.408 402.214 600.48 399.135Z" fill="#DCDCDC"/>
<path d="M514.244 143.563L211.181 318.461V309.223L514.244 134.326V143.563Z" fill="#AB6D3A"/>
<path d="M147.119 281.51L211.181 318.461V309.223L147.119 272.273V281.51Z" fill="#5E3D1A"/>
<path d="M150.199 274.12V282.126L211.797 316.613L211.181 318.461L147.119 281.51V272.273L150.199 274.12Z" fill="#613F1D"/>
<path d="M147.119 272.273L211.181 309.223L514.243 134.326L450.182 97.3755L147.119 272.273Z" fill="#CC8E5F"/>
<path d="M450.798 99.8388L508.084 133.71L212.414 306.144L148.968 273.505L211.182 309.223L514.244 134.326L452.03 98.6072L450.798 99.8388Z" fill="#E6AB81"/>
<path d="M744.004 875.792C675.63 917.053 582.001 934.912 492.068 927.522C427.39 922.595 364.56 904.736 315.281 874.56C196.397 802.507 195.781 686.114 314.049 614.678C432.318 543.241 624.504 543.856 743.388 615.293C788.97 643.006 816.689 676.877 827.777 711.98C845.024 770.484 817.305 831.452 744.004 875.792Z" fill="#214193"/>
<g style="mix-blend-mode:multiply">
<path d="M237.717 708.361L133 649.24L149.631 640.003L229.093 595.663L245.108 604.284L356.601 542.085C359.681 546.396 362.145 551.938 362.761 557.481C363.377 561.792 363.377 566.718 363.377 571.029C363.377 591.968 363.377 612.906 362.761 633.845C362.761 635.692 362.761 636.924 362.761 638.771L237.717 708.361ZM364.609 636.924C364.609 635.692 364.609 634.46 364.609 633.229C365.225 612.29 365.225 591.352 365.225 570.413C365.225 566.103 365.225 561.176 364.609 556.865C363.377 551.323 361.529 545.78 357.833 540.853L375.08 531L463.781 580.883L364.609 636.924Z" fill="#152B63"/>
</g>
<path d="M434.166 487.199V580.191L235.204 692.273V599.282L283.251 571.569L285.098 570.953L392.895 510.601L394.127 509.37L434.166 487.199Z" fill="#AB6E38"/>
<path d="M426.158 503.827V534.619L243.212 636.848V606.672L287.563 581.423L289.411 580.807L387.967 525.381L389.199 524.766L400.287 518.607L426.158 503.827Z" fill="#E3BF7B"/>
<path d="M426.158 503.827V534.619L394.127 532.771L243.212 617.141V606.672L426.158 503.827Z" fill="#714521"/>
<path d="M142.807 546.936V639.927L235.204 692.273V599.282L142.807 546.936Z" fill="#552A00"/>
<path d="M434.166 487.2L235.204 599.282L142.807 546.936L157.591 538.93L262.307 480.425L342.385 434.854L434.166 487.2Z" fill="#E3BF7B"/>
<path d="M426.158 503.827V534.619L398.439 519.223L426.158 503.827Z" fill="#552A00"/>
<path fill-rule="evenodd" clip-rule="evenodd" d="M387.352 409.604L391.663 416.378L403.367 408.988L399.055 402.214L387.352 409.604Z" fill="#529AFF"/>
<path fill-rule="evenodd" clip-rule="evenodd" d="M365.792 423.152L370.104 429.927L381.808 421.921L377.496 415.146L365.792 423.152Z" fill="#529AFF"/>
<path d="M265.387 575.264H222.885L157.591 538.93L188.39 521.687L235.82 554.942V559.252L265.387 575.264Z" fill="#B29565"/>
<path d="M257.379 429.927L276.475 440.396L189.622 489.047L170.526 478.578L257.379 429.927Z" fill="#39373E"/>
<path d="M257.379 426.232L276.475 436.701L189.622 485.352L170.526 474.267L257.379 426.232Z" fill="#39373E"/>
<path d="M257.379 421.921L276.475 432.39L189.622 481.041L170.526 470.572L257.379 421.921Z" fill="#39373E"/>
<path d="M257.379 418.226L276.475 428.695L189.622 477.346L170.526 466.877L257.379 418.226Z" fill="#39373E"/>
<path d="M257.379 413.915L276.475 424.384L189.622 473.035L170.526 462.566L257.379 413.915Z" fill="#39373E"/>
<path d="M187.158 404.677L249.372 421.305V564.795L187.158 521.07V404.677Z" fill="#616366"/>
<path d="M304.81 338.783L377.496 349.868L249.372 421.305L187.158 404.677L304.81 338.783Z" fill="#B8B6B8"/>
<path d="M187.158 423.768L170.526 433.006L230.276 460.719L187.158 431.158V423.768Z" fill="#C7C5C7"/>
<path d="M230.276 460.718V517.375L170.526 483.504V478.578L185.31 486.584V484.736L170.526 476.73V474.267L185.31 482.889V481.041L170.526 473.035V470.572L185.31 478.578V476.73L170.526 468.724V466.877L185.31 474.883V473.035L170.526 465.029V462.566L185.31 470.572V468.724L170.526 460.718V433.006L230.276 460.718Z" fill="#66686B"/>
<path d="M293.723 556.789L291.875 558.021V556.789L292.491 556.173L293.723 556.789Z" fill="#BDBDBA"/>
<path d="M293.722 541.393L292.49 542.009V556.173L293.722 556.789V541.393Z" fill="#5C5C58"/>
<path d="M290.642 558.636L289.411 559.252V558.021L290.642 558.636Z" fill="#BDBDBA"/>
<path d="M290.642 543.241L289.411 543.857V558.021L290.642 558.637V543.241Z" fill="#5C5C58"/>
<path d="M287.563 560.484L286.331 561.1V559.868L287.563 560.484Z" fill="#BDBDBA"/>
<path d="M287.563 545.088L286.331 545.704V559.868L287.563 560.484V545.088Z" fill="#5C5C58"/>
<path d="M284.483 561.715L283.251 562.947V561.715L283.867 561.1L284.483 561.715Z" fill="#BDBDBA"/>
<path d="M284.483 546.32L283.867 546.936V561.1L284.483 561.716V546.32Z" fill="#5C5C58"/>
<path d="M281.403 563.563L280.171 564.179V562.947H280.787L281.403 563.563Z" fill="#BDBDBA"/>
<path d="M281.403 548.167L280.787 548.783V562.947L281.403 563.563V548.167Z" fill="#5C5C58"/>
<path d="M278.939 565.411L277.707 566.027V564.795L278.939 565.411Z" fill="#BDBDBA"/>
<path d="M278.939 550.015L277.707 550.631V564.795L278.939 565.411V550.015Z" fill="#5C5C58"/>
<path d="M275.859 566.642L274.627 567.874V566.642H275.859Z" fill="#BDBDBA"/>
<path d="M275.859 551.246L274.627 551.862V566.642H275.859V551.246Z" fill="#5C5C58"/>
<path d="M272.779 568.49L271.547 569.106V567.874L272.779 568.49Z" fill="#BDBDBA"/>
<path d="M272.779 553.094L271.547 553.71V567.874L272.779 568.49V553.094Z" fill="#5C5C58"/>
<path d="M398.439 359.105L265.387 434.237V575.264L398.439 500.748V359.105Z" fill="#A1A199"/>
<path d="M235.82 417.61L265.387 434.237V575.264L235.82 559.252V417.61Z" fill="#66686B"/>
<path d="M369.488 343.094L398.439 359.105L265.387 434.237L235.82 417.61L369.488 343.094Z" fill="#C7C5C7"/>
<path d="M398.439 478.578L265.387 553.71V554.941L398.439 480.425V478.578Z" fill="#727175"/>
<path d="M392.279 368.959L271.547 436.701V546.936L392.279 479.194V368.959Z" fill="#39373E"/>
<path d="M387.351 372.038L271.547 436.701V542.009L387.351 477.346V372.038Z" fill="#2F2D34"/>
<path d="M387.351 477.346L383.655 474.883L336.841 469.34L273.395 536.466L271.547 542.009L387.351 477.346Z" fill="#3F3E45"/>
<path d="M383.656 445.323C383.04 454.56 382.424 464.413 380.576 474.267C333.145 508.138 274.011 534.003 274.011 534.003V437.933L380.576 377.581C380.576 377.581 386.119 408.372 383.656 445.323Z" fill="#C95945"/>
<path d="M383.656 445.323C343.001 474.267 294.954 497.669 274.011 508.138V437.933L380.576 377.581C380.576 377.581 386.119 408.372 383.656 445.323Z" fill="#277CD8"/>
<path d="M273.395 534.003V524.15V534.003ZM380.576 474.267C382.424 464.413 383.04 454.56 383.656 445.323C384.272 439.164 384.272 433.006 384.272 426.847C384.272 399.135 380.576 378.812 380.576 377.581C380.576 377.581 389.2 426.232 380.576 474.267Z" fill="#27262D"/>
<path d="M273.395 534.003V524.15C288.179 517.991 336.225 498.284 375.648 469.956C376.88 462.566 377.496 455.792 378.112 448.402C379.96 447.17 381.808 445.938 383.04 444.707C382.424 453.944 381.808 463.798 379.96 473.651C333.761 507.522 275.859 533.387 273.395 534.003Z" fill="#A84B3B"/>
<path d="M378.728 449.018C381.192 418.842 377.496 392.361 375.032 380.66L380.576 377.581C380.576 378.812 384.272 399.135 384.272 426.847C384.272 433.006 384.272 439.164 383.656 445.323C381.808 446.554 379.96 447.786 378.728 449.018Z" fill="#2168BA"/>
<path d="M272.779 568.49L271.547 569.106V553.71L272.779 553.094V568.49Z" fill="#151411"/>
<path d="M275.859 566.642L274.627 567.874V551.862L275.859 551.246V566.642Z" fill="#151411"/>
<path d="M278.939 565.411L277.707 566.026V550.631L278.939 550.015V565.411Z" fill="#151411"/>
<path d="M281.403 563.563L280.171 564.179V548.783L281.403 548.167V563.563Z" fill="#151411"/>
<path d="M284.483 561.716L283.251 562.947V546.936L284.483 546.32V561.716Z" fill="#151411"/>
<path d="M287.563 560.484L286.331 561.1V545.704L287.563 545.088V560.484Z" fill="#151411"/>
<path d="M290.642 558.637L289.411 559.252V543.857L290.642 543.241V558.637Z" fill="#151411"/>
<path d="M293.723 556.789L291.875 558.021V542.009L293.723 541.393V556.789Z" fill="#151411"/>
<path d="M392.279 485.968L297.418 538.93V554.941L392.279 501.979V485.968Z" fill="#39373E"/>
<path d="M392.279 498.284L297.418 551.862V554.941L392.279 501.979V498.284Z" fill="#2F2D34"/>
<path d="M392.279 497.669L297.418 550.631V551.862L392.279 498.285V497.669Z" fill="#BDBDBA"/>
<path d="M330.065 523.534C330.065 522.918 330.681 521.686 331.297 521.07C331.913 521.07 331.913 521.07 332.529 521.07L338.689 524.15L336.841 527.229L330.681 524.15C330.065 524.765 330.065 524.149 330.065 523.534Z" fill="#7E7E73"/>
<path d="M336.225 527.229C336.225 527.844 336.841 528.46 337.457 527.845C338.073 527.229 338.689 526.613 338.689 525.381C338.689 524.149 338.073 524.15 337.457 524.765C336.841 525.381 336.225 525.997 336.225 527.229Z" fill="#A1A199"/>
<path d="M319.593 527.845L302.962 537.698V545.704L319.593 535.851V527.845Z" fill="#723D1B"/>
<path d="M375.648 505.059V498.285L376.88 496.437L380.576 498.9L379.96 503.211L375.648 505.059Z" fill="#25242A"/>
<path d="M385.503 493.358L376.88 499.516V496.437L384.271 492.126L385.503 493.358Z" fill="#3F3E45"/>
<path d="M385.504 500.132L378.112 504.443V497.053L385.504 493.358V500.132Z" fill="#24222A"/>
<path d="M378.112 504.443L376.88 503.211V496.437L378.112 497.053V504.443Z" fill="#18161E"/>
<path d="M265.387 434.237L235.82 417.61L264.155 432.39L394.743 359.105L369.488 343.094L398.439 359.105L265.387 434.237Z" fill="#E0DFE1"/>
<path d="M287.562 442.859L288.794 442.243V441.012L287.562 441.628V442.859Z" fill="#F84F45"/>
<path d="M286.331 443.475L287.563 442.859V441.628L286.331 442.243V443.475Z" fill="#F84F45"/>
<path d="M286.331 442.244L287.563 441.012V439.78L286.331 440.396V442.244Z" fill="#F84F45"/>
<path d="M285.098 442.859L285.714 442.243V441.012L285.098 441.628V442.859Z" fill="#F84F45"/>
<path d="M282.018 444.091L283.25 443.475V442.243L282.018 442.859V444.091Z" fill="#F84F45"/>
<path d="M285.098 444.091L285.714 443.475V442.243L285.098 442.859V444.091Z" fill="#F84F45"/>
<path d="M282.018 445.939L283.25 445.323V444.091L282.018 444.707V445.939Z" fill="#F84F45"/>
<path d="M280.787 446.554L282.019 445.938V444.707L280.787 445.323V446.554Z" fill="#F84F45"/>
<path d="M280.787 445.323L282.019 444.707V442.859L280.787 443.475V445.323Z" fill="#F84F45"/>
<path d="M279.555 447.17L280.787 446.554V445.323L279.555 445.938V447.17Z" fill="#F84F45"/>
<path d="M287.562 444.091L288.794 443.475V442.243L287.562 442.859V444.091Z" fill="#F84F45"/>
<path d="M286.331 445.323L287.563 444.091V442.859L286.331 443.475V445.323Z" fill="#F84F45"/>
<path d="M285.098 445.939L285.714 445.323V444.091L285.098 444.707V445.939Z" fill="#F84F45"/>
<path d="M282.018 447.17L283.25 446.554V445.323L282.018 445.938V447.17Z" fill="#F84F45"/>
<path d="M280.787 448.402L282.019 447.786V445.938L280.787 446.554V448.402Z" fill="#F84F45"/>
<path d="M279.555 449.018L280.787 448.402V447.17L279.555 447.786V449.018Z" fill="#F84F45"/>
<path d="M287.562 445.939L288.794 445.323V444.091L287.562 444.707V445.939Z" fill="#F84F45"/>
<path d="M286.331 446.554L287.563 445.938V444.707L286.331 445.323V446.554Z" fill="#F84F45"/>
<path d="M285.098 447.17L286.33 446.554V445.323L285.098 445.938V447.17Z" fill="#F84F45"/>
<path d="M282.018 449.018L283.25 448.402V447.17L282.018 447.786V449.018Z" fill="#F84F45"/>
<path d="M280.787 449.634L282.019 449.018V447.786L280.787 448.402V449.634Z" fill="#F84F45"/>
<path d="M279.555 450.249L280.787 449.634V448.402L279.555 449.018V450.249Z" fill="#F84F45"/>
<path d="M277.707 449.634L278.939 449.018V447.786L277.707 448.402V449.634Z" fill="#F84F45"/>
<path d="M277.707 451.481L278.939 450.865V449.018L277.707 449.633V451.481Z" fill="#F84F45"/>
<path d="M288.795 443.475L290.027 442.859V441.628L288.795 442.243V443.475Z" fill="#F84F45"/>
<path d="M288.795 445.323L290.027 444.091V442.859L288.795 443.475V445.323Z" fill="#F84F45"/>
<path d="M287.562 447.17L288.794 446.554V445.323L287.562 445.938V447.17Z" fill="#F84F45"/>
<path d="M286.331 448.402L287.563 447.17V445.938L286.331 446.554V448.402Z" fill="#F84F45"/>
<path d="M285.098 449.018L286.33 448.402V447.17L285.098 447.786V449.018Z" fill="#F84F45"/>
<path d="M282.018 450.249L283.25 449.634V448.402L282.018 449.018V450.249Z" fill="#F84F45"/>
<path d="M280.787 451.481L282.019 450.865V449.018L280.787 449.633V451.481Z" fill="#F84F45"/>
<path d="M286.331 449.634L287.563 449.018V447.786L286.331 448.402V449.634Z" fill="#F84F45"/>
<path d="M285.098 450.249L286.33 449.634V448.402L285.098 449.018V450.249Z" fill="#F84F45"/>
<path d="M282.018 452.097L283.25 451.481V450.249L282.018 450.865V452.097Z" fill="#F84F45"/>
<path d="M285.098 452.097L286.33 451.481V450.249L285.098 450.865V452.097Z" fill="#F84F45"/>
<path d="M283.251 445.323L284.483 444.707V442.859L283.251 443.475V445.323Z" fill="#F84F45"/>
<path d="M283.251 446.554L284.483 445.938V444.707L283.251 445.323V446.554Z" fill="#F84F45"/>
<path d="M283.251 448.402L284.483 447.786V445.938L283.251 446.554V448.402Z" fill="#F84F45"/>
<path d="M283.251 449.634L284.483 449.018V447.786L283.251 448.402V449.634Z" fill="#F84F45"/>
<path d="M283.251 451.481L284.483 450.865V449.018L283.251 449.633V451.481Z" fill="#F84F45"/>
<path d="M283.251 452.713L284.483 452.097V450.865L283.251 451.481V452.713Z" fill="#F84F45"/>
<path d="M283.251 454.56L284.483 453.944V452.713L283.251 453.329V454.56Z" fill="#F84F45"/>
<path d="M282.018 453.329L283.25 452.713V451.481L282.018 452.097V453.329Z" fill="#F84F45"/>
<path d="M280.787 452.713L282.019 452.097V450.865L280.787 451.481V452.713Z" fill="#F84F45"/>
<path d="M279.555 452.097L280.787 451.481V450.249L279.555 450.865V452.097Z" fill="#F84F45"/>
<path d="M301.73 434.238L302.962 433.622V432.39L301.73 433.006V434.238Z" fill="#F84F45"/>
<path d="M300.498 435.469L301.73 434.238V433.006L300.498 433.622V435.469Z" fill="#F84F45"/>
<path d="M300.498 433.622L301.73 433.006V431.774L300.498 432.39V433.622Z" fill="#F84F45"/>
<path d="M299.266 434.238L300.498 433.622V432.39L299.266 433.006V434.238Z" fill="#F84F45"/>
<path d="M296.802 436.085L297.418 435.469V434.238L296.802 434.853V436.085Z" fill="#F84F45"/>
<path d="M299.266 436.085L300.498 435.469V434.238L299.266 434.853V436.085Z" fill="#F84F45"/>
<path d="M296.802 437.317L298.034 436.701L297.418 435.469L296.802 436.085V437.317Z" fill="#F84F45"/>
<path d="M294.954 438.548L296.186 437.317V436.085L294.954 436.701V438.548Z" fill="#F84F45"/>
<path d="M294.954 436.701L296.186 436.085V434.854L294.954 435.469V436.701Z" fill="#F84F45"/>
<path d="M293.722 439.164L294.954 438.548V437.317L293.722 437.933V439.164Z" fill="#F84F45"/>
<path d="M301.73 436.085L302.962 435.469V433.622L301.73 434.853V436.085Z" fill="#F84F45"/>
<path d="M300.498 436.701L301.73 436.085V434.854L300.498 435.469V436.701Z" fill="#F84F45"/>
<path d="M299.266 437.317L300.498 436.701V435.469L299.266 436.085V437.317Z" fill="#F84F45"/>
<path d="M296.802 439.164L298.034 438.548V437.317L296.802 437.933V439.164Z" fill="#F84F45"/>
<path d="M294.954 439.78L296.186 439.164V437.933L294.954 438.548V439.78Z" fill="#F84F45"/>
<path d="M293.722 440.396L294.954 439.78V438.548L293.722 439.164V440.396Z" fill="#F84F45"/>
<path d="M302.346 437.317L302.962 436.701V435.469L301.73 436.085L302.346 437.317Z" fill="#F84F45"/>
<path d="M300.498 437.933L301.73 437.317V436.085L300.498 436.701V437.933Z" fill="#F84F45"/>
<path d="M299.266 439.164L300.498 438.548V436.701L299.266 437.933V439.164Z" fill="#F84F45"/>
<path d="M296.802 440.396L298.034 439.78V438.548L296.802 439.164V440.396Z" fill="#F84F45"/>
<path d="M294.954 441.628L296.186 440.396V439.164L294.954 439.78V441.628Z" fill="#F84F45"/>
<path d="M293.722 442.244L294.954 441.628V440.396L293.722 441.012V442.244Z" fill="#F84F45"/>
<path d="M292.49 441.628L293.722 441.012V439.164L292.49 439.78V441.628Z" fill="#F84F45"/>
<path d="M292.49 442.859L293.722 442.243V441.012L292.49 441.628V442.859Z" fill="#F84F45"/>
<path d="M303.578 434.853L304.81 434.238V433.006L303.578 433.622V434.853Z" fill="#F84F45"/>
<path d="M303.578 436.701L304.81 436.085V434.854L303.578 435.469V436.701Z" fill="#F84F45"/>
<path d="M302.346 439.164L302.962 438.548V436.701L302.346 437.933V439.164Z" fill="#F84F45"/>
<path d="M300.498 439.78L301.73 439.164V437.933L300.498 438.548V439.78Z" fill="#F84F45"/>
<path d="M299.266 440.396L300.498 439.78V438.548L299.266 439.164V440.396Z" fill="#F84F45"/>
<path d="M296.802 442.244L298.034 441.628V440.396L296.802 441.012V442.244Z" fill="#F84F45"/>
<path d="M294.954 442.859L296.186 442.243V441.012L294.954 441.628V442.859Z" fill="#F84F45"/>
<path d="M300.498 441.628L301.73 440.396V439.164L300.498 439.78V441.628Z" fill="#F84F45"/>
<path d="M299.266 442.244L300.498 441.628V440.396L299.266 441.012V442.244Z" fill="#F84F45"/>
<path d="M296.802 443.475L298.034 442.859V441.628L296.802 442.243V443.475Z" fill="#F84F45"/>
<path d="M299.266 443.475L300.498 442.859V441.628L299.266 442.243V443.475Z" fill="#F84F45"/>
<path d="M298.034 436.701L299.266 436.085V434.854L298.034 435.469V436.701Z" fill="#F84F45"/>
<path d="M298.034 438.548L299.266 437.317V436.085L298.034 436.701V438.548Z" fill="#F84F45"/>
<path d="M298.034 439.78L299.266 439.164V437.933L298.034 438.548V439.78Z" fill="#F84F45"/>
<path d="M298.034 441.628L299.266 440.396V439.164L298.034 439.78V441.628Z" fill="#F84F45"/>
<path d="M298.034 442.859L299.266 442.243V441.012L298.034 441.628V442.859Z" fill="#F84F45"/>
<path d="M298.034 444.707L299.266 444.091V442.243L298.034 442.859V444.707Z" fill="#F84F45"/>
<path d="M298.034 445.939L299.266 445.323V444.091L298.034 444.707V445.939Z" fill="#F84F45"/>
<path d="M296.802 445.323L298.034 444.707V443.475L296.802 444.091V445.323Z" fill="#F84F45"/>
<path d="M294.954 444.707L296.186 444.091V442.243L294.954 442.859V444.707Z" fill="#F84F45"/>
<path d="M293.722 443.475L294.954 442.859V441.628L293.722 442.243V443.475Z" fill="#F84F45"/>
<path d="M318.361 452.713L354.088 433.006C355.936 432.39 357.168 429.927 357.168 427.463C357.168 425.616 355.936 424.384 354.088 425.616L318.361 445.323C316.513 445.939 315.281 448.402 315.281 450.865C315.281 452.713 316.513 453.944 318.361 452.713Z" fill="#F9BD33"/>
<path d="M317.746 498.9L354.705 477.962C355.32 477.346 355.936 476.73 355.936 475.499C355.936 474.267 355.32 474.267 354.705 474.267L317.746 495.205C317.13 495.821 316.514 496.437 316.514 497.669C316.514 498.9 317.13 499.516 317.746 498.9Z" fill="#F9BD33"/>
<path d="M335.609 466.261C335.609 465.645 335.609 465.645 335.609 465.645V465.029V464.414V463.798C335.609 463.798 335.609 463.182 334.993 463.182C334.993 462.566 334.377 462.566 334.377 461.95L333.761 461.334C333.761 461.334 333.145 460.719 332.529 460.719C332.529 460.719 332.529 460.719 331.913 460.719C331.297 460.719 330.681 460.719 330.681 461.334C330.681 461.334 330.065 461.95 329.449 461.95L328.833 462.566L328.217 463.182C328.217 463.182 328.217 463.798 327.601 463.798V464.414C327.601 465.029 327.601 465.029 327.601 465.645C327.601 466.261 327.601 466.261 327.601 466.261V466.877V467.493C327.601 468.109 328.217 468.724 328.833 469.34C330.065 470.572 331.297 470.572 331.297 470.572C331.913 470.572 332.529 470.572 332.529 470.572H333.145C333.761 470.572 333.761 470.572 334.377 470.572C334.377 470.572 334.993 470.572 334.993 469.956L335.609 469.34L336.225 468.724L336.841 468.108C336.841 468.108 337.457 467.493 337.457 466.877V466.261C335.609 466.877 335.609 466.877 335.609 466.261Z" fill="#87FF07"/>
<path d="M330.681 471.188C330.681 471.188 331.297 471.188 330.681 471.188C331.297 471.188 330.681 471.188 330.681 471.188ZM331.297 471.188C331.913 471.188 331.913 471.188 331.913 471.188C331.913 470.572 331.913 470.572 331.297 471.188ZM327.601 470.572C326.985 470.572 326.985 469.956 326.369 469.956C325.753 469.34 325.137 468.108 325.137 468.108V467.493V468.108C325.137 468.724 325.753 469.34 326.369 469.956C326.985 469.956 327.601 469.956 327.601 470.572ZM334.993 468.724C334.993 468.724 335.609 468.108 335.609 467.493C335.609 468.108 334.993 468.724 334.993 468.724ZM325.137 466.261C325.137 465.645 325.137 465.645 325.137 466.261C325.137 465.645 325.137 465.645 325.137 466.261ZM336.225 466.261C336.225 465.645 336.225 465.645 336.225 466.261V465.645C336.225 465.645 336.225 465.645 336.225 465.029C336.225 465.029 336.225 465.029 336.225 465.645V466.261C336.225 465.645 336.225 465.645 336.225 466.261ZM335.609 463.798V463.182C335.609 463.798 335.609 463.798 335.609 463.798ZM325.753 463.182C325.753 462.566 325.753 462.566 325.753 463.182C325.753 462.566 325.753 462.566 325.753 463.182ZM326.369 462.566C326.985 461.95 326.985 461.95 326.985 461.95C326.985 461.95 326.369 461.95 326.369 462.566ZM334.993 462.566C334.993 462.566 334.377 461.95 334.993 462.566C334.377 461.95 334.377 461.95 333.761 461.334C334.377 461.95 334.377 461.95 334.993 462.566C334.377 461.95 334.993 462.566 334.993 462.566ZM326.985 461.95C327.601 461.334 328.217 461.334 328.217 461.334C328.217 461.334 328.833 461.334 329.449 460.719C328.833 460.719 328.217 460.719 328.217 461.334C327.601 461.334 327.601 461.334 326.985 461.95ZM333.145 461.334C333.145 461.334 332.529 461.334 332.529 460.719C333.145 460.719 333.145 461.334 333.145 461.334Z" fill="#0E5600"/>
<path d="M330.681 471.188C330.065 471.188 330.065 471.188 329.449 471.188C329.449 471.188 328.833 471.188 327.601 470.572C326.985 470.572 326.985 469.956 326.369 469.956C325.753 469.34 325.137 468.108 325.137 468.108V467.493V466.877V466.261C325.137 466.261 325.137 465.645 325.137 465.029V464.414C325.137 464.414 325.137 463.798 325.753 463.798V463.182L326.369 462.566C326.985 461.95 327.601 461.95 327.601 461.95C327.601 461.95 328.217 461.95 328.833 461.334C328.833 461.334 328.833 461.334 329.449 461.334C329.449 461.334 330.065 461.334 330.065 461.95C330.681 461.95 330.681 462.566 330.681 462.566C330.681 462.566 330.681 462.566 330.681 463.182C330.681 463.182 330.681 463.798 331.297 463.798V464.414C331.297 464.414 331.297 464.413 331.297 465.029C331.297 465.029 331.297 465.029 331.297 465.645V466.261C331.297 466.261 331.297 466.261 331.297 466.877C331.297 466.877 331.297 466.877 331.297 467.493V468.108V468.724C331.297 469.34 330.681 469.34 330.681 469.956L330.065 470.572L329.449 471.188C329.449 471.188 328.833 471.188 328.833 471.804C328.217 471.804 328.217 471.804 328.217 472.419C327.601 472.419 327.601 472.419 327.601 472.419C331.297 471.188 331.297 471.188 330.681 471.188C331.297 471.188 330.681 471.188 330.681 471.188ZM330.681 470.572C331.297 470.572 331.297 470.572 331.297 470.572C331.913 470.572 331.913 470.572 331.913 470.572C331.913 470.572 332.529 470.572 332.529 469.956L333.145 469.34L333.761 468.724L334.377 468.108C334.377 468.108 334.993 467.493 334.993 466.877V466.261V465.645C334.993 465.029 334.993 465.029 334.993 465.029V464.414V463.798V463.182C334.993 463.182 334.993 462.566 334.377 462.566C334.377 461.95 333.761 461.95 333.761 461.95L333.145 461.334L332.529 460.719C332.529 460.719 332.529 460.719 331.913 460.719C331.297 460.719 331.297 460.719 330.681 461.334C330.681 461.334 330.065 461.95 329.449 461.95L328.833 462.566C328.833 462.566 328.833 463.182 328.217 463.182C328.217 463.182 328.217 463.798 327.601 463.798V464.414C327.601 465.029 327.601 465.029 327.601 465.645C327.601 465.645 327.601 465.645 327.601 466.261V466.877V467.493V468.108C327.601 468.724 328.217 469.34 328.833 469.956C330.065 471.188 331.297 471.188 331.297 471.188C330.065 470.572 330.065 470.572 330.681 470.572Z" fill="#31B000"/>
<path d="M330.681 470.572C330.065 470.572 330.065 470.572 329.449 470.572C328.833 470.572 328.217 470.572 326.985 469.34C326.37 468.724 325.754 468.109 325.754 467.493V466.877V466.261C325.754 466.261 325.754 466.261 325.754 465.645C325.754 465.645 325.754 465.645 325.754 465.029C325.754 465.029 325.754 464.414 325.754 463.798V463.182C325.754 463.182 325.754 462.566 326.37 462.566C326.37 462.566 326.37 461.95 326.985 461.95L327.601 461.334C328.217 460.719 328.217 460.719 328.833 460.719C328.833 460.719 329.449 460.719 330.065 460.103H330.681L331.297 460.719C331.913 460.719 331.913 461.334 331.913 461.334L332.529 461.95C332.529 461.95 332.529 462.566 333.145 462.566V463.182V463.798V464.414V465.029V465.645V466.261C333.145 466.261 332.529 466.877 332.529 467.493L331.913 468.109L331.297 468.724C331.297 468.724 330.681 468.724 330.681 469.34C330.065 469.34 330.065 469.34 330.065 469.956H329.449C331.297 470.572 330.681 470.572 330.681 470.572ZM330.065 460.719H329.449C328.833 460.719 328.833 460.719 328.833 460.719C328.833 460.719 328.217 460.719 327.601 461.334L326.985 461.95L326.37 462.566V463.182V463.798C326.37 464.414 326.37 464.414 326.37 464.414V465.029V465.645V466.261C326.37 466.261 326.985 467.493 327.601 468.109C328.217 468.724 329.449 469.34 329.449 469.34H330.065C330.065 469.34 330.065 469.34 330.681 469.34H331.297H331.913C331.913 469.34 332.529 469.34 332.529 468.724L333.145 468.109L333.761 467.493L334.377 466.877V466.261V465.645C334.377 465.029 334.377 465.029 334.377 465.029V464.414V463.798V463.182V462.566C334.377 461.95 333.761 461.95 333.761 461.95L333.145 461.334L332.529 460.719H330.065Z" fill="#61D402"/>
<path d="M330.681 470.572C331.297 470.572 331.297 470.572 331.297 470.572C331.913 470.572 331.913 470.572 331.913 470.572C331.913 470.572 332.529 470.572 332.529 469.956L333.145 469.34L333.761 468.724L334.377 468.108C334.377 468.108 334.993 467.493 334.993 466.877V466.261V465.645C334.993 465.029 334.993 465.029 334.993 465.029V465.645V466.261V466.877C334.993 466.877 334.377 467.493 334.377 468.108L333.761 468.724L333.145 469.34C333.145 469.34 332.529 469.34 332.529 469.956C331.913 469.956 331.913 469.956 331.913 470.572H331.297H330.681ZM329.449 470.572C328.833 470.572 328.217 470.572 326.985 469.34C326.37 468.724 325.754 468.109 325.754 467.493V466.877V466.261C325.754 466.261 325.754 466.261 325.754 465.645V466.261V466.877V467.493C325.754 468.109 326.37 468.724 326.985 469.34C328.217 469.956 329.449 470.572 329.449 470.572Z" fill="#239200"/>
<path d="M329.449 466.877C328.833 466.877 328.217 466.877 327.601 466.261C326.985 465.645 326.985 465.645 326.985 465.645V465.029V464.413C326.985 464.413 326.985 464.413 326.985 463.798V463.182C326.985 463.182 327.601 463.182 327.601 462.566C327.601 462.566 327.601 462.566 328.217 462.566H328.833C328.833 462.566 329.449 462.566 329.449 463.182C329.449 463.182 329.449 463.182 330.065 463.798V464.413V465.029C330.065 465.029 330.065 465.029 330.065 465.645V466.261V466.877H329.449H328.833C330.065 466.877 330.065 466.877 329.449 466.877Z" fill="#BEFF07"/>
<path d="M1230.5 607L979 749L1076.5 811L1326.5 658.5L1230.5 607Z" fill="#214193"/>
<defs>
<linearGradient id="paint0_linear" x1="1301.14" y1="417.808" x2="1269.8" y2="417.808" gradientUnits="userSpaceOnUse">
<stop offset="0.0470588" stop-color="#D9D2C9"/>
<stop offset="0.7725" stop-color="#FFFDF8"/>
</linearGradient>
<linearGradient id="paint1_linear" x1="1313.19" y1="398.789" x2="1285.63" y2="398.789" gradientUnits="userSpaceOnUse">
<stop offset="0.2275" stop-color="#FFFDF8"/>
<stop offset="0.9529" stop-color="#D9D2C9"/>
</linearGradient>
<linearGradient id="paint2_linear" x1="661.428" y1="448.501" x2="657.057" y2="440.928" gradientUnits="userSpaceOnUse">
<stop offset="0.2676" stop-color="#141414"/>
<stop offset="0.4568" stop-color="#1F1F1F"/>
<stop offset="0.6757" stop-color="#434343"/>
<stop offset="0.8405" stop-color="#1D1D1D"/>
</linearGradient>
<linearGradient id="paint3_linear" x1="656.129" y1="439.643" x2="660.415" y2="439.643" gradientUnits="userSpaceOnUse">
<stop offset="0.2676" stop-color="#B0B0B0"/>
<stop offset="0.4568" stop-color="#BBBBBB"/>
<stop offset="0.6757" stop-color="#DFDFDF"/>
<stop offset="0.8405" stop-color="#B9B9B9"/>
</linearGradient>
<linearGradient id="paint4_linear" x1="582.163" y1="442.937" x2="577.791" y2="435.365" gradientUnits="userSpaceOnUse">
<stop offset="0.2676" stop-color="#141414"/>
<stop offset="0.4568" stop-color="#1F1F1F"/>
<stop offset="0.6757" stop-color="#434343"/>
<stop offset="0.8405" stop-color="#1D1D1D"/>
</linearGradient>
<linearGradient id="paint5_linear" x1="576.86" y1="434.08" x2="581.149" y2="434.08" gradientUnits="userSpaceOnUse">
<stop offset="0.2676" stop-color="#B0B0B0"/>
<stop offset="0.4568" stop-color="#BBBBBB"/>
<stop offset="0.6757" stop-color="#DFDFDF"/>
<stop offset="0.8405" stop-color="#B9B9B9"/>
</linearGradient>
<linearGradient id="paint6_linear" x1="623.994" y1="447.381" x2="616.153" y2="447.381" gradientUnits="userSpaceOnUse">
<stop offset="0.2676" stop-color="#B0B0B0"/>
<stop offset="0.4568" stop-color="#BBBBBB"/>
<stop offset="0.6757" stop-color="#DFDFDF"/>
<stop offset="0.8405" stop-color="#B9B9B9"/>
</linearGradient>
<linearGradient id="paint7_linear" x1="623.076" y1="419.42" x2="617.067" y2="419.42" gradientUnits="userSpaceOnUse">
<stop offset="0.2676" stop-color="#B0B0B0"/>
<stop offset="0.4568" stop-color="#BBBBBB"/>
<stop offset="0.6757" stop-color="#DFDFDF"/>
<stop offset="0.8405" stop-color="#B9B9B9"/>
</linearGradient>
<linearGradient id="paint8_linear" x1="584.689" y1="492.211" x2="580.318" y2="484.638" gradientUnits="userSpaceOnUse">
<stop offset="0.2676" stop-color="#141414"/>
<stop offset="0.4568" stop-color="#1F1F1F"/>
<stop offset="0.6757" stop-color="#434343"/>
<stop offset="0.8405" stop-color="#1D1D1D"/>
</linearGradient>
<linearGradient id="paint9_linear" x1="579.384" y1="483.353" x2="583.676" y2="483.353" gradientUnits="userSpaceOnUse">
<stop offset="0.2676" stop-color="#B0B0B0"/>
<stop offset="0.4568" stop-color="#BBBBBB"/>
<stop offset="0.6757" stop-color="#DFDFDF"/>
<stop offset="0.8405" stop-color="#B9B9B9"/>
</linearGradient>
<linearGradient id="paint10_linear" x1="658.063" y1="492.744" x2="653.694" y2="485.174" gradientUnits="userSpaceOnUse">
<stop offset="0.2676" stop-color="#141414"/>
<stop offset="0.4568" stop-color="#1F1F1F"/>
<stop offset="0.6757" stop-color="#434343"/>
<stop offset="0.8405" stop-color="#1D1D1D"/>
</linearGradient>
<linearGradient id="paint11_linear" x1="652.757" y1="483.885" x2="657.046" y2="483.885" gradientUnits="userSpaceOnUse">
<stop offset="0.2676" stop-color="#B0B0B0"/>
<stop offset="0.4568" stop-color="#BBBBBB"/>
<stop offset="0.6757" stop-color="#DFDFDF"/>
<stop offset="0.8405" stop-color="#B9B9B9"/>
</linearGradient>
<linearGradient id="paint12_linear" x1="614.65" y1="406.812" x2="602.15" y2="383.453" gradientUnits="userSpaceOnUse">
<stop stop-color="#292827"/>
<stop offset="0.1623" stop-color="#2E2D2D"/>
<stop offset="0.3695" stop-color="#3C3C3C"/>
<stop offset="0.3757" stop-color="#3D3D3D"/>
<stop offset="0.7595" stop-color="#4F4F4F"/>
<stop offset="0.9822" stop-color="#3D3D3D"/>
</linearGradient>
<linearGradient id="paint13_linear" x1="628.954" y1="357.24" x2="660.447" y2="405.825" gradientUnits="userSpaceOnUse">
<stop offset="0.1338" stop-color="#2D2926"/>
<stop offset="0.4274" stop-color="#2A2623"/>
<stop offset="0.676" stop-color="#1F1D1B"/>
<stop offset="0.908" stop-color="#0E0E0E"/>
<stop offset="0.9162" stop-color="#0D0D0D"/>
</linearGradient>
<linearGradient id="paint14_linear" x1="648.819" y1="354.487" x2="677.914" y2="371.04" gradientUnits="userSpaceOnUse">
<stop offset="0.1338" stop-color="#2D2926"/>
<stop offset="0.4346" stop-color="#1F1D1B"/>
<stop offset="0.9162" stop-color="#0D0D0D"/>
</linearGradient>
</defs>
</svg>
