<svg width="262" height="479" viewBox="0 0 262 479" fill="none" xmlns="http://www.w3.org/2000/svg">
<g style="mix-blend-mode:multiply">
<path d="M130.943 478.506C203.26 478.506 261.885 473.44 261.885 467.19C261.885 460.94 203.26 455.874 130.943 455.874C58.625 455.874 0 460.94 0 467.19C0 473.44 58.625 478.506 130.943 478.506Z" fill="#B5AEAC"/>
</g>
<g clip-path="url(#clip0)">
<path d="M175.347 333.432L166.639 439.151H151.27C147.685 398.017 141.922 361.88 148.453 333.432C141.922 301.396 137.055 228.738 137.055 228.738C148.837 223.356 167.663 218.486 167.663 218.486C173.81 253.982 175.347 333.432 175.347 333.432Z" fill="#010D1F"/>
<path d="M202.37 464.011H151.911C149.478 464.011 147.557 462.217 147.301 459.91C147.301 459.654 147.301 459.27 147.301 458.885L149.35 432.359C149.35 432.359 151.399 431.334 154.344 430.693C156.137 430.309 157.546 429.028 158.058 427.362C158.058 427.234 158.186 427.105 158.186 426.977C159.339 421.852 166.639 420.314 168.048 425.183C168.176 425.824 168.432 426.465 168.56 427.105C168.56 427.234 168.688 427.362 168.688 427.49C168.944 428.515 169.072 429.54 169.2 430.437C169.456 432.616 169.456 434.025 169.456 434.025C170.097 434.922 170.737 435.691 171.377 436.588C171.633 436.973 172.018 437.357 172.274 437.741C172.914 438.638 173.554 439.407 174.195 440.304C174.451 440.689 174.835 441.073 175.091 441.458C175.732 442.355 176.5 443.123 177.14 443.892C177.396 444.277 177.781 444.533 178.037 444.917C180.598 447.609 183.288 449.531 186.361 449.915C191.868 450.684 200.705 451.325 205.059 459.27C205.187 459.398 205.187 459.654 205.315 459.782C205.956 461.833 204.419 464.011 202.37 464.011Z" fill="#F5C142"/>
<path d="M202.37 464.011H151.911C149.478 464.011 147.557 462.217 147.301 459.911H205.315C205.956 461.833 204.419 464.011 202.37 464.011Z" fill="#D28F00"/>
<path d="M172.274 437.87C171.634 438.767 170.481 439.792 168.048 440.689C167.663 440.817 167.151 441.073 166.767 441.202L166.383 439.92C166.895 439.792 167.279 439.664 167.663 439.408C170.481 438.254 171.121 437.229 171.377 436.588C171.634 437.101 171.89 437.485 172.274 437.87Z" fill="white"/>
<path d="M168.048 440.561C168.048 441.458 167.407 442.098 166.511 442.098C165.614 442.098 164.974 441.458 164.974 440.561C164.974 439.664 165.614 439.023 166.511 439.023C167.407 439.023 168.048 439.792 168.048 440.561Z" fill="white"/>
<path d="M175.091 441.586C174.451 442.226 173.426 442.995 171.633 443.764C171.121 444.02 170.609 444.149 170.096 444.405L169.712 443.123C170.224 442.995 170.737 442.739 171.121 442.611C172.914 441.842 173.81 441.201 174.195 440.561C174.451 440.817 174.707 441.201 175.091 441.586Z" fill="white"/>
<path d="M171.633 443.636C171.633 444.533 170.993 445.174 170.097 445.174C169.2 445.174 168.56 444.533 168.56 443.636C168.56 442.739 169.2 442.098 170.097 442.098C170.865 442.098 171.633 442.739 171.633 443.636Z" fill="white"/>
<path d="M178.037 445.045C177.397 445.686 176.372 446.455 174.707 447.096C174.195 447.352 173.683 447.48 173.042 447.737L172.658 446.455C173.17 446.327 173.683 446.071 174.195 445.942C175.732 445.302 176.628 444.661 177.141 444.148C177.397 444.405 177.781 444.661 178.037 445.045Z" fill="white"/>
<path d="M174.707 447.096C174.707 447.993 174.067 448.633 173.17 448.633C172.274 448.633 171.634 447.993 171.634 447.096C171.634 446.199 172.274 445.558 173.17 445.558C174.067 445.43 174.707 446.199 174.707 447.096Z" fill="white"/>
<path d="M169.072 430.565C166.767 430.565 164.59 430.822 164.59 430.822V428.259C165.998 427.746 167.407 427.618 168.56 427.618C168.816 428.643 168.944 429.668 169.072 430.565Z" fill="white"/>
<path d="M128.603 228.738C128.603 228.738 128.218 270.641 122.199 333.432C118.357 367.646 114.003 410.575 109.264 439.151H93.8962L91.719 333.432C91.719 333.432 88.1331 268.462 95.8172 223.612L128.603 228.738Z" fill="#2C2C2C"/>
<path d="M122.839 460.423C122.455 469.265 94.6644 466.189 90.1821 463.626C88.5172 462.601 87.7488 460.551 87.6207 458.244C87.3646 454.4 88.6452 449.53 89.7979 445.686C91.5908 439.407 91.3347 439.535 92.6153 435.306C92.6153 435.306 92.3592 428.387 101.452 425.696C110.545 423.005 113.875 440.304 115.411 443.636C116.82 446.711 122.327 450.812 122.967 458.372C122.839 459.013 122.839 459.782 122.839 460.423Z" fill="#F5C142"/>
<path d="M96.3292 440.817L95.5608 439.664C95.945 439.407 103.885 434.282 110.929 437.357L110.417 438.638C104.141 435.819 96.4573 440.817 96.3292 440.817Z" fill="white"/>
<path d="M97.0973 448.505L96.3289 447.352C96.7131 447.096 104.653 441.97 111.697 445.045L111.185 446.327C104.909 443.636 97.2253 448.505 97.0973 448.505Z" fill="white"/>
<path d="M96.7137 444.661L95.9453 443.508C96.3295 443.252 104.27 438.126 111.313 441.201L110.801 442.483C104.526 439.664 96.8418 444.661 96.7137 444.661Z" fill="white"/>
<path d="M97.3534 440.432C97.3534 441.201 96.7131 441.97 95.8166 441.97C95.0482 441.97 94.2798 441.329 94.2798 440.432C94.2798 439.663 94.9201 438.895 95.8166 438.895C96.7131 439.023 97.3534 439.663 97.3534 440.432Z" fill="white"/>
<path d="M97.4821 444.149C97.4821 444.918 96.8417 445.686 95.9453 445.686C95.0488 445.686 94.4084 445.046 94.4084 444.149C94.4084 443.38 95.0488 442.611 95.9453 442.611C96.8417 442.611 97.4821 443.252 97.4821 444.149Z" fill="white"/>
<path d="M98.2502 447.865C98.2502 448.634 97.6098 449.403 96.7133 449.403C95.9449 449.403 95.1765 448.762 95.1765 447.865C95.1765 447.096 95.8169 446.327 96.7133 446.327C97.6098 446.327 98.2502 446.968 98.2502 447.865Z" fill="white"/>
<path d="M112.978 445.686C112.978 446.455 112.338 447.224 111.442 447.224C110.673 447.224 109.905 446.583 109.905 445.686C109.905 444.917 110.545 444.148 111.442 444.148C112.338 444.148 112.978 444.789 112.978 445.686Z" fill="white"/>
<path d="M112.594 441.586C112.594 442.355 111.954 443.123 111.057 443.123C110.289 443.123 109.52 442.483 109.52 441.586C109.52 440.817 110.161 440.048 111.057 440.048C111.954 440.176 112.594 440.817 112.594 441.586Z" fill="white"/>
<path d="M112.21 437.613C112.21 438.382 111.569 439.151 110.673 439.151C109.776 439.151 109.136 438.51 109.136 437.613C109.136 436.844 109.776 436.075 110.673 436.075C111.569 436.075 112.21 436.844 112.21 437.613Z" fill="white"/>
<path d="M122.839 460.423C122.455 469.265 94.6646 466.189 90.1822 463.626C88.5173 462.601 87.7489 460.551 87.6208 458.244C90.5664 459.91 95.6891 461.96 103.373 462.088C112.85 462.217 119.638 460.294 122.839 458.372C122.839 459.013 122.839 459.782 122.839 460.423Z" fill="#D28F00"/>
<path d="M105.166 428.387C105.166 428.387 100.94 428.002 97.3542 429.925L97.7385 432.744C97.7385 432.744 102.733 431.206 106.063 431.462C106.191 431.462 106.063 429.54 105.166 428.387Z" fill="white"/>
<path d="M97.9942 212.591C97.9942 212.591 92.7434 231.044 92.8714 247.575C92.8714 247.575 118.485 258.724 151.014 246.422C164.333 241.424 171.121 226.559 166.254 213.104C166.254 212.976 166.126 212.848 166.126 212.591C166.126 212.591 124.504 210.926 97.9942 212.591Z" fill="#2C2C2C"/>
<path d="M115.54 82.6534C115.54 82.6534 77.7595 78.1684 61.8791 98.1589C45.9987 118.149 59.5739 202.853 77.6315 210.413C95.689 217.974 122.327 214.258 128.987 199.393C135.774 184.656 134.494 109.82 115.54 82.6534Z" fill="#9E0000"/>
<path d="M111.698 91.1108C111.698 91.1108 79.6806 92.6486 70.5878 108.538C61.495 124.557 67.258 188.373 82.6262 198.112C98.1224 207.85 114.259 202.212 125.529 183.631C127.066 149.545 123.992 117.893 111.698 91.1108Z" fill="#C31212"/>
<path d="M188.538 218.486C188.538 218.486 192.508 220.024 195.71 222.203C198.783 224.253 202.625 226.944 204.418 228.353C206.723 230.019 204.162 231.813 200.832 229.763C197.503 227.713 196.734 227.2 196.734 227.2C196.734 227.2 207.108 238.092 208.516 241.809C209.797 245.269 203.778 239.502 198.527 235.145C198.527 235.145 206.723 247.319 205.699 249.625C204.418 252.573 194.429 237.836 194.429 237.836C194.429 237.836 200.064 249.882 198.527 250.394C196.862 250.907 189.562 239.374 189.562 239.374C189.562 239.374 192.764 247.96 191.611 247.96C189.434 247.831 179.061 231.301 180.085 222.459C180.47 222.203 186.489 218.102 188.538 218.486Z" fill="#C26A39"/>
<path d="M198.143 231.941C198.143 231.941 193.148 236.939 186.616 236.811C186.745 236.811 192.636 239.886 198.143 231.941Z" fill="#44260D"/>
<path d="M191.099 230.788C191.099 230.788 184.056 226.431 188.026 220.409C188.154 220.409 181.366 225.791 191.099 230.788Z" fill="#44260D"/>
<path d="M147.3 89.0606C147.3 89.0606 151.014 129.298 160.875 163.128C164.973 181.197 166.638 203.494 179.829 224.894C182.903 221.562 189.05 219.768 192.636 220.024C192.124 220.665 176.115 175.558 173.938 159.028C173.938 133.142 166.382 106.488 156.009 86.1133C156.009 86.2414 151.91 87.7792 147.3 89.0606Z" fill="white"/>
<path d="M79.6802 225.278C79.6802 225.278 83.6503 227.969 85.8274 231.173C88.1326 234.376 90.3098 237.836 91.7185 239.758C93.3834 242.193 90.694 242.706 88.5169 241.168C85.3152 238.733 84.5468 236.811 84.5468 236.811C84.5468 236.811 90.694 251.163 90.694 255.392C90.694 259.236 86.98 251.419 83.3941 245.268C83.3941 245.268 86.98 260.133 85.059 262.055C82.6257 264.49 78.3995 246.422 78.3995 246.422C78.3995 246.422 79.5521 260.261 77.8872 260.133C75.9662 260.005 73.1487 246.037 73.1487 246.037C73.1487 246.037 73.1487 255.52 71.9961 255.136C69.819 254.239 65.8489 234.376 70.0751 226.047C70.4593 225.919 77.7592 224.125 79.6802 225.278Z" fill="#C26A39"/>
<path d="M80.705 89.0605C80.705 89.0605 64.6965 128.016 63.0317 163.128C60.9826 181.581 63.9281 204.134 69.435 228.61C73.9174 230.66 78.784 228.866 81.7296 226.688C80.9611 227.072 77.3753 180.684 80.705 164.41L92.8715 119.175C92.8715 119.175 94.0241 97.6462 80.705 89.0605Z" fill="white"/>
<path d="M171.505 223.612C144.483 240.655 117.461 237.708 89.0297 223.612L97.098 184.784L80.7053 89.0603L87.4929 86.7537C92.7437 84.9596 98.1225 83.6782 103.629 82.7812C114.131 80.9872 124.761 80.7309 135.262 82.0123C139.745 82.5249 144.227 83.2938 148.581 84.4471L156.009 86.2411C159.851 134.552 163.309 185.553 171.505 223.612Z" fill="white"/>
<path d="M124.633 93.289C111.698 93.289 105.294 85.3441 103.629 82.7812C114.131 80.9872 124.761 80.7309 135.262 82.0123C135.902 86.2411 135.39 93.289 124.633 93.289Z" fill="white"/>
<path d="M89.0298 85.088C89.0298 85.088 113.363 145.572 96.0735 179.274C93.3841 182.862 93.8964 192.089 94.5367 195.933C94.5367 195.933 116.821 179.402 112.21 139.421C107.6 99.312 98.6349 82.5251 98.6349 82.5251C98.6349 82.5251 94.1525 77.9119 89.0298 85.088Z" fill="#9E0000"/>
<path d="M139.36 82.525C139.36 82.525 156.265 108.026 163.693 174.148C163.693 174.148 171.377 124.556 152.679 85.4723C152.807 85.4723 149.989 81.2436 139.36 82.525Z" fill="#9E0000"/>
<path d="M110.673 32.9331C110.673 32.9331 89.798 34.4709 84.9315 24.7319C80.0649 14.9929 121.303 17.4277 129.499 21.9127L110.673 32.9331Z" fill="#FFB000"/>
<path d="M153.704 20.7598C153.704 20.7598 159.339 24.476 157.546 34.5994C155.625 44.7228 151.783 45.8761 151.783 45.8761C151.783 45.8761 145.507 23.4508 153.704 20.7598Z" fill="#2D1B04"/>
<path d="M132.188 69.1979L131.292 82.0124L130.907 87.907C123.479 93.2891 111.569 85.4723 111.569 85.4723L110.801 65.3536C114.259 63.1751 122.711 66.2506 127.962 67.7884C130.523 68.5572 132.188 69.1979 132.188 69.1979Z" fill="#C26A39"/>
<path d="M132.188 69.1984L131.292 82.0128C122.711 79.8344 115.668 67.6606 115.668 67.6606L128.09 67.7888C130.524 68.5577 132.188 69.1984 132.188 69.1984Z" fill="#5C3411"/>
<path d="M156.265 36.9058C156.265 37.2902 156.265 37.8028 156.265 38.1872C156.137 46.2603 154.857 56.1274 153.576 64.0724C152.167 72.5299 144.099 78.1683 135.775 76.6305C127.45 75.0928 117.589 72.7862 111.186 69.967C110.801 69.4545 110.417 68.9419 110.161 68.4293C107.215 63.8161 105.422 58.5622 104.27 53.1801C103.886 51.0017 103.501 48.8232 103.245 46.6447C103.245 46.5166 103.245 46.2603 103.117 46.1322C102.989 34.9836 103.501 24.0913 103.501 24.0913C115.412 8.84212 149.35 14.3523 154.729 25.3728C155.881 27.8075 156.265 32.0363 156.265 36.9058Z" fill="#C26A39"/>
<path d="M110.033 68.4294C107.087 63.8162 105.294 58.5622 104.142 53.1802C105.807 53.1802 107.856 53.6928 110.673 54.8461C110.673 54.8461 111.442 62.791 110.033 68.4294Z" fill="#2D1B04"/>
<path d="M135.134 44.4661C135.134 46.132 134.366 47.5416 133.469 47.5416C132.573 47.5416 131.804 46.132 131.804 44.4661C131.804 42.8002 132.573 41.3906 133.469 41.3906C134.366 41.3906 135.134 42.8002 135.134 44.4661Z" fill="#512907"/>
<path d="M152.167 44.2097C152.167 45.8756 151.399 47.2852 150.502 47.2852C149.606 47.2852 148.837 45.8756 148.837 44.2097C148.837 42.5439 149.606 41.1343 150.502 41.1343C151.399 41.1343 152.167 42.5439 152.167 44.2097Z" fill="#512907"/>
<path d="M103.117 41.3908C103.117 41.3908 108.496 37.8028 113.106 44.0818H116.692C116.692 44.0818 116.436 36.7776 118.101 32.8051C119.766 28.8326 126.553 28.8326 127.578 24.2194C127.578 24.2194 144.995 32.9333 155.112 26.0135C166.382 18.1966 130.267 2.17859 113.362 10.7643C99.7869 17.4278 100.299 29.0889 103.117 41.3908Z" fill="#2D1B04"/>
<path d="M127.194 40.3658C127.194 40.3658 128.731 37.034 131.932 36.137C134.75 35.3682 136.927 36.0089 137.952 36.6496C138.464 36.9059 138.592 37.4185 138.464 37.931C138.208 38.4436 137.567 38.828 137.055 38.5718C135.262 37.5466 131.42 36.6496 127.194 40.3658Z" fill="#2D1B04"/>
<path d="M156.265 36.9056C156.265 37.29 156.265 37.8026 156.265 38.187C153.064 36.6493 150.374 37.5463 148.965 38.187C148.837 38.3152 148.709 38.3152 148.581 38.3152C148.197 38.3152 147.813 38.0589 147.557 37.6745C147.429 37.1619 147.557 36.6493 148.069 36.393C149.093 35.8804 151.143 35.1116 154.088 35.7523C154.857 36.0086 155.625 36.393 156.265 36.9056Z" fill="#2D1B04"/>
<path d="M113.106 44.082C113.106 44.082 107.599 37.5466 103.117 41.391C98.1223 45.6197 102.22 59.8438 112.338 59.3312L113.106 44.082Z" fill="#C26A39"/>
<path d="M112.466 56.3837C112.082 56.3837 111.697 55.9993 111.697 55.6148C110.801 48.3106 106.318 47.2855 106.318 47.2855C105.806 47.1573 105.55 46.6447 105.678 46.2603C105.806 45.7477 106.19 45.4914 106.703 45.6196C106.959 45.6196 112.338 46.901 113.49 55.4867C113.49 55.9993 113.234 56.3837 112.722 56.5118C112.466 56.3837 112.466 56.3837 112.466 56.3837Z" fill="#44260D"/>
<path d="M106.703 51.899C106.575 51.899 106.318 51.7709 106.19 51.6427C105.806 51.2583 105.806 50.7457 106.062 50.3613C106.19 50.2331 107.855 48.311 110.801 48.9517C111.313 49.0798 111.569 49.4643 111.441 49.9768C111.313 50.4894 110.801 50.7457 110.417 50.6176C108.496 50.2331 107.471 51.3864 107.343 51.5146C107.215 51.7709 106.959 51.899 106.703 51.899Z" fill="#44260D"/>
<path d="M143.458 62.4067C140.128 62.1504 135.902 60.9971 132.444 57.1527C132.06 56.7683 132.188 56.2557 132.572 55.8713C132.957 55.4868 133.469 55.615 133.853 55.9994C139.744 62.6629 148.965 60.1001 148.965 60.1001C149.477 59.9719 149.99 60.2282 150.118 60.7408C150.246 61.2534 149.99 61.7659 149.477 61.8941C149.221 61.8941 146.66 62.5348 143.458 62.4067Z" fill="#44260D"/>
<path d="M140.385 66.7636C136.287 66.5073 134.237 63.8162 134.109 63.6881C133.853 63.3037 133.853 62.7911 134.237 62.4066C134.622 62.1504 135.134 62.1504 135.518 62.5348C135.646 62.6629 137.951 65.6103 142.69 64.7132C143.202 64.5851 143.586 64.9695 143.714 65.4821C143.843 65.9947 143.458 66.3791 142.946 66.5073C142.05 66.7636 141.153 66.7636 140.385 66.7636Z" fill="#44260D"/>
<path d="M144.483 54.2051C144.227 54.2051 143.971 54.0769 143.843 53.8206C143.586 53.4362 143.586 52.9236 143.971 52.5392L146.276 50.7452L144.227 50.2326C143.843 50.1045 143.586 49.8482 143.586 49.4637L142.562 43.8254C142.434 43.3128 142.818 42.9284 143.33 42.8002C143.843 42.6721 144.227 43.0565 144.355 43.5691L145.251 48.6949L148.581 49.4637C148.965 49.5919 149.221 49.8482 149.221 50.1045C149.35 50.4889 149.221 50.7452 148.837 51.0015L144.995 53.9488C144.867 54.2051 144.739 54.2051 144.483 54.2051Z" fill="#44260D"/>
<path d="M157.674 28.7044C157.674 28.7044 156.906 29.2169 155.241 29.8577C154.6 27.8074 150.886 17.8121 142.69 17.9402C134.494 18.0684 133.213 29.9858 133.085 32.2924C118.869 31.6517 100.94 27.8074 100.94 27.8074C100.556 5.63836 123.992 -4.10063 141.409 1.66588C160.62 7.94496 157.674 28.7044 157.674 28.7044Z" fill="#FF0000"/>
<path d="M134.109 26.7823C134.109 26.7823 142.434 29.217 154.088 25.8853C155.112 26.7823 155.497 28.5763 155.368 29.8577C155.368 29.8577 152.039 33.4458 133.213 32.2925C133.085 32.1643 131.932 29.4733 134.109 26.7823Z" fill="#FF0000"/>
</g>
<defs>
<clipPath id="clip0">
<rect width="153.937" height="466.318" fill="white" transform="translate(54.9634)"/>
</clipPath>
</defs>
</svg>
