<svg width="266" height="608" viewBox="0 0 266 608" fill="none" xmlns="http://www.w3.org/2000/svg">
<path d="M121.228 607.835C180.347 607.835 228.273 601.026 228.273 592.626C228.273 584.227 180.347 577.418 121.228 577.418C62.1087 577.418 14.1831 584.227 14.1831 592.626C14.1831 601.026 62.1087 607.835 121.228 607.835Z" fill="#234271"/>
<path opacity="0.1" d="M264.959 425.481C256.54 549.364 100.168 599.569 22.8628 502.288C7.08523 482.418 3.28362 434.511 7.39524 409.245C23.8744 307.384 76.1507 296.984 37.1229 232.548C-1.90486 168.113 -5.54333 51.157 102.224 52.0046C209.99 52.8522 140.517 225.001 214.804 273.137C248.708 295.207 269.348 360.963 264.959 425.481Z" fill="#32324C"/>
<path opacity="0.1" d="M224.12 245.344C220.93 246.442 217.478 246.532 214.235 245.602C210.992 244.671 208.114 242.766 205.993 240.145C198.977 231.652 187.784 214.52 191.113 194.503C195.812 166.108 232.017 188.814 234.856 220.845C236.292 236.868 230.369 243.111 224.12 245.344Z" fill="#32324C"/>
<path opacity="0.1" d="M185.614 170.411C183.948 169.843 182.497 168.777 181.458 167.357C180.419 165.936 179.842 164.231 179.806 162.473C179.626 156.735 180.491 146.172 188.241 138.935C199.32 128.698 206.955 149.628 197.884 163.744C193.348 170.802 188.926 171.487 185.614 170.411Z" fill="#32324C"/>
<path opacity="0.1" d="M8.08043 309.65C6.33796 309.399 4.71581 308.615 3.4364 307.407C2.15699 306.199 1.28293 304.625 0.934034 302.901C-0.289663 297.294 -1.36651 286.682 4.96408 278.222C13.9868 266.16 25.2938 285.346 18.9305 300.864C15.7489 308.639 11.5231 310.106 8.08043 309.65Z" fill="#32324C"/>
<path d="M174.048 137.866C168.784 119.021 145.269 105.466 120.175 107.119C102.627 108.276 83.1479 112.078 69.6357 122.327C39.1017 145.305 49.8061 257.549 80.1647 270.443C110.348 283.337 157.026 283.337 170.89 265.318C181.77 250.936 187.034 183.822 174.048 137.866Z" fill="#C41212"/>
<path d="M168.433 158.364C163.519 132.576 125.264 116.872 95.6072 129.105C90.5182 131.254 86.1312 133.899 82.9725 137.205C64.8977 156.381 65.2486 239.861 90.5182 255.234C110.348 267.302 132.634 267.137 151.937 255.896C161.589 250.275 167.555 241.845 168.784 232.587C172.469 206.799 172.995 181.838 168.433 158.364Z" fill="#D03E3E"/>
<path d="M68.4072 315.406C68.4072 294.247 73.8472 280.031 73.8472 280.031C109.997 277.882 166.853 280.031 166.853 280.031C166.853 280.196 167.029 280.361 167.029 280.692C167.029 280.692 172.82 300.033 169.486 315.572C134.564 335.904 100.521 334.582 68.4072 315.406Z" fill="#2C2C2C"/>
<path d="M170.363 311.439C170.363 311.439 178.084 411.285 177.207 436.081L184.226 566.839L161.062 565.516C155.973 505.51 147.375 475.589 147.726 436.907L127.896 320.696C127.896 320.696 147.199 311.935 170.363 311.439Z" fill="#2C2C2C"/>
<path d="M160.185 564.69C160.887 556.094 168.959 551.465 177.382 553.614C185.454 555.763 186.507 568.492 186.507 568.492C186.507 568.492 196.51 576.757 198.616 591.635C198.616 591.965 198.791 592.296 198.791 592.627C199.142 595.437 197.036 597.916 194.229 598.247C179.839 600.561 165.8 600.727 152.288 598.412C149.48 597.916 147.55 595.437 147.901 592.627C147.901 592.461 147.901 592.461 147.901 592.296C148.778 585.849 150.709 573.782 159.132 569.318L160.185 564.69Z" fill="#F5C142"/>
<path d="M163.519 574.443L162.817 572.79C163.344 572.624 175.276 567.665 184.051 573.12L182.998 574.608C175.101 569.814 163.519 574.443 163.519 574.443Z" fill="white"/>
<path d="M164.923 574.278C164.747 575.269 163.694 576.096 162.642 575.931C161.589 575.765 160.711 574.774 160.887 573.782C161.062 572.79 162.115 571.963 163.168 572.129C164.396 572.294 165.098 573.286 164.923 574.278Z" fill="white"/>
<path d="M185.63 573.782C185.454 574.773 184.401 575.6 183.349 575.435C182.296 575.269 181.418 574.277 181.594 573.286C181.769 572.294 182.822 571.467 183.875 571.632C184.928 571.798 185.805 572.79 185.63 573.782Z" fill="white"/>
<path d="M163.694 569.649L162.992 567.996C163.519 567.83 175.452 562.871 184.226 568.326L183.173 569.814C175.276 565.02 163.87 569.649 163.694 569.649Z" fill="white"/>
<path d="M165.098 569.484C164.923 570.475 163.87 571.302 162.817 571.137C161.764 570.971 160.887 569.98 161.062 568.988C161.238 567.996 162.291 567.169 163.344 567.335C164.572 567.335 165.274 568.326 165.098 569.484Z" fill="white"/>
<path d="M185.805 568.988C185.63 569.979 184.577 570.806 183.524 570.641C182.471 570.475 181.594 569.484 181.769 568.492C181.945 567.5 182.998 566.673 184.051 566.839C185.279 567.004 185.981 567.996 185.805 568.988Z" fill="white"/>
<path d="M163.519 579.402L162.817 577.749C163.344 577.584 175.276 572.624 184.051 578.08L182.998 579.568C175.101 574.608 163.519 579.237 163.519 579.402Z" fill="white"/>
<path d="M164.923 579.071C164.747 580.063 163.694 580.89 162.642 580.725C161.589 580.559 160.711 579.567 160.887 578.576C161.062 577.584 162.115 576.757 163.168 576.923C164.396 577.088 165.098 578.08 164.923 579.071Z" fill="white"/>
<path d="M185.63 578.741C185.454 579.733 184.401 580.559 183.349 580.394C182.296 580.229 181.418 579.237 181.594 578.245C181.769 577.253 182.822 576.427 183.875 576.592C184.928 576.592 185.805 577.584 185.63 578.741Z" fill="white"/>
<path d="M178.611 559.069C178.611 559.069 172.469 557.085 167.204 559.565C166.678 560.557 166.678 562.045 167.204 563.532C167.204 563.532 174.223 562.541 178.786 563.202C178.611 563.202 179.488 560.722 178.611 559.069Z" fill="white"/>
<path d="M194.229 598.082C179.839 600.396 165.8 600.561 152.288 598.247C149.48 597.751 147.55 595.272 147.901 592.461C147.901 592.296 147.901 592.296 147.901 592.131C156.324 594.445 176.154 597.916 198.791 591.304C198.791 591.635 198.967 591.965 198.967 592.296C199.142 595.106 197.036 597.586 194.229 598.082Z" fill="#D28F00"/>
<path d="M68.5827 311.439C68.5827 311.439 60.8614 411.285 61.7388 436.081L54.7195 566.839L77.8833 565.516C82.9723 505.51 91.571 475.589 91.22 436.907L111.05 320.696C111.05 320.696 91.7465 311.935 68.5827 311.439Z" fill="#2C2C2C"/>
<path d="M78.7608 564.69C78.0589 556.094 69.9866 551.465 61.5634 553.614C53.4912 555.763 52.4383 568.492 52.4383 568.492C52.4383 568.492 42.4358 576.757 40.33 591.635C40.33 591.965 40.1545 592.296 40.1545 592.627C39.8035 595.437 41.9093 597.916 44.717 598.247C59.1067 600.561 73.1453 600.727 86.6576 598.412C89.4653 597.916 91.3956 595.437 91.0446 592.627C91.0446 592.461 91.0446 592.461 91.0446 592.296C90.1672 585.849 88.2369 573.782 79.8137 569.318L78.7608 564.69Z" fill="#F5C142"/>
<path d="M75.4266 574.443L76.1285 572.79C75.6021 572.624 63.6692 567.665 54.895 573.12L55.9479 574.608C63.8447 569.814 75.4266 574.443 75.4266 574.443Z" fill="white"/>
<path d="M74.0228 574.278C74.1983 575.269 75.2512 576.096 76.3041 575.931C77.357 575.765 78.2344 574.774 78.0589 573.782C77.8834 572.79 76.8305 571.963 75.7776 572.129C74.5492 572.294 73.8473 573.286 74.0228 574.278Z" fill="white"/>
<path d="M53.3157 573.782C53.4912 574.773 54.5441 575.6 55.597 575.435C56.6499 575.269 57.5273 574.277 57.3518 573.286C57.1763 572.294 56.1234 571.467 55.0705 571.632C54.0176 571.798 53.1402 572.79 53.3157 573.782Z" fill="white"/>
<path d="M75.2513 569.649L75.9532 567.996C75.4268 567.83 63.4939 562.871 54.7197 568.326L55.7726 569.814C63.6694 565.02 75.0758 569.649 75.2513 569.649Z" fill="white"/>
<path d="M73.8473 569.484C74.0228 570.475 75.0757 571.302 76.1286 571.137C77.1814 570.971 78.0589 569.98 77.8834 568.988C77.7079 567.996 76.655 567.169 75.6021 567.335C74.3737 567.335 73.4963 568.326 73.8473 569.484Z" fill="white"/>
<path d="M53.1402 568.988C53.3157 569.979 54.3686 570.806 55.4215 570.641C56.4744 570.475 57.3518 569.484 57.1763 568.492C57.0009 567.5 55.948 566.673 54.895 566.839C53.6667 567.004 52.9647 567.996 53.1402 568.988Z" fill="white"/>
<path d="M75.4266 579.402L76.1285 577.749C75.6021 577.584 63.6692 572.624 54.895 578.08L55.9479 579.568C63.8447 574.608 75.4266 579.237 75.4266 579.402Z" fill="white"/>
<path d="M74.0228 579.071C74.1983 580.063 75.2512 580.89 76.3041 580.725C77.357 580.559 78.2344 579.567 78.0589 578.576C77.8834 577.584 76.8305 576.757 75.7776 576.923C74.5492 577.088 73.8473 578.08 74.0228 579.071Z" fill="white"/>
<path d="M53.3157 578.741C53.4912 579.733 54.5441 580.559 55.597 580.394C56.6499 580.229 57.5273 579.237 57.3518 578.245C57.1763 577.253 56.1234 576.427 55.0705 576.592C54.0176 576.592 53.1402 577.584 53.3157 578.741Z" fill="white"/>
<path d="M60.3349 559.069C60.3349 559.069 66.4768 557.085 71.7413 559.565C72.2677 560.557 72.2677 562.045 71.7413 563.532C71.7413 563.532 64.7219 562.541 60.1594 563.202C60.1594 563.202 59.4574 560.722 60.3349 559.069Z" fill="white"/>
<path d="M44.717 598.082C59.1066 600.396 73.1453 600.561 86.6575 598.247C89.4652 597.751 91.3956 595.272 91.0446 592.461C91.0446 592.296 91.0446 592.296 91.0446 592.131C82.6214 594.445 62.7918 597.916 40.1544 591.304C40.1544 591.635 39.979 591.965 39.979 592.296C39.8035 595.106 41.9093 597.586 44.717 598.082Z" fill="#D28F00"/>
<path d="M171.592 288.461C153.517 297.388 137.899 302.182 120.175 302.016C102.627 302.182 87.3597 297.388 69.4604 288.461L73.672 205.808L73.1456 109.268L107.014 100.672C111.401 99.515 115.788 99.019 120.175 99.019C124.562 99.019 128.949 99.515 133.336 100.672L167.205 109.268L166.678 205.808L171.592 288.461Z" fill="white"/>
<path d="M40.3298 288.461C40.3298 288.461 42.2601 294.743 44.5414 299.371C46.8227 304 45.2433 307.471 46.6472 311.604C48.0511 315.737 42.7866 315.406 41.7337 311.108C40.6808 306.81 41.2072 304.661 40.1543 304.661C39.2769 304.496 36.4692 315.076 36.1182 318.051C35.7672 321.027 36.4692 328.631 35.2408 329.788C34.0124 330.945 31.2047 326.647 32.0821 318.878C32.9595 310.943 32.2576 311.108 32.2576 311.108C32.2576 311.108 31.3802 314.084 30.5027 317.39C29.6253 320.696 29.6253 324.663 29.8008 326.978C29.9763 329.292 27.5195 330.284 26.8176 329.127C26.1157 327.97 24.8873 320.035 25.9402 317.059C26.9931 313.918 28.046 308.794 28.046 308.794C28.046 308.794 24.8873 315.902 24.3608 317.72C23.8344 319.539 24.7118 326.482 22.957 327.804C22.255 328.3 19.9738 327.639 20.3247 317.72C20.3247 317.72 21.0266 312.927 22.255 309.951C22.255 309.951 20.5002 312.265 19.6228 315.241C18.9209 317.886 18.3944 320.696 18.2189 323.341C18.0434 325.986 15.5867 325.655 15.5867 320.861C15.5867 316.067 16.4641 310.943 17.868 308.463C19.2718 305.984 21.3776 291.271 25.5892 285.816L40.3298 288.461Z" fill="#994517"/>
<path d="M87.5347 130.758C87.5347 130.758 75.6018 183.16 65.4238 201.344C65.4238 201.344 59.8083 226.802 40.6806 289.453C40.6806 289.453 30.6781 293.255 24.7117 285.982C24.7117 285.982 34.0123 217.214 39.6277 195.228C39.6277 195.228 64.7218 119.187 73.145 109.433C73.145 109.268 86.1308 114.227 87.5347 130.758Z" fill="white"/>
<path d="M200.546 288.461C200.546 288.461 198.616 294.743 196.334 299.371C194.053 304 195.632 307.471 194.229 311.604C192.825 315.737 198.089 315.406 199.142 311.108C200.195 306.81 199.669 304.661 200.721 304.661C201.599 304.496 204.407 315.076 204.758 318.051C205.108 321.027 204.407 328.631 205.635 329.788C206.863 330.945 209.671 326.647 208.794 318.878C207.916 310.943 208.618 311.108 208.618 311.108C208.618 311.108 209.496 314.249 210.197 317.39C211.075 320.696 211.075 324.663 210.899 326.978C210.724 329.292 213.181 330.284 213.883 329.127C214.585 327.97 215.813 320.035 214.76 317.059C213.707 313.918 212.654 308.794 212.654 308.794C212.654 308.794 215.813 315.902 216.339 317.72C216.866 319.539 215.988 326.482 217.743 327.804C218.445 328.3 220.726 327.639 220.376 317.72C220.376 317.72 219.674 312.927 218.445 309.951C218.445 309.951 220.2 312.265 221.077 315.241C221.779 317.886 222.306 320.696 222.481 323.341C222.657 325.986 225.114 325.655 225.114 320.861C225.114 316.067 224.236 310.943 222.832 308.463C221.428 305.984 219.323 291.271 215.111 285.816L200.546 288.461Z" fill="#994517"/>
<path d="M153.341 130.758C153.341 130.758 165.274 183.16 175.452 201.344C175.452 201.344 181.067 226.802 200.195 289.453C200.195 289.453 210.198 293.255 216.164 285.982C216.164 285.982 206.864 217.214 201.248 195.228C201.248 195.228 175.627 119.187 167.204 109.433C167.204 109.268 154.569 114.227 153.341 130.758Z" fill="white"/>
<path d="M133.863 86.9517L133.337 94.8864L132.81 104.97C132.81 104.97 130.704 108.772 121.228 108.772C111.752 108.772 109.646 106.127 109.646 106.127L109.296 101.664L108.067 86.7864H133.863V86.9517Z" fill="#994517"/>
<path d="M133.863 86.9517L133.336 94.8864C129.3 97.6967 119.999 103.152 109.12 101.664L107.891 86.7864H133.863V86.9517Z" fill="#592F2A"/>
<path d="M91.5711 50.4188C91.5711 50.4188 84.2008 43.6412 78.4099 48.1045C71.566 53.3943 78.7609 72.074 91.0447 70.0903L91.5711 50.4188Z" fill="#994517"/>
<path d="M87.3594 65.4616C86.833 65.4616 86.3065 64.9657 86.131 64.4698C85.4291 55.2126 79.6381 53.7248 79.4627 53.5595C78.7607 53.3942 78.4098 52.733 78.5852 52.2371C78.7607 51.5758 79.4627 51.2452 79.9891 51.4105C80.3401 51.4105 87.5349 53.3942 88.5878 64.3045C88.7633 64.8004 88.2368 65.2963 87.3594 65.4616C87.3594 65.4616 87.5349 65.4616 87.3594 65.4616Z" fill="#36200D"/>
<path d="M80.5154 60.6679C80.1645 60.6679 79.989 60.5025 79.638 60.3372C79.1116 59.8413 79.1116 59.1801 79.638 58.6842C79.8135 58.5189 82.2703 56.2046 86.1309 57.1964C86.8328 57.3617 87.1838 58.0229 87.0083 58.5189C86.8328 59.1801 86.1309 59.5107 85.6044 59.3454C82.9722 58.6842 81.3928 60.1719 81.3928 60.3372C81.2174 60.6679 80.8664 60.6679 80.5154 60.6679Z" fill="#36200D"/>
<path d="M147.55 50.4188C147.55 50.4188 154.921 43.6412 160.712 48.1045C167.555 53.229 160.361 72.074 148.077 70.0903L147.55 50.4188Z" fill="#994517"/>
<path d="M151.762 65.4616C152.288 65.4616 152.815 64.9657 152.99 64.4698C153.692 55.2126 159.483 53.7248 159.659 53.5595C160.361 53.3942 160.711 52.733 160.536 52.2371C160.361 51.5758 159.659 51.2452 159.132 51.4105C158.781 51.4105 151.586 53.3942 150.533 64.3045C150.533 64.8004 151.06 65.2963 151.762 65.4616Z" fill="#36200D"/>
<path d="M158.606 60.6679C158.957 60.6679 159.132 60.5025 159.483 60.3372C160.01 59.8413 160.01 59.1801 159.483 58.6842C159.308 58.5189 156.851 56.2046 152.99 57.1964C152.288 57.3617 151.937 58.0229 152.113 58.5189C152.288 59.1801 152.99 59.5107 153.517 59.3454C156.149 58.6842 157.728 60.1719 157.728 60.3372C158.079 60.6679 158.43 60.6679 158.606 60.6679Z" fill="#36200D"/>
<path d="M119.999 94.7211C94.7298 94.7211 86.833 66.4536 84.5517 45.7902C82.446 26.7799 98.064 9.91851 118.595 9.58789C118.946 9.58789 119.122 9.58789 119.473 9.58789C119.824 9.58789 120.175 9.58789 120.526 9.58789C140.531 9.91851 156.149 26.2839 154.394 45.129C152.464 66.123 145.269 94.7211 119.999 94.7211Z" fill="#994517"/>
<path d="M148.428 20.4981C148.428 20.4981 158.781 31.4084 153.692 51.4105L152.113 51.2452C152.815 44.9636 149.656 39.0125 148.954 36.8635C147.199 31.739 139.478 28.7634 139.829 23.3083C139.829 23.3083 110.874 31.9043 95.2562 23.4736C95.2562 23.4736 95.0807 30.9124 90.6937 35.2104C88.5879 37.3594 86.3066 45.2942 87.184 52.2371L85.6046 53.0636C83.6743 45.9554 83.8498 38.6819 84.3763 34.8798C85.4292 26.7798 87.3595 22.9777 87.3595 22.9777C87.3595 22.9777 93.6769 6.94289 118.946 6.94289C142.286 6.77758 148.428 20.4981 148.428 20.4981Z" fill="#070707"/>
<path d="M109.119 49.0963C109.119 51.4106 108.066 53.3943 106.663 53.3943C105.259 53.3943 104.206 51.4106 104.206 49.0963C104.206 46.782 105.259 44.7983 106.663 44.7983C108.066 44.7983 109.119 46.782 109.119 49.0963Z" fill="#231E12"/>
<path d="M95.783 42.484C95.783 42.484 98.2397 37.8554 102.802 36.6982C107.189 35.5411 110.173 36.6982 111.752 37.5248C112.454 37.8554 112.629 38.6819 112.454 39.3431C112.103 40.1697 111.225 40.5003 110.348 40.1697C107.716 38.8472 102.1 37.3594 95.783 42.484Z" fill="black"/>
<path d="M131.757 49.0963C131.757 51.4106 132.81 53.3943 134.214 53.3943C135.617 53.3943 136.67 51.4106 136.67 49.0963C136.67 46.782 135.617 44.7983 134.214 44.7983C132.81 44.7983 131.757 46.782 131.757 49.0963Z" fill="#231E12"/>
<path d="M144.743 42.484C144.743 42.484 142.286 37.8554 137.723 36.6982C133.336 35.5411 130.353 36.6982 128.774 37.5248C128.072 37.8554 127.896 38.6819 128.072 39.3431C128.423 40.1697 129.3 40.5003 130.177 40.1697C132.81 38.8472 138.425 37.3594 144.743 42.484Z" fill="black"/>
<path d="M120 67.131C119.649 67.131 119.298 66.9657 118.947 66.4698C118.596 65.8086 118.771 65.1473 119.298 64.8167L123.158 62.6677L120.351 61.5106C119.824 61.3453 119.473 60.8493 119.473 60.3534L118.947 52.2534C118.947 51.5921 119.473 50.9309 120.175 50.9309C120.877 50.9309 121.579 51.4268 121.579 52.0881L122.105 59.3616L126.843 61.0146C127.37 61.18 127.721 61.5106 127.721 62.0065C127.721 62.5024 127.545 62.9983 127.019 63.1636L120.877 66.9657C120.526 66.9657 120.351 67.131 120 67.131Z" fill="#36200D"/>
<path d="M125.615 75.5455C120.701 76.5374 114.209 76.3721 107.891 72.57C107.365 72.2394 107.189 71.4128 107.54 70.9169C107.891 70.421 108.769 70.2557 109.295 70.5863C120.351 77.3639 132.459 70.7516 132.634 70.5863C133.336 70.2557 134.038 70.421 134.389 71.0822C134.74 71.7435 134.565 72.4047 133.863 72.7353C133.863 72.7353 130.529 74.719 125.615 75.5455Z" fill="#36200D"/>
<path d="M121.228 82.1577C118.947 82.1577 116.49 81.8271 113.858 80.3393C113.331 80.174 113.331 79.5128 113.507 79.1822C113.682 78.6862 114.384 78.6862 114.735 78.8516C120.877 82.323 127.019 79.0169 127.194 78.8516C127.721 78.6862 128.247 78.6862 128.423 79.1822C128.774 79.6781 128.598 80.174 128.072 80.3393C128.072 80.5046 125.088 82.1577 121.228 82.1577Z" fill="#36200D"/>
<path d="M117.543 0C82.9725 0 84.3763 36.037 84.3763 36.037C92.624 31.739 100.521 29.2594 107.891 27.9369C115.963 26.6145 123.334 26.6145 129.826 27.441C144.743 29.2594 154.394 34.7145 154.394 34.7145C154.394 34.7145 152.288 0 117.543 0ZM106.838 22.1512C106.838 22.1512 108.242 14.0511 118.947 14.0511C129.476 14.0511 131.932 21.8206 131.932 21.8206L106.838 22.1512Z" fill="#FF0000"/>
<path d="M131.757 21.8205L130.002 27.441C123.509 26.6144 116.139 26.6144 108.067 27.9369L106.838 22.1511C106.838 22.1511 118.069 19.3409 131.757 21.8205Z" fill="#FF0000"/>
<path d="M73.1454 109.268C73.1454 109.268 84.7273 117.368 84.5518 141.999C84.3763 166.63 73.1454 200.683 73.1454 200.683C71.566 207.626 71.0396 221.016 72.7944 226.471C72.7944 226.471 93.3259 191.095 95.7827 163.158C98.7659 128.94 95.7827 117.037 81.0421 107.45C81.0421 107.284 77.1815 105.466 73.1454 109.268Z" fill="#9E0000"/>
<path d="M166.853 109.268C166.853 109.268 155.272 117.368 155.447 141.999C155.623 166.464 166.853 200.683 166.853 200.683C168.433 207.626 169.837 221.016 167.906 226.471C167.906 226.471 146.497 191.095 144.216 163.158C141.233 128.94 142.11 116.376 156.851 106.788C156.675 106.623 162.817 105.466 166.853 109.268Z" fill="#9E0000"/>
</svg>
