<svg width="160" height="471" viewBox="0 0 160 471" fill="none" xmlns="http://www.w3.org/2000/svg">
<g style="mix-blend-mode:multiply">
<path d="M80.5699 470.847C123.695 470.847 158.655 465.549 158.655 459.012C158.655 452.476 123.695 447.177 80.5699 447.177C37.4447 447.177 2.48486 452.476 2.48486 459.012C2.48486 465.549 37.4447 470.847 80.5699 470.847Z" fill="#A39C9A"/>
</g>
<path d="M42.0972 231.633C41.9402 222.332 43.294 213.068 46.1058 204.2C72.5013 202.498 113.984 204.2 113.984 204.2C113.984 204.2 114.099 204.52 114.163 204.674C115.967 213.539 116.562 222.608 115.93 231.633C90.2648 247.524 65.5214 246.475 42.0972 231.633Z" fill="#32324C"/>
<path d="M115.943 231.632C115.943 231.632 122.116 318.638 121.45 337.831L126.573 439.09L109.719 438.092C106.76 385.85 96.8477 362.179 99.9727 338.496C90.5338 307.417 85.6287 270.567 84.0406 241.254C84.0022 241.331 99.0378 231.965 115.943 231.632Z" fill="#32324C"/>
<path d="M109.066 437.286C109.54 430.632 115.469 427.05 121.566 428.662C127.662 430.274 128.213 440.177 128.213 440.177C133.04 444.996 136.146 451.269 137.049 458.026L137.165 458.794C137.274 459.812 136.99 460.832 136.371 461.648C135.752 462.464 134.845 463.013 133.835 463.183C123.705 464.98 113.339 465.006 103.2 463.26C102.193 463.083 101.294 462.526 100.688 461.704C100.082 460.882 99.8165 459.858 99.9472 458.845C99.9472 458.768 99.9472 458.692 99.9472 458.615C100.613 453.574 101.983 444.323 108.157 440.881L109.066 437.286Z" fill="#3555AF"/>
<path d="M111.422 444.95L110.885 443.735C111.256 443.581 119.99 439.833 126.368 443.991L125.638 445.104C119.862 441.329 111.499 444.912 111.422 444.95Z" fill="white"/>
<path d="M112.511 444.784C112.486 444.982 112.421 445.173 112.321 445.346C112.22 445.518 112.086 445.669 111.925 445.788C111.765 445.908 111.582 445.994 111.388 446.041C111.194 446.088 110.992 446.096 110.795 446.063C110.596 446.038 110.405 445.974 110.232 445.873C110.059 445.773 109.909 445.638 109.789 445.478C109.67 445.318 109.584 445.136 109.536 444.941C109.489 444.747 109.481 444.546 109.514 444.349C109.539 444.15 109.604 443.959 109.704 443.787C109.805 443.614 109.939 443.463 110.1 443.344C110.26 443.225 110.443 443.139 110.637 443.091C110.831 443.044 111.033 443.037 111.23 443.069C111.429 443.092 111.622 443.156 111.795 443.256C111.969 443.356 112.12 443.49 112.24 443.651C112.36 443.811 112.446 443.994 112.493 444.189C112.539 444.384 112.545 444.586 112.511 444.784Z" fill="white"/>
<path d="M127.534 444.425C127.509 444.624 127.444 444.815 127.343 444.987C127.243 445.16 127.108 445.31 126.948 445.43C126.788 445.549 126.605 445.635 126.411 445.683C126.217 445.73 126.015 445.737 125.817 445.705C125.619 445.68 125.428 445.615 125.255 445.515C125.082 445.414 124.931 445.28 124.812 445.12C124.692 444.96 124.606 444.777 124.559 444.583C124.512 444.389 124.504 444.187 124.537 443.99C124.562 443.792 124.626 443.601 124.727 443.428C124.828 443.256 124.962 443.105 125.122 442.986C125.282 442.866 125.465 442.78 125.659 442.733C125.854 442.686 126.056 442.678 126.253 442.711C126.452 442.734 126.644 442.797 126.818 442.897C126.992 442.997 127.143 443.132 127.263 443.292C127.383 443.453 127.469 443.636 127.515 443.831C127.562 444.026 127.568 444.228 127.534 444.425Z" fill="white"/>
<path d="M112.665 441.035C112.64 441.233 112.575 441.424 112.474 441.597C112.374 441.769 112.239 441.92 112.079 442.039C111.919 442.159 111.736 442.245 111.542 442.292C111.348 442.339 111.146 442.347 110.949 442.314C110.75 442.289 110.559 442.225 110.386 442.124C110.213 442.024 110.063 441.889 109.943 441.729C109.823 441.569 109.737 441.387 109.69 441.193C109.643 440.998 109.635 440.797 109.668 440.6C109.691 440.401 109.755 440.209 109.855 440.035C109.955 439.862 110.089 439.71 110.25 439.591C110.411 439.471 110.594 439.385 110.789 439.339C110.984 439.292 111.186 439.286 111.384 439.32C111.583 439.343 111.775 439.407 111.949 439.507C112.123 439.607 112.274 439.741 112.394 439.902C112.514 440.062 112.6 440.246 112.646 440.44C112.693 440.635 112.699 440.837 112.665 441.035Z" fill="white"/>
<path d="M127.739 440.677C127.712 440.874 127.646 441.064 127.545 441.236C127.444 441.408 127.31 441.558 127.15 441.677C126.99 441.796 126.808 441.882 126.614 441.93C126.421 441.978 126.22 441.987 126.023 441.956C125.824 441.931 125.633 441.867 125.46 441.766C125.287 441.666 125.137 441.531 125.017 441.371C124.897 441.211 124.811 441.029 124.764 440.834C124.717 440.64 124.709 440.439 124.742 440.242C124.767 440.043 124.831 439.852 124.932 439.68C125.033 439.507 125.167 439.357 125.327 439.237C125.488 439.118 125.67 439.032 125.865 438.984C126.059 438.937 126.261 438.93 126.458 438.962C126.657 438.985 126.849 439.049 127.023 439.149C127.197 439.249 127.348 439.383 127.468 439.544C127.588 439.704 127.674 439.888 127.72 440.082C127.767 440.277 127.773 440.479 127.739 440.677Z" fill="white"/>
<path d="M111.422 448.686L110.885 447.471C111.256 447.317 119.99 443.568 126.368 447.727L125.638 448.84C119.862 445.065 111.499 448.648 111.422 448.686Z" fill="white"/>
<path d="M112.511 448.52C112.486 448.718 112.421 448.909 112.321 449.082C112.22 449.255 112.086 449.405 111.925 449.525C111.765 449.644 111.582 449.73 111.388 449.777C111.194 449.825 110.992 449.832 110.795 449.8C110.596 449.775 110.405 449.71 110.232 449.61C110.059 449.509 109.909 449.375 109.789 449.215C109.67 449.054 109.584 448.872 109.536 448.678C109.489 448.484 109.481 448.282 109.514 448.085C109.539 447.887 109.604 447.696 109.704 447.523C109.805 447.35 109.939 447.2 110.1 447.08C110.26 446.961 110.443 446.875 110.637 446.828C110.831 446.781 111.033 446.773 111.23 446.805C111.429 446.829 111.622 446.892 111.795 446.992C111.969 447.092 112.12 447.227 112.24 447.387C112.36 447.548 112.446 447.731 112.493 447.926C112.539 448.12 112.545 448.323 112.511 448.52Z" fill="white"/>
<path d="M127.534 448.136C127.51 448.335 127.447 448.527 127.347 448.7C127.247 448.874 127.112 449.025 126.951 449.145C126.791 449.265 126.607 449.351 126.412 449.397C126.217 449.444 126.015 449.45 125.817 449.415C125.619 449.39 125.428 449.326 125.255 449.225C125.082 449.125 124.931 448.99 124.812 448.83C124.692 448.67 124.606 448.488 124.559 448.294C124.512 448.099 124.504 447.898 124.537 447.701C124.562 447.503 124.626 447.311 124.727 447.139C124.828 446.966 124.962 446.816 125.122 446.696C125.282 446.577 125.465 446.491 125.659 446.443C125.854 446.396 126.056 446.389 126.253 446.421C126.452 446.444 126.644 446.508 126.818 446.608C126.992 446.708 127.143 446.842 127.263 447.003C127.383 447.163 127.469 447.347 127.515 447.541C127.562 447.736 127.568 447.938 127.534 448.136Z" fill="white"/>
<path d="M122.424 432.961C119.697 432.081 116.746 432.199 114.099 433.294C113.732 434.28 113.732 435.365 114.099 436.352C116.89 435.899 119.73 435.834 122.539 436.16C122.88 435.113 122.839 433.98 122.424 432.961Z" fill="white"/>
<path d="M133.835 463.195C123.705 464.993 113.339 465.018 103.2 463.272C102.193 463.096 101.294 462.539 100.688 461.717C100.082 460.895 99.8165 459.871 99.9472 458.858C99.9472 458.781 99.9472 458.704 99.9472 458.628C112.134 461.941 125.012 461.737 137.088 458.039L137.203 458.807C137.311 459.83 137.022 460.856 136.395 461.672C135.768 462.489 134.852 463.034 133.835 463.195Z" fill="#3986D7"/>
<path d="M42.0973 231.632C42.0973 231.632 36.5006 318.638 37.1666 337.831L32.0437 439.09L48.8979 438.092C49.9225 398.53 63.1522 366.658 58.6441 338.496C67.0456 311.281 71.4512 273.805 73.0778 241.254C73.1162 241.331 58.9899 231.965 42.0973 231.632Z" fill="#32324C"/>
<path d="M49.6153 437.286C49.1414 430.632 43.2117 427.05 37.1155 428.662C31.0193 430.274 30.4558 440.177 30.4558 440.177C25.6343 444.999 22.5337 451.271 21.6317 458.026C21.5798 458.28 21.5414 458.536 21.5164 458.794C21.4076 459.812 21.6915 460.832 22.3103 461.648C22.9291 462.464 23.8362 463.013 24.8463 463.183C34.9764 464.98 45.3419 465.006 55.481 463.26C56.4876 463.083 57.3876 462.526 57.9935 461.704C58.5994 460.882 58.8647 459.858 58.734 458.845C58.734 458.768 58.734 458.692 58.734 458.615C58.068 453.574 56.6976 444.323 50.5118 440.881L49.6153 437.286Z" fill="#3555AF"/>
<path d="M47.1947 444.95L47.7326 443.735C47.3612 443.581 38.6139 439.833 32.2488 443.991L32.9788 445.104C38.7548 441.329 47.1178 444.912 47.1947 444.95Z" fill="white"/>
<path d="M46.1059 444.784C46.1291 444.983 46.1927 445.175 46.2928 445.348C46.3928 445.522 46.5273 445.673 46.688 445.793C46.8487 445.913 47.0321 445.998 47.2271 446.045C47.4221 446.091 47.6246 446.098 47.8221 446.063C48.0205 446.038 48.2118 445.974 48.3846 445.873C48.5574 445.773 48.7081 445.638 48.8276 445.478C48.9472 445.318 49.0332 445.136 49.0805 444.942C49.1278 444.747 49.1354 444.546 49.1028 444.349C49.0779 444.15 49.0132 443.959 48.9126 443.787C48.812 443.614 48.6775 443.463 48.5173 443.344C48.357 443.225 48.1743 443.139 47.98 443.091C47.7857 443.044 47.5839 443.037 47.3866 443.069C47.1875 443.092 46.9952 443.156 46.8215 443.256C46.6478 443.356 46.4964 443.49 46.3765 443.651C46.2566 443.811 46.1707 443.995 46.1242 444.189C46.0777 444.384 46.0714 444.586 46.1059 444.784Z" fill="white"/>
<path d="M31.0832 444.425C31.1081 444.624 31.1728 444.815 31.2735 444.987C31.3741 445.16 31.5085 445.311 31.6688 445.43C31.829 445.55 32.0118 445.635 32.206 445.683C32.4003 445.73 32.6021 445.737 32.7994 445.705C32.9963 445.677 33.1858 445.61 33.3568 445.508C33.5279 445.407 33.6772 445.273 33.7962 445.113C33.9151 444.954 34.0015 444.773 34.0502 444.58C34.0989 444.387 34.1091 444.187 34.0801 443.99C34.0536 443.792 33.9874 443.6 33.8855 443.428C33.7836 443.255 33.6479 443.104 33.4867 442.985C33.3254 442.866 33.1418 442.78 32.9468 442.733C32.7517 442.686 32.5492 442.678 32.3511 442.711C32.1531 442.736 31.9622 442.8 31.79 442.901C31.6178 443.002 31.4679 443.136 31.3493 443.297C31.2307 443.457 31.146 443.64 31.1002 443.834C31.0545 444.028 31.0487 444.229 31.0832 444.425Z" fill="white"/>
<path d="M47.0538 441.201L47.5917 439.985C47.2203 439.832 38.4859 436.083 32.1079 440.241L32.8379 441.355C38.6011 437.58 46.9642 441.163 47.0538 441.201Z" fill="white"/>
<path d="M45.9523 441.035C45.9773 441.233 46.042 441.424 46.1426 441.597C46.2432 441.769 46.3776 441.92 46.5379 442.039C46.6981 442.159 46.8808 442.245 47.0751 442.292C47.2694 442.339 47.4712 442.347 47.6685 442.314C47.8669 442.289 48.0582 442.225 48.231 442.124C48.4038 442.024 48.5545 441.889 48.6741 441.729C48.7937 441.569 48.8797 441.387 48.927 441.192C48.9742 440.998 48.9818 440.797 48.9492 440.6C48.9243 440.401 48.8596 440.21 48.759 440.038C48.6584 439.865 48.5239 439.715 48.3637 439.595C48.2035 439.476 48.0207 439.39 47.8264 439.342C47.6322 439.295 47.4303 439.288 47.2331 439.32C47.0339 439.343 46.8416 439.407 46.6679 439.507C46.4942 439.607 46.3428 439.741 46.2229 439.902C46.103 440.062 46.0171 440.246 45.9706 440.44C45.9241 440.635 45.9179 440.837 45.9523 441.035Z" fill="white"/>
<path d="M30.9296 440.677C30.9545 440.875 31.0192 441.066 31.1198 441.239C31.2205 441.411 31.3549 441.562 31.5152 441.681C31.6754 441.801 31.8581 441.887 32.0524 441.934C32.2467 441.981 32.4485 441.989 32.6458 441.956C32.8435 441.93 33.0338 441.864 33.2057 441.763C33.3776 441.662 33.5276 441.528 33.6469 441.368C33.7662 441.208 33.8523 441.026 33.9004 440.833C33.9484 440.64 33.9573 440.439 33.9265 440.242C33.9016 440.044 33.8369 439.852 33.7363 439.68C33.6357 439.507 33.5012 439.357 33.341 439.237C33.1807 439.118 32.998 439.032 32.8037 438.984C32.6095 438.937 32.4076 438.93 32.2104 438.962C32.0112 438.985 31.8189 439.049 31.6452 439.149C31.4715 439.249 31.3201 439.383 31.2002 439.544C31.0803 439.704 30.9944 439.888 30.9479 440.082C30.9014 440.277 30.8952 440.479 30.9296 440.677Z" fill="white"/>
<path d="M47.1947 448.686L47.7326 447.471C47.3612 447.317 38.6139 443.568 32.2488 447.727L32.9788 448.84C38.7548 445.065 47.1178 448.648 47.1947 448.686Z" fill="white"/>
<path d="M46.1059 448.52C46.1291 448.719 46.1927 448.911 46.2928 449.085C46.3928 449.258 46.5273 449.41 46.688 449.529C46.8487 449.649 47.0321 449.735 47.2271 449.781C47.4221 449.828 47.6246 449.834 47.8221 449.8C48.0205 449.775 48.2118 449.71 48.3846 449.61C48.5574 449.509 48.7081 449.375 48.8276 449.215C48.9472 449.054 49.0332 448.872 49.0805 448.678C49.1278 448.484 49.1354 448.282 49.1028 448.085C49.0779 447.887 49.0132 447.696 48.9126 447.523C48.812 447.35 48.6775 447.2 48.5173 447.08C48.357 446.961 48.1743 446.875 47.98 446.828C47.7857 446.781 47.5839 446.773 47.3866 446.805C47.1875 446.829 46.9952 446.892 46.8215 446.992C46.6478 447.092 46.4964 447.227 46.3765 447.387C46.2566 447.548 46.1707 447.731 46.1242 447.926C46.0777 448.12 46.0714 448.323 46.1059 448.52Z" fill="white"/>
<path d="M31.0832 448.136C31.1064 448.335 31.17 448.527 31.2701 448.7C31.3701 448.874 31.5046 449.025 31.6653 449.145C31.826 449.265 32.0094 449.351 32.2044 449.397C32.3995 449.444 32.6019 449.45 32.7994 449.415C32.9963 449.387 33.1858 449.32 33.3568 449.219C33.5279 449.117 33.6772 448.983 33.7962 448.824C33.9151 448.664 34.0015 448.483 34.0502 448.291C34.0989 448.098 34.1091 447.897 34.0801 447.701C34.0536 447.502 33.9874 447.311 33.8855 447.138C33.7836 446.965 33.6479 446.815 33.4867 446.695C33.3254 446.576 33.1418 446.49 32.9468 446.443C32.7517 446.396 32.5492 446.389 32.3511 446.421C32.1531 446.446 31.9622 446.511 31.79 446.611C31.6178 446.712 31.4679 446.847 31.3493 447.007C31.2307 447.167 31.146 447.35 31.1002 447.544C31.0545 447.738 31.0487 447.939 31.0832 448.136Z" fill="white"/>
<path d="M36.1933 432.961C38.9153 432.081 41.8623 432.199 44.5051 433.294C44.8791 434.279 44.8791 435.367 44.5051 436.352C41.7142 435.899 38.8739 435.834 36.0652 436.16C35.7283 435.112 35.7736 433.979 36.1933 432.961Z" fill="white"/>
<path d="M24.7821 463.195C34.9122 464.993 45.2777 465.018 55.4167 463.272C56.4234 463.096 57.3234 462.539 57.9293 461.717C58.5352 460.895 58.8004 459.871 58.6697 458.858C58.6697 458.781 58.6697 458.704 58.6697 458.628C46.5026 461.928 33.6492 461.724 21.5931 458.039C21.5412 458.293 21.5028 458.549 21.4778 458.807C21.3683 459.821 21.6487 460.838 22.2623 461.653C22.8758 462.468 23.7767 463.019 24.7821 463.195Z" fill="#3986D7"/>
<path d="M106.902 154.428L115.201 205.249C115.201 205.249 98.3848 213.796 79.1357 213.796C58.6443 213.796 44.7742 205.249 44.7742 205.249L53.0732 154.428L51.9846 132.331C45.3121 127.315 47.6045 113.727 47.6045 113.727L44.787 93.2549L71.08 82.0977L87.9726 81.9058L115.354 92.1417L112.37 113.727C112.37 113.727 115.201 126.292 108.759 132.164L106.902 154.428Z" fill="#E63067"/>
<path d="M103.405 134.352C103.405 134.352 84.8347 147.467 58.1062 135.158C58.1062 135.158 83.0801 141.875 103.405 134.352Z" fill="#C11C57"/>
<path d="M17.9814 235.74C18.8469 238.599 19.8775 241.406 21.0679 244.146C22.7073 247.69 21.5802 250.416 22.5664 253.614C23.5525 256.813 19.7104 256.57 18.9804 253.218C18.2504 249.865 18.5577 248.292 17.8533 248.176C17.1489 248.061 15.151 256.237 14.8693 258.579C14.5875 260.92 15.0614 266.793 14.1777 267.714C13.294 268.636 11.1808 265.322 11.8596 259.219C12.5384 253.115 12.0389 253.231 12.0389 253.231C12.0389 253.231 11.4498 255.61 10.8478 258.157C10.3493 260.592 10.1813 263.084 10.3484 265.565C10.4636 267.305 8.68344 268.124 8.15835 267.228C7.63326 266.333 6.80078 260.217 7.50517 257.837C8.20957 255.457 9.08046 251.439 9.08046 251.439C9.08046 251.439 6.73676 256.903 6.33974 258.31C5.94272 259.718 6.60868 265.117 5.36638 266.089C4.86691 266.499 3.2276 265.961 3.50935 258.284C3.81787 256.232 4.27589 254.205 4.87973 252.22C4.036 253.459 3.40411 254.83 3.00988 256.276C2.49125 258.337 2.14849 260.439 1.9853 262.558C1.806 264.631 0.0129995 264.349 0.000192335 260.69C-0.0126148 257.031 0.614946 253.013 1.65232 251.055C2.6897 249.098 4.21374 237.71 7.22341 233.539L17.9814 235.74Z" fill="#FFAF82"/>
<path d="M52.4583 113.637C52.4583 113.637 43.4165 155.464 36.0652 169.5C36.0652 169.5 32.2999 187.976 18.2633 236.418C18.2633 236.418 10.9248 239.335 6.64722 233.769C6.64722 233.769 14.498 180.273 18.5963 163.243C18.5963 163.243 31.8132 103.222 44.7869 93.2803C49.3221 99.1479 51.9941 106.238 52.4583 113.637Z" fill="#E63067"/>
<path d="M141.993 235.739C141.12 238.598 140.085 241.405 138.894 244.146C137.267 247.69 138.381 250.415 137.408 253.614C136.435 256.813 140.264 256.57 140.994 253.217C141.724 249.865 141.417 248.291 142.121 248.176C142.825 248.061 144.81 256.237 145.105 258.578C145.4 260.92 144.913 266.793 145.797 267.714C146.68 268.635 148.781 265.321 148.115 259.218C147.449 253.115 147.935 253.23 147.935 253.23L149.126 258.156C149.619 260.593 149.787 263.084 149.626 265.564C149.511 267.305 151.291 268.123 151.803 267.228C152.315 266.332 153.173 260.216 152.456 257.836C151.739 255.456 150.894 251.439 150.894 251.439C150.894 251.439 153.238 256.902 153.635 258.31C154.032 259.717 153.366 265.117 154.595 266.089C155.107 266.498 156.747 265.961 156.465 258.284C156.156 256.232 155.698 254.205 155.095 252.219C155.932 253.439 156.564 254.787 156.964 256.211C157.483 258.273 157.826 260.374 157.989 262.494C158.168 264.566 159.961 264.285 159.961 260.626C159.961 256.966 159.347 252.949 158.322 250.991C157.297 249.033 155.761 237.646 152.738 233.475L141.993 235.739Z" fill="#FFAF82"/>
<path d="M107.516 113.637C107.516 113.637 116.289 154.197 123.627 168.233C123.627 168.233 127.675 187.976 141.711 236.417C141.711 236.417 149.05 239.335 153.327 233.769C153.327 233.769 146.539 180.503 142.454 163.473C142.454 163.473 124.934 103.004 115.354 92.103C110.853 98.4473 108.145 105.886 107.516 113.637Z" fill="#E63067"/>
<path d="M117.493 46.2332C118.774 48.933 120.208 51.7223 121.553 54.6779C125.869 64.1078 116.968 65.2977 116.968 65.2977C116.968 65.2977 120.81 71.6952 117.058 76.8132C113.305 81.9312 107.017 79.193 107.017 79.193C107.017 79.193 105.339 81.9952 99.8575 82.3406C91.9171 82.8524 88.5104 79.6281 88.5104 79.6281L79.8912 78.1311C78.8794 78.7452 76.1387 80.8564 69.4662 81.6625C65.6865 82.0428 61.8835 81.2139 58.6058 79.2954C57.1073 83.4666 45.4913 83.4282 43.3525 76.826C41.3417 70.6332 43.8391 68.087 44.1593 67.8055C39.5103 71.4777 29.303 61.5232 37.0642 52.0933C40.2275 48.2548 42.0333 46.4635 43.1347 44.5443C39.1133 45.5295 34.0161 40.7058 35.2327 36.4451C36.808 30.9944 41.5466 33.1696 44.646 25.339C48.7827 14.9239 52.612 11.3797 52.8297 11.175C56.4575 7.30864 60.9089 4.30655 65.8547 2.3908C70.8004 0.475051 76.1141 -0.305337 81.4025 0.107372C91.6482 0.734326 98.3591 6.50486 102.432 10.74C105.839 14.3267 108.108 18.8412 108.951 23.7141C109.113 24.7036 109.318 25.676 109.565 26.6313C111.499 30.0732 115.341 36.1764 119.055 38.0189C124.101 40.5906 122.513 47.2696 117.493 46.2332Z" fill="#32324C"/>
<path d="M58.5801 42.0239C58.5801 42.0239 53.8543 37.405 50.0634 40.4246C45.6065 43.9944 50.2811 56.8277 58.1959 55.4587L58.5801 42.0239Z" fill="#FFA378"/>
<path d="M56.1468 54.8442C56.1468 55.4449 55.9079 56.0209 55.4828 56.4456C55.0577 56.8703 54.4811 57.1089 53.8799 57.1089C53.2787 57.1089 52.7021 56.8703 52.277 56.4456C51.8519 56.0209 51.613 55.4449 51.613 54.8442C51.613 54.5474 51.6718 54.2536 51.7858 53.9795C51.8999 53.7054 52.0671 53.4566 52.2778 53.2473C52.4884 53.0381 52.7384 52.8725 53.0134 52.76C53.2883 52.6476 53.5828 52.5906 53.8799 52.5923C54.177 52.5906 54.4715 52.6476 54.7464 52.76C55.0214 52.8725 55.2714 53.0381 55.4821 53.2473C55.6927 53.4566 55.8599 53.7054 55.974 53.9795C56.0881 54.2536 56.1468 54.5474 56.1468 54.8442Z" fill="white"/>
<path d="M57.2995 51.2107C56.7756 49.5033 55.8838 47.9313 54.6868 46.605C53.4898 45.2788 52.0167 44.2305 50.3708 43.5337C50.3708 43.5337 55.1607 48.0503 55.4937 51.5433C55.5131 51.7628 55.6151 51.9667 55.7791 52.1139C55.9431 52.2611 56.1569 52.3407 56.3774 52.3366H56.4927C56.6287 52.3382 56.7632 52.307 56.8846 52.2456C57.0059 52.1841 57.1107 52.0943 57.1899 51.9838C57.2691 51.8733 57.3204 51.7452 57.3395 51.6106C57.3586 51.476 57.3449 51.3388 57.2995 51.2107Z" fill="#F88968"/>
<path d="M98.5383 42.0239C98.5383 42.0239 103.277 37.405 107.055 40.4246C111.525 43.9944 106.85 56.8277 98.9354 55.4587L98.5383 42.0239Z" fill="#FFA378"/>
<path d="M106.338 54.8442C106.338 55.4449 106.099 56.0209 105.674 56.4456C105.249 56.8703 104.672 57.1089 104.071 57.1089C103.774 57.1089 103.48 57.0503 103.205 56.9363C102.931 56.8223 102.682 56.6553 102.473 56.4449C102.263 56.2344 102.097 55.9846 101.985 55.7099C101.872 55.4352 101.815 55.141 101.817 54.8442C101.817 54.5485 101.875 54.2557 101.989 53.9825C102.102 53.7093 102.268 53.461 102.477 53.2519C102.686 53.0428 102.935 52.8769 103.208 52.7637C103.482 52.6506 103.775 52.5923 104.071 52.5923C104.368 52.5906 104.663 52.6476 104.938 52.76C105.212 52.8725 105.462 53.0381 105.673 53.2473C105.884 53.4566 106.051 53.7054 106.165 53.9795C106.279 54.2536 106.338 54.5474 106.338 54.8442Z" fill="white"/>
<path d="M99.8062 51.2107C100.333 49.5029 101.227 47.9308 102.427 46.6047C103.626 45.2786 105.1 44.2304 106.748 43.5337C106.748 43.5337 101.958 48.0503 101.625 51.5433C101.605 51.7628 101.503 51.9667 101.339 52.1139C101.175 52.2611 100.962 52.3407 100.741 52.3366H100.639C100.501 52.3395 100.366 52.3093 100.242 52.2488C100.119 52.1883 100.012 52.0992 99.9308 51.9889C99.8493 51.8786 99.7954 51.7503 99.7737 51.6149C99.752 51.4795 99.7632 51.3409 99.8062 51.2107Z" fill="#F88968"/>
<path d="M88.9329 69.4688L88.5999 75.6615L88.1901 83.4409C88.1901 83.4409 86.6532 86.3581 79.6733 86.3581C72.6934 86.3581 71.2719 84.3621 71.2719 84.3621L70.9901 80.9203L70.0552 69.4048L88.9329 69.4688Z" fill="#FFAF82"/>
<path d="M88.9329 69.4688L88.5999 75.6615C85.6927 77.8367 78.8153 82.123 70.9901 80.9203L70.0552 69.4048L88.9329 69.4688Z" fill="#F88968"/>
<path d="M103.981 37.1487C103.981 37.8908 103.84 38.6585 103.764 39.4262C102.124 55.3304 97.1936 75.5464 79.5838 75.5464C62.3838 75.5464 55.6088 56.5203 53.3932 41C53.2395 39.8613 53.0986 38.7609 52.9833 37.6733C52.6012 34.1722 52.9555 30.6299 54.0234 27.2735C55.0914 23.9171 56.8495 20.8206 59.185 18.1825C61.5206 15.5444 64.382 13.4229 67.586 11.954C70.79 10.4851 74.2658 9.7011 77.7908 9.65234H79.0715C84.3039 9.7128 89.3887 11.393 93.6252 14.4614C97.8618 17.5298 101.042 21.8354 102.726 26.7848C103.133 27.9661 103.45 29.1766 103.674 30.4058C104.08 32.6293 104.183 34.8975 103.981 37.1487Z" fill="#FFAF82"/>
<path d="M68.8256 43.8152C68.4505 43.8694 68.0684 43.8492 67.7011 43.7557C67.3338 43.6622 66.9886 43.4972 66.6852 43.2702C66.3818 43.0432 66.1263 42.7586 65.9332 42.4328C65.7401 42.1069 65.6132 41.7462 65.5598 41.3713C65.4854 40.8313 65.5654 40.2813 65.7903 39.7847C63.421 39.516 63.4723 38.083 63.4723 38.083C63.8437 38.6972 66.61 38.3389 67.7499 38.1598H68.0956H68.2493C68.9742 38.1109 69.6907 38.3386 70.254 38.797C70.8174 39.2553 71.1857 39.9101 71.2846 40.6292C71.3723 41.3759 71.1641 42.1272 70.7046 42.7225C70.2451 43.3179 69.5707 43.71 68.8256 43.8152Z" fill="#32324C"/>
<path d="M79.4431 68.599C78.0975 68.4537 76.7928 68.0497 75.6009 67.4091C75.5257 67.3666 75.4597 67.3096 75.4067 67.2415C75.3537 67.1733 75.3147 67.0953 75.2921 67.012C75.2695 66.9287 75.2636 66.8418 75.2748 66.7562C75.2861 66.6706 75.3142 66.5881 75.3576 66.5135C75.4459 66.3643 75.589 66.2554 75.7564 66.21C75.9238 66.1646 76.1024 66.1862 76.2541 66.2704C77.562 66.986 79.0337 67.3494 80.5247 67.3247C82.0157 67.3 83.4746 66.8882 84.758 66.1296C84.9063 66.0381 85.0845 66.0083 85.2545 66.0466C85.4245 66.0848 85.5727 66.1881 85.6673 66.3343C85.7601 66.4809 85.792 66.6579 85.7561 66.8276C85.7202 66.9972 85.6194 67.1462 85.4752 67.2428C83.6856 68.3869 81.5507 68.867 79.4431 68.599Z" fill="#F88968"/>
<path d="M81.4666 52.5921H78.0599C77.873 52.5921 77.6939 52.518 77.5618 52.386C77.4297 52.254 77.3555 52.075 77.3555 51.8884C77.3555 51.7018 77.4297 51.5228 77.5618 51.3908C77.6939 51.2588 77.873 51.1847 78.0599 51.1847H81.4666C81.4915 51.1852 81.5162 51.1797 81.5385 51.1685C81.5608 51.1574 81.5801 51.141 81.5946 51.1207C81.6084 51.0998 81.6157 51.0753 81.6157 51.0503C81.6157 51.0253 81.6084 51.0009 81.5946 50.98L78.7643 41.2942C78.7369 41.206 78.7274 41.1132 78.7365 41.0213C78.7456 40.9294 78.7731 40.8403 78.8173 40.7592C78.8615 40.6781 78.9215 40.6066 78.9937 40.5491C79.066 40.4915 79.1491 40.449 79.2381 40.4241C79.3264 40.3967 79.4193 40.3873 79.5112 40.3964C79.6032 40.4055 79.6924 40.433 79.7736 40.4771C79.8548 40.5212 79.9263 40.5812 79.9839 40.6534C80.0415 40.7256 80.084 40.8086 80.109 40.8975L82.9394 50.5961C83.0095 50.8274 83.024 51.0719 82.9817 51.3097C82.9394 51.5476 82.8416 51.7722 82.696 51.9652C82.5535 52.1575 82.3684 52.3142 82.155 52.423C81.9417 52.5317 81.706 52.5897 81.4666 52.5921Z" fill="#F88968"/>
<path d="M72.5014 31.0205C72.5334 31.2058 72.5242 31.3958 72.4743 31.5771C72.4245 31.7584 72.3352 31.9265 72.2129 32.0695C72.0907 32.2124 71.9384 32.3267 71.7669 32.4041C71.5954 32.4815 71.4089 32.5203 71.2207 32.5175C68.5824 32.5943 63.0882 33.0933 60.4243 35.9082C60.4243 35.9082 61.308 31.0333 71.0158 29.8434C71.3688 29.8037 71.7233 29.9053 72.0016 30.1258C72.28 30.3464 72.4597 30.668 72.5014 31.0205Z" fill="#32324C"/>
<path d="M86.2051 30.6743C86.1891 30.8602 86.2121 31.0473 86.2724 31.2239C86.3328 31.4004 86.4293 31.5624 86.5558 31.6996C86.6823 31.8369 86.836 31.9463 87.0072 32.0209C87.1783 32.0955 87.3632 32.1336 87.5499 32.1329C90.1882 32.1329 95.6952 32.4656 98.436 35.2037C98.436 35.2037 97.4242 30.3672 87.678 29.4588C87.5012 29.4412 87.3227 29.4587 87.1528 29.5104C86.9829 29.562 86.8249 29.6468 86.688 29.7599C86.551 29.8729 86.4378 30.0119 86.355 30.1688C86.2721 30.3258 86.2212 30.4976 86.2051 30.6743Z" fill="#32324C"/>
<path d="M89.3939 43.4309C89.769 43.4851 90.1512 43.4649 90.5185 43.3714C90.8858 43.2779 91.231 43.1129 91.5344 42.8859C91.8377 42.6589 92.0933 42.3743 92.2864 42.0485C92.4795 41.7226 92.6064 41.3619 92.6597 40.987C92.7345 40.4512 92.6545 39.9052 92.4292 39.4133C94.7985 39.1318 94.7473 37.6987 94.7473 37.6987C94.3759 38.3129 91.6224 37.9546 90.4697 37.7755H90.1239H89.983C89.2582 37.7266 88.5417 37.9543 87.9783 38.4127C87.415 38.871 87.0467 39.5258 86.9478 40.2449C86.8565 40.9903 87.0616 41.7416 87.5191 42.3374C87.9765 42.9332 88.6497 43.3258 89.3939 43.4309Z" fill="#32324C"/>
<path d="M89.4709 56.1241C89.484 56.6724 89.4454 57.2208 89.3556 57.7619C89.0671 59.4843 88.2892 61.0877 87.1144 62.3809C86.2675 63.3246 85.2338 64.0826 84.0786 64.6067C82.9235 65.1309 81.672 65.4099 80.4034 65.4261C79.133 65.4451 77.8724 65.2002 76.7017 64.7068C75.5311 64.2134 74.4758 63.4824 73.6028 62.56C72.3982 61.2975 71.5805 59.7169 71.2463 58.005C71.1389 57.4613 71.0832 56.9086 71.0798 56.3544L89.4709 56.1113V56.1241Z" fill="#920E08"/>
<path d="M89.4709 56.1241C89.484 56.6724 89.4454 57.2208 89.3556 57.7619L71.2463 58.005C71.1389 57.4613 71.0832 56.9086 71.0798 56.3544L89.4709 56.1113V56.1241Z" fill="white"/>
<path d="M87.1143 62.3807C86.2674 63.3245 85.2337 64.0824 84.0786 64.6066C82.9234 65.1307 81.672 65.4097 80.4034 65.4259C79.1329 65.4449 77.8724 65.2 76.7017 64.7066C75.531 64.2132 74.4757 63.4822 73.6028 62.5598C75.4096 60.8256 77.821 59.8619 80.3265 59.8729C82.8281 59.8035 85.2598 60.7019 87.1143 62.3807Z" fill="#F85C66"/>
<path d="M100.985 30.2139C94.389 29.6509 77.3555 24.4177 61.8717 18.8135C61.8717 18.8135 63.2293 34.6281 54.0338 42.5994C53.9165 42.0206 53.6998 41.4665 53.3934 40.9616C53.2397 39.8229 53.0988 38.7225 52.9836 37.6349C52.6072 34.1368 52.9657 30.5986 54.0363 27.2468C55.1069 23.895 56.8659 20.8034 59.2008 18.1696C61.5358 15.5358 64.3952 13.4178 67.5963 11.9512C70.7974 10.4846 74.2697 9.70163 77.791 9.65234H79.0717C84.3041 9.7128 89.3889 11.393 93.6255 14.4614C97.862 17.5298 101.042 21.8354 102.726 26.7848C103.134 27.9661 103.45 29.1766 103.674 30.4058C103.674 30.4058 102.701 30.3674 100.985 30.2139Z" fill="#32324C"/>
<path d="M103.981 37.1488C103.981 37.8909 103.841 38.6586 103.764 39.4263C101.689 38.2363 101.125 33.3103 100.985 30.2139C100.908 28.6913 100.985 27.6549 100.985 27.6549C100.985 27.6549 101.1 27.1175 102.778 26.8232C103.185 28.0045 103.502 29.215 103.725 30.4442C104.111 32.6576 104.197 34.9125 103.981 37.1488Z" fill="#32324C"/>
</svg>
