<svg width="267" height="601" viewBox="0 0 267 601" fill="none" xmlns="http://www.w3.org/2000/svg">
<path d="M128.076 600.085C183.016 600.085 227.554 593.334 227.554 585.007C227.554 576.679 183.016 569.929 128.076 569.929C73.1356 569.929 28.5977 576.679 28.5977 585.007C28.5977 593.334 73.1356 600.085 128.076 600.085Z" fill="#234271"/>
<path opacity="0.1" d="M265.473 408.342C257.054 532.225 100.682 582.431 23.3769 485.15C7.59939 465.279 3.79778 417.372 7.9094 392.107C24.3885 290.245 76.6648 279.845 37.6371 215.41C-1.3907 150.974 -5.02917 34.0183 102.738 34.8659C210.505 35.7135 141.031 207.863 215.318 255.998C249.222 278.069 269.862 343.825 265.473 408.342Z" fill="#32324C"/>
<path opacity="0.1" d="M224.634 228.206C221.444 229.303 217.993 229.393 214.749 228.463C211.506 227.533 208.629 225.627 206.507 223.006C199.491 214.513 188.299 197.382 191.627 177.365C196.326 148.969 232.531 171.676 235.37 203.706C236.806 219.73 230.883 225.973 224.634 228.206Z" fill="#32324C"/>
<path opacity="0.1" d="M186.128 153.272C184.462 152.704 183.011 151.638 181.972 150.218C180.933 148.798 180.356 147.093 180.32 145.334C180.14 139.596 181.005 129.034 188.755 121.796C199.834 111.56 207.47 132.489 198.398 146.606C193.862 153.664 189.441 154.348 186.128 153.272Z" fill="#32324C"/>
<path opacity="0.1" d="M8.59459 292.511C6.85212 292.26 5.22997 291.477 3.95056 290.268C2.67115 289.06 1.79709 287.486 1.44819 285.762C0.224498 280.155 -0.852354 269.544 5.47824 261.084C14.501 249.021 25.8079 268.207 19.4447 283.725C16.2631 291.5 12.0373 292.967 8.59459 292.511Z" fill="#32324C"/>
<path d="M79.063 295.331C78.863 283.483 80.5877 271.68 84.1698 260.383C117.797 258.215 170.644 260.383 170.644 260.383C170.644 260.383 170.791 260.79 170.873 260.986C173.172 272.28 173.929 283.834 173.124 295.331C140.427 315.576 108.905 314.24 79.063 295.331Z" fill="#32324C"/>
<path d="M173.141 295.331C173.141 295.331 181.005 406.174 180.157 430.625L186.683 559.627L165.211 558.355C161.442 491.801 148.814 461.645 152.795 431.473C140.77 391.879 134.521 344.933 132.498 307.589C132.449 307.687 151.604 295.755 173.141 295.331Z" fill="#32324C"/>
<path d="M164.379 557.328C164.983 548.852 172.537 544.288 180.304 546.342C188.07 548.396 188.772 561.012 188.772 561.012C194.922 567.151 198.878 575.142 200.03 583.751L200.176 584.729C200.315 586.026 199.953 587.326 199.165 588.365C198.377 589.404 197.221 590.104 195.934 590.32C183.029 592.61 169.823 592.643 156.906 590.418C155.624 590.194 154.477 589.484 153.706 588.437C152.934 587.389 152.596 586.085 152.762 584.795C152.762 584.697 152.762 584.599 152.762 584.501C153.611 578.079 155.356 566.293 163.221 561.909L164.379 557.328Z" fill="#3555AF"/>
<path d="M167.382 567.092L166.696 565.544C167.169 565.348 178.297 560.572 186.422 565.87L185.492 567.288C178.134 562.479 167.479 567.043 167.382 567.092Z" fill="white"/>
<path d="M168.768 566.88C168.736 567.133 168.654 567.376 168.526 567.596C168.398 567.816 168.226 568.008 168.022 568.16C167.818 568.312 167.585 568.422 167.338 568.482C167.09 568.542 166.833 568.552 166.582 568.51C166.329 568.479 166.085 568.396 165.865 568.268C165.645 568.14 165.453 567.969 165.301 567.765C165.148 567.561 165.039 567.329 164.978 567.081C164.918 566.834 164.909 566.577 164.95 566.326C164.982 566.074 165.064 565.83 165.192 565.61C165.321 565.39 165.492 565.199 165.696 565.046C165.9 564.894 166.133 564.785 166.381 564.724C166.628 564.664 166.885 564.655 167.136 564.696C167.39 564.726 167.635 564.807 167.856 564.934C168.078 565.061 168.271 565.233 168.423 565.437C168.576 565.642 168.686 565.875 168.745 566.123C168.804 566.371 168.812 566.629 168.768 566.88Z" fill="white"/>
<path d="M187.907 566.424C187.875 566.676 187.793 566.92 187.664 567.14C187.536 567.36 187.365 567.552 187.161 567.704C186.957 567.856 186.724 567.965 186.476 568.026C186.229 568.086 185.972 568.095 185.72 568.054C185.468 568.022 185.224 567.94 185.004 567.812C184.784 567.684 184.592 567.513 184.439 567.309C184.287 567.105 184.177 566.872 184.117 566.625C184.057 566.378 184.047 566.121 184.089 565.87C184.121 565.617 184.203 565.374 184.331 565.154C184.459 564.934 184.631 564.742 184.835 564.59C185.039 564.438 185.272 564.328 185.519 564.268C185.767 564.208 186.024 564.198 186.275 564.24C186.529 564.269 186.774 564.35 186.995 564.477C187.216 564.605 187.409 564.776 187.562 564.981C187.715 565.185 187.824 565.419 187.883 565.667C187.943 565.915 187.951 566.173 187.907 566.424Z" fill="white"/>
<path d="M167.561 562.316L166.892 560.768C167.365 560.572 178.492 555.796 186.618 561.093L185.688 562.512C178.378 557.703 167.675 562.267 167.561 562.316Z" fill="white"/>
<path d="M168.964 562.104C168.932 562.357 168.85 562.6 168.722 562.82C168.594 563.04 168.422 563.232 168.218 563.384C168.014 563.536 167.781 563.646 167.534 563.706C167.286 563.766 167.029 563.776 166.778 563.734C166.525 563.703 166.281 563.62 166.061 563.492C165.841 563.364 165.649 563.193 165.497 562.989C165.344 562.785 165.235 562.553 165.175 562.305C165.114 562.058 165.105 561.801 165.146 561.55C165.176 561.297 165.257 561.052 165.384 560.831C165.512 560.61 165.683 560.417 165.888 560.264C166.092 560.112 166.326 560.002 166.575 559.943C166.823 559.884 167.081 559.876 167.333 559.92C167.586 559.949 167.831 560.03 168.052 560.158C168.274 560.285 168.467 560.456 168.619 560.661C168.772 560.865 168.882 561.099 168.941 561.347C169 561.595 169.008 561.853 168.964 562.104Z" fill="white"/>
<path d="M188.168 561.648C188.134 561.9 188.05 562.142 187.921 562.361C187.793 562.579 187.621 562.77 187.418 562.922C187.214 563.074 186.982 563.184 186.736 563.245C186.489 563.306 186.233 563.317 185.982 563.278C185.729 563.246 185.485 563.164 185.265 563.036C185.045 562.908 184.853 562.737 184.701 562.533C184.548 562.329 184.439 562.096 184.378 561.849C184.318 561.602 184.309 561.345 184.35 561.094C184.382 560.841 184.464 560.598 184.592 560.378C184.721 560.158 184.892 559.966 185.096 559.814C185.3 559.662 185.533 559.552 185.78 559.492C186.028 559.432 186.285 559.422 186.536 559.464C186.79 559.493 187.035 559.574 187.256 559.702C187.478 559.829 187.671 560 187.823 560.205C187.976 560.409 188.085 560.643 188.145 560.891C188.204 561.139 188.212 561.397 188.168 561.648Z" fill="white"/>
<path d="M167.382 571.852L166.696 570.304C167.169 570.108 178.297 565.332 186.422 570.63L185.492 572.048C178.134 567.239 167.479 571.803 167.382 571.852Z" fill="white"/>
<path d="M168.768 571.64C168.736 571.893 168.654 572.136 168.526 572.356C168.398 572.576 168.226 572.768 168.022 572.92C167.818 573.072 167.585 573.182 167.338 573.242C167.09 573.302 166.833 573.312 166.582 573.27C166.329 573.239 166.085 573.156 165.865 573.028C165.645 572.9 165.453 572.729 165.301 572.525C165.148 572.321 165.039 572.089 164.978 571.841C164.918 571.594 164.909 571.337 164.95 571.086C164.982 570.834 165.064 570.59 165.192 570.37C165.321 570.15 165.492 569.958 165.696 569.806C165.9 569.654 166.133 569.544 166.381 569.484C166.628 569.424 166.885 569.414 167.136 569.456C167.39 569.485 167.635 569.566 167.856 569.694C168.078 569.821 168.271 569.992 168.423 570.197C168.576 570.401 168.686 570.635 168.745 570.883C168.804 571.131 168.812 571.389 168.768 571.64Z" fill="white"/>
<path d="M187.907 571.151C187.877 571.404 187.796 571.649 187.669 571.87C187.541 572.091 187.37 572.284 187.165 572.437C186.96 572.589 186.727 572.699 186.478 572.758C186.23 572.817 185.972 572.825 185.72 572.781C185.468 572.749 185.224 572.667 185.004 572.539C184.784 572.411 184.592 572.24 184.439 572.036C184.287 571.832 184.177 571.599 184.117 571.352C184.057 571.105 184.047 570.848 184.089 570.597C184.121 570.344 184.203 570.101 184.331 569.881C184.459 569.661 184.631 569.469 184.835 569.317C185.039 569.165 185.272 569.055 185.519 568.995C185.767 568.935 186.024 568.925 186.275 568.967C186.529 568.996 186.774 569.077 186.995 569.204C187.216 569.332 187.409 569.503 187.562 569.708C187.715 569.912 187.824 570.146 187.883 570.394C187.943 570.642 187.951 570.9 187.907 571.151Z" fill="white"/>
<path d="M181.397 551.819C177.923 550.697 174.164 550.848 170.791 552.242C170.324 553.499 170.324 554.882 170.791 556.138C174.347 555.561 177.965 555.479 181.544 555.894C181.978 554.561 181.926 553.117 181.397 551.819Z" fill="white"/>
<path d="M195.934 590.337C183.029 592.626 169.823 592.659 156.906 590.434C155.624 590.21 154.477 589.5 153.706 588.453C152.934 587.405 152.596 586.101 152.762 584.811C152.762 584.713 152.762 584.615 152.762 584.517C168.288 588.739 184.694 588.479 200.079 583.768L200.225 584.746C200.363 586.049 199.994 587.356 199.196 588.396C198.398 589.436 197.23 590.131 195.934 590.337Z" fill="#3986D7"/>
<path d="M79.0632 295.331C79.0632 295.331 71.9331 406.174 72.7815 430.625L66.2551 559.627L87.7269 558.355C89.0322 507.954 105.887 467.35 100.143 431.473C110.847 396.801 116.459 349.057 118.531 307.589C118.58 307.687 100.584 295.755 79.0632 295.331Z" fill="#32324C"/>
<path d="M88.6407 557.328C88.037 548.852 80.4827 544.288 72.7163 546.342C64.9499 548.396 64.232 561.012 64.232 561.012C58.0896 567.155 54.1394 575.145 52.9903 583.751C52.9242 584.075 52.8752 584.401 52.8435 584.729C52.7048 586.026 53.0665 587.326 53.8549 588.365C54.6432 589.404 55.7988 590.104 57.0856 590.32C69.9911 592.61 83.1966 592.643 96.1134 590.418C97.3959 590.194 98.5424 589.484 99.3144 588.437C100.086 587.389 100.424 586.085 100.258 584.795C100.258 584.697 100.258 584.599 100.258 584.501C99.4092 578.079 97.6634 566.293 89.7828 561.909L88.6407 557.328Z" fill="#3555AF"/>
<path d="M85.5568 567.092L86.2421 565.544C85.7689 565.348 74.6251 560.572 66.5161 565.87L67.4461 567.288C74.8046 562.479 85.4589 567.043 85.5568 567.092Z" fill="white"/>
<path d="M84.17 566.88C84.1995 567.134 84.2805 567.379 84.4081 567.6C84.5356 567.821 84.7069 568.014 84.9116 568.166C85.1163 568.319 85.35 568.428 85.5984 568.487C85.8468 568.546 86.1048 568.554 86.3564 568.511C86.6091 568.479 86.8529 568.396 87.073 568.268C87.2931 568.14 87.4851 567.969 87.6374 567.765C87.7898 567.561 87.8994 567.329 87.9596 567.082C88.0198 566.834 88.0295 566.577 87.988 566.326C87.9562 566.074 87.8738 565.83 87.7456 565.61C87.6175 565.39 87.4462 565.199 87.242 565.046C87.0379 564.894 86.8051 564.785 86.5576 564.724C86.3101 564.664 86.0529 564.655 85.8016 564.696C85.5479 564.726 85.3029 564.807 85.0816 564.934C84.8604 565.061 84.6674 565.233 84.5147 565.437C84.3619 565.642 84.2526 565.875 84.1933 566.123C84.134 566.371 84.1261 566.629 84.17 566.88Z" fill="white"/>
<path d="M65.0315 566.424C65.0632 566.677 65.1456 566.92 65.2738 567.14C65.402 567.36 65.5732 567.552 65.7774 567.704C65.9815 567.856 66.2144 567.966 66.4619 568.026C66.7094 568.086 66.9665 568.096 67.2178 568.054C67.4687 568.018 67.71 567.933 67.9279 567.804C68.1458 567.674 68.3361 567.503 68.4877 567.3C68.6392 567.098 68.7492 566.867 68.8113 566.621C68.8734 566.376 68.8863 566.12 68.8494 565.87C68.8156 565.617 68.7313 565.373 68.6015 565.153C68.4716 564.933 68.2988 564.741 68.0934 564.589C67.888 564.437 67.654 564.328 67.4055 564.268C67.157 564.208 66.899 564.198 66.6467 564.24C66.3945 564.271 66.1513 564.354 65.9319 564.482C65.7125 564.61 65.5214 564.782 65.3704 564.986C65.2193 565.19 65.1114 565.423 65.0531 565.67C64.9948 565.917 64.9875 566.174 65.0315 566.424Z" fill="white"/>
<path d="M85.3774 562.316L86.0627 560.768C85.5895 560.572 74.462 555.796 66.3367 561.093L67.2667 562.512C74.6088 557.703 85.2632 562.267 85.3774 562.316Z" fill="white"/>
<path d="M83.9742 562.104C84.006 562.357 84.0884 562.6 84.2166 562.82C84.3447 563.04 84.516 563.232 84.7202 563.384C84.9243 563.536 85.1571 563.646 85.4046 563.706C85.6521 563.766 85.9092 563.776 86.1606 563.734C86.4133 563.703 86.657 563.62 86.8772 563.492C87.0973 563.364 87.2893 563.193 87.4416 562.989C87.594 562.785 87.7036 562.552 87.7638 562.305C87.824 562.058 87.8337 561.801 87.7922 561.55C87.7604 561.297 87.678 561.054 87.5498 560.834C87.4217 560.614 87.2504 560.422 87.0462 560.27C86.8421 560.118 86.6093 560.008 86.3618 559.948C86.1143 559.888 85.8571 559.878 85.6058 559.92C85.3521 559.949 85.1071 560.03 84.8858 560.158C84.6646 560.285 84.4716 560.456 84.3189 560.661C84.1661 560.865 84.0568 561.099 83.9975 561.347C83.9382 561.595 83.9303 561.853 83.9742 562.104Z" fill="white"/>
<path d="M64.8356 561.648C64.8673 561.901 64.9497 562.144 65.0779 562.364C65.206 562.584 65.3773 562.776 65.5815 562.928C65.7856 563.08 66.0184 563.19 66.2659 563.25C66.5134 563.31 66.7706 563.32 67.0219 563.278C67.2737 563.244 67.5162 563.161 67.7352 563.032C67.9542 562.903 68.1453 562.732 68.2973 562.529C68.4492 562.325 68.559 562.093 68.6202 561.847C68.6813 561.601 68.6927 561.345 68.6535 561.094C68.6217 560.841 68.5393 560.598 68.4111 560.378C68.283 560.158 68.1117 559.966 67.9075 559.814C67.7034 559.662 67.4706 559.552 67.2231 559.492C66.9756 559.432 66.7185 559.422 66.4671 559.464C66.2135 559.493 65.9685 559.574 65.7472 559.702C65.5259 559.829 65.3329 560 65.1802 560.205C65.0274 560.409 64.9181 560.643 64.8588 560.891C64.7996 561.139 64.7916 561.397 64.8356 561.648Z" fill="white"/>
<path d="M85.5568 571.852L86.2421 570.304C85.7689 570.108 74.6251 565.332 66.5161 570.63L67.4461 572.048C74.8046 567.239 85.4589 571.803 85.5568 571.852Z" fill="white"/>
<path d="M84.17 571.64C84.1995 571.894 84.2805 572.138 84.4081 572.36C84.5356 572.581 84.7069 572.773 84.9116 572.926C85.1163 573.079 85.35 573.188 85.5984 573.247C85.8468 573.306 86.1048 573.314 86.3564 573.27C86.6091 573.239 86.8529 573.156 87.073 573.028C87.2931 572.9 87.4851 572.729 87.6374 572.525C87.7898 572.321 87.8994 572.089 87.9596 571.841C88.0198 571.594 88.0295 571.337 87.988 571.086C87.9562 570.834 87.8738 570.59 87.7456 570.37C87.6175 570.15 87.4462 569.958 87.242 569.806C87.0379 569.654 86.8051 569.544 86.5576 569.484C86.3101 569.424 86.0529 569.414 85.8016 569.456C85.5479 569.485 85.3029 569.566 85.0816 569.694C84.8604 569.821 84.6674 569.992 84.5147 570.197C84.3619 570.401 84.2526 570.635 84.1933 570.883C84.134 571.131 84.1261 571.389 84.17 571.64Z" fill="white"/>
<path d="M65.0315 571.151C65.061 571.405 65.1419 571.649 65.2695 571.87C65.397 572.091 65.5683 572.284 65.773 572.437C65.9777 572.589 66.2114 572.699 66.4598 572.758C66.7083 572.817 66.9662 572.825 67.2178 572.781C67.4687 572.745 67.71 572.66 67.9279 572.531C68.1458 572.401 68.3361 572.23 68.4877 572.028C68.6392 571.825 68.7492 571.594 68.8113 571.348C68.8734 571.103 68.8863 570.847 68.8494 570.597C68.8156 570.344 68.7313 570.1 68.6015 569.88C68.4716 569.66 68.2988 569.468 68.0934 569.316C67.888 569.164 67.654 569.055 67.4055 568.995C67.157 568.935 66.899 568.925 66.6467 568.967C66.3945 568.998 66.1513 569.081 65.9319 569.209C65.7125 569.337 65.5214 569.509 65.3704 569.713C65.2193 569.917 65.1114 570.15 65.0531 570.397C64.9948 570.644 64.9875 570.901 65.0315 571.151Z" fill="white"/>
<path d="M71.5416 551.819C75.0093 550.697 78.7638 550.847 82.1306 552.243C82.607 553.498 82.607 554.884 82.1306 556.139C78.575 555.562 74.9566 555.479 71.3784 555.894C70.9491 554.559 71.0069 553.115 71.5416 551.819Z" fill="white"/>
<path d="M57.0038 590.337C69.9093 592.626 83.1147 592.659 96.0315 590.434C97.314 590.21 98.4606 589.5 99.2325 588.453C100.004 587.405 100.342 586.101 100.176 584.811C100.176 584.713 100.176 584.615 100.176 584.517C84.6751 588.722 68.3002 588.462 52.9411 583.768C52.875 584.091 52.826 584.417 52.7943 584.746C52.6547 586.037 53.0119 587.334 53.7936 588.372C54.5753 589.41 55.7229 590.113 57.0038 590.337Z" fill="#3986D7"/>
<path d="M161.622 196.974L172.195 261.719C172.195 261.719 150.772 272.608 126.249 272.608C100.143 272.608 82.4731 261.719 82.4731 261.719L93.0459 196.974L91.659 168.823C83.1584 162.433 86.079 145.122 86.079 145.122L82.4895 119.042L115.986 104.828L137.507 104.583L172.39 117.623L168.589 145.122C168.589 145.122 172.195 161.129 163.988 168.611L161.622 196.974Z" fill="#E63067"/>
<path d="M157.168 171.399C157.168 171.399 133.509 188.107 99.458 172.426C99.458 172.426 131.274 180.983 157.168 171.399Z" fill="#C11C57"/>
<path d="M48.34 300.563C49.4426 304.206 50.7555 307.782 52.2721 311.273C54.3606 315.788 52.9248 319.26 54.1811 323.335C55.4374 327.41 50.5426 327.101 49.6126 322.83C48.6826 318.559 49.0742 316.554 48.1768 316.407C47.2794 316.261 44.7342 326.677 44.3752 329.66C44.0162 332.643 44.62 340.125 43.4942 341.298C42.3683 342.472 39.6762 338.25 40.541 330.475C41.4057 322.699 40.7694 322.846 40.7694 322.846C40.7694 322.846 40.0188 325.878 39.252 329.122C38.6169 332.225 38.4029 335.399 38.6157 338.56C38.7625 340.777 36.4946 341.82 35.8257 340.679C35.1567 339.538 34.0961 331.746 34.9935 328.714C35.8909 325.682 37.0004 320.564 37.0004 320.564C37.0004 320.564 34.0146 327.524 33.5088 329.317C33.003 331.11 33.8514 337.989 32.2688 339.228C31.6324 339.75 29.544 339.065 29.903 329.285C30.296 326.67 30.8795 324.088 31.6488 321.558C30.5739 323.137 29.7689 324.883 29.2666 326.726C28.6059 329.352 28.1693 332.029 27.9614 334.729C27.7329 337.37 25.4487 337.011 25.4324 332.349C25.4161 327.687 26.2156 322.569 27.5371 320.075C28.8587 317.581 30.8003 303.074 34.6346 297.76L48.34 300.563Z" fill="#FFAF82"/>
<path d="M92.2626 145.008C92.2626 145.008 80.7435 198.294 71.3781 216.176C71.3781 216.176 66.5813 239.714 48.699 301.427C48.699 301.427 39.3499 305.144 33.9004 298.053C33.9004 298.053 43.9021 229.901 49.1232 208.205C49.1232 208.205 65.9612 131.74 82.4893 119.074C88.2671 126.549 91.6711 135.582 92.2626 145.008Z" fill="#E63067"/>
<path d="M206.327 300.563C205.216 304.205 203.897 307.781 202.379 311.273C200.307 315.788 201.726 319.26 200.486 323.335C199.246 327.41 204.125 327.101 205.055 322.83C205.985 318.559 205.593 316.554 206.49 316.407C207.388 316.261 209.917 326.677 210.292 329.66C210.667 332.643 210.047 340.125 211.173 341.298C212.299 342.472 214.975 338.25 214.126 330.475C213.278 322.699 213.898 322.846 213.898 322.846L215.415 329.122C216.042 332.226 216.256 335.4 216.052 338.56C215.905 340.777 218.173 341.82 218.825 340.679C219.478 339.538 220.571 331.746 219.657 328.714C218.744 325.682 217.667 320.564 217.667 320.564C217.667 320.564 220.653 327.524 221.159 329.317C221.664 331.111 220.816 337.989 222.382 339.228C223.035 339.75 225.123 339.065 224.764 329.285C224.371 326.67 223.788 324.088 223.019 321.558C224.085 323.112 224.89 324.83 225.401 326.644C226.061 329.27 226.498 331.948 226.706 334.648C226.934 337.288 229.219 336.93 229.219 332.268C229.219 327.606 228.435 322.488 227.13 319.994C225.825 317.5 223.867 302.992 220.016 297.678L206.327 300.563Z" fill="#FFAF82"/>
<path d="M162.405 145.008C162.405 145.008 173.581 196.681 182.93 214.562C182.93 214.562 188.086 239.714 205.968 301.427C205.968 301.427 215.317 305.144 220.767 298.053C220.767 298.053 212.119 230.194 206.915 208.498C206.915 208.498 184.594 131.462 172.39 117.574C166.655 125.657 163.206 135.133 162.405 145.008Z" fill="#E63067"/>
<path d="M175.115 59.1372C176.747 62.5766 178.574 66.1301 180.287 69.8955C185.786 81.909 174.446 83.4249 174.446 83.4249C174.446 83.4249 179.341 91.5751 174.56 98.0953C169.78 104.616 161.769 101.127 161.769 101.127C161.769 101.127 159.631 104.697 152.648 105.137C142.532 105.789 138.192 101.681 138.192 101.681L127.211 99.7743C125.922 100.557 122.431 103.246 113.93 104.273C109.115 104.758 104.27 103.702 100.094 101.258C98.1853 106.572 83.3868 106.523 80.662 98.1116C78.1004 90.2222 81.282 86.9784 81.6899 86.6198C75.7672 91.298 62.7634 78.6163 72.6509 66.6029C76.6809 61.7127 78.9815 59.4306 80.3846 56.9856C75.2614 58.2407 68.7677 52.0954 70.3177 46.6674C72.3246 39.7234 78.3615 42.4945 82.3099 32.5186C87.58 19.25 92.4584 14.7348 92.7358 14.474C97.3575 9.54833 103.028 5.72374 109.329 3.28312C115.63 0.842507 122.399 -0.151687 129.137 0.374094C142.189 1.17282 150.739 8.52433 155.928 13.9198C160.269 18.4892 163.158 24.2405 164.232 30.4484C164.439 31.709 164.7 32.9478 165.015 34.1649C167.479 38.5498 172.374 46.3251 177.106 48.6724C183.534 51.9487 181.511 60.4576 175.115 59.1372Z" fill="#32324C"/>
<path d="M100.062 53.7745C100.062 53.7745 94.041 47.89 89.2115 51.7369C83.5335 56.2847 89.4888 72.6341 99.5721 70.8899L100.062 53.7745Z" fill="#FFA378"/>
<path d="M96.9616 70.1077C96.9616 70.8729 96.6574 71.6068 96.1158 72.1478C95.5742 72.6889 94.8397 72.9929 94.0737 72.9929C93.3078 72.9929 92.5732 72.6889 92.0316 72.1478C91.49 71.6068 91.1858 70.8729 91.1858 70.1077C91.1858 69.7296 91.2606 69.3552 91.4059 69.006C91.5513 68.6569 91.7643 68.3399 92.0326 68.0733C92.301 67.8067 92.6195 67.5957 92.9698 67.4525C93.3201 67.3093 93.6952 67.2367 94.0737 67.2388C94.4522 67.2367 94.8274 67.3093 95.1776 67.4525C95.5279 67.5957 95.8464 67.8067 96.1148 68.0733C96.3832 68.3399 96.5962 68.6569 96.7415 69.006C96.8868 69.3552 96.9617 69.7296 96.9616 70.1077Z" fill="white"/>
<path d="M98.4302 65.4783C97.7627 63.3032 96.6266 61.3005 95.1017 59.6108C93.5767 57.9212 91.7 56.5857 89.6033 55.698C89.6033 55.698 95.7054 61.4521 96.1297 65.9021C96.1544 66.1816 96.2843 66.4414 96.4933 66.629C96.7022 66.8165 96.9746 66.9179 97.2555 66.9127H97.4023C97.5757 66.9148 97.7469 66.8749 97.9016 66.7967C98.0562 66.7184 98.1897 66.604 98.2906 66.4632C98.3915 66.3224 98.4569 66.1593 98.4812 65.9878C98.5055 65.8164 98.488 65.6415 98.4302 65.4783Z" fill="#F88968"/>
<path d="M150.968 53.7745C150.968 53.7745 157.004 47.89 161.818 51.7369C167.512 56.2847 161.557 72.6341 151.473 70.8899L150.968 53.7745Z" fill="#FFA378"/>
<path d="M160.904 70.1077C160.904 70.8729 160.6 71.6068 160.058 72.1478C159.516 72.6889 158.782 72.9929 158.016 72.9929C157.637 72.9929 157.263 72.9181 156.913 72.773C156.564 72.6278 156.246 72.415 155.98 72.1468C155.713 71.8787 155.502 71.5605 155.358 71.2106C155.215 70.8606 155.142 70.4858 155.144 70.1077C155.144 69.731 155.219 69.3579 155.363 69.0098C155.507 68.6618 155.719 68.3455 155.985 68.0791C156.252 67.8127 156.569 67.6014 156.917 67.4572C157.265 67.313 157.639 67.2388 158.016 67.2388C158.394 67.2367 158.77 67.3093 159.12 67.4525C159.47 67.5957 159.789 67.8067 160.057 68.0733C160.325 68.3399 160.538 68.6569 160.684 69.006C160.829 69.3552 160.904 69.7296 160.904 70.1077Z" fill="white"/>
<path d="M152.583 65.4783C153.254 63.3026 154.393 61.2999 155.921 59.6104C157.449 57.9209 159.327 56.5856 161.426 55.698C161.426 55.698 155.324 61.4521 154.9 65.9021C154.875 66.1816 154.745 66.4414 154.536 66.629C154.327 66.8165 154.055 66.9179 153.774 66.9127H153.643C153.468 66.9163 153.295 66.8779 153.138 66.8009C152.981 66.7238 152.845 66.6102 152.741 66.4697C152.638 66.3292 152.569 66.1658 152.541 65.9933C152.514 65.8208 152.528 65.6442 152.583 65.4783Z" fill="#F88968"/>
<path d="M138.73 88.739L138.306 96.6284L137.784 106.539C137.784 106.539 135.826 110.256 126.934 110.256C118.042 110.256 116.231 107.713 116.231 107.713L115.872 103.328L114.681 88.6575L138.73 88.739Z" fill="#FFAF82"/>
<path d="M138.73 88.739L138.306 96.6284C134.602 99.3995 125.841 104.86 115.872 103.328L114.681 88.6575L138.73 88.739Z" fill="#F88968"/>
<path d="M157.902 47.5641C157.902 48.5095 157.722 49.4876 157.624 50.4656C155.536 70.7271 149.254 96.4818 126.82 96.4818C104.908 96.4818 96.2764 72.243 93.4538 52.4705C93.258 51.0198 93.0785 49.618 92.9317 48.2324C92.4449 43.772 92.8962 39.2592 94.2567 34.9833C95.6173 30.7073 97.857 26.7625 100.832 23.4016C103.808 20.0408 107.453 17.3381 111.535 15.4667C115.617 13.5953 120.045 12.5965 124.536 12.5344H126.167C132.833 12.6114 139.311 14.752 144.708 18.661C150.106 22.5701 154.157 28.0553 156.303 34.3607C156.822 35.8657 157.225 37.4078 157.51 38.9738C158.027 41.8065 158.159 44.6961 157.902 47.5641Z" fill="#FFAF82"/>
<path d="M113.114 56.0565C112.636 56.1256 112.15 56.0999 111.682 55.9808C111.214 55.8616 110.774 55.6514 110.388 55.3622C110.001 55.073 109.675 54.7105 109.429 54.2954C109.183 53.8803 109.022 53.4207 108.954 52.9431C108.859 52.2552 108.961 51.5545 109.247 50.9219C106.229 50.5796 106.294 48.7539 106.294 48.7539C106.767 49.5363 110.292 49.0799 111.744 48.8517H112.184H112.38C113.304 48.7894 114.216 49.0795 114.934 49.6635C115.652 50.2474 116.121 51.0816 116.247 51.9977C116.359 52.9489 116.094 53.9061 115.508 54.6645C114.923 55.423 114.064 55.9226 113.114 56.0565Z" fill="#32324C"/>
<path d="M126.641 87.6304C124.926 87.4453 123.264 86.9306 121.746 86.1145C121.65 86.0604 121.566 85.9878 121.498 85.901C121.431 85.8141 121.381 85.7148 121.352 85.6087C121.323 85.5025 121.316 85.3917 121.33 85.2827C121.345 85.1737 121.38 85.0686 121.436 84.9735C121.548 84.7834 121.731 84.6447 121.944 84.5868C122.157 84.529 122.385 84.5566 122.578 84.6638C124.244 85.5755 126.119 86.0384 128.019 86.007C129.918 85.9755 131.777 85.4509 133.412 84.4845C133.6 84.3679 133.828 84.3299 134.044 84.3786C134.261 84.4274 134.45 84.559 134.57 84.7453C134.688 84.932 134.729 85.1575 134.683 85.3736C134.637 85.5898 134.509 85.7796 134.325 85.9026C132.045 87.3602 129.326 87.9718 126.641 87.6304Z" fill="#F88968"/>
<path d="M129.218 67.2386H124.878C124.64 67.2386 124.412 67.1441 124.244 66.976C124.075 66.8078 123.981 66.5798 123.981 66.342C123.981 66.1043 124.075 65.8762 124.244 65.7081C124.412 65.54 124.64 65.4455 124.878 65.4455H129.218C129.25 65.4462 129.282 65.4391 129.31 65.4249C129.338 65.4107 129.363 65.3898 129.382 65.364C129.399 65.3374 129.408 65.3062 129.408 65.2744C129.408 65.2425 129.399 65.2113 129.382 65.1847L125.776 52.8452C125.741 52.7329 125.729 52.6147 125.74 52.4976C125.752 52.3806 125.787 52.267 125.843 52.1637C125.9 52.0603 125.976 51.9693 126.068 51.896C126.16 51.8227 126.266 51.7686 126.379 51.7368C126.492 51.7019 126.61 51.69 126.727 51.7016C126.845 51.7131 126.958 51.7481 127.062 51.8043C127.165 51.8605 127.256 51.9369 127.33 52.0289C127.403 52.1209 127.457 52.2267 127.489 52.3399L131.095 64.6957C131.184 64.9903 131.203 65.3018 131.149 65.6048C131.095 65.9079 130.97 66.194 130.785 66.4398C130.603 66.6848 130.367 66.8845 130.095 67.0231C129.824 67.1616 129.523 67.2354 129.218 67.2386Z" fill="#F88968"/>
<path d="M117.797 39.7562C117.838 39.9922 117.826 40.2344 117.763 40.4653C117.699 40.6963 117.585 40.9105 117.43 41.0926C117.274 41.2746 117.08 41.4202 116.861 41.5189C116.643 41.6175 116.405 41.6668 116.165 41.6634C112.804 41.7612 105.805 42.3969 102.411 45.983C102.411 45.983 103.537 39.7725 115.904 38.2566C116.354 38.2061 116.806 38.3354 117.16 38.6164C117.515 38.8974 117.744 39.3072 117.797 39.7562Z" fill="#32324C"/>
<path d="M135.255 39.316C135.235 39.5528 135.264 39.7913 135.341 40.0162C135.418 40.2411 135.541 40.4475 135.702 40.6223C135.863 40.7971 136.059 40.9365 136.277 41.0315C136.495 41.1265 136.731 41.1752 136.969 41.1743C140.33 41.1743 147.345 41.5981 150.837 45.0864C150.837 45.0864 149.548 38.9248 137.132 37.7675C136.907 37.745 136.679 37.7674 136.463 37.8332C136.246 37.899 136.045 38.0071 135.87 38.151C135.696 38.295 135.552 38.4721 135.446 38.6721C135.341 38.872 135.276 39.0909 135.255 39.316Z" fill="#32324C"/>
<path d="M139.318 55.5675C139.796 55.6366 140.282 55.6109 140.75 55.4917C141.218 55.3726 141.658 55.1624 142.045 54.8732C142.431 54.584 142.757 54.2215 143.003 53.8064C143.249 53.3912 143.41 52.9317 143.478 52.4541C143.574 51.7715 143.472 51.0759 143.185 50.4491C146.203 50.0905 146.138 48.2649 146.138 48.2649C145.665 49.0473 142.157 48.5909 140.688 48.3627H140.248H140.068C139.145 48.3004 138.232 48.5905 137.514 49.1744C136.797 49.7584 136.327 50.5926 136.201 51.5087C136.085 52.4582 136.346 53.4154 136.929 54.1744C137.512 54.9334 138.37 55.4336 139.318 55.5675Z" fill="#32324C"/>
<path d="M139.416 71.7377C139.433 72.4363 139.383 73.1349 139.269 73.8242C138.901 76.0186 137.91 78.0611 136.414 79.7087C135.335 80.911 134.018 81.8766 132.546 82.5444C131.075 83.2122 129.48 83.5676 127.864 83.5882C126.246 83.6124 124.64 83.3004 123.148 82.6718C121.657 82.0433 120.312 81.1119 119.2 79.9369C117.666 78.3285 116.624 76.3149 116.198 74.1339C116.061 73.4412 115.99 72.7372 115.986 72.0311L139.416 71.7214V71.7377Z" fill="#920E08"/>
<path d="M139.416 71.7377C139.433 72.4363 139.383 73.1348 139.269 73.8242L116.198 74.1339C116.061 73.4412 115.99 72.7372 115.986 72.0311L139.416 71.7214V71.7377Z" fill="white"/>
<path d="M136.414 79.7084C135.335 80.9108 134.018 81.8764 132.546 82.5442C131.074 83.2119 129.48 83.5674 127.864 83.5879C126.245 83.6122 124.64 83.3002 123.148 82.6716C121.657 82.043 120.312 81.1117 119.2 79.9366C121.502 77.7272 124.574 76.4996 127.766 76.5136C130.953 76.4252 134.051 77.5698 136.414 79.7084Z" fill="#F85C66"/>
<path d="M154.084 38.7293C145.681 38.012 123.981 31.3451 104.255 24.2055C104.255 24.2055 105.984 44.3529 94.2696 54.5081C94.1202 53.7708 93.8442 53.0649 93.4538 52.4216C93.2581 50.9709 93.0786 49.5691 92.9317 48.1835C92.4522 43.727 92.909 39.2195 94.2729 34.9494C95.6368 30.6792 97.8777 26.7405 100.852 23.3851C103.827 20.0298 107.47 17.3316 111.548 15.4631C115.626 13.5947 120.05 12.5972 124.536 12.5344H126.167C132.833 12.6114 139.311 14.752 144.708 18.661C150.106 22.5701 154.157 28.0553 156.303 34.3607C156.822 35.8657 157.225 37.4078 157.51 38.9738C157.51 38.9738 156.27 38.9249 154.084 38.7293Z" fill="#32324C"/>
<path d="M157.902 47.5639C157.902 48.5093 157.722 49.4873 157.624 50.4654C154.981 48.9494 154.263 42.6738 154.084 38.729C153.986 36.7893 154.084 35.469 154.084 35.469C154.084 35.469 154.231 34.7843 156.368 34.4094C156.887 35.9144 157.29 37.4565 157.575 39.0225C158.066 41.8422 158.176 44.715 157.902 47.5639Z" fill="#32324C"/>
</svg>
