<svg width="160" height="145" viewBox="0 0 160 145" fill="none" xmlns="http://www.w3.org/2000/svg">
<g style="mix-blend-mode:multiply" opacity="0.7">
<ellipse cx="81.3444" cy="136.134" rx="78.6555" ry="8.40336" fill="#B5AEAC"/>
</g>
<path d="M35.4823 30.7752C33.1899 30.0005 29.0218 24.6827 30.9496 18.5022C32.8599 12.3216 35.8644 -1.30726 42.5333 0.101411C49.2022 1.51008 51.4252 7.74345 48.8028 13.431C45.5899 20.3687 40.2582 32.3952 35.4823 30.7752Z" fill="#94D0D3"/>
<path d="M42.5333 0.101512C41.7865 -0.0569637 41.0745 -0.0217469 40.4146 0.171945C40.6577 0.189554 41.5434 -0.0217469 42.6375 0.259987C49.237 2.00322 50.0532 7.91964 47.4308 13.6072C44.6521 19.6292 40.2583 29.4723 36.0381 30.9162C40.6751 31.4973 45.7288 20.1223 48.8202 13.4487C51.4426 7.74356 49.2196 1.51018 42.5333 0.101512Z" fill="#092F44"/>
<path d="M129.932 25.7635C130.435 23.6056 129.117 21.4433 126.989 20.9338C124.86 20.4242 122.728 21.7605 122.225 23.9183C121.723 26.0762 123.04 28.2385 125.169 28.748C127.297 29.2575 129.43 27.9213 129.932 25.7635Z" fill="#092F44"/>
<path d="M115.596 56.8179C115.596 56.8179 120.268 51.3593 123.099 44.0519C125.93 36.7444 126.068 24.1192 126.068 24.1192L127.475 23.2563C127.475 23.2563 129.195 35.4942 127.475 43.189C125.356 52.6624 120.963 62.84 120.963 62.84L115.596 56.8179Z" fill="#092F44"/>
<path d="M90.553 85.4494C84.5093 86.6115 83.9014 94.3416 84.6135 97.2118C85.3255 100.082 92.8107 112.549 92.8107 112.549L90.1188 128.748C90.1188 128.748 86.0202 128.748 84.8914 130.333C83.7625 131.918 87.6353 134.137 87.6353 134.137L97.9166 131.759C97.9166 131.759 101.911 114.75 102.015 108.957C102.189 99.8354 97.6387 90.7495 97.6387 90.7495C97.6387 90.7495 95.7978 84.4457 90.553 85.4494Z" fill="#94D0D3"/>
<path d="M51.5294 85.2203C47.3787 85.5725 44.8779 87.9496 44.6 93.69C44.3569 98.5675 45.1731 111.615 45.1731 111.615L41.6303 126.107C41.6303 126.107 37.2017 126.336 35.8297 127.833C33.572 130.263 36.4723 133.943 36.4723 133.943L48.5597 131.847C48.5597 131.847 54.4644 114.169 54.9333 111.774C55.6454 108.041 56.9132 95.9615 56.9132 92.4046C56.8958 87.7912 54.916 84.921 51.5294 85.2203Z" fill="#94D0D3"/>
<path d="M35.708 54.0888C35.708 54.0888 40.2408 74.9371 42.3075 75.5006C44.3741 76.0817 63.4257 63.4565 63.4257 63.4565C63.4257 63.4565 54.1864 42.4144 50.6089 40.7064C47.0313 38.9808 35.708 54.0888 35.708 54.0888Z" fill="#092F44"/>
<path d="M0.0365595 55.6912C-0.658119 62.0302 9.43208 66.0449 14.1906 66.8725C22.3878 68.2988 50.1402 49 52.6758 40.7593C55.5066 31.5853 47.292 14.3643 29.4735 19.8229C17.3861 23.5207 1.16541 45.3727 0.0365595 55.6912Z" fill="#F7ECE6"/>
<path d="M41.8908 35.1422C44.0964 30.0886 45.5379 23.5559 41.0225 19.5236C37.7922 18.5199 33.9194 18.467 29.4561 19.8405C17.3687 23.5383 1.16531 45.3727 0.0364546 55.7088C-0.154582 57.3816 0.418528 58.8959 1.44318 60.2342C5.17707 61.9246 10.1614 61.1498 14.0169 59.8468C20.2863 57.7162 25.3401 53.631 30.4634 49.5635C35.4824 45.5664 39.3031 41.0762 41.8908 35.1422Z" fill="#092F44"/>
<path d="M122.248 67.436C122.005 66.7317 121.692 66.0626 121.345 65.4286C122.56 63.703 123.133 61.907 121.675 59.8644C120.372 58.0507 117.42 55.9553 115.301 55.4095C112.765 54.7404 111.376 55.744 109.952 57.2055C103.752 55.1277 96.0063 54.3882 88.1564 54.3882C74.5234 54.3882 60.1783 56.4131 60.1783 56.4131C60.1783 56.4131 60.8382 62.2767 52.2242 67.5769C45.7116 71.5916 39.3032 68.4221 39.3032 68.4221C39.3032 68.4221 32.8427 80.9945 37.9486 92.0878C45.7464 109.009 66.3783 106.579 98.6287 103.128C127.527 100.064 125.634 77.0326 122.248 67.436Z" fill="#F7ECE6"/>
<path d="M79.438 95.0106C77.8576 89.6048 70.7198 87.9144 66.6039 91.4361C62.9568 94.5528 62.0711 100.663 62.0537 105.54C67.3506 105.857 73.4117 105.593 80.1848 105.03C80.1848 101.79 80.3237 98.0217 79.438 95.0106Z" fill="#092F44"/>
<path d="M118.67 94.3239C118.566 93.7252 118.392 93.0208 118.236 92.475C116.655 87.0692 109.518 85.3788 105.402 88.9005C101.789 91.9996 100.869 98.0568 100.852 102.899C109.361 101.579 115.04 98.4266 118.67 94.3239Z" fill="#092F44"/>
<path d="M72.6999 92.9504C68.5492 93.3026 66.0484 95.6797 65.7705 101.42C65.5274 106.298 66.3436 119.345 66.3436 119.345L62.8007 133.837C62.8007 133.837 58.7021 133.802 56.8439 135.299C54.2562 137.376 54.8293 139.384 55.6108 140.687C56.1666 141.602 59.5358 142.219 59.5358 142.219L69.7128 139.577C69.7128 139.577 75.6176 121.899 76.0865 119.504C76.7985 115.771 78.0663 103.692 78.0663 100.135C78.0663 95.5388 76.0865 92.6687 72.6999 92.9504Z" fill="#F7ECE6"/>
<path d="M72.6997 92.9504C72.4218 92.968 72.1439 93.0032 71.8661 93.0561C74.6622 93.3378 74.7664 96.5073 74.7664 100.645C74.7664 104.185 73.9675 115.753 73.2554 119.486C72.8039 121.881 67.9759 136.602 67.9759 136.602C67.9759 136.602 65.0756 137.922 63.9294 138.451C60.6644 139.947 59.4661 142.236 59.4661 142.236C59.4834 142.307 59.4661 142.236 59.4661 142.236L69.7473 139.56C69.7473 139.56 75.6521 121.881 76.121 119.486C76.833 115.753 78.1008 103.674 78.1008 100.117C78.0661 95.5388 76.0862 92.6687 72.6997 92.9504Z" fill="#94D0D3"/>
<path d="M109.379 89.5167C103.335 90.6789 102.727 98.409 103.439 101.279C104.151 104.149 111.636 116.616 111.636 116.616L109.136 131.618C109.136 131.618 104.655 132.569 103.526 134.154C102.397 135.739 102.397 137.218 103.057 137.922C103.925 138.873 107.955 139.595 107.955 139.595L116.742 135.827C116.742 135.827 120.737 118.817 120.841 113.024C121.015 103.903 116.464 94.8169 116.464 94.8169C116.464 94.8169 114.606 88.5131 109.379 89.5167Z" fill="#F7ECE6"/>
<path d="M116.447 94.8171C116.447 94.8171 114.641 88.6365 109.535 89.4818C112.505 90.6967 113.616 94.5354 113.616 94.5354C113.616 94.5354 118.167 103.621 117.993 112.742C117.889 118.536 114.207 133.098 114.207 133.098C114.207 133.098 110.49 134.577 109.205 136.109C108.285 137.201 107.938 139.595 107.938 139.595L116.725 135.827C116.725 135.827 120.72 118.817 120.824 113.024C121.015 103.903 116.447 94.8171 116.447 94.8171Z" fill="#94D0D3"/>
<path d="M66.0829 118.201L76.2599 117.197C76.2599 117.197 77.3887 116.775 77.1109 119.064C76.833 121.353 75.27 122.216 75.27 122.216L65.6487 120.49L66.0829 118.201Z" fill="#092F44"/>
<path d="M110.751 115.243L111.359 118.113L120.407 117.25C120.407 117.25 122.664 116.158 122.578 113.816C122.456 110.612 120.737 110.136 120.737 110.136L110.751 115.243Z" fill="#092F44"/>
<path d="M44.2875 99.4128L44.9995 110.471L41.2656 125.808C41.2656 125.808 37.3928 125.79 35.7082 127.34C33.8152 129.065 32.7732 131.266 33.4853 132.605C33.8847 133.327 36.455 133.943 36.455 133.943C36.455 133.943 37.0628 131.231 38.5217 129.312C39.9805 127.393 43.2455 126.688 43.2455 126.688L46.9273 111.193V99.9059L44.2875 99.4128Z" fill="#F7ECE6"/>
<path d="M44.6173 110.154L55.1938 109.45C55.1938 109.45 56.3227 109.027 56.0448 111.316C55.7669 113.605 54.2039 114.468 54.2039 114.468L44.2874 112.742L44.6173 110.154Z" fill="#092F44"/>
<path d="M86.819 103.357L92.6022 112.602L89.8409 127.956C89.8409 127.956 85.8812 127.058 84.1793 128.977C83.0157 130.298 82.5468 131.777 82.8594 132.798C83.172 133.82 87.6353 134.137 87.6353 134.137C87.6353 134.137 87.2358 131.372 88.2084 130.245C89.5283 128.713 92.2896 128.713 92.2896 128.713L95.3636 112.073L90.8308 101.684L86.819 103.357Z" fill="#F7ECE6"/>
<path d="M91.7339 111.263L92.3417 114.133L101.39 113.27C101.39 113.27 103.648 112.179 103.561 109.837C103.439 106.632 101.928 106.192 101.928 106.192L91.7339 111.263Z" fill="#092F44"/>
<path d="M125.443 22.0239C125.131 21.7598 124.662 21.7422 124.314 21.8654C123.845 22.0063 123.498 22.3937 123.238 22.8163C123.151 22.9572 123.047 23.1861 122.994 23.415C122.855 23.8728 122.838 24.5595 123.22 24.8589C123.654 25.211 124.106 24.8589 124.349 24.4715C124.644 23.9785 124.801 23.4502 125.235 23.0628C125.53 22.7811 125.877 22.3937 125.443 22.0239Z" fill="white"/>
<path d="M121.136 61.0616C120.615 59.9875 119.539 58.931 118.601 58.2267C117.923 57.6985 117.489 57.4343 116.847 58.0506C116.43 58.35 116.013 58.843 115.874 59.1599C115.544 59.9347 115.909 60.551 116.465 61.044C116.968 61.4843 117.611 61.854 118.132 62.3118C118.67 62.7697 119.209 63.6677 119.799 63.967C121.432 64.777 121.588 62.0125 121.136 61.0616Z" fill="#94D0D3"/>
<path d="M46.8406 39.1745C44.8086 37.2904 42.8809 29.8068 47.6915 24.2601C52.5022 18.7135 61.8456 5.89459 68.1498 10.4904C74.4714 15.0862 73.9504 22.6226 68.6187 27.324C62.1235 33.0467 51.0781 43.0835 46.8406 39.1745Z" fill="#94D0D3"/>
<path d="M68.1496 10.4903C67.4376 9.9797 66.6908 9.68036 65.9093 9.57471C66.1524 9.69797 66.7776 9.96209 67.5765 10.5432C73.9328 15.0861 72.4392 22.1471 67.1076 26.8485C61.4633 31.8317 52.4151 40.0372 47.344 39.5618C51.9115 42.3439 62.349 32.8354 68.6185 27.324C73.9502 22.6049 74.4712 15.0685 68.1496 10.4903Z" fill="#092F44"/>
<path d="M47.3441 32.3072C45.8852 33.98 47.3441 36.5508 49.2371 35.9873C49.9839 35.9345 50.7306 35.5295 51.2169 34.9837C53.9262 31.8141 49.706 29.5955 47.3441 32.3072Z" fill="#092F44"/>
<path d="M29.0913 37.0966C27.9972 38.6461 27.7888 40.3893 28.6398 41.0056C29.4907 41.6219 31.0538 40.8648 32.1479 39.3328C33.242 37.7833 33.4504 36.0401 32.5994 35.4238C31.7484 34.7899 30.1854 35.547 29.0913 37.0966Z" fill="#94D0D3"/>
<path d="M17.5771 30.2118C16.483 31.7613 16.2746 33.5046 17.1256 34.1209C17.9766 34.7372 19.5396 33.98 20.6337 32.4481C21.7278 30.8985 21.9362 29.1553 21.0853 28.539C20.2517 27.9051 18.6713 28.6623 17.5771 30.2118Z" fill="#94D0D3"/>
<path d="M3.64878 50.2501C2.98884 50.9544 2.76307 54.1416 3.52721 54.5289C4.41293 54.9692 7.17427 54.0887 8.61573 52.997C10.1961 51.8173 4.46503 49.3697 3.64878 50.2501Z" fill="#94D0D3"/>
<path opacity="0.2" d="M2.15527 56.9589C2.15527 56.9589 2.78048 50.2325 9.51886 40.7591C16.4483 31.0041 28.3273 21.1082 28.3273 21.1082L34.9788 20.1045C34.9788 20.1045 19.0012 33.8743 13.6175 39.6146C8.23371 45.3549 4.43035 55.5326 4.43035 55.5326L2.15527 56.9589Z" fill="#F7ECE6"/>
<path d="M93.1928 88.425C92.9844 87.7735 92.7413 87.122 92.4634 86.5057C92.4287 86.4353 92.3418 86.3825 92.255 86.3825C90.883 86.4353 89.4936 86.4881 88.139 86.6466C86.6802 86.8227 84.8219 86.7875 83.9883 85.3436C83.5715 84.6216 83.4499 83.7412 83.3631 82.9312C83.2589 82.0156 83.1894 81.0823 83.12 80.1491C82.9637 78.3354 82.7032 75.8702 84.0578 74.444C84.9782 73.4755 86.6802 73.3699 87.9133 73.2818C89.2852 73.1762 90.6746 73.2114 92.0466 72.9472C92.1855 72.912 92.2376 72.7712 92.2029 72.6479C91.1435 65.7454 88.5906 57.6632 81.9911 54.4937C81.6264 54.5113 81.2443 54.5113 80.8796 54.5289C81.7827 54.881 82.6511 55.3212 83.4673 55.8671C85.0824 56.9588 86.4023 58.4555 87.4791 60.0931C89.6673 63.4563 90.8135 67.4534 91.5256 71.3801C91.595 71.7499 91.6645 72.1373 91.7166 72.507C89.7194 72.8592 87.6701 72.6303 85.6903 73.1057C84.8567 73.2994 84.0231 73.6692 83.4847 74.3735C82.9463 75.0955 82.7205 75.9583 82.6163 76.8387C82.3732 78.758 82.7032 80.7654 82.8768 82.6671C83.0158 84.0934 83.2589 85.7309 84.5267 86.5938C85.6729 87.3685 87.2359 87.1924 88.5385 87.0692C89.7368 86.9635 90.9177 86.8931 92.1161 86.8403C92.3939 87.5094 92.6544 88.2137 92.8628 88.9181C93.1581 89.8865 93.2623 90.8726 93.3491 91.8763C93.5054 93.7604 93.5749 95.6445 93.4359 97.5286C93.2796 99.6944 92.7586 101.948 91.7861 103.85C91.9771 103.832 92.2202 103.832 92.4113 103.815C92.6371 103.339 92.8455 102.741 93.0191 102.248C94.2174 98.7436 94.0959 94.8521 93.7485 91.2072C93.6617 90.2739 93.5054 89.3759 93.1928 88.425Z" fill="#94D0D3"/>
<path d="M57.2431 104.554C56.5485 104.061 55.819 103.551 55.2459 102.882C54.8291 102.389 54.4992 101.772 54.1865 101.209C53.8392 100.593 53.5266 99.9411 53.2487 99.2896C52.6756 97.969 52.1894 96.5779 51.9462 95.1516C51.6857 93.6549 51.6336 92.1406 51.4947 90.6439C51.3731 89.2704 51.0952 87.9498 50.7653 86.6292C50.5569 85.8192 50.2269 85.0092 49.6885 84.3577C49.098 83.6533 48.2297 83.3188 47.3613 83.1779C46.0936 82.9666 44.791 83.0194 43.5059 82.9138C40.8661 82.7025 38.209 81.9629 36.0728 80.3782C36.0555 80.5719 36.0381 80.748 36.0381 80.9416C37.3406 81.8573 38.8168 82.4736 40.3625 82.8786C41.5434 83.1779 42.7591 83.3364 43.9748 83.4244C44.9647 83.4949 45.9546 83.4949 46.9445 83.6005C47.6566 83.6885 48.3686 83.8646 48.9591 84.2872C49.6364 84.7803 49.9837 85.6079 50.2269 86.3826C51.0952 89.1119 51.0605 91.9469 51.4426 94.7466C51.6857 96.5251 52.2936 98.2155 53.0056 99.8354C53.5961 101.156 54.2907 102.653 55.3675 103.656C55.8885 104.15 56.479 104.59 57.0695 104.995C57.4168 105.048 57.7641 105.1 58.1115 105.136C57.7815 104.942 57.521 104.748 57.2431 104.554Z" fill="#94D0D3"/>
<path d="M40.2584 1.03469C39.4769 1.0523 38.869 1.70381 38.4001 2.33771C37.445 3.65834 36.6634 5.06701 36.2466 6.66937C36.0035 7.60262 35.6388 9.31063 36.4724 10.0502C37.306 10.8073 38.2786 10.0854 38.7822 9.29303C39.4943 8.16609 40.0326 6.91589 40.7273 5.78896C41.231 4.97897 41.8735 4.23942 42.1688 3.30617C42.6203 1.86228 41.5436 0.770563 40.2584 1.03469Z" fill="#F7ECE6"/>
<path d="M64.9193 11.3885C64.0683 11.0011 63.0958 11.3533 62.2795 11.7759C60.5776 12.6563 59.0319 13.6952 57.7641 15.1391C57.0174 15.9843 55.7669 17.5866 56.2706 18.8016C56.7742 20.0342 58.1809 19.8053 59.1188 19.2418C60.456 18.4495 61.6543 17.4282 62.9916 16.6182C63.9468 16.0371 65.0062 15.5969 65.7877 14.8045C67.0033 13.5367 66.4302 11.8111 64.9193 11.3885Z" fill="#F7ECE6"/>
</svg>
