<svg width="154" height="437" viewBox="0 0 154 437" fill="none" xmlns="http://www.w3.org/2000/svg">
<g style="mix-blend-mode:multiply">
<path d="M77.3279 436.025C119.673 436.025 154 431.148 154 425.131C154 419.115 119.673 414.238 77.3279 414.238C34.983 414.238 0.655762 419.115 0.655762 425.131C0.655762 431.148 34.983 436.025 77.3279 436.025Z" fill="#B5AEAC"/>
</g>
<g clip-path="url(#clip0)">
<path d="M110.901 307.166L102.878 404.558H88.7207C85.4173 366.664 80.1082 333.373 86.1252 307.166C80.1082 277.654 75.625 210.719 75.625 210.719C86.4791 205.761 103.822 201.275 103.822 201.275C109.485 233.975 110.901 307.166 110.901 307.166Z" fill="#050705"/>
<path d="M135.795 427.46H89.3107C87.0691 427.46 85.2994 425.807 85.0635 423.682C85.0635 423.446 85.0635 423.092 85.0635 422.737L86.9511 398.301C86.9511 398.301 88.8388 397.357 91.5523 396.766C93.2041 396.412 94.5018 395.232 94.9737 393.697C94.9737 393.579 95.0917 393.461 95.0917 393.343C96.1535 388.621 102.878 387.204 104.176 391.69C104.294 392.281 104.53 392.871 104.648 393.461C104.648 393.579 104.766 393.697 104.766 393.815C105.002 394.76 105.12 395.704 105.238 396.53C105.474 398.537 105.474 399.836 105.474 399.836C106.064 400.662 106.654 401.37 107.244 402.197C107.48 402.551 107.833 402.905 108.069 403.259C108.659 404.086 109.249 404.794 109.839 405.62C110.075 405.974 110.429 406.329 110.665 406.683C111.255 407.509 111.963 408.217 112.553 408.926C112.789 409.28 113.143 409.516 113.379 409.87C115.738 412.349 118.216 414.12 121.047 414.474C126.12 415.182 134.261 415.773 138.272 423.092C138.39 423.21 138.39 423.446 138.508 423.564C139.098 425.453 137.682 427.46 135.795 427.46Z" fill="#FFB000"/>
<path d="M135.795 427.46H89.3107C87.0691 427.46 85.2994 425.807 85.0635 423.682H138.508C139.098 425.453 137.682 427.46 135.795 427.46Z" fill="#D28F00"/>
<path d="M108.07 403.377C107.48 404.204 106.418 405.148 104.176 405.974C103.822 406.092 103.35 406.328 102.997 406.447L102.643 405.266C103.114 405.148 103.468 405.03 103.822 404.794C106.418 403.731 107.008 402.787 107.244 402.197C107.48 402.669 107.716 403.023 108.07 403.377Z" fill="white"/>
<path d="M104.176 405.856C104.176 406.682 103.586 407.273 102.76 407.273C101.935 407.273 101.345 406.682 101.345 405.856C101.345 405.03 101.935 404.439 102.76 404.439C103.586 404.439 104.176 405.148 104.176 405.856Z" fill="white"/>
<path d="M110.665 406.801C110.075 407.391 109.131 408.099 107.479 408.808C107.007 409.044 106.535 409.162 106.063 409.398L105.709 408.217C106.181 408.099 106.653 407.863 107.007 407.745C108.659 407.037 109.485 406.447 109.839 405.856C110.075 406.093 110.311 406.447 110.665 406.801Z" fill="white"/>
<path d="M107.479 408.69C107.479 409.516 106.89 410.106 106.064 410.106C105.238 410.106 104.648 409.516 104.648 408.69C104.648 407.863 105.238 407.273 106.064 407.273C106.772 407.273 107.479 407.863 107.479 408.69Z" fill="white"/>
<path d="M113.378 409.988C112.789 410.578 111.845 411.287 110.311 411.877C109.839 412.113 109.367 412.231 108.777 412.467L108.423 411.287C108.895 411.168 109.367 410.932 109.839 410.814C111.255 410.224 112.081 409.634 112.553 409.162C112.789 409.398 113.143 409.634 113.378 409.988Z" fill="white"/>
<path d="M110.311 411.877C110.311 412.703 109.721 413.293 108.895 413.293C108.069 413.293 107.479 412.703 107.479 411.877C107.479 411.05 108.069 410.46 108.895 410.46C109.721 410.342 110.311 411.05 110.311 411.877Z" fill="white"/>
<path d="M105.12 396.648C102.996 396.648 100.991 396.884 100.991 396.884V394.523C102.288 394.051 103.586 393.933 104.648 393.933C104.884 394.878 105.002 395.822 105.12 396.648Z" fill="white"/>
<path d="M67.8383 210.72C67.8383 210.72 67.4844 249.322 61.9393 307.167C58.3999 338.686 54.3886 378.233 50.0234 404.558H35.8659L33.8602 307.167C33.8602 307.167 30.5568 247.315 37.6356 205.998L67.8383 210.72Z" fill="#2C2C2C"/>
<path d="M62.529 424.154C62.175 432.3 36.5735 429.466 32.4442 427.105C30.9105 426.161 30.2026 424.272 30.0846 422.147C29.8487 418.606 31.0285 414.12 32.0903 410.578C33.742 404.794 33.506 404.912 34.6858 401.016C34.6858 401.016 34.4499 394.642 42.8264 392.163C51.203 389.684 54.2704 405.62 55.6862 408.69C56.9839 411.523 62.0571 415.3 62.647 422.265C62.529 422.856 62.529 423.564 62.529 424.154Z" fill="#FFB000"/>
<path d="M38.1073 406.093L37.3994 405.03C37.7534 404.794 45.0681 400.072 51.557 402.905L51.085 404.086C45.304 401.489 38.2253 406.093 38.1073 406.093Z" fill="white"/>
<path d="M38.8148 413.176L38.1069 412.113C38.4609 411.877 45.7756 407.155 52.2645 409.988L51.7926 411.169C46.0116 408.69 38.9328 413.176 38.8148 413.176Z" fill="white"/>
<path d="M38.4613 409.634L37.7534 408.572C38.1074 408.336 45.4221 403.614 51.911 406.447L51.439 407.627C45.658 405.03 38.5793 409.634 38.4613 409.634Z" fill="white"/>
<path d="M39.0507 405.738C39.0507 406.447 38.4609 407.155 37.635 407.155C36.9271 407.155 36.2192 406.565 36.2192 405.738C36.2192 405.03 36.8091 404.322 37.635 404.322C38.4609 404.44 39.0507 405.03 39.0507 405.738Z" fill="white"/>
<path d="M39.1689 409.162C39.1689 409.87 38.579 410.578 37.7532 410.578C36.9273 410.578 36.3374 409.988 36.3374 409.162C36.3374 408.453 36.9273 407.745 37.7532 407.745C38.579 407.745 39.1689 408.335 39.1689 409.162Z" fill="white"/>
<path d="M39.8769 412.586C39.8769 413.294 39.287 414.002 38.4612 414.002C37.7533 414.002 37.0454 413.412 37.0454 412.586C37.0454 411.877 37.6353 411.169 38.4612 411.169C39.287 411.169 39.8769 411.759 39.8769 412.586Z" fill="white"/>
<path d="M53.4448 410.579C53.4448 411.287 52.8549 411.995 52.029 411.995C51.3212 411.995 50.6133 411.405 50.6133 410.579C50.6133 409.87 51.2032 409.162 52.029 409.162C52.8549 409.162 53.4448 409.752 53.4448 410.579Z" fill="white"/>
<path d="M53.0908 406.801C53.0908 407.509 52.5009 408.218 51.675 408.218C50.9672 408.218 50.2593 407.627 50.2593 406.801C50.2593 406.093 50.8492 405.384 51.675 405.384C52.5009 405.502 53.0908 406.093 53.0908 406.801Z" fill="white"/>
<path d="M52.7368 403.141C52.7368 403.849 52.1469 404.558 51.321 404.558C50.4952 404.558 49.9053 403.968 49.9053 403.141C49.9053 402.433 50.4952 401.725 51.321 401.725C52.1469 401.725 52.7368 402.433 52.7368 403.141Z" fill="white"/>
<path d="M62.5288 424.154C62.1749 432.3 36.5733 429.467 32.4441 427.106C30.9103 426.161 30.2025 424.272 30.0845 422.147C32.798 423.682 37.5172 425.571 44.5959 425.689C53.3264 425.807 59.5793 424.036 62.5288 422.266C62.5288 422.856 62.5288 423.564 62.5288 424.154Z" fill="#D28F00"/>
<path d="M46.248 394.642C46.248 394.642 42.3547 394.288 39.0513 396.058L39.4052 398.655C39.4052 398.655 44.0064 397.239 47.0739 397.475C47.1919 397.475 47.0739 395.704 46.248 394.642Z" fill="white"/>
<path d="M39.6412 195.845C39.6412 195.845 34.8041 212.844 34.922 228.073C34.922 228.073 58.5179 238.343 88.4847 227.01C100.755 222.406 107.007 208.713 102.524 196.317C102.524 196.199 102.406 196.081 102.406 195.845C102.406 195.845 64.063 194.311 39.6412 195.845Z" fill="#2C2C2C"/>
<path d="M55.8044 76.1425C55.8044 76.1425 21.0004 72.0107 6.37099 90.4265C-8.25846 108.842 4.24736 186.874 20.8825 193.838C37.5176 200.803 62.0573 197.38 68.1922 183.686C74.4451 170.11 73.2653 101.169 55.8044 76.1425Z" fill="#FFB000"/>
<path d="M52.2649 83.9338C52.2649 83.9338 22.7701 85.3504 14.3935 99.9887C6.01698 114.745 11.3261 173.534 25.4836 182.506C39.7591 191.478 54.6245 186.283 65.0067 169.166C66.4225 137.765 63.591 108.606 52.2649 83.9338Z" fill="#D28F00"/>
<path d="M123.053 201.275C123.053 201.275 126.71 202.692 129.66 204.699C132.491 206.588 136.03 209.067 137.682 210.365C139.806 211.9 137.446 213.553 134.379 211.664C131.311 209.775 130.603 209.303 130.603 209.303C130.603 209.303 140.16 219.337 141.457 222.76C142.637 225.948 137.092 220.636 132.255 216.622C132.255 216.622 139.806 227.837 138.862 229.962C137.682 232.677 128.48 219.101 128.48 219.101C128.48 219.101 133.671 230.198 132.255 230.67C130.721 231.142 123.997 220.518 123.997 220.518C123.997 220.518 126.946 228.427 125.884 228.427C123.879 228.309 114.322 213.08 115.266 204.935C115.62 204.699 121.165 200.921 123.053 201.275Z" fill="#FCCFB6"/>
<path d="M131.901 213.671C131.901 213.671 127.3 218.275 121.283 218.157C121.401 218.157 126.828 220.99 131.901 213.671Z" fill="#F88968"/>
<path d="M125.412 212.608C125.412 212.608 118.923 208.594 122.581 203.046C122.699 203.046 116.446 208.004 125.412 212.608Z" fill="#F88968"/>
<path d="M85.0635 82.045C85.0635 82.045 88.4849 119.113 97.5693 150.278C101.345 166.923 102.878 187.464 115.03 207.178C117.862 204.109 123.525 202.456 126.828 202.692C126.356 203.282 111.609 161.729 109.603 146.5C109.603 122.654 102.642 98.0998 93.0861 79.3298C93.0861 79.4479 89.3107 80.8645 85.0635 82.045Z" fill="#A0E6B7"/>
<path d="M22.7702 207.532C22.7702 207.532 26.4275 210.011 28.4332 212.963C30.5568 215.914 32.5625 219.101 33.8602 220.872C35.394 223.115 32.9164 223.587 30.9107 222.171C27.9613 219.928 27.2534 218.157 27.2534 218.157C27.2534 218.157 32.9164 231.378 32.9164 235.274C32.9164 238.816 29.495 231.615 26.1916 225.948C26.1916 225.948 29.495 239.642 27.7253 241.413C25.4837 243.656 21.5904 227.011 21.5904 227.011C21.5904 227.011 22.6522 239.76 21.1185 239.642C19.3488 239.524 16.7532 226.656 16.7532 226.656C16.7532 226.656 16.7532 235.392 15.6914 235.038C13.6858 234.212 10.0284 215.914 13.9217 208.241C14.2757 208.123 21.0005 206.47 22.7702 207.532Z" fill="#FCCFB6"/>
<path d="M23.714 82.0449C23.714 82.0449 8.96657 117.932 7.43284 150.278C5.54517 167.277 8.2587 188.054 13.3318 210.602C17.4611 212.49 21.9443 210.838 24.6578 208.831C23.95 209.185 20.6465 166.451 23.714 151.458L34.9221 109.787C34.9221 109.787 35.9839 89.9543 23.714 82.0449Z" fill="#A0E6B7"/>
<path d="M107.361 205.998C82.4676 221.698 57.574 218.983 31.3825 205.998L38.8152 170.228L23.7139 82.045L29.9668 79.9201C34.8039 78.2674 39.7591 77.0869 44.8322 76.2606C54.5065 74.6079 64.2988 74.3718 73.9731 75.5523C78.1024 76.0245 82.2317 76.7328 86.243 77.7952L93.0858 79.4479C96.6252 123.953 99.8106 170.937 107.361 205.998Z" fill="#A0E6B7"/>
<path d="M64.1807 85.9407C52.2647 85.9407 46.3658 78.6216 44.832 76.2606C54.5063 74.6079 64.2986 74.3718 73.973 75.5523C74.5629 79.4479 74.0909 85.9407 64.1807 85.9407Z" fill="#A0E6B7"/>
<path d="M31.3828 78.3854C31.3828 78.3854 53.7989 134.105 37.8717 165.152C35.3941 168.458 35.866 176.957 36.4559 180.499C36.4559 180.499 56.9844 165.27 52.7371 128.439C48.4898 91.4889 40.2313 76.0244 40.2313 76.0244C40.2313 76.0244 36.102 71.7745 31.3828 78.3854Z" fill="#FFB000"/>
<path d="M77.7485 76.0243C77.7485 76.0243 93.3218 99.5163 100.165 160.43C100.165 160.43 107.243 114.745 90.0184 78.7394C90.1364 78.7394 87.5408 74.8438 77.7485 76.0243Z" fill="#FFB000"/>
<path d="M51.321 30.3388C51.321 30.3388 32.0904 31.7554 27.6072 22.7836C23.1239 13.8118 61.1133 16.0547 68.664 20.1865L51.321 30.3388Z" fill="#FFB000"/>
<path d="M90.9624 19.1243C90.9624 19.1243 96.1535 22.5477 94.5018 31.8737C92.7321 41.1996 89.1927 42.2621 89.1927 42.2621C89.1927 42.2621 83.4117 21.6033 90.9624 19.1243Z" fill="#32324C"/>
<path d="M71.142 63.7473L70.3162 75.5523L69.9622 80.9826C63.1194 85.9407 52.1473 78.7396 52.1473 78.7396L51.4395 60.2058C54.6249 58.1989 62.4115 61.0321 67.2487 62.4487C69.6083 63.157 71.142 63.7473 71.142 63.7473Z" fill="#FCCFB6"/>
<path d="M71.1422 63.7472L70.3163 75.5522C62.4117 73.5453 55.9229 62.3306 55.9229 62.3306L67.3669 62.4486C69.6085 63.1569 71.1422 63.7472 71.1422 63.7472Z" fill="#F6AA93"/>
<path d="M93.3222 33.9985C93.3222 34.3526 93.3222 34.8248 93.3222 35.179C93.2042 42.6161 92.0244 51.706 90.8446 59.0251C89.5468 66.8164 82.1141 72.0106 74.4455 70.594C66.7768 69.1774 57.6924 67.0525 51.7934 64.4554C51.4395 63.9832 51.0856 63.511 50.8496 63.0388C48.1361 58.789 46.4844 53.9489 45.4225 48.9908C45.0686 46.984 44.7147 44.9771 44.4787 42.9703C44.4787 42.8522 44.4787 42.6161 44.3607 42.4981C44.2428 32.2277 44.7147 22.1935 44.7147 22.1935C55.6868 8.14549 86.9513 13.2216 91.9064 23.374C92.9682 25.6169 93.3222 29.5126 93.3222 33.9985Z" fill="#FCCFB6"/>
<path d="M50.7317 63.0389C48.0182 58.7891 46.3665 53.9491 45.3047 48.991C46.8384 48.991 48.7261 49.4632 51.3216 50.5256C51.3216 50.5256 52.0295 57.8447 50.7317 63.0389Z" fill="#32324C"/>
<path d="M73.8551 40.9636C73.8551 42.4982 73.1472 43.7968 72.3213 43.7968C71.4955 43.7968 70.7876 42.4982 70.7876 40.9636C70.7876 39.4289 71.4955 38.1304 72.3213 38.1304C73.1472 38.1304 73.8551 39.4289 73.8551 40.9636Z" fill="#32324C"/>
<path d="M89.547 40.7275C89.547 42.2621 88.8391 43.5607 88.0132 43.5607C87.1874 43.5607 86.4795 42.2621 86.4795 40.7275C86.4795 39.1928 87.1874 37.8943 88.0132 37.8943C88.8391 37.8943 89.547 39.1928 89.547 40.7275Z" fill="#32324C"/>
<path d="M44.3608 38.1303C44.3608 38.1303 49.3159 34.8249 53.5632 40.6094H56.8666C56.8666 40.6094 56.6306 33.8805 58.1643 30.2209C59.6981 26.5614 65.951 26.5614 66.8948 22.3116C66.8948 22.3116 82.94 30.339 92.2604 23.9643C102.643 16.7632 69.3724 2.00695 53.7991 9.91631C41.2933 16.0549 41.7652 26.7975 44.3608 38.1303Z" fill="#32324C"/>
<path d="M66.541 37.1859C66.541 37.1859 67.9568 34.1166 70.9062 33.2902C73.5018 32.5819 75.5074 33.1722 76.4513 33.7624C76.9232 33.9985 77.0412 34.4708 76.9232 34.943C76.6872 35.4152 76.0973 35.7693 75.6254 35.5332C73.9737 34.5888 70.4343 33.7624 66.541 37.1859Z" fill="#32324C"/>
<path d="M93.322 33.9984C93.322 34.3526 93.322 34.8248 93.322 35.1789C90.3725 33.7623 87.8949 34.5887 86.5972 35.1789C86.4792 35.297 86.3612 35.297 86.2432 35.297C85.8893 35.297 85.5353 35.0609 85.2994 34.7067C85.1814 34.2345 85.2994 33.7623 85.7713 33.5262C86.7151 33.054 88.6028 32.3457 91.3163 32.936C92.0242 33.1721 92.7321 33.5262 93.322 33.9984Z" fill="#32324C"/>
<path d="M53.563 40.6093C53.563 40.6093 48.4899 34.5888 44.3606 38.1303C39.7594 42.0259 43.5347 55.1295 52.8551 54.6573L53.563 40.6093Z" fill="#FCCFB6"/>
<path d="M52.9729 51.9421C52.619 51.9421 52.265 51.588 52.265 51.2338C51.4392 44.505 47.3099 43.5606 47.3099 43.5606C46.838 43.4425 46.602 42.9703 46.72 42.6162C46.838 42.144 47.1919 41.9079 47.6638 42.0259C47.8998 42.0259 52.8549 43.2064 53.9168 51.1158C53.9168 51.588 53.6808 51.9421 53.2089 52.0602C52.9729 51.9421 52.9729 51.9421 52.9729 51.9421Z" fill="#F6AA93"/>
<path d="M47.664 47.8104C47.546 47.8104 47.3101 47.6923 47.1921 47.5743C46.8382 47.2201 46.8382 46.7479 47.0741 46.3938C47.1921 46.2757 48.7258 44.505 51.4394 45.0952C51.9113 45.2133 52.1472 45.5674 52.0293 46.0396C51.9113 46.5118 51.4394 46.7479 51.0854 46.6299C49.3157 46.2757 48.3719 47.3382 48.2539 47.4562C48.1359 47.6923 47.9 47.8104 47.664 47.8104Z" fill="#F6AA93"/>
<path d="M81.524 57.4905C78.4565 57.2544 74.5632 56.192 71.3778 52.6504C71.0238 52.2963 71.1418 51.8241 71.4957 51.4699C71.8497 51.1158 72.3216 51.2338 72.6755 51.588C78.1026 57.7266 86.5971 55.3656 86.5971 55.3656C87.069 55.2476 87.541 55.4837 87.6589 55.9559C87.7769 56.4281 87.541 56.9003 87.069 57.0183C86.8331 57.0183 84.4735 57.6086 81.524 57.4905Z" fill="#F6AA93"/>
<path d="M78.6925 61.5042C74.9172 61.2681 73.0295 58.789 72.9115 58.671C72.6756 58.3168 72.6756 57.8446 73.0295 57.4905C73.3834 57.2544 73.8554 57.2544 74.2093 57.6085C74.3273 57.7266 76.4509 60.4417 80.8161 59.6154C81.2881 59.4973 81.642 59.8515 81.76 60.3237C81.878 60.7959 81.524 61.15 81.0521 61.2681C80.2262 61.5042 79.4004 61.5042 78.6925 61.5042Z" fill="#F6AA93"/>
<path d="M82.4679 49.9353C82.2319 49.9353 81.9959 49.8173 81.878 49.5812C81.642 49.227 81.642 48.7548 81.9959 48.4007L84.1196 46.748L82.2319 46.2758C81.878 46.1577 81.642 45.9216 81.642 45.5675L80.6982 40.3733C80.5802 39.9011 80.9341 39.5469 81.406 39.4289C81.878 39.3108 82.2319 39.665 82.3499 40.1372L83.1757 44.8592L86.2432 45.5675C86.5971 45.6855 86.8331 45.9216 86.8331 46.1577C86.9511 46.5119 86.8331 46.748 86.4792 46.9841L82.9398 49.6992C82.8218 49.9353 82.7038 49.9353 82.4679 49.9353Z" fill="#F6AA93"/>
<path d="M94.6198 26.4432C94.6198 26.4432 93.9119 26.9154 92.3782 27.5057C91.7883 25.6169 88.3669 16.409 80.8162 16.527C73.2655 16.6451 72.0857 27.6237 71.9677 29.7486C58.872 29.1584 42.3549 25.6169 42.3549 25.6169C42.0009 5.1942 63.5912 -3.77761 79.6364 1.53464C97.3333 7.3191 94.6198 26.4432 94.6198 26.4432Z" fill="#9570FF"/>
<path d="M72.9114 24.6725C72.9114 24.6725 80.58 26.9155 91.3162 23.8462C92.26 24.6725 92.6139 26.3252 92.496 27.5057C92.496 27.5057 89.4285 30.8112 72.0855 29.7487C71.9675 29.6307 70.9057 27.1516 72.9114 24.6725Z" fill="#9570FF"/>
</g>
<defs>
<clipPath id="clip0">
<rect width="141.811" height="429.584" fill="white"/>
</clipPath>
</defs>
</svg>
