<svg width="45" height="44" viewBox="0 0 45 44" fill="none" xmlns="http://www.w3.org/2000/svg">
<path d="M23.3633 43.5391L25.3164 41.6836C25.8047 41.1953 25.8047 40.4141 25.3164 40.0234L10.1797 24.7891H43.5781C44.1641 24.7891 44.75 24.3008 44.75 23.6172V20.8828C44.75 20.2969 44.1641 19.7109 43.5781 19.7109H10.1797L25.3164 4.57422C25.8047 4.18359 25.8047 3.40234 25.3164 2.91406L23.3633 1.05859C22.9727 0.570312 22.1914 0.570312 21.7031 1.05859L1.29297 21.4688C0.804688 21.957 0.804688 22.6406 1.29297 23.1289L21.7031 43.5391C22.1914 44.0273 22.9727 44.0273 23.3633 43.5391Z" fill="white"/>
</svg>
