<svg width="33" height="47" viewBox="0 0 33 47" fill="none" xmlns="http://www.w3.org/2000/svg">
<path d="M32.3604 41.5901V46.2168C32.3604 46.6493 32.0097 47 31.5772 47C31.1446 47 30.7939 46.6493 30.7939 46.2168V41.5901C30.7939 37.9877 27.8788 35.0725 24.2762 35.0726C22.5716 35.0726 21.025 34.2042 20.1389 32.7495C19.9139 32.3801 20.0309 31.8981 20.4004 31.6731C20.7698 31.4481 21.2516 31.5652 21.4767 31.9346C22.0761 32.9187 23.1226 33.5061 24.2762 33.5061C28.7442 33.5059 32.3604 37.1217 32.3604 41.5901ZM18.6924 33.7389C18.7846 34.1616 18.5166 34.5788 18.0939 34.671C16.0327 35.12 13.9363 34.6705 12.2671 33.5312C10.6147 35.3019 8.43162 35.0726 8.72386 35.0726C5.12149 35.0725 2.20611 37.9874 2.20611 41.5901V46.2168C2.20611 46.6493 1.85542 47 1.42288 47C0.99034 47 0.639648 46.6493 0.639648 46.2168V41.5901C0.639648 37.1222 4.25514 33.5061 8.72367 33.5061C10.5312 33.5061 11.9965 32.0498 11.9965 30.2418V30.0355C8.57779 28.4008 6.17817 24.9657 6.0319 20.9654C4.62502 20.6271 3.57676 19.3679 3.57676 17.8697V13.8093C3.53398 11.8219 3.82906 6.84415 7.45845 3.34566C11.94 -0.974446 19.1269 -0.700022 24.4116 1.84401C24.9267 2.09219 25.0049 2.78809 24.5771 3.14848C27.2543 3.8015 29.5629 5.44726 31.046 7.80263C31.1226 7.92393 31.2628 8.11436 31.2262 8.41815C31.2035 8.6072 31.1472 8.76718 31.0015 8.91501C30.0469 9.88309 29.5213 11.1659 29.5213 12.5273V17.8699C29.5213 18.3024 29.1706 18.6531 28.738 18.6531C28.3055 18.6531 27.9548 18.3024 27.9548 17.8699V12.5273C27.9548 10.9572 28.4912 9.4669 29.4764 8.26973C27.9748 6.12211 25.632 4.74088 22.9823 4.45716L21.6057 4.30972C20.8007 4.22356 20.6428 3.1146 21.3909 2.8067L22.017 2.54892C13.8629 -0.293721 5.14313 2.86475 5.14313 13.8008V17.8697C5.14313 18.4912 5.50106 19.0313 6.02426 19.3026V14.225C6.02426 11.2019 8.4838 8.74241 11.5069 8.74241H21.4931C24.5161 8.74241 26.9757 11.2018 26.9757 14.2247V20.6377C26.9757 27.4493 20.3194 32.6231 13.5462 30.6291C13.5022 31.1879 13.363 31.7272 13.1364 32.2285C14.454 33.1333 16.1179 33.4983 17.7604 33.1403C18.183 33.0483 18.6003 33.3163 18.6924 33.7389ZM16.5 29.4874C21.4126 29.4874 25.4092 25.4908 25.4092 20.5782V14.2247C25.4092 12.0656 23.6524 10.3089 21.4931 10.3089H11.5069C9.34751 10.3089 7.59072 12.0657 7.59072 14.225V20.5782C7.59072 25.4908 11.5874 29.4874 16.5 29.4874ZM24.4302 42.9859H22.0805C21.648 42.9859 21.2973 43.3366 21.2973 43.7692C21.2973 44.2017 21.648 44.5524 22.0805 44.5524H24.4302C24.8627 44.5524 25.2134 44.2017 25.2134 43.7692C25.2134 43.3366 24.8627 42.9859 24.4302 42.9859Z" fill="white"/>
</svg>
