<svg width="50" height="50" viewBox="0 0 50 50" fill="none" xmlns="http://www.w3.org/2000/svg">
<path d="M27.6609 43.1659L22.6262 43.8225C21.4688 43.9741 20.3726 44.4312 19.4503 45.1468C18.5281 45.8625 17.8131 46.8109 17.3789 47.8944L16.9882 48.8712C16.9075 49.0734 16.9104 49.2994 16.9963 49.4995C17.0821 49.6996 17.244 49.8574 17.4462 49.9382C17.6485 50.019 17.8745 50.0161 18.0746 49.9302C18.2747 49.8443 18.4325 49.6824 18.5133 49.4802L18.9031 48.5043C19.2283 47.6914 19.7643 46.9799 20.456 46.4431C21.1476 45.9062 21.9698 45.5635 22.838 45.4501L27.8727 44.7935C28.0886 44.7654 28.2846 44.6527 28.4174 44.4802C28.5503 44.3076 28.6091 44.0893 28.581 43.8734C28.553 43.6575 28.4402 43.4615 28.2677 43.3287C28.0951 43.1958 27.8769 43.137 27.6609 43.1651V43.1659Z" fill="white"/>
<path d="M48.8565 28.6739L49.3424 28.055C49.8129 27.4584 50.0448 26.7081 49.9928 25.95C49.9409 25.1919 49.6089 24.4802 49.0614 23.9533C48.514 23.4264 47.7901 23.1219 47.0306 23.099C46.271 23.0762 45.5302 23.3366 44.952 23.8296L42.1531 26.2099C42.1039 26.1278 42.0554 26.0457 41.998 25.9686C41.747 25.6347 41.4303 25.3557 41.0675 25.1487C40.7047 24.9417 40.3034 24.8111 39.8882 24.765C39.4731 24.7189 39.0529 24.7581 38.6535 24.8804C38.254 25.0027 37.8839 25.2055 37.5657 25.4761L36.2328 26.6047C35.9845 26.2734 35.6717 25.9959 35.3132 25.789C34.9547 25.5821 34.558 25.45 34.147 25.4007C33.736 25.3515 33.3193 25.3861 32.922 25.5024C32.5248 25.6188 32.1553 25.8145 31.8358 26.0778L28.9581 28.4474C28.7901 28.5858 28.6839 28.7854 28.663 29.0021C28.642 29.2188 28.7081 29.435 28.8465 29.603C28.9849 29.7711 29.1845 29.8773 29.4012 29.8982C29.6179 29.9191 29.8341 29.8531 30.0022 29.7147L32.8774 27.3434C33.0247 27.2215 33.1952 27.1308 33.3787 27.0768C33.5621 27.0227 33.7545 27.0065 33.9444 27.029C34.1411 27.0533 34.3306 27.118 34.5009 27.2191C34.6713 27.3203 34.8189 27.4557 34.9343 27.6167C34.9482 27.6348 34.9515 27.6619 34.9646 27.6808L30.3477 31.6049C29.8575 31.2914 29.288 31.1243 28.7061 31.1231H23.197C20.7404 31.0582 18.3072 31.6162 16.1243 32.745L14.4064 33.6544C8.20033 36.9411 3.37603 42.341 0.806779 48.8768C0.766966 48.9772 0.747375 49.0845 0.749132 49.1925C0.750888 49.3006 0.773957 49.4072 0.817014 49.5063C0.860071 49.6054 0.92227 49.695 1.00004 49.77C1.07781 49.845 1.16963 49.9039 1.27022 49.9434C1.37081 49.9828 1.4782 50.002 1.58622 49.9998C1.69425 49.9977 1.80078 49.9742 1.89972 49.9308C1.99865 49.8873 2.08804 49.8248 2.16275 49.7468C2.23746 49.6687 2.29602 49.5767 2.33508 49.4759C4.75993 43.3045 9.31438 38.2053 15.1738 35.1015L16.8926 34.1912C18.8399 33.1907 21.0086 32.6985 23.197 32.7606H28.7135C29.0324 32.7503 29.3441 32.8564 29.5905 33.0591C29.8368 33.2618 30.001 33.5472 30.0522 33.8621C30.0704 34.0335 30.0524 34.2068 29.9993 34.3708C29.9462 34.5348 29.8593 34.6858 29.7442 34.8141C29.6291 34.9424 29.4883 35.0451 29.331 35.1155C29.1736 35.1859 29.0033 35.2225 28.8309 35.223H21.8542C21.6365 35.223 21.4278 35.3094 21.2738 35.4634C21.1199 35.6173 21.0334 35.8261 21.0334 36.0438C21.0334 36.2614 21.1199 36.4702 21.2738 36.6241C21.4278 36.7781 21.6365 36.8645 21.8542 36.8645H37.4492C37.6414 36.8646 37.8276 36.7973 37.9753 36.6741L46.019 29.9724C46.2088 29.8114 46.4366 29.7015 46.6808 29.6532C46.925 29.605 47.1775 29.6199 47.4143 29.6966H47.425C47.5731 29.7485 47.7092 29.8294 47.8256 29.9346C47.9592 30.0551 48.0668 30.2017 48.1418 30.3652C48.2167 30.5288 48.2574 30.706 48.2614 30.8859C48.2661 31.0639 48.2343 31.2409 48.168 31.406C48.1016 31.5712 48.0021 31.721 47.8756 31.8462L40.262 39.4607C38.723 40.9956 36.7215 41.9812 34.5666 42.2653L30.9206 42.7414C30.7076 42.7728 30.5155 42.8866 30.3857 43.0583C30.2558 43.23 30.1986 43.4458 30.2264 43.6593C30.2541 43.8728 30.3647 44.0668 30.5341 44.1995C30.7036 44.3323 30.9185 44.3932 31.1324 44.369L34.7783 43.8929C37.2901 43.5615 39.6231 42.413 41.4177 40.6246L49.0313 33.0109C49.3152 32.7281 49.5385 32.3904 49.6878 32.0185C49.8371 31.6467 49.9091 31.2483 49.8996 30.8477C49.8901 30.447 49.7992 30.0525 49.6324 29.6882C49.4656 29.3238 49.2265 28.9971 48.9295 28.7281C48.9057 28.7076 48.8794 28.6936 48.8565 28.6739ZM44.9659 28.7108L37.152 35.223H31.4254C31.6504 34.7481 31.7415 34.2208 31.6889 33.6979C31.6565 33.3974 31.5732 33.1046 31.4426 32.832L38.6311 26.7213C38.7789 26.5958 38.9507 26.5018 39.1361 26.4452C39.3215 26.3886 39.5165 26.3705 39.7092 26.392C39.9018 26.4136 40.088 26.4743 40.2564 26.5704C40.4247 26.6665 40.5716 26.7961 40.688 26.9511C40.767 27.0567 40.8301 27.1734 40.8751 27.2974L34.6963 32.5505C34.6107 32.6192 34.5399 32.7043 34.4878 32.8008C34.4357 32.8973 34.4035 33.0033 34.3931 33.1125C34.3827 33.2217 34.3943 33.3318 34.4272 33.4365C34.46 33.5411 34.5135 33.6381 34.5845 33.7217C34.6555 33.8053 34.7425 33.8738 34.8404 33.9232C34.9384 33.9726 35.0452 34.0019 35.1546 34.0093C35.264 34.0168 35.3738 34.0022 35.4775 33.9665C35.5812 33.9307 35.6767 33.8746 35.7583 33.8014L46.0182 25.0805C46.1659 24.955 46.3378 24.8611 46.5232 24.8045C46.7086 24.7479 46.9036 24.7298 47.0963 24.7513C47.2889 24.7728 47.4751 24.8335 47.6434 24.9296C47.8118 25.0258 47.9587 25.1553 48.0751 25.3103C48.2625 25.5609 48.3623 25.8662 48.3589 26.179C48.3555 26.4919 48.2491 26.795 48.0562 27.0414L47.2888 28.0082C46.8743 27.9638 46.4551 28.0031 46.056 28.1238C45.657 28.2445 45.2863 28.4441 44.9659 28.7108Z" fill="white"/>
<path d="M9.77874 23.7319H13.5946L21.5776 30.1185C21.6983 30.2151 21.8439 30.2757 21.9975 30.2932C22.1512 30.3108 22.3067 30.2845 22.4461 30.2175C22.5855 30.1505 22.7031 30.0455 22.7854 29.9146C22.8677 29.7836 22.9114 29.6321 22.9113 29.4774V23.7319H34.4023C35.4904 23.7306 36.5335 23.2978 37.3028 22.5285C38.0722 21.7591 38.505 20.716 38.5063 19.628V13.8825C38.5063 13.6648 38.4198 13.456 38.2659 13.3021C38.112 13.1482 37.9032 13.0617 37.6855 13.0617C37.4678 13.0617 37.259 13.1482 37.1051 13.3021C36.9512 13.456 36.8647 13.6648 36.8647 13.8825V19.628C36.8647 20.2811 36.6053 20.9074 36.1435 21.3691C35.6817 21.8309 35.0554 22.0904 34.4023 22.0904H22.0905C21.8729 22.0904 21.6641 22.1768 21.5102 22.3308C21.3562 22.4847 21.2698 22.6935 21.2698 22.9111V27.7694L14.3957 22.2701C14.25 22.1537 14.0691 22.0903 13.8827 22.0904H9.77874C9.12568 22.0904 8.49937 21.8309 8.03759 21.3691C7.5758 20.9074 7.31638 20.2811 7.31638 19.628V9.77855C7.31638 9.56086 7.2299 9.35209 7.07598 9.19817C6.92205 9.04424 6.71328 8.95776 6.49559 8.95776C6.27791 8.95776 6.06914 9.04424 5.91521 9.19817C5.76128 9.35209 5.6748 9.56086 5.6748 9.77855V19.628C5.67611 20.716 6.1089 21.7591 6.87826 22.5285C7.64761 23.2978 8.69071 23.7306 9.77874 23.7319Z" fill="white"/>
<path d="M6.49559 7.3163C6.71328 7.3163 6.92205 7.22982 7.07598 7.07589C7.2299 6.92196 7.31638 6.71319 7.31638 6.49551V4.85393C7.31638 4.20088 7.5758 3.57456 8.03759 3.11278C8.49937 2.651 9.12568 2.39157 9.77874 2.39157H34.4023C35.0554 2.39157 35.6817 2.651 36.1435 3.11278C36.6053 3.57456 36.8647 4.20088 36.8647 4.85393V10.5994C36.8647 10.8171 36.9512 11.0259 37.1051 11.1798C37.259 11.3338 37.4678 11.4202 37.6855 11.4202C37.9032 11.4202 38.112 11.3338 38.2659 11.1798C38.4198 11.0259 38.5063 10.8171 38.5063 10.5994V4.85393C38.505 3.7659 38.0722 2.72281 37.3028 1.95345C36.5335 1.1841 35.4904 0.751303 34.4023 0.75H9.77874C8.69071 0.751303 7.64761 1.1841 6.87826 1.95345C6.1089 2.72281 5.67611 3.7659 5.6748 4.85393V6.49551C5.6748 6.71319 5.76128 6.92196 5.91521 7.07589C6.06914 7.22982 6.27791 7.3163 6.49559 7.3163Z" fill="white"/>
<path d="M14.703 4.0332C13.3973 4.03451 12.1455 4.55378 11.2222 5.47706C10.2989 6.40034 9.77963 7.65221 9.77832 8.95792C9.77711 10.0266 10.1298 11.0656 10.7813 11.9128C10.4218 12.176 10.141 12.5326 9.96939 12.9439C9.79776 13.3551 9.7418 13.8055 9.80754 14.2462C9.87328 14.687 10.0582 15.1014 10.3424 15.4447C10.6266 15.788 10.9992 16.0471 11.4199 16.194V16.345C11.4199 17.2158 11.7658 18.0508 12.3815 18.6665C12.9972 19.2823 13.8323 19.6282 14.703 19.6282C15.5738 19.6282 16.4089 19.2823 17.0246 18.6665C17.6403 18.0508 17.9862 17.2158 17.9862 16.345V16.194C18.4075 16.0473 18.7807 15.7883 19.0653 15.4448C19.3499 15.1013 19.5351 14.6865 19.6009 14.2452C19.6666 13.804 19.6105 13.3532 19.4384 12.9417C19.2663 12.5301 18.985 12.1734 18.6248 11.9103C19.2758 11.0638 19.6284 10.0258 19.6278 8.95792C19.6265 7.65221 19.1072 6.40034 18.1839 5.47706C17.2606 4.55378 16.0088 4.03451 14.703 4.0332ZM14.703 5.67478C15.5738 5.67478 16.4089 6.02068 17.0246 6.63639C17.6403 7.2521 17.9862 8.08718 17.9862 8.95792C17.9836 9.42809 17.8784 9.89202 17.6779 10.3173C17.4775 10.7426 17.1866 11.119 16.8256 11.4203H15.5238V10.1185L16.1041 9.53822C16.2536 9.38342 16.3364 9.17609 16.3345 8.96088C16.3326 8.74567 16.2463 8.53981 16.0941 8.38763C15.942 8.23545 15.7361 8.14913 15.5209 8.14725C15.3057 8.14538 15.0983 8.22812 14.9435 8.37763L14.703 8.61812L14.4626 8.37763C14.3078 8.22812 14.1004 8.14538 13.8852 8.14725C13.67 8.14913 13.4641 8.23545 13.312 8.38763C13.1598 8.53981 13.0735 8.74567 13.0716 8.96088C13.0697 9.17609 13.1524 9.38342 13.302 9.53822L13.8823 10.1185V11.4203H12.5805C12.2195 11.119 11.9286 10.7426 11.7282 10.3173C11.5277 9.89202 11.4225 9.42809 11.4199 8.95792C11.4199 8.08718 11.7658 7.2521 12.3815 6.63639C12.9972 6.02068 13.8323 5.67478 14.703 5.67478ZM14.703 17.9866C14.2677 17.9866 13.8501 17.8136 13.5423 17.5058C13.2344 17.1979 13.0615 16.7804 13.0615 16.345H16.3446C16.3446 16.7804 16.1717 17.1979 15.8638 17.5058C15.556 17.8136 15.1384 17.9866 14.703 17.9866ZM17.1654 14.7034H12.2407C12.023 14.7034 11.8142 14.617 11.6603 14.463C11.5064 14.3091 11.4199 14.1003 11.4199 13.8826C11.4199 13.665 11.5064 13.4562 11.6603 13.3023C11.8142 13.1483 12.023 13.0619 12.2407 13.0619H17.1654C17.3831 13.0619 17.5919 13.1483 17.7458 13.3023C17.8997 13.4562 17.9862 13.665 17.9862 13.8826C17.9862 14.1003 17.8997 14.3091 17.7458 14.463C17.5919 14.617 17.3831 14.7034 17.1654 14.7034Z" fill="white"/>
<path d="M33.5819 6.49561H24.5532C24.3355 6.49561 24.1268 6.58208 23.9728 6.73601C23.8189 6.88994 23.7324 7.09871 23.7324 7.31639C23.7324 7.53408 23.8189 7.74285 23.9728 7.89678C24.1268 8.0507 24.3355 8.13718 24.5532 8.13718H33.5819C33.7995 8.13718 34.0083 8.0507 34.1622 7.89678C34.3162 7.74285 34.4026 7.53408 34.4026 7.31639C34.4026 7.09871 34.3162 6.88994 34.1622 6.73601C34.0083 6.58208 33.7995 6.49561 33.5819 6.49561Z" fill="white"/>
<path d="M34.4021 10.5994C34.4021 10.3817 34.3156 10.1729 34.1617 10.019C34.0078 9.86504 33.799 9.77856 33.5813 9.77856H22.0903C21.8726 9.77856 21.6639 9.86504 21.5099 10.019C21.356 10.1729 21.2695 10.3817 21.2695 10.5994C21.2695 10.817 21.356 11.0258 21.5099 11.1797C21.6639 11.3337 21.8726 11.4201 22.0903 11.4201H33.5813C33.799 11.4201 34.0078 11.3337 34.1617 11.1797C34.3156 11.0258 34.4021 10.817 34.4021 10.5994Z" fill="white"/>
<path d="M32.7606 13.8826C32.7606 13.6649 32.6741 13.4561 32.5201 13.3022C32.3662 13.1482 32.1574 13.0618 31.9398 13.0618H22.0903C21.8726 13.0618 21.6639 13.1482 21.5099 13.3022C21.356 13.4561 21.2695 13.6649 21.2695 13.8826C21.2695 14.1002 21.356 14.309 21.5099 14.4629C21.6639 14.6169 21.8726 14.7033 22.0903 14.7033H31.9398C32.1574 14.7033 32.3662 14.6169 32.5201 14.4629C32.6741 14.309 32.7606 14.1002 32.7606 13.8826Z" fill="white"/>
<path d="M22.0903 16.345C21.8726 16.345 21.6639 16.4314 21.5099 16.5854C21.356 16.7393 21.2695 16.9481 21.2695 17.1658C21.2695 17.3834 21.356 17.5922 21.5099 17.7461C21.6639 17.9001 21.8726 17.9865 22.0903 17.9865H28.6566C28.8743 17.9865 29.0831 17.9001 29.237 17.7461C29.3909 17.5922 29.4774 17.3834 29.4774 17.1658C29.4774 16.9481 29.3909 16.7393 29.237 16.5854C29.0831 16.4314 28.8743 16.345 28.6566 16.345H22.0903Z" fill="white"/>
</svg>
