<svg width="41" height="47" viewBox="0 0 41 47" fill="none" xmlns="http://www.w3.org/2000/svg">
<path d="M37.9411 30.4766H27.8435V25.8867C27.8435 24.3682 26.6081 23.1328 25.0897 23.1328H15.91C14.3915 23.1328 13.1562 24.3682 13.1562 25.8867V26.8048H3.05857C1.54008 26.8048 0.304688 28.0401 0.304688 29.5586V46.082C0.304688 46.589 0.715659 47 1.22265 47H39.777C40.284 47 40.695 46.589 40.695 46.082V33.2305C40.695 31.712 39.4596 30.4766 37.9411 30.4766ZM26.0076 45.164H14.9921V42.8688C14.9921 42.3618 14.5811 41.9508 14.0741 41.9508C13.5671 41.9508 13.1562 42.3618 13.1562 42.8688V45.164H2.14061V29.5585C2.14061 29.0524 2.55241 28.6406 3.05857 28.6406H13.1562V34.6072C13.1562 35.1141 13.5671 35.5251 14.0741 35.5251C14.5811 35.5251 14.9921 35.1141 14.9921 34.6072V25.8866C14.9921 25.3804 15.4039 24.9686 15.91 24.9686H25.0897C25.5958 24.9686 26.0076 25.3804 26.0076 25.8866V45.164ZM38.8591 45.1641H27.8435V32.3125H37.9411C38.4473 32.3125 38.8591 32.7243 38.8591 33.2305V45.1641Z" fill="white"/>
<path d="M14.3177 13.504L13.8575 17.0126C13.7612 17.5191 13.8296 18.0313 14.0561 18.4964C14.4675 19.3412 15.3164 19.8335 16.1984 19.8335C16.5473 19.8335 16.9017 19.7563 17.2358 19.5936L20.4625 18.023L23.7779 19.6024C24.1956 19.8018 24.6621 19.8731 25.127 19.8089C25.7558 19.7219 26.313 19.3953 26.6961 18.8891C27.0792 18.383 27.2422 17.758 27.1551 17.128L26.6579 13.5697L29.1074 10.986C29.4756 10.6336 29.7163 10.182 29.8042 9.67832C29.9134 9.05245 29.7724 8.42154 29.4072 7.9017C29.0419 7.38186 28.496 7.03542 27.8724 6.92655L24.3363 6.30013L22.5833 3.07542C22.5833 3.07524 22.5832 3.07515 22.5831 3.07496C22.3608 2.66647 22.0261 2.33481 21.6152 2.1156C21.0557 1.81726 20.4135 1.75457 19.8068 1.93917C19.2002 2.12377 18.7018 2.53364 18.4032 3.09351L16.7149 6.26277L13.1628 6.92278C12.6811 6.99888 12.2406 7.21791 11.8879 7.55719C11.4305 7.99707 11.1719 8.58879 11.1596 9.22329C11.1473 9.85778 11.3829 10.459 11.8235 10.9171L14.3177 13.504ZM13.1607 8.88043C13.2632 8.78175 13.3765 8.74723 13.4533 8.73567C13.4638 8.73411 13.4742 8.73236 13.4846 8.73043L17.4849 7.98707C17.7596 7.93603 17.9961 7.76272 18.1274 7.51615L20.0234 3.95713C20.0909 3.83035 20.2039 3.73746 20.3415 3.6956C20.3932 3.67981 20.4462 3.67201 20.4988 3.67201C20.5859 3.67201 20.6723 3.69339 20.7512 3.73553C20.8446 3.78528 20.9204 3.86037 20.9706 3.95263L22.9346 7.56527C23.068 7.81073 23.3059 7.98202 23.581 8.03076L27.5547 8.73466C27.6974 8.75953 27.8219 8.83857 27.9053 8.95717C27.9886 9.07577 28.0208 9.21971 27.9959 9.36263C27.97 9.5107 27.8926 9.60892 27.8323 9.66519C27.8186 9.67795 27.8053 9.69117 27.7924 9.70476L25.0216 12.6273C24.8294 12.83 24.74 13.1092 24.7786 13.3859L25.3368 17.3807C25.3566 17.5237 25.3196 17.6658 25.2324 17.7809C25.1452 17.8959 25.0186 17.9703 24.8756 17.99C24.7678 18.005 24.6615 17.9895 24.5682 17.945L20.8531 16.1752C20.6009 16.055 20.3078 16.0563 20.0566 16.1786L16.4323 17.9427C16.1633 18.0739 15.8378 17.9615 15.7068 17.6924C15.6399 17.5552 15.6461 17.4285 15.663 17.3463C15.6675 17.3245 15.6711 17.3025 15.6741 17.2804L16.1956 13.3043C16.2319 13.0273 16.1401 12.7489 15.9463 12.5478L13.146 9.64344C13.0461 9.53953 12.9926 9.40293 12.9954 9.25872C12.9981 9.11478 13.0568 8.9803 13.1607 8.88043Z" fill="white"/>
<path d="M6.13395 1.71309L9.75754 3.80514C9.90212 3.88868 10.0599 3.92833 10.2157 3.92833C10.5329 3.92833 10.8415 3.76365 11.0115 3.46917C11.265 3.0301 11.1146 2.46867 10.6755 2.21522L7.05192 0.123169C6.61295 -0.130374 6.05142 0.0200808 5.79797 0.459145C5.54443 0.89821 5.69489 1.45964 6.13395 1.71309Z" fill="white"/>
<path d="M3.48527 12.7181C3.52924 12.7181 3.57376 12.7149 3.61865 12.7085L7.75915 12.106C8.26082 12.0331 8.60836 11.5671 8.53538 11.0654C8.46231 10.5638 7.99672 10.2163 7.49477 10.2892L3.35427 10.8917C2.8526 10.9646 2.50506 11.4306 2.57804 11.9323C2.64459 12.3891 3.03684 12.7181 3.48527 12.7181Z" fill="white"/>
<path d="M9.79192 18.3038L6.8333 21.2624C6.47484 21.6209 6.47484 22.2021 6.8333 22.5607C7.01258 22.74 7.24749 22.8296 7.4824 22.8296C7.71731 22.8296 7.95231 22.74 8.13149 22.5607L11.0901 19.6021C11.4486 19.2436 11.4486 18.6624 11.0901 18.3038C10.7316 17.9452 10.1504 17.9453 9.79192 18.3038Z" fill="white"/>
<path d="M30.7842 3.92835C30.9399 3.92835 31.0978 3.8886 31.2423 3.80516L34.8659 1.71311C35.305 1.45966 35.4555 0.89823 35.2019 0.459165C34.9484 0.020009 34.387 -0.130354 33.948 0.123189L30.3244 2.21524C29.8853 2.46869 29.7349 3.03012 29.9884 3.46918C30.1583 3.76367 30.4669 3.92835 30.7842 3.92835Z" fill="white"/>
<path d="M32.4648 11.0655C32.3918 11.5672 32.7393 12.0331 33.241 12.1061L37.3815 12.7086C37.4263 12.7151 37.4708 12.7182 37.5149 12.7182C37.9633 12.7182 38.3556 12.3892 38.4221 11.9322C38.4951 11.4306 38.1475 10.9646 37.6459 10.8916L33.5054 10.2892C33.0041 10.2165 32.5377 10.5638 32.4648 11.0655Z" fill="white"/>
<path d="M29.9095 18.3038C29.551 18.6622 29.551 19.2435 29.9095 19.602L32.8681 22.5607C33.0474 22.7399 33.2823 22.8295 33.5172 22.8295C33.7521 22.8295 33.9871 22.7399 34.1663 22.5607C34.5247 22.2022 34.5247 21.6209 34.1663 21.2624L31.2077 18.3038C30.8493 17.9453 30.268 17.9453 29.9095 18.3038Z" fill="white"/>
<path d="M14.0742 37.8201C13.5672 37.8201 13.1562 38.2313 13.1562 38.7383C13.1562 39.2453 13.5672 39.6563 14.0742 39.6563C14.5812 39.6563 14.9922 39.2453 14.9922 38.7383V38.7377C14.9922 38.2308 14.5812 37.8201 14.0742 37.8201Z" fill="white"/>
</svg>
