<svg width="42" height="42" viewBox="0 0 42 42" fill="none" xmlns="http://www.w3.org/2000/svg">
<path d="M40.0312 29.1486V5.7832C40.0312 4.4036 38.9088 3.28125 37.5293 3.28125H31.582V2.46094C31.582 1.10398 30.4781 0 29.1211 0C27.7641 0 26.6602 1.10398 26.6602 2.46094V3.28125H13.3711V2.46094C13.3711 1.10398 12.2671 0 10.9102 0C9.55319 0 8.44922 1.10398 8.44922 2.46094V3.28125H2.50195C1.12243 3.28125 0 4.4036 0 5.7832V36.2168C0 37.5964 1.12243 38.7188 2.50195 38.7188H13.6829C14.1359 38.7188 14.5032 38.3515 14.5032 37.8984C14.5032 37.4454 14.1359 37.0781 13.6829 37.0781H2.50195C2.02699 37.0781 1.64062 36.6918 1.64062 36.2168V5.7832C1.64062 5.30824 2.02699 4.92188 2.50195 4.92188H8.44922V5.74219C8.44922 7.09915 9.55319 8.20312 10.9102 8.20312C12.2671 8.20312 13.3711 7.09915 13.3711 5.74219V4.92188H26.6602V5.74219C26.6602 7.09915 27.7641 8.20312 29.1211 8.20312C30.4781 8.20312 31.582 7.09915 31.582 5.74219V4.92188H37.5293C38.0043 4.92188 38.3906 5.30824 38.3906 5.7832V9.84375H7.38281C6.92984 9.84375 6.5625 10.211 6.5625 10.6641C6.5625 11.1171 6.92984 11.4844 7.38281 11.4844H38.3906V27.7624C37.6922 27.3219 36.9187 26.9905 36.0938 26.7919V14.6016C36.0938 14.1485 35.7264 13.7812 35.2734 13.7812H4.75781C4.30484 13.7812 3.9375 14.1485 3.9375 14.6016V33.9609C3.9375 34.414 4.30484 34.7812 4.75781 34.7812H26.5943C26.6452 35.5864 26.82 36.3583 27.1003 37.0781H20.2453C19.7923 37.0781 19.425 37.4454 19.425 37.8984C19.425 38.3515 19.7923 38.7188 20.2453 38.7188H27.9811C29.3779 40.7018 31.6846 42 34.2891 42C38.5409 42 42 38.5409 42 34.2891C42 32.3159 41.2547 30.5138 40.0312 29.1486ZM11.7305 5.74219C11.7305 6.19451 11.3625 6.5625 10.9102 6.5625C10.4578 6.5625 10.0898 6.19451 10.0898 5.74219V2.46094C10.0898 2.00862 10.4578 1.64062 10.9102 1.64062C11.3625 1.64062 11.7305 2.00862 11.7305 2.46094V5.74219ZM29.9414 5.74219C29.9414 6.19451 29.5734 6.5625 29.1211 6.5625C28.6688 6.5625 28.3008 6.19451 28.3008 5.74219V2.46094C28.3008 2.00862 28.6688 1.64062 29.1211 1.64062C29.5734 1.64062 29.9414 2.00862 29.9414 2.46094V5.74219ZM34.2891 26.5781C33.9077 26.5781 33.5328 26.6064 33.1661 26.6602H29.9906V21.9023H34.4531V26.5802C34.3986 26.579 34.3439 26.5781 34.2891 26.5781ZM26.6637 33.1406H23.8875V28.3008H28.35V29.3765C27.4753 30.4322 26.8761 31.724 26.6637 33.1406ZM5.57812 21.9023H10.0406V26.6602H5.57812V21.9023ZM11.6812 21.9023H16.1438V26.6602H11.6812V21.9023ZM23.8875 21.9023H28.35V26.6602H23.8875V21.9023ZM22.2469 26.6602H17.7844V21.9023H22.2469V26.6602ZM23.8875 20.2617V15.4219H28.35V20.2617H23.8875ZM22.2469 20.2617H17.7844V15.4219H22.2469V20.2617ZM16.1438 20.2617H11.6812V15.4219H16.1438V20.2617ZM16.1438 28.3008V33.1406H11.6812V28.3008H16.1438ZM17.7844 28.3008H22.2469V33.1406H17.7844V28.3008ZM34.4531 20.2617H29.9906V15.4219H34.4531V20.2617ZM10.0406 15.4219V20.2617H5.57812V15.4219H10.0406ZM5.57812 28.3008H10.0406V33.1406H5.57812V28.3008ZM34.2891 40.3594C30.9419 40.3594 28.2188 37.6363 28.2188 34.2891C28.2188 30.9419 30.9419 28.2188 34.2891 28.2188C37.6363 28.2188 40.3594 30.9419 40.3594 34.2891C40.3594 37.6363 37.6363 40.3594 34.2891 40.3594Z" fill="white"/>
</svg>
