<svg width="46" height="48" viewBox="0 0 46 48" fill="none" xmlns="http://www.w3.org/2000/svg">
<path d="M35.6299 24.8755C34.5693 24.8755 33.5676 24.3884 32.8743 23.5335C32.2382 22.7489 31.9307 21.7487 32.0043 20.7381H26.2832C25.7871 20.7381 25.3848 20.3183 25.3848 19.8006V13.4783C25.3848 13.2 25.5032 12.9361 25.7081 12.758C25.913 12.5798 26.1835 12.5061 26.4454 12.5561L26.4992 12.5664C27.0396 12.6698 27.5915 12.5181 28.0135 12.1509C28.4356 11.7837 28.6777 11.2443 28.6777 10.6708C28.6777 10.0974 28.4357 9.55809 28.0136 9.19097C27.5916 8.82394 27.0395 8.67263 26.499 8.77575L26.4453 8.78606C26.1828 8.83622 25.9129 8.76225 25.7081 8.58413C25.5034 8.406 25.3849 8.14219 25.3849 7.86394V0.9375C25.3849 0.419719 25.7872 0 26.2833 0H41.1877C43.4325 0 45.2588 1.90566 45.2588 4.24809V19.8006C45.2588 20.3183 44.8566 20.7381 44.3604 20.7381H39.2575C39.3421 21.7265 39.0537 22.7117 38.4439 23.4865C37.7622 24.3527 36.7558 24.8587 35.6827 24.8752C35.6651 24.8754 35.6475 24.8755 35.6299 24.8755ZM27.1817 18.8631H33.061C33.3276 18.8631 33.5804 18.9866 33.7512 19.2003C33.9218 19.4139 33.9929 19.6957 33.9448 19.9693L33.8224 20.6677C33.7187 21.2591 33.8731 21.8622 34.2461 22.3223C34.6074 22.7678 35.1091 23.0075 35.6565 23.0002C36.1999 22.992 36.7097 22.7354 37.0553 22.2965C37.4006 21.8576 37.5425 21.2856 37.4445 20.7269L37.3117 19.9692C37.2637 19.6956 37.3347 19.4138 37.5054 19.2002C37.6761 18.9865 37.9289 18.863 38.1955 18.863H43.4619V4.24809C43.4619 2.93953 42.4417 1.875 41.1877 1.875H27.1817V6.88613C27.903 6.95822 28.5937 7.25466 29.164 7.75078C29.9969 8.47519 30.4745 9.53953 30.4745 10.6708C30.4745 11.8022 29.9969 12.8666 29.164 13.591C28.5936 14.0872 27.903 14.3838 27.1817 14.456V18.8631Z" fill="white"/>
<path d="M37.7938 32.5313C38.29 32.5313 38.6922 32.1116 38.6922 31.5938V28.1995C38.6922 27.6817 38.29 27.262 37.7938 27.262H31.629C31.3624 27.262 31.1096 27.3856 30.9389 27.5992C30.7682 27.8129 30.6972 28.0946 30.7452 28.3682L30.878 29.1259C30.9761 29.6846 30.8342 30.2566 30.4887 30.6955C30.1432 31.1345 29.6333 31.391 29.0901 31.3993C28.542 31.4056 28.0409 31.1669 27.6797 30.7214C27.3067 30.2612 27.1522 29.6581 27.2559 29.0668L27.3784 28.3683C27.4263 28.0947 27.3554 27.813 27.1847 27.5992C27.014 27.3856 26.7611 27.262 26.4946 27.262H20.6152V22.8549C21.3365 22.7827 22.0272 22.4863 22.5976 21.9901C23.4304 21.2656 23.908 20.2012 23.908 19.0698C23.908 17.9385 23.4304 16.8741 22.5975 16.1497C22.0271 15.6536 21.3365 15.3571 20.6152 15.2851V9.33643C20.6152 8.81864 20.213 8.39893 19.7167 8.39893H4.8123C2.56746 8.39893 0.741211 10.3046 0.741211 12.647V43.752C0.741211 46.0944 2.56746 48.0001 4.8123 48.0001H34.6212C36.8659 48.0001 38.6923 46.0944 38.6923 43.752V41.0312C38.6923 40.5135 38.2901 40.0937 37.7938 40.0937C37.2977 40.0937 36.8954 40.5135 36.8954 41.0312V43.752C36.8954 45.0604 35.8752 46.1251 34.6212 46.1251H20.6152V40.078C20.6152 39.7999 20.4969 39.5361 20.2922 39.358C20.0875 39.1799 19.8175 39.1057 19.5554 39.1557L19.501 39.166C18.9605 39.2692 18.4084 39.118 17.9865 38.751C17.5645 38.3839 17.3223 37.8446 17.3223 37.2706C17.3223 36.6973 17.5644 36.1578 17.9865 35.7907C18.4086 35.4235 18.9605 35.2721 19.5016 35.3755L19.5554 35.3857C19.8173 35.4355 20.0874 35.3615 20.2922 35.1834C20.4969 35.0053 20.6152 34.7416 20.6152 34.4634V29.1368H25.4378C25.3641 30.1474 25.6717 31.1476 26.3079 31.9321C27.0126 32.8013 28.0393 33.2914 29.1162 33.2739C30.1892 33.2576 31.1956 32.7514 31.8774 31.8853C32.4871 31.1105 32.7755 30.1252 32.691 29.1368H36.8954V31.5938C36.8953 32.1116 37.2976 32.5313 37.7938 32.5313ZM2.53809 12.647C2.53809 11.3386 3.55835 10.2739 4.8123 10.2739H18.8183V16.2628C18.8183 16.5409 18.9366 16.8046 19.1414 16.9828C19.3461 17.1608 19.6161 17.2348 19.8783 17.185L19.9321 17.1748C19.9321 17.1748 19.9323 17.1747 19.9324 17.1747C20.4728 17.0716 21.025 17.2228 21.4471 17.5899C21.8691 17.9571 22.1112 18.4965 22.1112 19.0698C22.1112 19.6432 21.8691 20.1827 21.4471 20.5499C21.025 20.917 20.473 21.0684 19.9325 20.9653L19.8785 20.955C19.6162 20.9049 19.3462 20.979 19.1415 21.1571C18.9367 21.3352 18.8183 21.599 18.8183 21.8772V27.262H14.9633C14.5227 25.6731 13.1212 24.5275 11.4631 24.5275C9.80492 24.5275 8.40353 25.6731 7.96294 27.262H2.53809V12.647ZM16.836 34.3505C16.0031 35.0749 15.5254 36.1394 15.5254 37.2713C15.5254 38.4027 16.0031 39.467 16.836 40.1914C17.4064 40.6876 18.0971 40.9839 18.8183 41.0559V46.1251H4.8123C3.55835 46.1251 2.53809 45.0605 2.53809 43.752V29.137H8.72014C9.20117 29.137 9.59684 28.7416 9.61777 28.2403C9.66072 27.2098 10.4713 26.4026 11.4632 26.4026C12.4549 26.4026 13.2656 27.2098 13.3086 28.2403C13.3295 28.7417 13.7252 29.137 14.2062 29.137H18.8184V33.4859C18.097 33.558 17.4063 33.8544 16.836 34.3505Z" fill="white"/>
<path d="M37.7933 37.2007C37.4171 37.2007 37.0754 36.9479 36.9482 36.579C36.8232 36.2166 36.9301 35.7976 37.2121 35.5487C37.5069 35.2884 37.9393 35.2559 38.2674 35.4677C38.5821 35.6708 38.7473 36.0682 38.6747 36.447C38.5918 36.8799 38.2161 37.2007 37.7933 37.2007Z" fill="white"/>
</svg>
