<svg width="44" height="50" viewBox="0 0 44 50" fill="none" xmlns="http://www.w3.org/2000/svg">
<path d="M43.1129 37.0671L41.4089 34.2713C41.1311 33.8155 40.551 33.6804 40.1126 33.9688C39.6744 34.2576 39.5445 34.8611 39.8219 35.3165L41.5263 38.1127C41.8294 38.6102 41.7568 39.2712 41.3535 39.6851C41.0992 39.9461 40.7495 40.0765 40.3933 40.0433C40.0373 40.0098 39.7155 39.8167 39.5097 39.5127L32.1642 28.6519L29.2519 21.4291V20.5803C29.2519 20.0413 28.8314 19.6038 28.3125 19.6038C27.7941 19.6038 27.3732 20.0413 27.3732 20.5803V33.5942H16.7947V21.6378C16.7947 21.6347 16.7947 21.6313 16.7947 21.6279V20.5803C16.7947 20.0413 16.3742 19.6038 15.8553 19.6038C15.3365 19.6038 14.916 20.0413 14.916 20.5803V21.439L12.0081 28.6519L4.66221 39.5127C4.45673 39.8164 4.13457 40.0098 3.77865 40.043C3.4231 40.0761 3.07268 39.9461 2.8184 39.6848C2.41515 39.2712 2.34249 38.6102 2.64558 38.1123L9.17358 27.4022C9.21431 27.3358 9.2466 27.2652 9.27082 27.1908L12.0624 18.5601C13.0458 15.5194 15.7801 13.4766 18.8656 13.4766H25.3063C28.3922 13.4766 31.1261 15.5194 32.1095 18.5601L34.9014 27.1908C34.9253 27.2652 34.958 27.3358 34.9983 27.4022L36.2738 29.4953C36.4528 29.7886 36.757 29.9492 37.0682 29.9492C37.2402 29.9492 37.4142 29.9 37.5701 29.7974C38.0082 29.5086 38.1385 28.9052 37.8607 28.4497L36.6458 26.4565L33.8902 17.9375C32.7612 14.4463 29.803 11.9984 26.3458 11.5856C27.3681 10.4801 27.9988 8.9802 27.9988 7.32919V6.04936C27.9988 2.65999 25.3463 -0.0976562 22.0858 -0.0976562C18.8256 -0.0976562 16.1731 2.65999 16.1731 6.04936V7.32919C16.1731 8.9802 16.8035 10.4801 17.8261 11.5856C14.3689 11.9984 11.4107 14.4463 10.2813 17.9375L7.52608 26.4565L1.05861 37.0671C0.285498 38.3351 0.470797 40.0208 1.49893 41.0752C1.96566 41.554 2.55898 41.8603 3.19303 41.9625C3.19267 41.9637 3.1923 41.9644 3.1923 41.9652C2.69585 43.3457 2.71493 44.8586 3.24587 46.2251C4.12576 48.4899 6.23486 49.9024 8.4911 49.9024C8.97691 49.9024 9.47006 49.8368 9.95881 49.6999L22.0858 46.3063L34.2127 49.6999C34.7015 49.8368 35.1943 49.9024 35.6804 49.9024C37.9359 49.9021 40.0454 48.4895 40.9253 46.2251C41.4562 44.8586 41.4753 43.3457 40.9792 41.9652C40.9789 41.9644 40.9785 41.9637 40.9781 41.9625C41.6122 41.8603 42.2055 41.554 42.6726 41.0752C43.7007 40.0212 43.886 38.3355 43.1129 37.0671ZM18.0518 6.04936C18.0518 3.73689 19.8615 1.85547 22.0861 1.85547C24.3104 1.85547 26.1201 3.73689 26.1201 6.04936V7.32919C26.1201 9.64205 24.3104 11.5235 22.0861 11.5235C19.8615 11.5235 18.0518 9.64167 18.0518 7.32919V6.04936ZM30.4704 29.5045C30.4965 29.5693 30.5295 29.6315 30.5684 29.6887L35.8665 37.5218L29.2519 34.0153V26.4817L30.4704 29.5045ZM13.6035 29.6887C13.6424 29.6315 13.6751 29.5693 13.7011 29.5045L14.916 26.4916V34.0176L8.30507 37.5218L13.6035 29.6887ZM39.1839 45.4938C38.4695 47.3317 36.5423 48.3293 34.7011 47.8143L25.198 45.1547C25.9594 44.5306 26.4339 43.5655 26.4339 42.5118C26.4339 42.4752 26.432 42.439 26.4309 42.4027L32.3032 43.8447C32.3759 43.8626 32.4485 43.871 32.5201 43.871C32.9457 43.871 33.3314 43.5681 33.4334 43.1188C33.5526 42.5938 33.24 42.0678 32.7351 41.9438L25.7103 40.2188C25.6545 40.2051 25.5984 40.1978 25.5426 40.1948C25.4384 40.0815 25.3268 39.9735 25.2061 39.8743C24.426 39.2327 23.4232 39.0012 22.4549 39.2384L11.4368 41.9438C10.9319 42.0678 10.6193 42.5938 10.7385 43.1188C10.8578 43.6437 11.3634 43.9687 11.8687 43.8447L22.8864 41.1393C23.293 41.0394 23.7135 41.1366 24.0404 41.406C24.3677 41.6753 24.5552 42.0785 24.5552 42.5118C24.5552 43.1485 24.142 43.7085 23.5509 43.8741L21.8785 44.3421C21.8586 44.3467 21.8396 44.3524 21.8205 44.3582L9.4708 47.8139C7.62955 48.3293 5.70245 47.3317 4.98804 45.4938C4.24978 43.5929 5.0174 41.4571 6.77388 40.5259L16.1661 35.5473H28.0058L37.398 40.5259C39.1545 41.4575 39.9225 43.5929 39.1839 45.4938Z" fill="white"/>
</svg>
