<svg width="225" height="306" viewBox="0 0 225 306" fill="none" xmlns="http://www.w3.org/2000/svg">
<path d="M105.803 3.47998L146.783 274.584L152.707 272.419L114.602 9.33439L105.803 3.47998Z" fill="url(#paint0_linear_1372:1636)"/>
<path d="M155.75 293.364C150.554 299.339 141.79 300.621 133.84 301.192C121.733 302.276 109.549 302.155 97.4667 300.829C90.1747 299.911 66.532 297.157 65.3022 287.717C65.1837 285.551 65.5691 283.387 66.4281 281.395C66.4281 281.152 66.6013 280.893 66.7052 280.65C72.2305 265.997 82.2938 254.323 97.8824 249.681C109.645 246.357 122.224 247.536 133.164 252.989C138.91 255.78 144.219 259.392 148.926 263.71C153.412 267.954 156.928 272.908 157.95 278.225C158.816 282.971 158.989 289.588 155.75 293.364Z" fill="url(#paint1_linear_1372:1636)"/>
<path d="M90.4697 285.535C85.2734 291.51 76.5091 292.792 68.5589 293.364C56.4523 294.448 44.268 294.326 32.1855 293C24.8935 292.082 1.25073 289.328 0.0209571 279.888C-0.097568 277.722 0.287849 275.558 1.14684 273.566C1.14684 273.323 1.32 273.064 1.42393 272.821C6.94923 258.168 17.0125 246.494 32.6012 241.852C44.364 238.528 56.9435 239.707 67.8834 245.16C73.629 247.951 78.9385 251.563 83.6453 255.882C88.1314 260.125 91.6474 265.079 92.6693 270.396C93.5353 275.142 93.7086 281.759 90.4697 285.535Z" fill="url(#paint2_linear_1372:1636)"/>
<path d="M147.459 109.136C138.626 93.2358 118.828 76.3308 99.2907 85.2856C92.5529 88.386 87.7205 94.0672 83.7021 99.9562C74.2599 113.828 68.2463 129.743 66.1562 146.393C68.6331 147.467 70.6077 144.574 71.3524 142.219C76.029 127.531 80.7576 111.959 90.7169 99.6964C97.4373 91.4171 109.042 86.3941 120.456 90.2913C132.425 94.3616 140.652 105.88 145.849 116.116C149.983 124.941 153.355 134.102 155.929 143.5C156.328 144.765 157.904 146.358 158.718 145.354C158.938 144.958 158.994 144.491 158.874 144.055C157.145 131.836 153.282 120.017 147.459 109.136V109.136Z" fill="url(#paint3_linear_1372:1636)"/>
<path d="M110.479 216.351C77.1541 216.351 65.8783 197.628 62.9857 178.679C60.786 164.199 63.5227 149.58 65.0296 143.154C65.5319 141.006 65.8956 139.776 65.8956 139.776L158.267 139.049C158.267 139.049 158.423 139.499 158.648 140.348C159.098 141.941 159.895 144.973 160.64 149.008C164.485 169.81 166.789 216.351 110.479 216.351Z" fill="url(#paint4_linear_1372:1636)"/>
<path d="M162.113 173.153C160.381 193.938 149.642 216.351 110.48 216.351C91.4272 216.351 79.6665 210.254 72.4611 201.525C67.302 194.897 64.034 186.997 63.0039 178.661C65.8673 184.349 70.0213 189.288 75.134 193.083C80.2467 196.878 86.1764 199.425 92.4491 200.52C107.553 203.136 123.384 197.628 135.162 187.841C145.014 179.266 152.68 168.465 157.523 156.335C158.58 153.858 159.584 151.416 160.641 148.939C162.17 156.914 162.665 165.052 162.113 173.153Z" fill="#E6B893"/>
<path d="M100.572 83.0685C100.416 83.7643 100.416 84.4859 100.572 85.1816C100.712 85.8028 100.971 86.3909 101.334 86.9137C102.068 88.2357 102.896 89.5033 103.811 90.707C105.162 92.2312 106.859 94.1711 109.007 94.3616C111.888 94.5879 114.745 93.7014 116.992 91.8848C118.326 90.9699 119.411 89.737 120.149 88.2975C120.887 86.858 121.254 85.2573 121.218 83.6401C120.889 80.4358 117.616 77.5432 114.515 78.4439C116.472 77.6645 113.112 55.2514 112.956 52.8612C112.142 40.3556 112.125 27.8847 111.865 15.3791C111.865 12.9369 111.865 10.4947 111.727 8.05249C111.727 6.32042 112.662 3.3932 111.727 1.81702C110.791 0.240832 108.003 -1.02358 106.686 1.19347C106.352 1.88866 106.203 2.65823 106.253 3.42786C106.028 13.4566 106.478 23.5719 106.028 33.5832C106.028 39.7148 106.08 45.8463 106.184 51.9778C106.184 53.7099 106.184 55.442 106.184 57.174C106.288 64.7374 106.403 72.3181 106.53 79.9162C105.562 79.5683 104.506 79.5494 103.526 79.8625C102.546 80.1757 101.696 80.8033 101.109 81.6482C100.849 82.0868 100.667 82.5674 100.572 83.0685V83.0685Z" fill="url(#paint5_linear_1372:1636)"/>
<path d="M162.113 173.154C160.381 193.939 149.642 216.352 110.48 216.352C91.4271 216.352 79.6663 210.255 72.4609 201.525C72.5258 201.43 72.6014 201.343 72.6861 201.265C73.5868 200.486 74.9898 200.867 76.1502 201.265C83.2916 203.827 90.6907 205.605 98.2167 206.565C105.041 207.644 112.01 207.362 118.724 205.734C125.898 203.493 132.431 199.567 137.777 194.285C143.102 189.038 148.073 183.442 152.656 177.536C153.793 176.019 155.174 174.702 156.743 173.639C157.533 173.118 158.439 172.798 159.381 172.708C160.323 172.617 161.272 172.758 162.147 173.119L162.113 173.154Z" fill="#FFEF85"/>
<path d="M92.0331 263.81C86.8369 257.142 79.008 253.297 72.045 248.568C68.5202 246.026 65.2694 243.123 62.3454 239.908C60.0591 237.604 55.2093 234.296 55.8675 230.208C56.2312 227.818 58.6041 225.601 60.1976 223.99C61.7093 222.33 63.4608 220.906 65.3939 219.764C66.033 219.528 66.6431 219.22 67.2125 218.846C68.2967 217.907 69.1351 216.718 69.6548 215.382C70.7982 212.634 70.9632 209.576 70.1224 206.721C68.7367 201.958 65.29 198.061 61.9644 194.476C62.9163 194.527 63.8703 194.527 64.8222 194.476C69.9683 194.706 74.9957 196.097 79.5276 198.546C83.8658 200.76 87.6218 203.964 90.4915 207.899C91.6336 209.727 92.1107 211.892 91.8426 214.031C91.6001 218.326 89.6428 223.401 92.1023 227.385C94.5619 231.369 99.9486 231.577 104.348 230.641C107.5 229.966 110.982 228.459 111.935 225.324C112.731 222.743 111.519 220.041 110.688 217.46C109.405 213.354 109.051 209.015 109.65 204.756C110.249 200.496 111.787 196.423 114.152 192.83C112.697 197.022 119.348 202.374 123.314 204.366C127.281 206.358 131.732 206.687 135.889 208.038C141.276 209.77 149.746 216.092 144.671 222.691C147.357 222.529 149.987 221.846 152.413 220.682C153.63 220.076 154.655 219.145 155.377 217.993C156.098 216.84 156.487 215.511 156.501 214.152C156.293 210.826 153.262 208.523 151.46 205.699C146.507 197.922 151.46 189.937 158.926 187.461C160.986 186.754 163.167 186.469 165.339 186.624C167.512 186.779 169.631 187.37 171.57 188.361C162.909 188.361 160.259 199.1 164.001 205.682C165.579 207.932 167.724 209.725 170.219 210.878C177.667 215.087 185.807 219.695 184.37 230.104C183.972 232.873 182.843 235.485 181.098 237.672C179.353 239.858 177.057 241.539 174.445 242.541C158.319 248.395 147.355 262.892 131.732 270.028C124.665 273.25 117.2 276.021 109.458 276.108C101.715 276.195 96.8829 269.977 92.0331 263.81Z" fill="url(#paint6_linear_1372:1636)"/>
<path d="M80.4455 251.409C77.3797 250.387 75.6303 247.252 74.1754 244.377C72.4738 241.432 71.2573 238.233 70.5727 234.902C70.2544 233.235 70.3331 231.516 70.8025 229.886C71.2719 228.255 72.1189 226.757 73.2747 225.514C75.0068 223.921 77.2758 223.141 79.0252 221.634C80.7746 220.128 81.8485 217.235 80.255 215.555C83.1822 215.659 85.5898 219.539 85.8842 222.483C85.8938 225.429 85.3045 228.346 84.1521 231.057C82.9938 233.79 82.7035 236.814 83.3207 239.717C84.2344 242.246 86.0221 244.366 88.3611 245.693C91.7026 247.782 95.5946 248.82 99.5329 248.672C100.122 249.85 102.824 248.031 102.841 246.698C102.649 245.345 101.964 244.112 100.919 243.233C100.053 242.229 99.2731 240.791 99.9139 239.631C100.253 239.148 100.746 238.793 101.311 238.623C101.876 238.454 102.482 238.479 103.032 238.695C104.121 239.162 105.137 239.787 106.046 240.549C107.73 241.707 109.629 242.517 111.631 242.93C113.633 243.344 115.697 243.352 117.702 242.956C121.738 242.122 125.34 239.866 127.852 236.6C128.805 235.479 129.519 234.177 129.951 232.771C130.383 231.365 130.523 229.886 130.364 228.424C129.671 224.423 125.982 221.738 122.517 219.625C121.277 219.025 120.241 218.074 119.538 216.889C118.967 215.659 119.538 213.823 120.837 213.598C121.493 214.484 122.329 215.222 123.29 215.762C124.252 216.303 125.316 216.633 126.415 216.733C128.853 216.744 131.269 217.19 133.551 218.049C135.161 218.966 136.501 220.291 137.438 221.89C138.374 223.489 138.873 225.307 138.885 227.16C138.862 230.871 138.041 234.533 136.478 237.899C135.756 239.426 135.248 241.047 134.971 242.714C134.837 243.547 134.896 244.4 135.142 245.208C135.388 246.015 135.815 246.756 136.391 247.373C136.842 249.642 139.422 250.751 141.743 250.837C142.902 250.804 144.035 250.481 145.036 249.897C146.038 249.313 146.877 248.487 147.477 247.494C148.63 245.469 149.07 243.114 148.724 240.808C147.754 240.393 146.992 239.89 147.598 239.076C147.919 238.656 148.342 238.326 148.827 238.117C149.313 237.907 149.843 237.826 150.369 237.881C151.411 238.01 152.427 238.296 153.383 238.73C154.527 239.261 155.761 239.573 157.02 239.648C157.652 239.687 158.283 239.567 158.855 239.297C159.427 239.028 159.922 238.618 160.294 238.106C161.972 237.54 163.52 236.645 164.849 235.474C165.686 234.843 166.368 234.03 166.845 233.097C167.322 232.164 167.581 231.135 167.603 230.087C167.336 228.037 166.362 226.144 164.849 224.735C163.341 223.335 162.051 221.718 161.021 219.937C160.527 219.036 160.329 218.002 160.457 216.981C160.584 215.961 161.03 215.008 161.731 214.256C161.056 216.352 163.464 217.928 165.473 218.898C167.565 219.607 169.618 220.428 171.622 221.357C174.982 223.488 176.16 228.026 175.449 231.958C174.473 235.831 172.743 239.475 170.357 242.679C158.475 261.039 134.451 271.05 112.593 270.046C106.178 269.89 99.8631 268.416 94.0422 265.716C88.0615 262.57 83.2832 257.542 80.4455 251.409V251.409Z" fill="#FFEF85"/>
<path d="M93.4874 284.318C88.2912 290.294 79.5096 291.575 71.5594 292.147C59.4528 293.231 47.2685 293.109 35.186 291.783C27.894 290.848 4.25132 288.094 3.02155 278.671C2.90112 276.505 3.28662 274.341 4.14744 272.349C4.23404 272.107 4.32065 271.847 4.42457 271.605C6.15664 272.54 7.69813 273.943 9.03182 274.688C11.3345 276.004 13.745 277.123 16.2372 278.03C16.8998 278.255 17.6059 278.32 18.2984 278.221C19.4693 278.319 20.5677 278.828 21.3988 279.659C22.4248 280.833 23.5553 281.911 24.7764 282.88C27.3918 284.612 30.8212 283.781 33.7311 282.707C36.0918 281.847 38.5114 281.158 40.9711 280.646C41.6378 280.47 42.3258 280.389 43.015 280.403C43.7948 280.517 44.5839 280.551 45.3706 280.507C47.7375 280.221 50.0815 279.77 52.3854 279.156C57.0225 277.963 61.5001 276.218 65.7224 273.96C60.3576 274.045 54.9989 273.563 49.7354 272.523C62.7821 269.393 74.7471 262.812 84.3768 253.47C86.6631 255.479 88.9841 257.453 91.305 259.48C92.5764 260.478 93.5179 261.836 94.007 263.377C95.4439 267.527 96.17 271.89 96.1548 276.281C96.1725 279.18 95.2351 282.005 93.4874 284.318V284.318Z" fill="url(#paint7_linear_1372:1636)"/>
<g style="mix-blend-mode:screen">
<path d="M16.8965 264.659C17.9711 265.343 19.2593 265.608 20.5165 265.404C21.9793 265.1 23.387 264.574 24.6908 263.845C33.0393 259.653 41.5091 255.41 48.4893 249.192C49.9789 247.858 51.5378 245.953 50.8622 243.995C47.3981 234.573 22.9587 248.984 19.1135 253.435C16.8792 255.999 13.2765 260.831 16.3769 264.122C16.5295 264.32 16.7038 264.5 16.8965 264.659V264.659Z" fill="#373A3D"/>
</g>
<path d="M85.1049 259.965L82.0738 262.182C81.2869 260.638 80.2445 259.239 78.9907 258.043C78.4511 257.511 77.8316 257.066 77.1547 256.726C76.8656 256.588 76.6066 256.393 76.3926 256.155C75.0783 254.702 73.622 253.385 72.0452 252.223C66.7778 248.381 60.8815 245.485 54.6206 243.666C53.1064 243.235 51.5679 242.894 50.0133 242.644C48.8679 242.422 47.7116 242.26 46.5492 242.159C44.0849 241.926 41.6058 241.891 39.1359 242.056C36.7536 242.218 34.3894 242.583 32.0691 243.147C29.7352 243.719 27.4615 244.513 25.2794 245.52C24.4458 246.016 23.5708 246.439 22.6641 246.784C26.5941 244.052 30.9317 241.959 35.5159 240.583C47.2809 237.265 59.8604 238.45 70.798 243.909C73.5745 245.257 76.2541 246.797 78.8175 248.516C80.6362 249.729 82.2816 251.201 84.0137 252.379C84.6719 252.812 85.3474 253.262 86.0056 253.66C86.6638 254.059 87.5644 254.059 88.2573 254.561C88.6261 254.802 88.9002 255.163 89.0328 255.583C89.1654 256.003 89.1484 256.456 88.9847 256.865C88.7647 257.215 88.4687 257.511 88.1187 257.731L85.1049 259.965Z" fill="#F7EEC6"/>
<path d="M141.432 281.304C146.248 286.812 154.267 287.973 161.559 288.51C172.68 289.512 183.873 289.396 194.97 288.163C201.674 287.314 223.394 284.699 224.52 276.039C224.637 274.046 224.288 272.053 223.498 270.219C223.498 270.011 223.342 269.769 223.238 269.543C218.163 256.085 208.914 245.294 194.641 241.085C183.831 238.031 172.269 239.118 162.217 244.134C156.933 246.691 152.054 250.012 147.737 253.989C143.615 257.887 140.376 262.425 139.458 267.309C138.626 271.83 138.453 277.909 141.432 281.304Z" fill="url(#paint8_linear_1372:1636)"/>
<path d="M141.432 281.304C146.247 286.812 154.267 287.973 161.559 288.509C172.679 289.512 183.873 289.395 194.97 288.163C201.673 287.314 223.393 284.699 224.519 276.039C224.637 274.045 224.287 272.052 223.497 270.219C223.497 270.011 223.341 269.768 223.238 269.543C221.696 270.409 220.224 271.691 219.011 272.384C216.887 273.584 214.668 274.609 212.377 275.45C211.77 275.652 211.124 275.711 210.49 275.623C209.417 275.714 208.411 276.18 207.649 276.939C206.701 278.018 205.657 279.009 204.531 279.901C202.124 281.408 198.989 280.732 196.321 279.745C194.146 278.959 191.917 278.328 189.653 277.857C189.043 277.691 188.414 277.61 187.782 277.615C187.067 277.734 186.341 277.774 185.617 277.736C183.438 277.46 181.279 277.038 179.156 276.472C174.899 275.386 170.788 273.792 166.911 271.726C171.839 271.8 176.762 271.358 181.599 270.409C169.596 267.564 158.581 261.539 149.711 252.967C147.598 254.803 145.485 256.622 143.407 258.493C142.235 259.407 141.371 260.658 140.93 262.078C139.612 265.888 138.945 269.893 138.955 273.925C138.947 276.59 139.818 279.184 141.432 281.304Z" fill="url(#paint9_linear_1372:1636)"/>
<g style="mix-blend-mode:screen">
<path d="M211.789 263.273C210.815 263.916 209.631 264.164 208.481 263.966C207.134 263.684 205.837 263.199 204.636 262.528C196.962 258.683 189.186 254.786 182.777 249.07C181.391 247.84 179.971 246.091 180.594 244.359C183.712 235.698 206.212 248.949 209.762 253.019C211.806 255.375 215.132 259.809 212.274 262.84C212.13 263.003 211.967 263.148 211.789 263.273V263.273Z" fill="#373A3D"/>
</g>
<path d="M157.229 296.443C152.033 302.418 143.269 303.7 135.319 304.272C123.212 305.356 111.028 305.234 98.9452 303.908C91.6532 302.99 68.0105 300.236 66.7807 290.796C66.6622 288.63 67.0476 286.466 67.9066 284.474C67.9066 284.232 68.0798 283.972 68.1837 283.729C69.9158 284.665 71.4574 286.068 72.791 286.812C75.0937 288.129 77.5041 289.247 79.9964 290.155C80.6589 290.38 81.3651 290.445 82.0576 290.346C83.2243 290.44 84.3185 290.95 85.1407 291.783C86.199 292.956 87.3581 294.035 88.6048 295.005C91.2202 296.651 94.6497 295.906 97.5596 294.832C106.688 291.454 116.612 291.368 126.017 289.497C126.852 289.281 127.729 289.281 128.564 289.497C129.343 289.86 130.048 290.365 130.642 290.987C131.915 292.044 133.456 292.73 135.094 292.966C136.732 293.203 138.403 292.982 139.924 292.327C141.444 291.673 142.754 290.611 143.708 289.259C144.662 287.906 145.223 286.316 145.33 284.665C145.409 284.053 145.366 283.431 145.202 282.837C145.039 282.242 144.758 281.686 144.377 281.2C143.99 280.797 143.484 280.527 142.932 280.43C142.381 280.334 141.813 280.416 141.312 280.664C143.284 278.784 145.13 276.777 146.837 274.653C149.123 272.298 149.625 270.029 150.439 266.859C152.692 268.769 154.612 271.04 156.121 273.579C157.675 275.901 158.769 278.5 159.342 281.235C160.295 286.05 160.468 292.667 157.229 296.443Z" fill="url(#paint10_linear_1372:1636)"/>
<g style="mix-blend-mode:screen">
<path d="M82.2303 276.229C83.8064 277.805 86.3179 277.875 88.5522 277.719C98.1789 277.043 107.454 273.828 115.434 268.4C116.877 267.489 118.134 266.314 119.141 264.936C122.466 259.896 117.409 255.843 112.593 255.514C102.599 254.821 91.1157 257.384 84.326 265.213C82.0223 267.898 79.0779 273.077 82.2303 276.229Z" fill="#373A3D"/>
</g>
<path d="M138.176 269.509C138.419 264.763 130.676 266.685 128.217 267.777C126.561 268.693 125.207 270.071 124.32 271.743C123.246 273.475 121.86 275.779 122.778 277.788C123.575 279.52 126.052 279.52 127.853 278.879C131.716 277.59 135.042 275.056 137.31 271.674C137.789 271.044 138.088 270.295 138.176 269.509Z" fill="url(#paint11_linear_1372:1636)"/>
<path d="M114.274 253.383C127.195 254.422 139.44 259.965 150.006 267.465C141.086 257.072 128.286 249.659 114.62 248.585C103.95 247.754 90.5096 251.097 83.0271 259.099C81.7284 260.498 80.5357 261.991 79.459 263.568C78.4198 265.126 77.727 266.91 76.7051 268.452C84.2742 257.055 99.3605 252.707 112.386 253.262L114.274 253.383Z" fill="#F7EEC6"/>
<path d="M141.536 261.385C141.293 260.606 142.125 259.653 142.523 259.082C148.482 249.88 157.519 243.096 168.019 239.942C179.519 236.748 191.816 238.249 202.21 244.117C195.103 242.039 187.657 241.386 180.297 242.195C172.938 243.003 165.81 245.257 159.324 248.828C156.044 250.663 152.952 252.815 150.092 255.254C148.672 256.484 147.303 257.765 146.004 259.134C145.348 259.724 144.766 260.393 144.272 261.126C143.943 261.714 143.805 262.425 142.973 262.338C142.694 262.318 142.423 262.238 142.178 262.104C141.933 261.969 141.72 261.783 141.553 261.559L141.536 261.385Z" fill="#F7EEC6"/>
<defs>
<linearGradient id="paint0_linear_1372:1636" x1="131.992" y1="184.239" x2="119.521" y2="-26.8139" gradientUnits="userSpaceOnUse">
<stop stop-color="#363E73"/>
<stop offset="0.29" stop-color="#2D3566"/>
<stop offset="0.83" stop-color="#161C42"/>
<stop offset="1" stop-color="#0E1336"/>
</linearGradient>
<linearGradient id="paint1_linear_1372:1636" x1="50643.1" y1="18735.2" x2="51001.2" y2="20804.4" gradientUnits="userSpaceOnUse">
<stop stop-color="#A1ADB3"/>
<stop offset="0.16" stop-color="#94A0AB"/>
<stop offset="0.46" stop-color="#737C95"/>
<stop offset="0.85" stop-color="#3D4371"/>
<stop offset="1" stop-color="#282D63"/>
</linearGradient>
<linearGradient id="paint2_linear_1372:1636" x1="50643.1" y1="18735.2" x2="51001.2" y2="20804.4" gradientUnits="userSpaceOnUse">
<stop stop-color="#A1ADB3"/>
<stop offset="0.16" stop-color="#94A0AB"/>
<stop offset="0.46" stop-color="#737C95"/>
<stop offset="0.85" stop-color="#3D4371"/>
<stop offset="1" stop-color="#282D63"/>
</linearGradient>
<linearGradient id="paint3_linear_1372:1636" x1="53205.6" y1="12959.3" x2="53208.6" y2="14999.8" gradientUnits="userSpaceOnUse">
<stop stop-color="#363E73"/>
<stop offset="0.29" stop-color="#2D3566"/>
<stop offset="0.83" stop-color="#161C42"/>
<stop offset="1" stop-color="#0E1336"/>
</linearGradient>
<linearGradient id="paint4_linear_1372:1636" x1="54955.6" y1="22509.6" x2="56126" y2="24897.1" gradientUnits="userSpaceOnUse">
<stop stop-color="#363E73"/>
<stop offset="0.29" stop-color="#2D3566"/>
<stop offset="0.83" stop-color="#161C42"/>
<stop offset="1" stop-color="#0E1336"/>
</linearGradient>
<linearGradient id="paint5_linear_1372:1636" x1="10781.8" y1="15598" x2="10381.7" y2="18454.9" gradientUnits="userSpaceOnUse">
<stop stop-color="#363E73"/>
<stop offset="0.29" stop-color="#2D3566"/>
<stop offset="0.83" stop-color="#161C42"/>
<stop offset="1" stop-color="#0E1336"/>
</linearGradient>
<linearGradient id="paint6_linear_1372:1636" x1="120.837" y1="261.957" x2="119.192" y2="178.419" gradientUnits="userSpaceOnUse">
<stop stop-color="#FFCB2E"/>
<stop offset="1" stop-color="#C72520"/>
</linearGradient>
<linearGradient id="paint7_linear_1372:1636" x1="46696" y1="13119.4" x2="46953.7" y2="14665.3" gradientUnits="userSpaceOnUse">
<stop stop-color="#A1ADB3"/>
<stop offset="0.16" stop-color="#94A0AB"/>
<stop offset="0.46" stop-color="#737C95"/>
<stop offset="0.85" stop-color="#3D4371"/>
<stop offset="1" stop-color="#282D63"/>
</linearGradient>
<linearGradient id="paint8_linear_1372:1636" x1="-45889.8" y1="16910.8" x2="-46193.6" y2="18661.2" gradientUnits="userSpaceOnUse">
<stop stop-color="#A1ADB3"/>
<stop offset="0.16" stop-color="#94A0AB"/>
<stop offset="0.46" stop-color="#737C95"/>
<stop offset="0.85" stop-color="#3D4371"/>
<stop offset="1" stop-color="#282D63"/>
</linearGradient>
<linearGradient id="paint9_linear_1372:1636" x1="-45516.8" y1="12101" x2="-45734.5" y2="13406.9" gradientUnits="userSpaceOnUse">
<stop stop-color="#A1ADB3"/>
<stop offset="0.16" stop-color="#94A0AB"/>
<stop offset="0.46" stop-color="#737C95"/>
<stop offset="0.85" stop-color="#3D4371"/>
<stop offset="1" stop-color="#282D63"/>
</linearGradient>
<linearGradient id="paint10_linear_1372:1636" x1="50197.4" y1="12987.4" x2="50439.2" y2="14486.6" gradientUnits="userSpaceOnUse">
<stop stop-color="#A1ADB3"/>
<stop offset="0.16" stop-color="#94A0AB"/>
<stop offset="0.46" stop-color="#737C95"/>
<stop offset="0.85" stop-color="#3D4371"/>
<stop offset="1" stop-color="#282D63"/>
</linearGradient>
<linearGradient id="paint11_linear_1372:1636" x1="8737.28" y1="4489.19" x2="8865.68" y2="4857.96" gradientUnits="userSpaceOnUse">
<stop stop-color="#A1ADB3"/>
<stop offset="0.16" stop-color="#94A0AB"/>
<stop offset="0.46" stop-color="#737C95"/>
<stop offset="0.85" stop-color="#3D4371"/>
<stop offset="1" stop-color="#282D63"/>
</linearGradient>
</defs>
</svg>
