<svg width="139" height="174" viewBox="0 0 139 174" fill="none" xmlns="http://www.w3.org/2000/svg">
<path d="M124.406 16.5932C110.826 19.9361 101.542 25.3575 94.4581 37.8804C89.6603 46.4195 86.4733 55.79 81.433 64.1732C72.5821 78.9651 58.8122 90.5354 45.9256 101.69C42.8945 104.288 39.3091 105.604 35.7756 107.492C35.2733 106.748 34.7364 106.003 34.1822 105.275C31.4975 101.534 28.5702 97.966 25.9375 94.1554C29.0725 91.9037 32.0864 89.5481 35.0482 87.0539C44.0009 79.5828 52.1038 71.1488 59.2105 61.9042C60.0765 60.7784 60.9426 59.6352 61.7567 58.4401C71.6892 44.9261 79.4338 29.9336 84.7066 14.0125C94.4754 6.70311 105.803 1.02192 117.962 0C118.274 0.502301 118.603 1.02191 118.88 1.50689C119.417 2.39025 119.902 3.23896 120.387 4.12231C122.591 7.94965 123.96 12.1995 124.406 16.5932Z" fill="url(#paint0_linear_1371:3551)"/>
<path d="M124.405 16.593C110.826 19.9359 101.542 25.3573 94.4576 37.8802C89.6598 46.4193 86.4728 55.7898 81.4325 64.173C72.5816 78.9649 58.8117 90.5351 45.9251 101.69C42.8939 104.288 39.3085 105.604 35.7751 107.492C35.2728 106.747 34.7359 106.003 34.1816 105.275C37.2967 104.19 40.2199 102.617 42.842 100.616L35.0477 87.0537C44.0004 79.5826 52.1033 71.1486 59.21 61.904L59.8855 62.1465C63.9905 63.6188 68.0609 65.1083 72.1486 66.5979C79.0768 57.2447 83.2858 46.2634 89.2614 36.3386C95.237 26.4138 107.621 12.5227 120.646 12.3494L119.174 7.15323L114.498 8.29641C116.29 6.69834 118.267 5.32024 120.387 4.19141C122.581 7.99783 123.95 12.2231 124.405 16.593Z" fill="url(#paint1_linear_1371:3551)"/>
<path d="M99.1168 92.0941C97.073 101.742 92.4137 108.358 84.5501 114.265C76.6865 120.171 64.2676 126.129 54.4468 125.402C53.6847 122.596 52.836 119.669 51.9006 116.741C48.1074 104.444 42.9459 91.0722 35.2035 81.6324C34.476 80.6826 33.6953 79.7747 32.8652 78.913C39.5857 71.7076 45.492 64.0691 53.5461 58.3706C60.9688 66.1989 69.1953 73.2236 78.0895 79.3287C82.4312 82.3425 86.8942 85.1831 91.4784 87.8505C93.9899 89.2535 96.5534 90.7604 99.1168 92.0941Z" fill="url(#paint2_linear_1371:3551)"/>
<g style="mix-blend-mode:screen">
<path d="M118.879 1.55865C109.803 4.36462 100.467 7.36109 93.2448 13.5619C91.5259 15.0323 89.938 16.6493 88.4989 18.3944C80.1504 28.4924 74.9715 40.7902 68.5282 52.0833C67.6971 53.7173 66.6419 55.2272 65.3932 56.5694C64.37 57.5176 63.1157 58.1806 61.7559 58.4919C71.6883 44.9779 79.433 29.9854 84.7057 14.0642C94.4745 6.75488 105.802 1.07368 117.961 0.0517578C118.273 0.554059 118.602 1.07367 118.879 1.55865Z" fill="#473413"/>
</g>
<path d="M99.1165 92.0941C97.0727 101.742 92.4134 108.358 84.5498 114.265C76.6863 120.171 64.2673 126.129 54.4465 125.402C53.6844 122.596 52.8357 119.669 51.9004 116.742C57.9328 116.638 63.7962 114.732 68.7361 111.268C66.4844 106.072 64.1288 101.517 61.8078 96.3897C64.9948 101.136 68.2165 105.864 71.4035 110.593C77.5593 107.182 82.4677 101.897 85.4159 95.5063C84.5152 94.6923 82.9044 93.7743 81.9517 92.8909C84.3019 93.7643 86.7417 94.3743 89.2264 94.7096C90.509 93.0748 91.2317 91.0709 91.2876 88.9938C91.2876 88.5954 91.2876 88.2143 91.2876 87.8506C93.9896 89.2536 96.5531 90.7604 99.1165 92.0941Z" fill="url(#paint3_linear_1371:3551)"/>
<path d="M106.98 68.7031C98.4845 63.6932 90.2575 58.2412 82.3328 52.3697C75.2181 57.477 69.0465 63.7834 64.0942 71.0068C63.3666 70.057 62.5859 69.1491 61.7559 68.2875C68.4763 61.082 74.3826 53.4436 82.4367 47.7451C89.8595 55.5734 98.0859 62.5981 106.98 68.7031Z" fill="#AEA9C9"/>
<path d="M135.629 154.986C133.312 160.295 130.062 165.147 126.034 169.31C88.3613 164.114 49.3552 168.288 11.7174 173.38L10.6608 173.502C10.1758 172.774 9.70817 172.012 9.25783 171.25C7.52058 168.353 6.02591 165.317 4.7891 162.174C8.67963 160.495 12.6996 159.134 16.8096 158.103C12.3409 157.896 7.76825 157.67 3.24756 157.861C0.496659 149.154 -0.463714 139.98 0.42428 130.893C4.33651 130.712 8.25687 130.833 12.1504 131.256C11.1019 131.033 10.0842 130.684 9.11926 130.217C8.11466 129.853 7.12738 129.455 6.14011 129.022C4.36732 128.297 2.63296 127.482 0.943905 126.58C1.88223 120.731 3.63111 115.041 6.14011 109.675C6.36527 109.207 6.59046 108.739 6.83295 108.289L7.14471 107.648C28.3454 114.871 50.5668 118.649 72.9632 118.837C90.2839 119.132 106.34 115.876 123.401 112.966C124.215 113.555 125.012 114.195 125.791 114.871C127.124 116.036 128.374 117.292 129.533 118.63C130.568 119.817 131.523 121.073 132.39 122.388C130.886 123.526 129.319 124.578 127.697 125.54C126.831 126.043 125.964 126.528 125.029 126.995C124.216 127.536 123.329 127.956 122.396 128.243C126.623 128 130.826 127.555 135.006 126.909C135.127 127.151 135.231 127.394 135.335 127.636C137.112 131.404 138.208 135.456 138.574 139.605C138.854 144.895 137.843 150.173 135.629 154.986Z" fill="url(#paint4_linear_1371:3551)"/>
<g style="mix-blend-mode:screen">
<path d="M135.301 127.636C116.709 132.086 97.8303 135.235 78.8008 137.059L76.0469 137.284C68.6856 137.821 61.3243 138.063 53.9457 137.89C46.563 137.738 39.1952 137.159 31.8791 136.158C28.2303 135.638 24.6045 135.003 21.0018 134.253C19.7433 134.11 18.5251 133.722 17.4164 133.11C16.738 132.561 16.198 131.861 15.8402 131.066C12.5557 125.311 9.70713 119.319 7.31844 113.139C6.92007 111.996 6.50436 110.853 6.14062 109.675C6.36579 109.207 6.59098 108.739 6.83347 108.289L7.14523 107.648C28.3459 114.871 50.5673 118.649 72.9638 118.837C90.2844 119.132 106.341 115.876 123.402 112.966C124.216 113.555 125.012 114.195 125.792 114.871C113.193 118.907 100.235 121.72 87.0974 123.271C69.3611 125.696 51.4515 127.151 33.9923 131.118C66.2702 131.505 98.4391 127.3 129.533 118.63C130.569 119.817 131.524 121.073 132.391 122.388C130.887 123.526 129.319 124.578 127.697 125.54C126.831 126.043 125.965 126.528 125.03 126.995C124.217 127.536 123.33 127.956 122.397 128.243C126.623 128 130.826 127.555 135.006 126.909C135.093 127.134 135.197 127.394 135.301 127.636Z" fill="#241804"/>
</g>
<path d="M135.629 154.986C133.312 160.295 130.062 165.147 126.034 169.31C88.3613 164.114 49.3552 168.288 11.7173 173.38L10.6608 173.501C10.1758 172.774 9.70815 172.012 9.25781 171.25C9.65619 170.817 10.0892 170.418 10.5049 170.02C11.9425 168.669 13.4494 167.405 14.9909 166.192C16.3524 165.032 17.8467 164.038 19.4424 163.23C20.5054 162.801 21.6388 162.572 22.7853 162.555C24.6905 162.416 26.5439 162.122 28.4318 161.862C33.0911 161.204 37.7676 160.615 42.4788 160.13C47.1901 159.645 51.8147 159.247 56.4913 158.917C61.1678 158.588 65.9137 158.381 70.6249 158.259C75.3362 158.138 80.0301 158.051 84.724 158.103C89.4179 158.155 94.1637 158.259 98.8749 158.484C103.586 158.71 108.297 159.004 112.991 159.402L116.455 159.714C94.0406 155.076 71.0781 153.665 48.2639 155.523C71.1806 153.07 94.2242 152 117.27 152.318C123.366 152.37 129.983 152.613 135.629 154.986Z" fill="url(#paint5_linear_1371:3551)"/>
<path d="M28.5179 156.804C27.9994 158.31 27.1535 159.683 26.041 160.823C21.7818 165.589 16.947 169.807 11.6476 173.38C10.4178 174.194 9.43051 171.527 8.68572 170.748C8.28018 170.359 7.90927 169.936 7.5772 169.483C6.60853 167.808 5.81344 166.037 5.20428 164.2C1.63049 155.217 -0.135314 145.617 0.00808313 135.95C0.184075 128.353 1.68461 120.844 4.44217 113.762C5.16963 111.892 5.98371 110.073 6.88438 108.289C12.4655 115.093 17.1407 122.592 20.7929 130.598C21.2952 131.689 21.6416 132.936 22.1785 134.062C22.4839 134.547 22.9498 134.908 23.4949 135.084C26.959 136.712 30.4231 138.15 34.0432 139.466C30.5898 138.597 27.0538 138.098 23.4949 137.977C24.7972 141.142 25.9134 144.381 26.8378 147.676C27.4267 149.98 27.7384 152.457 28.5698 154.605C28.7713 155.327 28.7532 156.093 28.5179 156.804Z" fill="#E09641"/>
<path d="M9.75982 160.857C4.8564 147.844 4.20751 133.611 7.90652 120.206C10.5147 122.262 12.411 125.085 13.3278 128.277C12.8775 127.117 10.2794 126.978 9.06698 126.701C6.99483 137.807 7.58845 149.246 10.799 160.078C14.5594 154.031 16.5569 147.055 16.5667 139.934C16.9824 145.944 16.8612 152.059 16.7399 158.017C16.7995 159.459 16.582 160.9 16.0991 162.26C15.8484 162.936 15.4107 163.525 14.8371 163.961C14.2635 164.397 13.5778 164.66 12.8602 164.72C11.3706 164.737 9.25753 162.208 9.75982 160.857Z" fill="#D48428"/>
<defs>
<linearGradient id="paint0_linear_1371:3551" x1="59.7648" y1="-10.6003" x2="117.824" y2="235.596" gradientUnits="userSpaceOnUse">
<stop stop-color="#CF5C2B"/>
<stop offset="1" stop-color="#59173E"/>
</linearGradient>
<linearGradient id="paint1_linear_1371:3551" x1="25609.8" y1="25501.9" x2="27199" y2="32863.1" gradientUnits="userSpaceOnUse">
<stop stop-color="#CF5C2B"/>
<stop offset="1" stop-color="#59173E"/>
</linearGradient>
<linearGradient id="paint2_linear_1371:3551" x1="18050.6" y1="18169.1" x2="19288.4" y2="21290.4" gradientUnits="userSpaceOnUse">
<stop stop-color="#83779B"/>
<stop offset="0.35" stop-color="#786A8E"/>
<stop offset="1" stop-color="#5A4A6B"/>
</linearGradient>
<linearGradient id="paint3_linear_1371:3551" x1="13506.6" y1="11254.4" x2="13869.2" y2="12881.4" gradientUnits="userSpaceOnUse">
<stop stop-color="#83779B"/>
<stop offset="0.35" stop-color="#786A8E"/>
<stop offset="1" stop-color="#5A4A6B"/>
</linearGradient>
<linearGradient id="paint4_linear_1371:3551" x1="39478.6" y1="21026.6" x2="39415.5" y2="23495.7" gradientUnits="userSpaceOnUse">
<stop stop-color="#CF5C2B"/>
<stop offset="1" stop-color="#59173E"/>
</linearGradient>
<linearGradient id="paint5_linear_1371:3551" x1="36759.4" y1="6483.53" x2="36740" y2="7586.16" gradientUnits="userSpaceOnUse">
<stop stop-color="#CF5C2B"/>
<stop offset="1" stop-color="#59173E"/>
</linearGradient>
</defs>
</svg>
