<svg width="233" height="227" viewBox="0 0 233 227" fill="none" xmlns="http://www.w3.org/2000/svg">
<g style="mix-blend-mode:screen">
<g style="mix-blend-mode:screen">
<path d="M33.0833 17.6682C34.8154 21.3575 40.2021 18.898 39.3534 15.2087C37.9677 11.0691 30.6757 13.1303 33.0833 17.6682Z" fill="#4B3E66"/>
</g>
</g>
<path d="M45.3289 32.6507C42.1072 40.5663 36.9456 48.6378 30.3637 50.1967C30.1356 49.6114 30.0182 48.9888 30.0174 48.3607C29.5324 41.9693 31.9573 36.444 34.59 30.8494C35.9729 29.4073 37.8055 28.4788 39.7862 28.2166C42.8693 27.9222 46.1429 31.421 44.4628 34.0364C44.688 33.5168 45.0171 33.0664 45.3289 32.6507Z" fill="url(#paint0_linear_1371:3553)"/>
<path d="M72.8688 33.5167C72.5253 42.1411 70.1958 50.5699 66.0618 58.1467C61.4464 63.207 55.8937 67.3245 49.7111 70.2712C47.7365 71.2239 45.225 72.0033 43.5276 70.6003C41.8302 69.1973 42.038 66.4087 42.5576 64.1743C43.703 59.3353 45.1198 54.5646 46.8012 49.8847C49.8151 41.5244 53.638 33.4783 58.2155 25.8609C59.1509 24.3021 60.2767 22.3968 61.5931 20.4395L62.3551 20.0758C70.2014 16.3692 73.042 28.1126 72.8688 33.5167Z" fill="url(#paint1_linear_1371:3553)"/>
<path d="M80.9923 69.4918C80.7649 72.4377 80.1834 75.3454 79.2602 78.1521C79.2602 78.308 79.0697 78.6717 78.9138 79.1394C70.1495 87.1762 56.2237 93.7408 44.2725 91.9567C44.0992 87.488 48.5853 80.8368 51.0621 77.1475C55.9725 69.9491 62.303 63.8308 69.6645 59.1686C70.2406 59.1137 70.8205 59.1137 71.3966 59.1686C72.7219 59.1596 74.0346 59.4262 75.2513 59.9515C76.468 60.4768 77.5623 61.2493 78.4646 62.22C79.3669 63.1907 80.0575 64.3384 80.4926 65.5902C80.9278 66.8421 81.0979 68.1707 80.9923 69.4918V69.4918Z" fill="url(#paint2_linear_1371:3553)"/>
<path d="M116.932 81.755C105.625 92.1228 90.6939 97.6285 75.3625 97.0838C74.4961 97.152 73.6253 97.0325 72.8093 96.7336C71.9933 96.4347 71.2513 95.9634 70.6339 95.3518C69.2483 93.4811 69.9238 90.9869 71.6386 88.4235C73.5018 85.7756 75.7028 83.3824 78.1858 81.3046C78.0472 81.9628 78.0299 82.4997 78.307 82.6556C79.0345 83.0193 81.8924 79.7284 82.2562 79.434C86.2901 76.0748 90.9855 73.6017 96.0375 72.1753C101.089 70.749 106.385 70.4012 111.58 71.1546C114.213 71.5703 117.123 72.523 118.231 74.9479C118.592 76.1018 118.662 77.3268 118.435 78.5143C118.208 79.7017 117.692 80.8149 116.932 81.755V81.755Z" fill="url(#paint3_linear_1371:3553)"/>
<path d="M102.296 114.491C101.145 115.153 99.9257 115.687 98.6589 116.085C89.1429 119.207 79.3265 121.326 69.3697 122.407C68.5512 122.608 67.7004 122.639 66.8694 122.499C66.0384 122.359 65.2447 122.05 64.5372 121.593C61.4368 118.925 64.5372 115.063 66.9968 112.932C67.3258 112.638 67.6549 112.378 67.9494 112.153C73.2655 108.1 79.2345 104.983 85.5991 102.938C88.0721 102.594 90.5827 102.624 93.047 103.025C94.7077 103.283 96.2983 103.877 97.7218 104.77C99.1453 105.664 100.372 106.838 101.326 108.221C102.464 110.101 102.813 112.355 102.296 114.491Z" fill="url(#paint4_linear_1371:3553)"/>
<path d="M43.6139 101.622C45.346 109.866 32.3727 115.184 26.4144 115.929C25.7486 116.094 25.0546 116.112 24.3813 115.98C23.708 115.848 23.0717 115.571 22.5173 115.167C22.1154 114.691 21.8145 114.139 21.6329 113.543C21.4512 112.948 21.3927 112.321 21.4607 111.702C21.5177 107.841 22.7237 104.085 24.9249 100.912C23.188 102.172 21.2234 103.084 19.1398 103.596C18.0946 103.839 17.0018 103.779 15.9895 103.423C14.9772 103.067 14.0873 102.431 13.4239 101.587C12.638 100.15 12.3575 98.4912 12.6272 96.8759C13.0533 92.0757 14.6663 87.4569 17.321 83.435C17.7194 82.8461 18.0659 82.2746 18.4296 81.703C20.1947 79.2827 22.3979 77.2147 24.9249 75.6061C26.8994 74.1338 29.5495 72.7308 31.6973 73.874C33.845 75.0172 33.9836 77.6845 33.9489 79.9536C33.8641 86.3089 32.8727 92.6195 31.0044 98.6946C33.1599 97.7954 35.5045 97.4443 37.8288 97.6727C39.0974 97.5805 40.3599 97.9207 41.4104 98.6378C42.4609 99.355 43.2376 100.407 43.6139 101.622V101.622Z" fill="url(#paint5_linear_1371:3553)"/>
<path d="M20.9923 203.935C24.1788 204.56 27.4115 204.919 30.6573 205.009C33.9655 205.148 37.2911 205.13 40.6686 205.148C44.0461 205.165 47.389 205.338 50.7493 205.304C57.4177 205.304 64.1035 205.009 70.8066 204.68L90.9332 203.571C97.619 203.156 104.287 202.619 110.921 201.839C114.23 201.458 117.555 200.991 120.863 200.506C124.095 200.085 127.291 199.425 130.424 198.531C133.407 197.725 136.202 196.342 138.652 194.461C139.74 193.551 140.67 192.469 141.406 191.256C142.088 189.968 142.572 188.584 142.843 187.151C143.359 183.969 143.58 180.745 143.501 177.521C143.501 175.789 143.501 174.057 143.692 172.325L144.021 167.285C145.996 140.489 147.399 113.694 144.801 87.0897C143.646 73.7527 141.948 60.4735 139.708 47.252C138.554 40.647 137.312 34.0767 135.984 27.5411C134.72 21.5827 134.339 15.0528 129.628 10.636C129.088 10.1294 128.508 9.66607 127.896 9.25038C127.601 9.04254 127.307 8.83468 126.995 8.64415C126.767 8.50111 126.53 8.37379 126.285 8.26309C125.038 7.86872 123.725 7.72738 122.422 7.84738C121.608 7.84738 120.69 7.84738 119.755 7.84738H117.243L112.203 7.67419L92.0764 7.15457C78.6586 6.87743 65.2409 6.76773 51.8231 6.82547C45.12 6.82547 38.4169 6.98136 31.7138 7.15457L21.5985 7.37974C19.8665 7.37974 18.273 7.37975 16.6448 7.51831L14.2372 7.67419C13.4578 7.67419 12.5052 7.83007 12.0202 7.93399C10.7936 8.20804 9.65241 8.77724 8.6956 9.59219C7.73879 10.4071 6.99529 11.4432 6.52956 12.6106C5.95052 13.8699 5.58188 15.2157 5.43835 16.5944C5.39442 17.298 5.39442 18.0038 5.43835 18.7075L5.55961 21.167C5.75014 24.458 6.20045 27.5757 6.72007 30.9532L8.22696 40.9127C12.2973 67.396 17.5975 93.966 18.7406 121.125C19.3672 134.71 18.6186 148.324 16.5062 161.759L13.4059 181.73C12.8514 184.969 12.4813 188.236 12.2973 191.516C12.1241 194.98 12.0722 197.804 13.6311 200.09C14.8955 202.169 17.9266 203.277 20.9923 203.935ZM8.27892 196.695C8.11322 194.916 8.08429 193.127 8.19233 191.343C8.35422 187.907 8.71276 184.484 9.26621 181.089L12.1934 161.153C14.1483 147.97 14.7634 134.623 14.0294 121.315C12.6784 94.6588 7.18775 68.3313 3.01347 41.6401L1.45462 31.6807C0.917677 28.4071 0.398038 24.8563 0.19019 21.4442L0.0515949 18.8634C-0.0171983 17.8888 -0.0171983 16.9107 0.0515949 15.9362C0.242153 13.9657 0.757179 12.0402 1.57582 10.2377C2.43817 8.35086 3.67578 6.65947 5.21318 5.26661C6.85686 3.85243 8.83746 2.886 10.9637 2.46067C12.0895 2.2355 12.8516 2.20084 13.7523 2.09692L16.3677 1.9237C18.0998 1.81978 19.8318 1.78515 21.5639 1.75051L31.6272 1.47337C38.365 1.26552 45.1027 1.09232 51.8405 1.04035C65.3333 0.884468 78.8088 1.04036 92.2669 1.42141L112.463 2.04496L117.503 2.21815L120.032 2.3221C120.759 2.3221 121.539 2.3221 122.405 2.3221C124.464 2.18216 126.53 2.47724 128.467 3.18813C128.995 3.42035 129.505 3.6925 129.991 4.00221C130.39 4.2447 130.788 4.52182 131.186 4.79895C131.955 5.36786 132.689 5.98089 133.386 6.63494C136.175 9.28501 139.015 13.0609 139.518 17.0274C139.916 20.2144 140.592 23.3494 141.25 26.4845C142.624 33.101 143.848 39.7464 144.922 46.4206C147.104 59.7576 148.75 73.1984 149.875 86.6566C152.387 113.677 150.69 140.836 148.542 167.614L148.178 172.654C148.039 174.299 147.988 175.858 147.97 177.556C148.007 181.038 147.729 184.516 147.139 187.948C146.769 189.829 146.109 191.64 145.182 193.318C144.174 194.983 142.892 196.464 141.388 197.7C138.492 199.925 135.183 201.555 131.654 202.498C128.313 203.424 124.909 204.108 121.47 204.541C118.109 204.992 114.784 205.442 111.389 205.806C104.669 206.533 97.9135 207.036 91.193 207.417L71.0144 208.404C64.294 208.75 57.5563 209.079 50.7666 209.114C47.4064 209.114 43.9249 208.993 40.6686 208.976C37.4123 208.958 33.9309 208.976 30.5187 208.889C27.0292 208.804 23.5529 208.428 20.1263 207.763C18.3349 207.382 16.5919 206.801 14.9301 206.031C14.0197 205.62 13.1644 205.096 12.384 204.472C11.5515 203.819 10.8368 203.028 10.2708 202.134C9.20224 200.496 8.52099 198.636 8.27892 196.695V196.695Z" fill="url(#paint6_linear_1371:3553)"/>
<path d="M14.0469 8.40161C14.2894 11.2595 14.5145 14.1001 14.757 16.9581C15.2074 22.3275 15.6635 27.7084 16.1254 33.1009L17.4764 49.2266L18.8274 65.3695C20.7153 87.8864 22.8111 110.403 25.1667 132.695C25.8595 139.26 26.7083 145.807 27.9554 152.285C28.5365 156.03 29.7056 159.66 31.4195 163.041C35.6631 170.679 45.4146 171.996 53.2436 173.191C59.3058 174.092 65.368 174.455 71.5168 175.079C96.6615 177.654 122.006 177.596 147.139 174.906C159.828 173.551 172.437 171.534 184.915 168.861C191.151 167.51 197.352 166.02 203.5 164.34C207.328 163.318 211.208 162.348 214.932 161.032C216.335 160.529 218.396 159.733 217.859 157.81C217.859 157.931 210.931 158.867 210.325 158.919C207.744 159.129 205.152 159.176 202.565 159.057C201.283 159.057 199.984 158.884 198.702 158.728C197.665 158.522 196.606 158.452 195.55 158.52C193.247 158.756 190.925 158.756 188.622 158.52C180.36 158.209 172.098 157.983 163.853 157.724C145.84 157.187 127.601 155.264 110.835 148.63C96.6476 142.88 83.9646 133.958 73.7571 122.55C63.5496 111.141 56.0882 97.5483 51.9445 82.8114C47.4931 66.5472 38.8674 52.1018 32.3029 36.5651C29.2383 28.807 25.6145 21.2815 21.4601 14.0482C19.8184 11.2726 17.1589 9.24685 14.0469 8.40161V8.40161Z" fill="url(#paint7_linear_1371:3553)"/>
<path d="M14.8789 7.34506C15.641 19.6947 16.8015 32.8065 17.8407 45.5373C18.1871 49.5903 18.5162 53.6087 18.7933 57.5405C20.3522 78.3254 22.2575 99.1102 24.8902 119.895C25.5369 124.953 26.2297 129.993 26.9687 135.016C28.0945 142.637 28.3197 151.852 31.1603 159.057C34.0009 166.263 42.3841 167.96 49.1565 170.143C56.3087 172.494 63.7281 173.937 71.2403 174.438C120.848 177.563 170.62 172.024 218.327 158.07C205.608 157.689 192.929 156.444 180.378 154.346C171.579 152.943 162.728 151.35 154.05 149.375C138.808 145.911 137.838 131.569 137.024 118.371C137.024 117.972 137.024 117.591 136.938 117.21C136.418 108.741 136.487 100.253 136.279 91.7663C135.449 66.6253 132.64 41.5888 127.879 16.8888C127.29 13.7018 126.684 10.5148 126.06 7.37971C89.6175 2.859 51.4601 4.17537 14.8789 7.34506Z" fill="url(#paint8_linear_1371:3553)"/>
<g style="mix-blend-mode:screen">
<path d="M17.8398 45.5373C18.1863 49.5904 18.5153 53.6088 18.7925 57.5406C20.3513 78.3255 22.2566 99.1103 24.8894 119.895C25.8821 116.534 28.1263 113.683 31.1595 111.928C34.3423 110.57 37.809 110.011 41.2574 110.3L118.802 110.507C123.063 110.507 127.462 110.507 131.29 112.534C133.755 113.846 135.756 115.883 137.023 118.371C137.023 117.973 137.023 117.592 136.937 117.211C136.417 108.741 136.487 100.254 136.279 91.7664C135.448 66.6254 132.639 41.5888 127.878 16.8888C127.774 16.5424 127.653 16.196 127.532 15.8496C128.887 23.2777 129.548 30.8159 129.506 38.3666C129.429 45.9703 127.234 53.402 123.167 59.8269C119.287 65.5255 113.606 69.7344 107.803 73.4583C93.0315 83.086 76.8006 90.2627 59.7386 94.7109C54.6809 95.9926 49.3461 96.9972 44.3924 95.3864C38.4687 93.4118 34.3811 88.0597 31.1767 82.7249C24.3654 71.3095 19.8359 58.6798 17.8398 45.5373V45.5373Z" fill="#114006"/>
</g>
<path d="M86.7241 226.366C89.6738 226.306 92.6175 226.075 95.5404 225.673C97.0299 225.482 98.4329 225.309 99.6974 225.222C120.829 223.733 140.332 222.07 159.35 220.148C171.924 218.883 184.569 217.394 197.455 215.835C198.754 215.679 200.14 215.592 201.543 215.488C208.003 215.021 215.399 214.484 220.163 208.56C226.45 200.939 225.134 188.918 224.077 179.253C223.783 176.69 223.523 174.282 223.419 172.117C223.211 168.445 223.038 164.756 222.865 161.067C222.241 148.163 221.6 134.826 220.284 121.697L216.04 122.233C217.322 135.224 217.963 148.492 218.586 161.326C218.76 165.016 218.933 168.705 219.141 172.412C219.262 174.715 219.522 177.209 219.816 179.842C220.821 188.97 221.947 199.311 217.027 205.286C213.355 209.738 207.207 210.188 201.283 210.621C199.793 210.725 198.356 210.829 197.005 210.985C184.084 212.526 171.457 214.016 158.899 215.298C139.847 217.203 120.447 218.866 99.3509 220.355C98.0519 220.459 96.5796 220.633 95.0034 220.823C88.8892 221.551 81.2681 222.469 77.6828 218.866C76.8788 217.935 76.2674 216.854 75.8839 215.686C75.5004 214.518 75.3524 213.285 75.4484 212.059C75.3618 203.97 74.617 195.691 73.8895 187.706C73.5604 184.155 73.2487 180.639 72.9889 177.123L69.8192 134.981L65.541 135.397L68.7107 177.539C68.9705 181.003 69.2996 184.623 69.6287 188.191C70.3388 196.072 71.0836 204.23 71.1529 212.111C71.0468 214.001 71.3184 215.894 71.9518 217.678C72.5853 219.462 73.5679 221.103 74.8422 222.503C77.908 225.534 82.2381 226.366 86.7241 226.366Z" fill="url(#paint9_linear_1371:3553)"/>
<path d="M87.1916 223.542C83.3983 223.542 79.1201 223.421 76.5393 220.65C74.8334 218.376 73.877 215.628 73.8027 212.786C72.0706 199.744 70.8928 186.389 70.096 173.174C69.8016 168.359 69.4032 163.353 68.9529 158.469C68.5372 154.011 68.2254 149.548 68.0176 145.08C68.2774 145.08 68.4159 145.339 68.6931 145.287C68.8143 147.106 68.9529 148.942 69.0915 150.761C69.4898 156.13 69.9402 161.5 70.4078 166.869C70.633 169.554 70.8582 172.238 71.1007 174.923C71.3431 177.608 71.4644 180.119 71.6549 182.631C72.0591 187.954 72.5902 193.26 73.2484 198.549C73.9066 203.745 74.7206 209.062 75.6213 214.276C75.7925 216.085 76.3858 217.829 77.3534 219.368C77.5555 219.642 77.7816 219.897 78.0289 220.13C79.5018 221.364 81.3129 222.125 83.2251 222.313C84.2177 222.46 85.2184 222.547 86.2216 222.572C87.3301 222.572 88.4213 222.867 89.5472 222.902C92.7502 222.948 95.9522 222.751 99.1255 222.313C100.119 222.279 101.106 222.139 102.07 221.897C102.907 221.721 103.765 221.674 104.616 221.758C109.812 221.758 114.853 221.585 119.945 221.152C125.037 220.719 130.147 220.13 135.222 219.42C140.297 218.71 145.406 217.948 150.481 217.168C155.556 216.389 160.648 215.644 165.758 215.003C170.868 214.362 175.925 213.825 181.035 213.496C183.581 213.34 186.145 213.237 188.691 213.202C189.972 213.202 191.254 213.202 192.536 213.202H194.458C195.068 213.279 195.685 213.279 196.294 213.202C194.525 213.685 192.706 213.964 190.873 214.033C189.956 214.085 189.036 214.085 188.119 214.033C187.739 213.99 187.356 213.99 186.976 214.033C184.828 214.293 182.663 214.64 180.498 214.934L164.598 217.064C159.28 217.757 153.98 218.415 148.663 219.039C143.345 219.663 138.028 220.234 132.71 220.771C127.393 221.308 122.075 221.776 116.741 222.174C111.406 222.572 106.071 222.884 100.736 223.127C96.2676 223.317 91.7296 223.542 87.1916 223.542Z" fill="#AEA9C9"/>
<path d="M210.065 210.621C206.064 211.747 201.716 212.145 197.75 213.098C202.295 213.11 206.819 212.487 211.191 211.245C216.162 209.634 221.046 206.308 222.9 201.233C223.888 197.815 224.153 194.229 223.679 190.702C222.328 169.917 220.983 149.104 219.643 128.261C218.829 128.261 218.725 128.14 217.911 128.261C219.193 141.529 220.267 154.831 220.89 168.099C221.15 173.468 221.912 178.803 222.207 184.172C222.349 189.581 222.048 194.991 221.306 200.35C221.166 202.051 220.589 203.686 219.629 205.097C218.67 206.509 217.362 207.648 215.833 208.404C215.469 208.577 215.105 208.612 214.742 208.751C214.378 208.889 213.754 209.253 213.252 209.478C212.217 209.931 211.152 210.312 210.065 210.621V210.621Z" fill="#AEA9C9"/>
<path d="M15.5702 8.95599C15.2558 5.82957 14.1205 2.84183 12.2793 0.295594C49.4148 1.24824 88.317 -0.709012 125.608 0.295594C128.553 2.73783 127.912 5.61308 126.267 8.95599C93.0975 4.74704 52.4113 6.66965 15.5702 8.95599Z" fill="url(#paint10_linear_1371:3553)"/>
<path d="M11.6731 7.81261C12.0797 8.33907 12.5858 8.78045 13.1627 9.11166C13.4516 9.27554 13.7816 9.35286 14.1133 9.33443C14.4449 9.316 14.7643 9.20261 15.0333 9.00774C15.2973 8.68292 15.4741 8.29608 15.5468 7.88387C15.6195 7.47165 15.5859 7.04771 15.449 6.65214C15.1291 5.09208 14.6593 3.56655 14.046 2.09682C13.8716 1.6007 13.6139 1.13796 13.2839 0.728503C13.1226 0.524373 12.9174 0.359192 12.6835 0.245247C12.4496 0.131302 12.1931 0.0715119 11.9329 0.0703125C11.5986 0.103174 11.2796 0.227125 11.0109 0.428691C10.7421 0.630258 10.5338 0.901719 10.4087 1.21348C10.1667 1.8436 10.0434 2.51304 10.0449 3.18802C10.7199 2.75982 11.4845 2.49308 12.2793 2.40858C12.9735 4.0468 13.207 5.8435 12.9548 7.60475C12.4352 7.63939 12.1927 7.74333 11.6731 7.81261Z" fill="url(#paint11_linear_1371:3553)"/>
<path d="M215.503 163.613C217.019 164.218 218.664 164.426 220.283 164.217C221.901 164.008 223.44 163.388 224.752 162.418C224.023 159.117 223.923 155.709 224.458 152.372C221.195 152.434 218.087 153.77 215.797 156.096C215.465 158.587 215.366 161.103 215.503 163.613V163.613Z" fill="url(#paint12_linear_1371:3553)"/>
<path d="M75.3627 178.145C74.0352 179.23 72.4787 179.999 70.8105 180.395C69.1423 180.791 67.406 180.803 65.7324 180.431C66.457 177.228 66.5395 173.914 65.9749 170.679C67.4158 170.107 68.9612 169.845 70.5103 169.91C72.0594 169.976 73.5771 170.368 74.9643 171.06C75.3362 173.402 75.4697 175.776 75.3627 178.145V178.145Z" fill="url(#paint13_linear_1371:3553)"/>
<path d="M61.3495 74.7573C44.8083 66.4433 31.506 52.708 25.3398 38.0374C34.3985 51.5995 44.3233 74.8149 61.3495 80.8772C63.302 81.5645 70.5567 70.2724 72.5733 70.7389C77.0889 72.0258 81.8582 72.139 86.4298 71.0679C87.2627 70.7918 88.0504 70.395 88.7681 69.8901C90.7426 68.7297 93.2368 67.9676 95.298 66.8937C97.4705 65.7701 99.5756 64.5209 101.603 63.1524C109.704 57.8801 116.162 50.4383 120.24 41.6747C116.083 58.0428 102.59 70.8428 83.1908 75.3808C91.9597 82.6755 102.658 87.2667 113.987 88.5965C95.6565 87.7803 77.7111 83.0622 61.3495 74.7573Z" fill="#FFE88A"/>
<path d="M11.3965 122.164C14.5488 122.164 17.9091 120.675 20.8882 121.662C41.0148 128.417 62.2499 133.925 83.485 133.873C74.0806 137.572 64.1341 139.708 54.0399 140.195C38.6233 137.56 24.0271 131.388 11.3965 122.164V122.164Z" fill="url(#paint14_linear_1371:3553)"/>
<path d="M142.115 110.698C146.082 110.611 150.36 109.087 154.118 110.04C179.424 116.483 206.184 121.644 232.997 121.246C221.097 125.091 217.841 126.927 205.128 127.586C188.171 125.663 157.548 119.93 142.115 110.698Z" fill="url(#paint15_linear_1371:3553)"/>
<path d="M127.999 4.74707C132.407 7.31178 135.787 11.3282 137.56 16.1094C139.285 20.8534 140.447 25.783 141.024 30.7974C143.276 44.8272 150.793 87.7132 149.979 105.969C149.737 106.316 148.992 105.969 148.68 105.709C148.195 83.1925 142.289 46.3687 140.106 33.3435C139.453 28.258 138.292 23.2505 136.642 18.3958C134.942 13.5139 131.824 9.25018 127.688 6.15004C127.826 5.73435 127.843 5.16277 127.999 4.74707Z" fill="#AEA9C9"/>
<path d="M22.3603 2.68584C56.8112 6.39246 92.0068 -1.74825 126.111 4.41791C126.223 3.71738 126.116 2.99958 125.806 2.36147C125.497 1.72337 124.998 1.19572 124.379 0.849854C88.9064 1.00574 52.7755 1.35215 17.3027 1.52536C18.9585 2.03319 20.6488 2.42102 22.3603 2.68584V2.68584Z" fill="#FFE88A"/>
<path d="M11.2067 5.78623C9.75242 6.16707 8.42234 6.91991 7.34725 7.97069C6.27217 9.02147 5.48915 10.334 5.07516 11.7792C4.27775 14.6695 4.04832 17.6871 4.39963 20.6647C5.10978 32.3216 6.9458 43.8745 8.79913 55.4101L17.269 108.654C16.9572 108.498 16.1605 108.654 15.8487 108.481C10.791 79.7977 6.06245 50.9413 3.72414 21.8772C3.17689 18.1452 3.44875 14.3389 4.52089 10.7226C5.83727 7.25847 9.1109 4.12343 12.8522 4.262C12.6617 4.60841 11.4838 5.45713 11.2067 5.78623Z" fill="#AEA9C9"/>
<defs>
<linearGradient id="paint0_linear_1371:3553" x1="15131.7" y1="5407.86" x2="14781.2" y2="6844.11" gradientUnits="userSpaceOnUse">
<stop stop-color="#194978"/>
<stop offset="1" stop-color="#030840"/>
</linearGradient>
<linearGradient id="paint1_linear_1371:3553" x1="31812.3" y1="13035.4" x2="30839.8" y2="16341.2" gradientUnits="userSpaceOnUse">
<stop stop-color="#194978"/>
<stop offset="1" stop-color="#030840"/>
</linearGradient>
<linearGradient id="paint2_linear_1371:3553" x1="38291.1" y1="7820.57" x2="37969" y2="10073.2" gradientUnits="userSpaceOnUse">
<stop stop-color="#194978"/>
<stop offset="1" stop-color="#030840"/>
</linearGradient>
<linearGradient id="paint3_linear_1371:3553" x1="51842.2" y1="5676.68" x2="51707.5" y2="7499.47" gradientUnits="userSpaceOnUse">
<stop stop-color="#194978"/>
<stop offset="1" stop-color="#030840"/>
</linearGradient>
<linearGradient id="paint4_linear_1371:3553" x1="41477.5" y1="4236.54" x2="41385.2" y2="5613.6" gradientUnits="userSpaceOnUse">
<stop stop-color="#194978"/>
<stop offset="1" stop-color="#030840"/>
</linearGradient>
<linearGradient id="paint5_linear_1371:3553" x1="32048.7" y1="10555.8" x2="30785.7" y2="13028.8" gradientUnits="userSpaceOnUse">
<stop stop-color="#194978"/>
<stop offset="1" stop-color="#030840"/>
</linearGradient>
<linearGradient id="paint6_linear_1371:3553" x1="44.6004" y1="-13.6476" x2="85.9277" y2="156.511" gradientUnits="userSpaceOnUse">
<stop stop-color="#83779B"/>
<stop offset="0.35" stop-color="#786A8E"/>
<stop offset="1" stop-color="#5A4A6B"/>
</linearGradient>
<linearGradient id="paint7_linear_1371:3553" x1="96.857" y1="99.4913" x2="73.5087" y2="96.2523" gradientUnits="userSpaceOnUse">
<stop stop-color="#FFCB2E"/>
<stop offset="1" stop-color="#992518"/>
</linearGradient>
<linearGradient id="paint8_linear_1371:3553" x1="61421.7" y1="40447.5" x2="62470" y2="60272.8" gradientUnits="userSpaceOnUse">
<stop stop-color="#FFCB2E"/>
<stop offset="1" stop-color="#992518"/>
</linearGradient>
<linearGradient id="paint9_linear_1371:3553" x1="45640.4" y1="30481" x2="46007.2" y2="41988" gradientUnits="userSpaceOnUse">
<stop stop-color="#83779B"/>
<stop offset="0.35" stop-color="#786A8E"/>
<stop offset="1" stop-color="#5A4A6B"/>
</linearGradient>
<linearGradient id="paint10_linear_1371:3553" x1="38093.3" y1="1870.55" x2="38093.5" y2="2006.76" gradientUnits="userSpaceOnUse">
<stop stop-color="#FFCB2E"/>
<stop offset="1" stop-color="#992518"/>
</linearGradient>
<linearGradient id="paint11_linear_1371:3553" x1="2021.64" y1="1928.4" x2="2021.64" y2="1962.68" gradientUnits="userSpaceOnUse">
<stop stop-color="#FFCB2E"/>
<stop offset="1" stop-color="#992518"/>
</linearGradient>
<linearGradient id="paint12_linear_1371:3553" x1="2464.23" y1="3742.05" x2="2533.61" y2="3804.15" gradientUnits="userSpaceOnUse">
<stop stop-color="#FFCB2E"/>
<stop offset="1" stop-color="#992518"/>
</linearGradient>
<linearGradient id="paint13_linear_1371:3553" x1="4417.33" y1="2097.39" x2="4476.48" y2="2144.45" gradientUnits="userSpaceOnUse">
<stop stop-color="#FFCB2E"/>
<stop offset="1" stop-color="#992518"/>
</linearGradient>
<linearGradient id="paint14_linear_1371:3553" x1="24718.3" y1="5389.76" x2="24735" y2="6276.6" gradientUnits="userSpaceOnUse">
<stop stop-color="#FFCB2E"/>
<stop offset="1" stop-color="#992518"/>
</linearGradient>
<linearGradient id="paint15_linear_1371:3553" x1="-30985.5" y1="5472.65" x2="-30981.8" y2="6266.5" gradientUnits="userSpaceOnUse">
<stop stop-color="#FFCB2E"/>
<stop offset="1" stop-color="#992518"/>
</linearGradient>
</defs>
</svg>
